<svg xmlns="http://www.w3.org/2000/svg" width="3184" height="3797" fill="none" viewBox="0 0 3184 3797">
  <path fill="#53676C" d="M1225.88 11.542c-20.65 11.542-51.02 12.757-66.21 3.037-3.65-2.43-9.11-.607-11.54 3.038-3.04 5.467-8.51 5.467-21.27-.608-13.36-6.074-17.61-6.074-20.04 0-1.22 3.645-6.68 7.29-12.76 7.29-5.47 0-13.97 3.645-17.62 7.29-6.07 6.075-10.32 6.075-19.43 0-16.41-9.72-33.42-9.112-115.425 4.252C872.94 47.383 832.24 61.355 832.24 74.112c0 3.037-4.253 4.86-9.112 3.037-4.86-2.43-10.328-1.215-12.15 1.823-2.43 3.645-7.897 6.075-12.757 6.075-4.86 0-15.794 6.682-24.299 15.186-8.504 8.505-18.224 15.187-22.476 15.795-15.187 1.215-37.664-1.823-42.524-6.075-2.429-2.43-20.046-2.43-39.485 0-38.271 5.467-60.748-3.645-66.215-25.514-3.645-12.15-12.15-14.58-23.692-6.682-3.644 2.43-13.364 19.439-21.261 37.663-20.654 49.206-34.626 65.607-72.29 83.224-36.448 17.617-72.897 49.813-72.897 65 0 5.467-6.074 18.832-13.364 28.551-10.935 14.58-13.972 26.729-13.972 57.103 0 23.084-3.037 41.916-7.29 46.168-4.252 4.252-7.897 10.934-7.897 14.579 0 3.038-9.719 14.58-21.869 24.299-12.149 10.327-27.336 23.084-34.018 29.159-13.972 12.757-48.598 28.551-62.57 28.551-13.365 0-21.869 9.72-37.664 43.738-7.897 16.402-16.401 29.159-18.831 29.159-16.402 0-49.813 49.813-49.813 74.719 0 14.58-15.795 38.879-40.093 61.963-7.29 6.682-19.44 28.551-27.337 48.598-7.29 20.046-18.224 40.093-24.299 43.738-5.467 4.252-12.15 17.617-14.58 30.374-1.822 12.757-5.466 29.766-7.289 37.663-2.43 10.327-1.215 13.364 4.86 11.542 4.252-1.215 14.58 4.252 21.869 12.15 13.972 15.186 18.224 31.588 8.505 31.588-10.327 0-13.365 30.374-3.645 44.346 12.757 18.224 11.542 70.468-3.038 107.518-6.682 17.01-12.15 37.67-12.15 46.78 0 18.22-29.765 68.64-40.7 68.64-4.252 0-7.897 2.43-7.897 6.08 0 3.04 4.252 6.07 9.112 6.07 5.467 0 12.15 7.29 15.794 16.41 3.645 9.72 9.113 21.87 12.15 27.33 3.037 6.08 3.037 11.54-.607 13.97-3.645 1.83-6.075 16.41-6.075 32.2.607 23.69 3.645 31.59 18.224 46.17 20.047 19.44 23.691 29.76 8.505 23.69-7.898-3.04-9.113-1.21-5.468 10.93 6.683 21.27 10.935 23.7 24.3 13.37 8.504-6.68 9.719-10.33 4.86-12.15-9.113-3.04-10.936-20.05-2.43-20.05 3.037 0 8.504 7.9 12.149 18.23 3.037 9.72 9.112 18.22 12.149 18.22 3.645 0 6.682 4.25 6.682 9.11 0 4.86 4.253 9.12 9.112 9.12 4.86 0 9.113 1.82 9.113 4.86 0 2.43 13.971 18.83 30.373 37.05 19.439 21.26 30.374 38.27 30.981 48.6.608 25.51 4.253 38.88 12.15 43.13 3.645 2.43 4.86 7.9 3.037 11.54-2.43 3.65-1.822 6.68 1.823 6.68s4.86 3.65 3.645 7.29c-1.823 4.86 7.289 12.15 22.476 18.84 25.514 10.32 46.776 27.33 119.673 92.94 73.504 66.21 91.728 71.68 147.008 44.95 58.318-27.94 150.046-30.37 201.074-5.47 6.683 3.04 17.01 1.83 27.337-3.64 55.887-27.94 97.803-45.56 109.952-45.56 7.29 0 15.187-4.25 17.01-8.51 4.252-11.54 53.457-21.86 109.953-23.08 35.841-1.21 45.558.61 56.498 10.33 15.18 13.97 36.45 52.85 36.45 66.21 0 4.86 6.07 15.19 13.97 21.87 10.32 10.33 18.22 12.15 34.62 9.11 11.55-1.82 32.2-4.86 45.56-6.07 13.37-1.82 32.81-3.65 43.74-4.86 15.8-2.43 20.05 0 22.48 11.54 1.82 7.29 9.11 15.8 15.79 17.62 6.68 1.82 12.15 7.29 12.15 11.54 0 4.86 3.65 11.54 8.51 15.19 11.54 9.72 6.07 68.64-9.12 99.02-7.89 15.18-9.11 23.08-4.25 24.29 4.25 1.83 5.47 6.69 1.82 14.58-2.43 6.08-6.07 23.69-7.28 38.88-3.04 26.12-10.94 38.88-21.27 32.81-7.89-4.86-5.46 12.14 3.65 31.58 4.86 9.72 13.36 28.56 19.44 41.92 6.07 13.36 21.26 34.02 32.8 45.56 43.13 41.92 97.2 122.1 97.2 144.58 0 7.29 3.03 14.58 6.07 16.4 3.65 2.43 4.86 6.08 3.04 9.11-1.82 3.04 3.04 20.05 11.54 37.67 7.9 17.61 19.44 46.77 26.12 64.39 10.94 31.59 10.94 32.8-.6 40.7-10.94 8.5-10.94 10.33 8.5 58.92 13.36 34.02 19.44 59.54 18.83 77.76-1.21 31.59-10.93 60.75-21.26 60.75-11.54.61-39.49 51.03-43.74 79.58-4.86 36.45-20.65 90.51-25.51 90.51-7.9 0-4.25 111.78 4.25 131.82 4.25 10.94 10.33 20.05 12.15 20.05 6.07 0 32.2 54.07 58.32 118.46 5.46 13.36 17.01 36.45 26.12 51.63 12.76 21.87 16.4 35.84 17.01 69.86.61 23.09 3.64 55.89 7.29 72.9 3.64 16.4 10.93 54.67 16.4 84.44 11.54 62.57 20.05 82.01 51.63 116.63 14.58 15.8 27.34 39.49 36.45 66.83 14.58 44.95 34.63 88.69 43.13 94.15 3.04 1.83 7.29 15.8 9.12 31.59 3.64 23.69 2.43 28.55-5.47 28.55-4.86 0-10.33 3.65-12.15 7.29-2.43 8.51 7.29 29.16 16.4 35.84 3.04 2.43 4.25 10.94 2.43 19.44-4.25 20.66 4.86 35.24 13.37 22.48 3.64-6.07 6.07-6.68 6.07-1.82 0 4.25 3.64 7.9 7.9 7.9 4.86 0 13.36 5.46 19.44 12.14 13.36 15.19 25.51 15.19 40.7 1.83 7.29-6.69 20.65-10.33 36.45-9.72 13.97.6 30.98-3.04 39.48-8.51 17.62-11.54 61.36-14.58 94.77-6.68 15.79 3.65 26.12 3.65 31.59-1.21 4.86-3.65 14.58-6.08 22.47-4.86 7.9 1.21 13.37-1.22 12.76-4.86-.61-4.26 10.33-8.51 24.91-9.72 32.19-3.65 93.55-43.74 128.17-82.62 6.69-7.9 22.48-24.3 35.84-36.45 22.48-21.87 64.4-81.4 64.4-91.73 0-7.89 40.7-49.2 48.59-49.2 6.69 0 17.62-22.48 32.81-69.86 10.93-34.02 13.36-78.97 3.64-72.9-10.93 6.68-6.07-7.9 7.9-24.3 7.29-8.5 32.8-23.08 55.89-32.8 30.98-12.15 46.17-22.48 56.49-37.06 8.51-12.75 11.54-22.47 7.9-26.12-3.65-3.64-3.65-11.54.61-21.87 7.89-19.44 6.68-68.04-1.22-75.93-3.64-3.65-6.07-9.11-6.07-12.15 0-3.65 3.03-2.43 6.07 2.43 4.86 7.29 6.08 6.68 6.08-4.86 0-7.29-3.04-12.76-7.29-12.15-4.26 1.21-7.29-6.68-7.9-19.44-.61-11.54-4.25-21.87-8.5-23.08-3.65-1.22-6.69-8.51-6.69-15.8 0-15.79 54.68-76.54 69.26-76.54 5.46 0 9.71-2.43 9.71-4.86s4.86-11.54 10.94-19.44c21.87-29.77 44.34-47.38 78.36-61.35 19.44-7.29 36.45-15.8 38.27-17.62 1.83-2.43 7.29-6.68 12.76-9.72 15.8-8.51 56.5-63.79 65-88.69 6.08-17.62 6.08-28.55 1.22-48.6-4.26-14.58-6.69-60.14-6.08-105.09 1.82-101.45 2.43-97.2-13.97-104.49-11.54-5.47-17.01-15.79-24.3-48.6-13.36-52.85-12.76-60.74 1.82-64.39 6.69-1.82 12.15-6.68 12.15-10.33 0-4.25-4.25-6.07-9.11-3.64-12.15 4.25-19.44-12.76-10.93-26.12 4.86-7.9 2.43-15.19-10.94-31.59-9.72-10.94-17.62-24.91-17.62-29.77 0-12.75 20.05-69.25 26.13-73.5 6.07-4.25 34.01-68.65 38.87-89.3 1.83-7.29 9.12-16.4 15.8-20.05 18.83-10.32 50.42-44.34 62.57-66.82 26.12-51.63 108.13-139.72 157.94-171.31 32.81-20.65 129.39-126.35 130-142.15 0-2.43 9.72-20.04 21.26-38.27 11.54-18.22 21.26-37.66 21.26-43.73 0-12.15 37.06-91.73 44.35-94.77 2.43-1.22 4.25-4.86 4.25-8.51 0-3.03 6.68-19.43 15.19-36.44 8.5-16.41 15.19-39.49 15.19-51.64 0-15.79 3.03-21.87 12.15-24.3 12.75-3.64 16.4-11.54 6.07-15.18-5.47-1.83-8.5-34.02-4.86-55.89 3.04-17.01-22.48-24.3-35.84-10.33-13.37 13.37-65.61 31.59-78.36 26.73-4.86-1.82-15.8 0-23.7 4.25-7.89 4.25-20.65 6.08-27.94 4.25-7.9-2.43-19.44 1.22-29.77 9.12-12.15 8.5-23.08 11.54-37.05 9.72-13.37-1.83-26.73.6-38.88 7.89-31.59 19.44-54.67 11.55-78.97-26.73-6.08-9.11-17.01-18.22-25.52-20.04l-14.58-3.65 13.98-7.29c23.08-11.54 20.65-29.16-8.51-59.53-14.58-15.19-30.37-33.41-35.23-40.7-4.86-6.68-11.54-12.76-15.19-12.76-3.04 0-10.93-8.5-16.4-18.22-6.08-10.33-15.19-20.05-21.26-22.48-6.08-2.43-14.58-7.9-18.83-12.15-4.26-3.64-11.55-6.07-15.8-4.25-5.47 1.82-9.11-2.43-10.93-12.15-2.43-10.93-.61-15.79 5.46-15.79 7.29 0 7.29-1.22-.6-9.12-11.54-12.15-13.97-11.54-18.23 4.26-3.64 13.97-4.25 13.97-12.75 1.82-5.47-6.68-12.15-23.09-15.19-36.45-17.01-69.86-25.51-87.48-55.28-110.56-34.02-26.729-42.52-46.168-44.35-105.093-1.21-23.084-5.46-46.168-9.11-51.028-4.25-5.467-8.5-16.401-9.11-24.906 0-8.505-1.82-15.187-3.65-15.187-1.82 0-14.58-10.327-29.15-23.084-28.56-25.514-45.57-68.037-26.73-68.037 6.68 0 4.86-4.252-6.69-14.579-8.5-7.898-23.08-30.374-33.41-49.813-9.72-20.047-23.69-46.168-30.98-58.925-6.68-12.757-12.75-26.122-12.75-30.374 0-4.252-4.86-14.579-10.33-22.477-6.08-8.504-11.54-20.046-12.15-26.121-1.22-6.682-11.54-22.477-23.09-36.448-11.54-13.365-21.26-30.982-21.26-38.271 0-7.897-2.43-15.187-5.46-17.617-3.65-1.822-7.9-22.477-10.33-45.561-1.82-23.084-7.29-46.775-11.54-52.85-15.8-21.261-88.09-13.972-114.82 11.542-7.29 6.682-17.61 10.327-24.9 8.505-6.68-1.215-24.3-6.075-39.49-9.112-15.19-3.645-32.8-9.112-39.48-12.15-21.87-9.719-62.57-17.617-77.76-14.579-11.54 2.43-16.4 0-19.44-9.72-3.04-9.719-9.11-12.757-23.08-12.757-32.81 0-63.18-11.542-66.83-24.299-1.82-7.289-8.5-12.149-15.18-12.149-7.29 0-14.58-3.038-16.4-6.075-9.12-14.579-66.83-1.215-94.16 21.869-18.83 16.402-24.3 43.738-12.76 62.57 9.72 15.794-14.58 48.598-36.45 49.205-4.86 0-20.05-7.897-33.41-17.009-24.91-18.224-63.18-31.589-88.08-31.589-21.27 0-40.1-15.186-44.96-37.055-3.03-12.15-9.72-20.655-20.04-24.907-9.12-3.645-24.3-10.327-34.02-15.794-10.94-5.468-31.59-9.112-49.81-8.505-20.05.608-40.1-3.645-56.5-10.934-24.3-12.15-40.7-30.982-32.8-38.879 1.82-1.822-.61-3.645-6.08-3.645s-10.33 2.43-10.33 6.075c0 10.327-17.61 6.682-24.29-5.467-4.86-9.72-2.43-14.58 12.15-27.336 10.32-8.505 22.47-13.972 27.33-12.15 4.86 2.43 9.11.608 9.11-3.645 0-3.645-3.03-4.86-6.07-3.037-4.25 2.43-4.86-4.252-2.43-20.047 3.04-20.654 1.82-25.514-9.11-30.981-15.19-8.505-16.4-21.87-3.04-35.233 4.86-5.468 7.9-13.365 6.07-18.225-1.82-4.86-.6-6.682 2.43-4.86 3.65 1.823 6.08 1.215 6.08-1.822 0-11.542-8.51-12.757-19.44-3.037-10.93 9.72-11.54 9.72-14.58-2.43C1281.16 9.72 1266.58.607 1251.4 0c-1.83 0-13.37 5.467-25.52 11.542ZM2384.94 1973.08c4.86 6.68 5.47 12.75 1.22 17.61-3.04 4.26-4.25 9.72-2.43 12.76 3.64 6.68-9.11 37.66-15.8 37.66-3.03 0-4.86 3.04-4.86 6.69 0 4.25-4.86 10.93-10.32 15.18-10.33 7.9-10.33 9.11 0 17.01 15.18 12.15 6.07 15.8-26.12 9.72-16.41-3.04-30.38-2.43-34.63.61-11.54 9.72-14.58-3.65-10.93-47.38 6.07-65 6.68-66.83 31.58-74.72 12.76-4.26 25.52-9.72 28.56-12.15 6.68-6.69 34.01 3.64 43.73 17.01Zm-210.18 233.27c0 9.11 3.04 18.22 6.68 20.04 3.64 2.43 4.86 8.51 3.04 13.37-1.83 4.86-.61 14.58 3.03 21.87 5.47 9.72 5.47 13.36 0 15.18-12.14 4.26-7.29 25.52 7.9 30.98 14.58 6.08 21.87 18.23 21.87 37.67 0 6.68 6.68 25.51 15.19 41.91 18.83 37.06 18.83 37.67 0 29.16-9.72-4.25-14.58-10.32-12.15-15.79 1.82-4.25-1.22-13.97-6.08-21.26-4.86-7.29-9.11-17.01-9.11-21.26 0-4.86-7.9-18.23-18.22-29.77-9.72-10.94-18.83-24.91-19.44-30.98 0-5.47-1.22-18.83-2.43-28.55-1.22-10.33-3.04-40.1-4.25-66.83-1.83-43.73-1.22-46.77 5.46-30.37 4.26 9.72 7.9 25.51 8.51 34.63Zm218.69 278.22c3.64 6.68 7.29 24.91 8.5 39.49.61 15.18 4.86 30.98 8.51 34.62 9.11 9.11 9.72 33.41 1.21 38.27-8.5 5.47-3.64 89.91 5.47 92.95 3.64 1.21 6.68 4.86 6.68 7.89 0 3.65-2.43 4.26-6.07 2.43-3.04-1.82-6.08-.6-6.08 2.43 0 3.65-3.03 6.69-6.68 6.69-3.64 0-4.86-5.47-2.43-12.15 2.43-7.29 1.22-15.8-1.82-20.05-6.08-7.9-15.19-54.67-13.97-74.11 4.25-72.29 3.03-92.95-3.65-106.31-4.25-8.51-7.9-17.01-7.9-20.05 0-9.11 12.15-3.64 18.23 7.9Zm674.3 122.71c-4.86 7.9-9.11 23.08-10.32 34.62-1.83 25.52-5.47 29.16-20.05 20.05-9.72-6.07-12.15-6.07-12.15 1.22 0 4.86 3.65 10.32 7.9 12.15 3.64 1.82 1.21 1.82-6.08 0-13.97-3.04-16.4.6-14.58 23.08.61 5.47-1.82 11.54-5.46 13.97-3.04 1.82-6.08 9.11-6.08 15.19 0 7.9-3.04 10.33-9.11 8.5-5.47-2.43-9.11 0-9.11 5.47 0 12.15-43.13 42.52-75.94 53.46-13.36 4.25-26.73 10.33-29.76 12.76-3.65 2.43-12.15 4.86-20.05 4.86-10.93 0-13.97 3.03-13.97 16.4 0 9.72-5.47 24.9-11.54 34.62-12.15 18.23-12.15 32.81 0 102.67 7.29 40.7 7.29 41.91-10.33 75.93-9.72 18.83-20.05 36.45-22.48 38.27-21.26 15.19-29.16 70.47-13.97 99.02 4.86 9.72 7.29 26.73 5.47 42.52-1.82 15.8-.61 27.95 3.64 30.38 3.65 2.43 6.68 9.11 6.68 15.18 0 13.37 18.23 30.98 32.2 30.98 5.47 0 10.33 2.43 10.33 6.08 0 9.11 31.59 6.68 44.95-3.04 6.68-4.86 19.44-9.11 28.55-9.11 18.23 0 41.92-24.3 41.92-41.92 0-5.46 3.64-15.18 8.5-21.87 4.26-6.68 11.54-27.33 15.8-45.56 4.86-18.22 13.36-43.13 18.83-55.28 6.07-12.15 14.58-35.23 18.22-51.63 4.26-16.4 17.62-55.89 30.38-88.69 12.75-32.2 24.9-69.25 26.73-82.01 7.29-43.74 9.11-50.42 17-48.6 7.29 1.22 7.9-4.25.61-50.42l-4.25-27.34 12.15 14.58 12.15 15.19 10.33-19.44c7.29-14.58 8.5-22.48 3.64-30.98-3.04-6.68-6.07-24.3-6.07-38.88 0-14.58-3.04-35.84-6.69-47.38-8.5-26.73-32.19-77.76-35.84-78.37-1.82 0-7.29 6.08-12.15 13.37Z"/>
</svg>
