<svg xmlns="http://www.w3.org/2000/svg" width="5637" height="4577" fill="none" viewBox="0 0 5637 4577">
  <path fill="#F95" d="M1716.11 4.48c-41.31 10.327-44.34 11.542-30.37 17.01 11.54 4.86 11.54 5.467-1.22 5.467-20.04.607-23.08 12.15-7.29 28.55 15.19 15.795 27.34 18.833 31.59 6.683 2.43-6.075 3.65-6.075 3.65 0 .6 4.252 4.86 7.897 9.72 7.897s9.11-3.645 9.11-7.897c0-4.86 1.82-4.86 5.47 1.215 3.03 4.86 9.72 6.682 15.18 4.86 5.47-2.43 21.87 0 35.84 4.86 27.95 9.112 113.6 21.261 154.3 21.261 27.34 0 41.31-10.934 20.66-16.402-7.29-1.822-12.76-7.897-12.76-13.971 0-13.972-14.58-18.832-61.96-21.87-47.99-3.037-61.97-7.29-54.07-17.009 4.86-5.467-3.04-9.112-31.59-15.187-59.53-12.15-60.74-12.15-86.26-5.467Zm394.26 131.815c-16.41 7.29-23.09 23.691-13.98 34.626 5.47 7.29 1.83 8.505-20.65 8.505-15.19 0-28.55 2.429-29.77 5.467-.6 3.037-12.15 7.29-24.9 9.112-17.01 2.43-21.87 1.822-18.84-3.037 6.08-10.327-111.77-1.823-122.1 9.112-4.25 4.252-26.73 9.719-49.2 11.542-22.48 2.43-47.39 8.504-55.28 13.972-9.12 5.467-20.66 7.897-29.77 6.074-8.5-2.43-14.58-1.215-14.58 2.43 0 3.038-4.25 6.075-9.11 6.075-4.86 0-9.11 4.86-9.72 10.327 0 6.682-1.82 7.897-3.65 3.037-4.25-10.934-24.29-9.112-28.55 2.43-2.43 5.468-1.82 12.15 0 13.972 2.43 1.823 5.47 0 6.69-3.645 1.82-5.467 6.07-5.467 17 1.823 7.9 4.86 18.84 8.504 24.91 7.29 5.47-1.215 11.54 1.822 12.76 5.467 3.64 9.719-44.35 10.934-49.81 1.822-1.83-3.645-8.51-6.075-13.98-6.075-8.5 0-8.5 1.215-1.82 5.468 12.76 7.897-6.07 12.149-65.61 13.972l-51.02 1.215 17.61 13.971c9.72 7.898 23.69 20.047 30.38 26.729 7.89 7.898 24.3 13.972 41.3 15.795 15.19 1.822 27.95 5.467 27.95 8.504 0 2.43 4.86 6.075 10.93 7.29 5.47 1.822 1.22 3.037-9.72 3.645-11.54 0-27.94-3.038-36.44-7.897-14.58-7.897-52.25-16.402-114.21-26.122-12.15-1.822-21.26.608-26.12 6.683-7.29 8.504-6.08 9.719 6.07 10.327 15.8.607 12.15 2.429-15.18 8.504-17.01 3.645-17.01 4.253-5.47 12.15 6.07 4.252 21.26 10.934 32.8 14.579 20.05 6.682 20.05 6.682-8.5 4.252-29.77-2.43-46.17-14.579-46.78-34.626 0-10.934-24.9-35.841-35.23-35.841-4.25 0-12.76-3.644-19.44-7.289-8.5-5.468-13.36-6.075-18.83-.608-4.86 4.86-1.22 8.505 12.76 13.365 10.93 3.645 22.47 4.859 26.12 2.43 3.03-1.823 4.25-.608 1.82 3.037-1.82 3.645-1.22 7.897 2.43 10.327 10.93 6.682 6.07 13.972-12.15 18.224-9.72 2.43-18.22 7.897-18.22 12.15 0 4.252-3.04 9.112-7.29 10.327-3.65 1.215 8.5 10.327 27.94 20.046 32.8 16.402 34.02 18.225 30.37 37.056-3.03 15.795-1.21 21.262 9.12 27.944 7.28 4.252 12.75 11.542 12.75 16.402 0 6.682 9.11 7.29 44.35 4.86 37.66-3.038 40.7-2.43 20.65 3.037-30.98 8.505-34.62 20.654-12.76 38.271 13.98 11.542 16.41 15.794 10.33 21.869-4.25 4.252-7.9 13.972-7.9 21.262 0 10.327-4.85 14.579-18.22 17.616-10.93 2.43-18.22 7.898-18.22 13.365 0 7.29-4.26 8.504-19.44 5.467-10.94-1.822-22.48-6.682-26.12-10.327-4.26-4.252-3.04-4.86 3.64-2.43s12.76-3.037 20.65-21.261c6.08-13.365 12.76-24.299 15.19-24.299 3.04 0 4.25-9.113 3.65-20.047-.61-17.009-4.26-21.262-26.12-30.981-14.58-6.075-26.13-14.58-26.13-18.224 0-3.645-6.07-16.402-13.36-27.944-7.29-11.542-13.97-26.122-15.19-32.196-2.43-15.187-15.79-27.337-35.23-32.197-11.54-3.037-13.97-6.074-9.72-10.327 9.11-9.112 7.9-29.158-1.82-42.523-6.08-7.897-21.26-12.757-50.42-15.794-24.91-3.038-32.81-5.467-20.05-6.075 20.05-1.215 20.65-1.215 9.72-9.719-15.19-11.542-60.75-12.757-57.1-1.823 1.82 4.252-.61 11.542-5.47 15.794-4.25 4.253-7.9 18.832-7.9 31.589 0 20.654-2.43 25.514-18.22 33.411-22.48 11.542-23.69 25.514-3.04 33.411 11.54 4.253 15.19 10.327 15.19 23.692 0 19.439 13.36 34.018 26.12 29.159 4.86-1.823 16.4 2.429 26.12 8.504 9.72 6.682 23.69 14.58 31.59 17.617 13.36 5.467 17.62 15.187 9.11 20.047-3.04 1.822-23.69-4.86-47.38-14.58-61.36-24.906-71.68-23.691-43.74 5.467 12.15 12.757 22.48 25.514 22.48 28.552-1.22 21.261-67.43 68.037-128.79 91.121-15.79 6.075-31.59 13.972-35.23 18.224-4.25 4.86 4.25 29.766 27.94 82.617 34.63 76.541 50.42 144.578 51.03 213.223 0 36.448 8.51 58.322 30.98 78.972 31.59 29.16 17.01 77.76-23.69 77.76-9.72 0-22.48 5.46-28.55 12.15-10.33 10.93-10.33 12.15 3.64 29.76 7.9 9.72 21.27 27.95 29.77 39.49 20.65 29.16 40.7 29.16 66.21.61 23.7-27.34 42.53-27.95 57.71-2.43 9.72 15.79 9.72 22.47 3.65 46.77-6.08 26.12-6.08 29.16 5.47 37.66 40.09 29.77 40.09 29.77 32.19 35.24-10.32 7.29 2.43 18.22 33.41 28.55 40.7 13.97 30.99 49.2-12.15 43.74-16.4-2.43-24.29-.61-26.72 5.46-4.26 10.94-18.84 10.94-29.77-.6-5.47-4.86-14.58-9.12-21.26-9.12-6.08 0-11.54-3.03-11.54-6.68 0-4.86-9.12-6.07-29.16-3.03-21.87 3.03-37.67.6-65-9.72-39.49-13.98-114.21-17.62-126.36-5.47-3.64 3.64-20.65 6.68-37.05 6.68-17.01 0-41.312 3.04-54.069 6.68-22.476 6.08-22.476 6.08-18.831 31.59 4.86 32.2 10.934 43.74 37.056 72.9 16.401 18.22 20.044 27.33 18.834 44.34-1.218 17.62 1.82 24.3 15.18 34.02 9.12 6.68 16.41 15.8 16.41 20.05 0 10.93 20.65 17.01 42.52 12.15 13.97-3.04 19.44-1.22 27.34 11.54 9.72 13.97 17.61 72.29 9.11 67.43-1.82-1.21-17.62-3.64-34.63-5.47-27.94-2.43-31.59-1.21-37.66 12.76-3.65 7.9-5.47 17.62-3.65 20.65 2.43 3.04-4.86 5.47-15.18 5.47-17.01 0-18.23 1.22-12.15 12.15 3.64 6.68 10.32 12.15 15.18 12.15 4.86 0 13.37 7.9 19.44 18.22 5.47 9.72 12.76 18.23 15.19 18.23 2.43 0 4.86 5.47 4.86 12.76 0 7.89 2.43 10.93 7.29 7.89 3.64-2.43 9.72 0 13.36 4.86 4.26 5.47 13.98 10.94 21.87 12.15 20.66 2.43 23.69 8.51 20.05 35.84-1.82 13.37-1.22 23.69 2.43 23.69 9.72 0 27.34 37.06 23.69 50.43-4.25 17.61 9.72 44.34 21.26 41.91 7.29-1.21 8.51 3.04 6.68 18.23-2.43 15.18-1.21 18.22 6.69 15.18 15.18-5.47 26.73 14.58 33.41 56.5 3.64 21.87 7.9 43.74 9.72 48.59 3.04 7.9-4.86 11.55-37.67 20.05-49.81 11.54-72.89 7.29-107.52-20.05-12.76-10.32-29.16-18.22-36.45-18.22-18.22 0-33.41-18.22-37.66-45.56-2.43-15.79-1.22-24.3 4.86-27.34 4.86-3.64 7.9-17.01 8.5-34.62 0-27.95.61-29.16 17.01-29.16 9.12.61 16.41-2.43 16.41-6.08 0-4.25-8.51-5.46-20.05-4.25-29.16 3.04-152.478-60.14-204.72-105.09l-39.486-34.63-32.804 3.65c-29.159 3.64-35.841 1.82-60.747-13.97-15.187-9.72-37.664-19.44-49.206-21.87-11.542-2.43-30.373-9.12-41.308-15.8-15.187-8.5-23.084-9.72-35.841-4.86l-15.794 6.08 13.972 14.58c7.289 7.89 29.158 21.87 47.99 30.98 26.122 12.75 37.664 22.47 45.561 38.88 20.654 42.52-6.075 60.74-90.514 63.78-32.196 1.22-57.71-.61-57.71-3.64 0-3.04-7.897-5.47-17.617-5.47-10.327 0-20.046-3.04-21.869-6.08-2.43-3.64-9.112-4.86-15.187-3.03-7.897 2.43-13.364-.61-18.224-9.12-4.86-9.11-10.327-11.54-19.439-8.5-9.112 2.43-15.794 0-22.477-7.9-9.112-10.93-13.971-11.54-59.532-7.89-48.598 4.86-85.046 18.83-102.663 40.09-4.86 6.07-17.009 6.68-50.421 3.04-44.953-4.26-63.177 1.21-47.99 16.4 14.579 14.58-8.505 23.08-65 24.3-29.766.6-55.28 3.64-56.495 6.68-1.215 3.64-6.075 4.25-10.934 2.43-4.86-1.82-8.505 0-8.505 3.64 0 3.65 4.252 6.69 9.112 6.69 5.467 0 9.112 5.46 9.112 15.18 0 13.98 4.86 17.62 22.477 15.8 3.645-.61 6.075 3.64 4.86 9.72-.608 6.07 0 13.36 2.43 17.01 1.822 3.03 3.644 11.54 4.86 18.22.607 6.68-.608 8.51-1.823 4.25-5.467-12.15-18.832-7.89-17.617 6.08.608 9.11 7.29 15.79 21.87 20.65 11.541 4.25 17.008 7.9 12.756 7.9-6.075.61-6.075 3.04 0 13.97 4.252 7.9 10.327 15.8 13.364 17.62 2.43 2.43 0 7.29-6.074 10.93-12.15 6.68-9.72 7.9 18.832 8.51 9.719 0 10.327.6 1.822 2.43-6.075 1.82-10.935 5.46-10.935 9.11 0 3.04 4.253 4.86 9.112 2.43 4.86-1.82 9.113-.61 9.113 2.43 0 3.64 4.252 6.07 9.112 6.07s9.112-3.03 9.112-6.68c0-9.72 28.551-1.21 42.523 12.76 9.112 9.11 18.832 12.15 36.448 10.93 23.692-1.82 27.337-6.07 24.907-27.94-2.43-17.62 46.775-1.82 74.719 24.3 18.224 16.4 68.645 10.32 84.439-10.94 12.757-16.4 23.084-18.22 40.701-7.29 9.112 6.08 13.972 5.47 24.299-4.25 15.187-13.36 23.691-7.9 9.719 6.68-7.289 6.69-8.504 12.15-4.252 16.41 3.645 3.64 3.645 10.93.608 19.43-3.038 7.29-3.038 15.8-.608 18.84 7.29 7.89 12.757 48.59 7.29 54.67-7.897 9.11-29.766 75.93-37.056 112.38-7.29 37.66-20.654 54.67-43.131 54.67-7.897.61-23.691 1.83-34.018 3.04-17.617 2.43-20.047 5.47-20.047 21.26 0 29.16 12.15 69.86 24.906 83.83 6.075 6.69 11.542 16.41 11.542 20.66 0 9.11 43.739 58.92 51.636 58.92 1.822 0 7.897-4.25 12.757-9.11 5.467-4.86 14.579-9.11 21.261-9.11 6.075 0 11.542 4.25 11.542 9.11 0 4.86 3.038 9.11 6.075 9.11 3.645 0 6.075 3.04 6.075 6.08 0 3.64 4.86 11.54 10.934 18.22 5.468 6.08 15.795 21.87 22.477 34.63 6.682 12.76 17.009 28.55 23.084 35.23 14.579 15.8 30.374 45.56 26.121 49.82-5.467 5.46 16.402 38.27 24.907 38.27 4.86 0 9.719 4.25 11.542 9.11 2.43 4.86 6.682 7.29 10.327 4.86 3.037-1.82 4.252-.61 2.43 2.43-2.43 3.64 1.215 13.36 7.897 21.87 6.682 8.5 12.149 19.44 12.149 24.3 0 5.46 3.038 11.54 6.683 13.97 4.252 2.43 5.467 12.75 3.037 26.73-2.43 17.01-1.215 24.9 6.075 30.98 4.859 4.25 7.897 12.75 6.682 18.83-2.43 7.29 1.822 14.58 10.934 20.65 8.505 5.47 16.402 13.98 18.225 19.44 1.215 6.08 10.934 15.8 20.654 22.48 9.719 6.07 17.009 13.36 15.794 15.79-1.822 1.83 4.252 6.69 12.15 10.33 11.542 5.47 15.186 11.54 15.186 26.12 0 11.54 4.253 22.48 10.935 27.34 5.467 4.25 10.327 10.33 10.327 13.36 0 3.04 10.327 15.8 23.084 27.95 12.15 12.75 22.477 26.73 22.477 31.59 0 4.86 2.43 8.5 5.467 8.5 3.037 0 8.505 8.5 12.149 19.44 6.683 18.83 6.683 18.83-5.467 7.9-6.682-6.08-10.327-13.37-8.505-15.8 1.823-3.04-1.214-3.64-6.682-1.82-6.074 2.43-9.112 1.21-7.897-4.25 1.215-4.26-3.037-9.11-8.505-10.33-7.897-1.21-9.719.61-7.289 9.11 3.037 10.33 3.037 10.33-5.468 0-4.859-6.07-10.934-8.5-12.149-5.46-4.252 6.07 28.551 57.1 33.411 52.24 5.467-4.86 30.981 22.47 32.196 33.41 0 5.47 2.43 12.76 4.253 15.79 4.859 8.51 25.513 77.15 26.121 88.09 1.822 29.16 10.327 41.31 31.589 45.56 12.149 1.82 24.299 1.21 27.943-2.43 3.038-3.04 9.112-4.25 13.365-3.04 4.252 1.82 17.009-5.47 27.944-15.19 13.364-12.75 26.728-18.83 39.485-18.83 20.658 0 60.138-14.58 66.218-24.3 1.82-3.03 12.75-6.07 24.3-6.07 14.58 0 23.69-4.25 32.8-15.8 7.9-10.32 29.77-21.87 62.57-33.41 58.92-21.26 87.48-37.05 85.05-47.99-3.65-16.4 6.07-29.16 30.98-39.48 47.38-19.44 53.45-21.27 73.5-21.27 22.48 0 31.59-7.89 35.23-30.37 1.22-11.54 6.08-15.79 20.05-17.01 22.48-3.04 33.41-11.54 33.41-26.12 0-13.36 21.87-29.77 40.1-29.77 11.54 0 12.75-3.03 12.15-37.05-.61-39.49 6.07-49.81 21.86-33.41 7.9 7.89 10.33 7.29 18.23-1.83 9.11-10.93 7.9-27.33-1.82-21.26-10.33 6.08-5.47-9.11 9.11-26.12 17.62-21.26 34.02-52.85 34.02-65.61 0-5.46-5.47-9.11-12.76-9.11s-13.97-4.86-15.79-12.15c-1.83-6.68-5.47-12.15-8.51-12.15s-5.47-3.03-5.47-6.68c0-12.76-19.44-25.51-47.38-30.37-54.67-10.33-81.4-44.35-81.4-103.27 0-37.67-7.29-44.96-20.05-19.44-12.75 24.3-84.44 97.19-92.94 94.16-4.25-1.22-7.29 0-7.29 3.03 0 3.04-9.72 4.26-21.26 3.04-11.54-1.21-21.26-4.86-21.26-7.9 0-3.03-2.43-5.46-6.08-5.46-3.04 0-6.07 3.64-6.07 8.5 0 13.97-12.15 17.62-23.69 7.29-6.08-5.47-13.98-9.72-18.23-9.72-4.86 0-6.07-4.25-2.43-13.97 6.68-19.44 2.43-72.9-6.07-78.36-14.58-9.12-21.87-4.26-29.16 19.43l-7.29 24.3-11.54-16.4c-12.15-19.44-13.98-26.12-4.86-26.12 3.64 0 6.07 4.25 6.07 9.72 0 4.86 3.04 7.29 6.08 5.47 10.32-6.69 6.68-22.48-6.08-25.52-6.68-1.82-12.76-5.46-12.76-8.5-.6-3.04-1.21-7.9-1.82-11.54 0-3.04-6.07-9.72-12.76-14.58-6.68-4.86-12.14-12.15-12.14-17.01-.61-4.25-3.65-7.29-7.9-6.68-4.25 1.21-7.29-.61-7.29-3.65s-5.47-7.9-12.15-9.72c-6.68-1.82-12.15-7.9-12.15-12.76 0-4.86-2.43-8.5-4.86-8.5-8.51 0-32.2-58.32-27.94-70.47 2.43-7.29 1.82-9.11-1.83-4.25-3.64 4.86-8.5 5.47-13.97 1.82-7.9-4.86-7.9-6.07 0-6.07 5.47 0 13.97-4.86 19.44-10.94 20.05-20.65 26.73-24.3 37.66-18.22 5.47 3.04 14.58 4.25 20.66 2.43 7.29-2.43 14.58 3.04 24.3 16.4 7.29 10.94 13.36 23.08 13.36 26.73 0 3.64 2.43 7.9 5.47 9.11 3.04.61 13.36 15.19 22.48 31.59 12.75 21.26 23.69 30.98 38.87 36.45 11.55 4.25 29.16 14.58 38.88 23.69 9.72 9.11 21.87 16.4 27.34 16.4 7.9 0 7.9 1.22 1.82 5.47-6.07 3.64-1.82 6.07 13.37 9.11 12.14 2.43 20.65 6.68 18.83 10.33-2.43 3.04-.61 5.47 2.43 5.47 3.64 0 6.68-3.04 6.68-6.08 0-4.25 4.25-4.25 12.15 0 6.68 3.65 15.19 4.86 18.83 3.04 3.04-2.43 15.79-5.47 27.94-6.68 24.3-3.04 40.1-12.76 34.63-21.27-4.86-8.5 20.65-6.07 26.12 1.83 2.43 4.25 7.9 18.83 10.94 32.19 7.89 29.77 30.98 42.53 87.47 48.6 45.56 4.86 64.39 7.9 85.66 12.76 26.12 6.68 78.97 7.9 78.97 2.43 0-2.43 10.93-3.65 24.3-1.82 14.58 2.43 24.3 1.21 24.3-3.04 0-3.65 7.89-4.25 21.86-1.22 12.15 3.04 38.88 2.43 61.36-1.21 44.95-6.68 56.49-4.25 56.49 13.36 0 7.9 4.26 12.15 11.55 12.15 7.29 0 12.75 6.08 15.79 16.4 4.86 20.66 20.05 38.27 32.2 38.27 4.86 0 17.01 7.9 26.12 18.23 24.9 25.51 49.81 37.06 73.5 32.8 18.83-3.03 19.44-3.03 8.51 6.08-12.15 9.72-21.87 12.15-41.31 10.32-6.08-.6-10.94 1.83-10.94 6.08 0 11.54 83.84 90.51 95.38 90.51 31.59-1.21 77.15-42.52 63.18-56.49-6.08-6.08-1.83-28.55 5.46-28.55 2.43 0 3.04 6.68 1.22 15.18-1.22 9.12 0 15.19 4.25 15.19s5.47 3.04 3.64 6.08c-2.43 3.64.61 14.57 5.47 25.51 6.68 12.76 8.51 26.12 6.08 40.09-2.43 11.54-1.22 30.38 2.43 42.53 15.79 55.28 27.33 97.8 34.62 129.99 4.26 18.84 18.23 54.07 30.38 78.98 12.75 24.3 27.94 54.06 33.41 65.6 6.07 11.55 15.18 37.06 20.04 57.11 5.47 19.44 18.84 49.2 30.38 66.82 22.47 33.41 52.85 105.09 52.85 123.32 0 15.79 32.8 66.21 48.6 74.72 17.61 9.11 39.48-4.86 44.34-29.16 4.25-19.44 25.52-29.16 47.99-21.87 9.11 2.43 11.54 1.21 9.72-4.26-1.82-4.85-6.68-8.5-11.54-8.5-9.72 0-9.72-4.86-3.04-29.16 3.65-12.15 9.11-16.4 20.05-16.4 13.36 0 14.58-1.82 10.93-17.62-6.07-29.76-5.46-78.36 1.83-86.87 9.72-11.54 10.32-61.35 1.21-108.13-11.54-65-8.5-82.61 15.8-76.54 11.54 3.04 15.18 1.22 18.22-11.54 1.82-8.5 7.29-15.19 12.15-15.19 20.65 0 38.88-14.58 38.88-31.59 0-9.11 2.43-17 5.46-17 9.72 0 70.47-61.36 89.91-91.13 10.33-15.79 29.16-33.41 42.52-39.48 12.76-6.68 29.16-18.23 37.06-25.52 13.97-12.75 15.19-20.04 12.15-49.81-1.22-7.9 2.43-16.4 7.29-18.83 4.86-2.43 15.19-7.29 23.08-11.54 10.94-5.47 14.58-5.47 17.01 1.82 3.65 9.11 26.73 7.9 59.53-2.43 9.72-3.64 24.91-6.07 33.42-6.07 21.26-.61 46.16-20.05 41.3-32.2-1.82-5.47-1.21-11.54 1.22-13.37 3.04-1.21 6.68 3.04 8.5 9.72 1.83 7.29 6.08 10.94 9.12 9.12 6.68-4.26 13.36 9.72 13.36 27.33 0 14.58 13.36 37.06 40.7 68.04 10.94 12.15 20.05 25.51 20.05 29.16 0 3.64 4.86 5.47 10.93 4.25 12.15-3.64 27.95 10.33 23.69 21.26-1.21 4.26 0 12.15 3.04 17.62 3.65 7.9 3.04 10.93-2.43 10.93-5.47 0-5.47 1.83 0 7.29 6.08 6.08 9.11 6.08 12.15.61 7.29-10.93 17.62-1.21 30.98 29.16 10.33 22.48 11.54 35.23 9.11 73.5l-3.64 45.56 17.01 4.86c34.02 9.12 44.95 8.51 53.46-4.25 4.86-6.68 18.22-18.83 30.37-26.73 13.97-9.72 21.87-20.04 21.87-28.55.61-18.83 40.7 65.61 46.17 95.98 1.82 13.37 7.89 31.59 12.15 40.7 4.86 9.12 8.5 23.09 8.5 32.2 0 9.11 3.65 15.19 8.51 15.19 4.86 0 11.54 8.5 15.18 18.83 9.11 25.51 8.51 29.76-2.43 26.12-6.68-3.04-7.89-1.21-5.46 6.07 1.82 5.47 6.07 9.72 9.11 9.72 2.43 0 1.82 8.51-1.82 18.84-4.86 13.97-7.9 16.4-11.55 10.32-3.03-4.25-5.46-5.46-5.46-1.82 0 11.54 9.72 20.65 21.26 19.44 13.36-1.22 20.04 17.62 9.72 27.94-4.26 4.26-9.12 3.65-15.8-1.82-5.46-4.86-9.11-4.86-9.11-1.21 0 3.64 4.86 9.11 10.33 12.75 11.54 6.08 14.58 47.39 6.07 82.62-6.07 25.51 1.82 78.36 9.72 70.47 12.15-12.15 28.55-7.9 28.55 6.68 0 11.54 1.22 12.15 6.08 4.86 4.25-7.29 6.07-7.29 6.07-.61 0 4.25 8.51 18.23 18.23 30.98 16.4 20.66 17.61 24.3 9.11 29.16-9.11 4.86-9.11 6.08-.61 12.76 8.51 6.68 9.72 6.68 9.72-3.04 0-10.33.61-10.33 9.11 1.22 4.86 7.29 7.9 24.29 7.29 38.27-.6 13.97 1.83 27.33 5.47 29.76 3.65 2.43 8.5 15.8 10.93 29.77 1.83 14.58 10.33 32.8 18.84 41.91 8.5 9.12 15.18 22.48 15.18 29.77 0 9.72 11.55 21.26 44.35 43.13 47.99 32.2 58.92 42.52 56.49 52.85-1.21 4.25-.6 5.47.61 2.43 5.47-9.11 21.26-4.25 17.62 5.47-2.43 7.29-1.22 9.11 5.47 6.07 6.07-2.43 9.11.61 9.11 8.51 0 6.68 3.03 12.15 6.68 12.15 4.25 0 5.47-5.47 3.64-12.76-2.43-9.72-1.82-10.93 4.86-5.47 5.47 4.86 9.12 4.86 12.15 0 6.08-9.72-2.43-18.22-20.04-18.83-10.33-.61-12.76-1.82-5.47-3.64 5.47-1.22 10.33-6.68 10.33-11.54 0-4.86-1.83-7.9-4.26-6.69-3.03 1.83-5.46-3.64-5.46-11.54-.61-7.9-8.51-24.3-17.62-36.45-14.58-18.83-16.4-26.73-16.4-65 .61-24.3-2.43-52.24-6.68-61.96-6.69-17.62-54.68-69.86-63.79-69.86-2.43 0-9.72-8.5-15.79-18.83-7.9-12.76-14.58-17.62-21.87-15.8-18.83 4.86-34.63-12.14-43.13-45.56-3.65-17.61-10.94-35.23-14.58-38.27-9.11-7.29-17.01-45.56-9.72-45.56 6.07 0 5.47-15.79-1.22-21.87-2.43-2.43-4.25 1.83-4.25 9.12 0 15.79-17.01 24.29-24.9 12.15-7.9-11.55-3.04-62.57 9.11-102.67 6.07-18.22 10.93-49.81 11.54-69.86 1.21-35.23 1.82-36.45 18.22-38.27 15.19-1.82 16.41-.61 16.41 21.87s.6 23.69 21.26 24.3c26.12 1.21 45.56 10.93 45.56 23.08 0 5.47 4.25 8.51 10.93 7.29 6.68-1.21 13.37 4.86 20.66 19.44 6.07 11.54 10.32 24.91 10.93 28.55 0 9.72 21.87 32.2 30.98 32.2 3.04 0 4.25-3.64 1.82-7.9-2.43-4.25-1.82-5.46 1.22-2.43 5.47 5.47 6.07 7.9 7.9 25.52 1.21 14.58 12.75 10.93 12.75-4.26 0-11.54 1.22-12.14 10.94-3.64 5.47 4.86 15.79 10.93 22.47 13.36 8.51 3.04 9.72 5.47 4.26 9.12-10.94 6.68-8.51 73.5 3.03 73.5 4.26 0 10.94-5.47 15.19-12.15 4.25-7.29 19.44-19.44 33.41-27.94 23.69-13.37 33.41-28.55 35.24-54.07.6-3.64 3.64-5.46 7.89-4.25 10.33 1.82 41.92-15.19 61.36-32.8 8.5-7.9 18.83-14.58 23.08-14.58 8.51 0 15.19-31.59 11.54-55.89-1.21-9.11.61-15.19 3.04-13.37 3.04 1.83 5.47-2.42 5.47-9.11 0-6.68-2.43-13.36-5.47-15.18-2.43-1.83-6.68-16.41-8.5-32.2-1.83-15.79-7.9-37.66-12.76-47.38-5.47-10.33-9.72-22.48-9.72-27.95 0-4.86-7.9-17.01-18.22-26.73-9.72-9.72-18.23-20.65-18.23-24.9s-4.86-9.11-11.54-11.54c-13.97-4.26-85.65-72.9-85.65-81.41 0-3.64-9.12-15.79-20.66-27.94-17.62-17.62-20.65-25.51-20.65-49.2 0-17.62 3.03-28.56 7.89-30.38 4.26-1.82 12.76-12.76 18.23-24.3 5.47-11.54 12.15-19.44 15.19-17.61 2.43 1.82 6.68-1.22 8.5-6.08 1.82-4.86 6.68-8.5 10.93-7.9 4.26 1.22 7.29-2.43 7.29-7.89-1.21-12.76 40.1-27.34 56.5-20.66 6.07 2.43 17.62 4.25 25.51 3.65 11.55-1.22 13.37.6 10.33 8.5-5.47 15.19 15.19 57.1 28.55 57.71 13.97 0 18.83-13.97 10.33-30.37-4.86-9.11-4.86-12.15-.61-9.72 4.25 2.43 6.68-.61 6.68-7.9s3.65-13.36 7.9-13.36c3.65-.61 10.33-1.22 13.37-2.43 3.64-.61 9.71-1.83 13.97-1.83 4.25-.6 6.07-4.25 3.64-8.5-2.43-3.64-1.82-4.86 2.43-2.43 3.65 1.82 7.9 1.22 10.33-1.82 2.43-4.25 9.11-4.25 18.83-.61 21.87 8.5 28.55 7.29 24.3-3.64-1.82-4.86-1.22-7.29 2.43-5.47 3.64 1.82 6.07.61 6.07-3.04 0-3.64 3.04-4.86 6.69-2.43 9.72 5.47 17.61-9.72 14.58-27.94-2.43-14.58-2.43-14.58 4.25 1.21 6.68 15.8 29.16 24.3 29.16 11.54 0-3.03 10.93-11.54 24.9-18.22 13.37-7.29 23.09-10.33 20.66-6.68-1.83 3.03-.61 6.07 2.43 6.07 3.64 0 6.68-3.04 6.68-6.07 0-3.65 1.82-5.47 4.86-5.47 21.26 3.65 33.41-2.43 39.49-18.22 3.64-10.33 12.14-19.44 18.83-21.27 7.29-1.82 18.22-11.54 24.9-21.86 6.69-9.72 15.19-18.23 19.44-18.23 9.72 0 21.87-22.48 16.4-31.59-2.43-3.64-1.82-5.46 1.22-3.64 6.68 4.25 21.26-10.33 16.4-15.8-2.43-1.82 1.82-3.64 9.11-3.64 7.9 0 13.37-3.65 13.37-9.72 0-4.86-2.43-7.9-5.47-6.08-7.9 4.86-13.36-21.86-6.68-29.76 3.64-4.25 4.25-9.11 1.82-10.94-1.82-2.43-.61-4.25 3.04-4.25 4.25 0 7.29-5.47 7.29-11.54 0-6.68 3.03-13.97 6.07-15.8 3.65-1.82 6.08-10.32 6.08-18.22 0-20.65 6.07-33.41 15.79-33.41 4.86 0 9.11-3.65 9.11-7.9 3.04-21.87 2.43-32.8-2.43-42.52-3.03-6.68-2.43-9.72 2.43-9.11 4.26 1.21 7.29-10.94 8.51-36.45.61-20.66-1.22-37.66-4.25-37.66-2.43 0-5.47 2.43-5.47 6.07-.61 3.04-1.22 8.5-1.82 11.54-1.22 12.15-9.72 13.97-19.44 3.65-6.69-6.08-15.19-8.51-24.3-6.69-20.66 5.47-12.76-11.54 10.32-21.86 18.23-8.51 21.87-13.98 11.55-20.05-3.65-2.43-4.86-6.08-3.04-8.51 1.21-3.03-4.86-6.68-14.58-8.5-19.44-4.25-29.16-19.44-15.19-24.91 4.26-1.82 7.9 0 6.69 3.65-.61 3.64 2.43 7.9 6.68 9.11 3.64 1.82 7.29-1.21 7.29-5.47 0-7.29-20.66-25.51-51.64-46.17-3.04-2.43-10.32-11.54-15.18-20.04-24.3-42.53-51.03-70.47-78.98-83.83-27.33-12.76-29.76-15.8-26.12-29.77 1.82-8.5 11.54-23.08 21.26-32.8 17.62-17.62 22.48-26.73 9.72-19.44-4.25 2.43 1.22-4.25 12.15-15.19 13.37-12.15 26.12-18.83 38.27-18.83 14.58 0 17.62-2.43 17.62-14.58 0-18.83-3.64-20.65-37.66-24.3-15.19-1.21-33.41-5.47-40.1-9.11-12.75-6.68-46.16-3.04-41.3 4.86 1.21 1.82-1.22 9.11-6.08 15.19-7.29 9.71-10.93 10.93-23.69 4.86-8.51-3.65-15.19-12.15-15.19-17.62-.6-18.23-13.97-30.38-35.23-30.98-27.94-.61-49.81-15.8-49.81-35.24 0-12.15 2.43-15.18 9.72-12.15 18.22 6.69 39.48-3.03 42.52-20.04 1.82-9.11 11.54-21.87 21.26-27.95 9.72-6.68 17.62-15.79 17.62-20.04 0-13.97 15.18-24.3 32.19-21.26 24.3 4.86 32.2 17 22.48 37.05-11.54 22.48-10.93 27.34 1.82 37.06 10.33 7.29 10.33 9.11 1.82 18.22-9.11 10.33-7.28 18.83 3.04 18.83 3.04 0 15.8-11.54 29.16-24.9 19.44-20.05 29.16-25.52 51.64-27.95 15.18-1.82 32.19-1.21 38.27 1.22 6.07 3.04 13.36 4.25 15.79 3.64 2.43 0 10.33 1.83 16.4 5.47 10.33 5.47 12.15 12.76 12.15 47.38 0 28.55 1.83 38.27 6.08 31.59 3.03-4.86 6.07-6.68 6.07-3.04 0 8.51 29.77 21.27 34.02 14.58 1.82-3.03 7.9-3.03 15.19.61 6.07 3.65 11.54 4.86 11.54 3.04 0-1.82 6.68 1.21 15.19 6.68 15.18 9.72 20.65 26.73 9.11 26.73-10.33 0-6.68 10.33 10.93 29.16 25.52 27.94 30.98 35.84 27.34 40.09-6.68 6.68-6.08 37.06.61 41.31 3.64 2.43 6.68 10.33 6.68 18.22 0 12.76 2.43 13.98 27.34 12.15 15.18-.6 28.55-4.25 29.15-7.29 1.22-3.64 7.29-6.07 13.98-6.07 6.07 0 11.54-2.43 11.54-6.08 0-3.03 3.64-4.25 8.5-2.43 12.15 4.86 34.02-18.83 34.02-35.84 0-24.3-35.84-87.47-65-114.81-15.19-14.58-33.41-32.2-40.7-40.09-6.68-7.9-23.08-20.05-35.84-27.34-12.15-6.68-26.73-18.83-31.59-26.73-9.11-13.36-8.5-14.58 7.29-24.3 9.11-4.86 24.3-19.44 32.8-32.19 14.58-20.66 15.19-23.69 7.29-38.88-10.32-19.44-8.5-49.81 3.04-47.99 3.65 1.21 7.29-3.65 7.29-10.94 0-6.68 2.43-10.93 5.47-9.11 3.04 2.43 8.5-3.64 11.54-12.75 3.65-9.72 6.68-13.37 6.68-8.51.61 6.68 3.04 6.08 9.72-3.04 7.29-9.11 8.51-9.72 9.11-1.82 0 13.37 42.53 25.51 61.97 18.22 19.44-7.28 53.45-46.77 53.45-61.35 0-16.4 17.01-78.97 23.7-87.48 3.03-3.64 5.46-31.59 5.46-61.35 0-30.37 2.43-61.36 6.08-69.86 4.25-12.15 2.43-22.48-9.11-48.6-7.9-18.22-17.62-35.23-21.87-37.66-3.65-2.43-4.86-6.08-2.43-8.51 2.43-2.43-1.83-8.5-8.51-13.36-22.47-15.19-46.17-80.19-29.76-80.19 12.15 0 59.53 39.49 63.17 51.64 1.83 6.68 12.76 21.87 23.69 33.41 10.94 11.54 26.13 34.02 33.42 49.2 7.29 15.19 21.26 35.24 30.98 43.74 9.72 8.51 20.65 24.91 24.9 37.06 3.65 12.15 9.12 21.87 12.15 21.87 3.04 0 7.9 9.11 11.55 20.04 4.25 11.55 15.18 28.56 25.51 38.27l18.83 17.62-4.25-21.87c-4.25-21.87-3.65-21.87 12.76-18.83 9.71 1.82 21.86 9.11 27.94 15.79 8.5 10.33 10.33 10.94 10.93 3.04 0-11.54-20.04-35.84-29.16-35.84-3.64 0-13.36-6.07-21.26-13.97-8.5-7.29-21.87-18.22-30.37-23.69-8.5-6.08-19.44-22.48-24.3-36.45-4.86-14.58-10.93-30.98-13.36-37.06-6.69-15.79 22.47-13.36 51.63 4.86 25.52 16.41 30.38 17.62 30.38 10.33 0-2.43-9.12-9.72-19.44-16.4-10.94-6.08-30.99-22.48-44.96-35.84-13.36-13.97-48.59-46.78-77.75-73.51-29.16-26.73-57.11-55.88-61.97-65-10.93-20.65-35.23-47.38-43.13-47.38-3.64 0-12.75-7.29-20.65-17.01-21.87-24.91-33.41-32.19-44.35-27.94-8.5 3.03-6.68 6.07 9.12 15.79 18.83 11.54 18.83 11.54 7.89 23.69-10.32 11.55-10.32 13.37-1.82 19.44 12.76 9.72 32.2 40.1 28.55 44.35-4.86 4.86-35.23-29.77-35.23-40.1 0-3.03-17.01-14.57-37.67-24.9-21.26-9.72-46.16-22.48-55.28-27.34-20.04-10.93-73.5-15.79-65.6-6.07 6.07 7.89-2.43 34.02-11.54 34.02-3.04 0-6.08-5.47-6.08-12.15 0-6.69-4.25-12.15-9.11-12.15-4.86 0-9.11-5.47-9.11-12.15 0-6.68-3.04-12.15-6.69-12.15-3.64 0-5.46-3.65-3.64-8.51 4.86-12.75-17.01-30.37-30.37-24.9-6.08 3.03-13.98 4.25-18.23 3.64-3.64-.61-8.5 1.82-10.93 5.47-3.65 5.47 13.36 8.5 42.52 7.29 6.68 0 8.5 1.21 4.25 3.04-6.07 2.43-5.46 5.46 2.43 14.58 5.47 6.07 7.29 11.54 3.65 11.54-3.04 0-4.86 6.07-3.04 13.36 1.82 9.11-1.22 6.68-9.11-7.29-10.33-18.83-15.19-21.87-43.13-24.9-52.25-6.69-52.85-7.9-29.77-37.06 26.12-33.41 35.84-52.24 27.94-54.67-6.68-2.43 18.84-59.54 26.73-59.54 2.43 0 1.83-6.68-1.21-15.18-4.86-12.152-3.65-16.404 3.04-18.834 4.86-2.43 9.11-10.327 9.11-18.224 0-9.72 4.86-16.402 12.75-19.439 20.05-7.897 106.92-9.112 111.78-1.823 1.82 3.645 9.11 6.683 15.79 6.683 6.69 0 10.94-1.823 9.12-4.86-1.22-2.43 19.44-3.645 46.16-3.038 46.17 1.823 48.6 1.215 45.57-10.934-2.43-9.112-.61-11.542 6.68-9.112 24.3 6.682 53.46 12.149 58.31 10.327 3.65-.608 12.76 0 20.66 2.43 11.54 3.037 12.76 5.467 7.29 12.149-7.9 9.72-1.22 15.187 19.44 15.187 47.99 0 59.53-1.215 59.53-6.682 0-3.645 6.68-4.86 17.01-2.43 9.72 1.822 25.51.607 34.63-3.037 21.26-7.898 14.58-14.58-24.91-24.907-26.73-6.682-30.37-15.187-19.44-43.131 3.04-8.504 6.07-24.906 6.68-35.841 1.22-18.831 3.04-20.046 25.52-22.476 13.36-1.215 29.76-1.823 36.44-1.823 6.69.608 19.44.608 29.16 1.215 10.33 0 16.41 3.038 16.41 8.505 0 12.15 23.08 34.626 30.98 30.374 3.03-2.43 10.93 2.43 17.61 10.327 7.9 9.112 11.55 10.934 12.15 5.467 0-4.86 1.83-6.682 4.25-4.252 2.43 1.822 7.29-4.86 10.33-15.795 5.47-15.186 10.33-20.654 23.69-21.869 14.58-1.822 24.3-13.364 10.33-13.364-3.04 0-12.76-7.29-21.87-16.402-15.79-15.794-15.79-16.402-3.04-20.654 14.58-5.467 32.81-.607 27.34 7.29-3.64 6.682 28.55 47.99 37.66 47.99 11.55 0 6.69 20.047-7.89 33.411-9.72 8.505-12.76 17.01-10.94 26.729 1.22 8.505 0 18.224-3.64 23.084-4.25 4.252-5.47 16.402-3.04 26.122 4.25 22.476-4.86 48.597-17.62 48.597-4.86 0-9.11 2.43-9.11 6.08 0 3.03-6.07 6.07-13.36 6.07-13.98 0-13.98 0 1.82 14.58 11.54 10.93 15.19 19.44 13.36 29.77-4.86 25.51 26.73 66.82 97.2 127.57 16.4 13.97 41.31 35.84 54.67 49.2 13.97 12.76 37.67 33.41 52.85 45.56 14.58 12.15 33.41 29.16 41.31 38.27 7.9 9.11 22.48 22.48 31.59 29.16l17.62 12.76 9.72-18.83c10.93-21.27 7.89-49.21-6.69-61.36-10.93-9.11-10.93-27.34 0-31.59 4.86-1.82 15.19-1.82 23.09 0 11.54 2.43 9.11-1.82-12.76-20.65-21.26-19.44-25.51-26.73-21.87-37.67 3.65-11.54 6.68-12.75 25.52-9.11 18.22 3.65 21.26 2.43 18.83-7.29-1.22-6.07-12.76-18.22-25.52-26.73-37.05-25.51-51.63-62.57-18.83-47.38 8.51 3.65 17.01 4.86 19.44 3.04 5.47-6.08-22.48-34.63-34.02-34.63-13.36-.6-43.13-27.33-43.13-38.88 0-12.75-22.48-23.69-40.09-19.43-21.87 5.46-46.17-20.052-41.31-43.743 3.04-13.972 0-21.262-12.15-34.019-15.19-14.579-15.19-18.831-1.82-16.401 2.43.607 10.32-2.43 17.61-6.075 6.69-3.645 10.94-4.252 8.51-.608-1.82 3.038.61 7.29 5.47 9.72 9.72 3.645 17.61-5.467 12.75-13.972-7.89-12.757 14.58-10.327 26.73 2.43 15.19 15.794 24.3 15.187 24.3-2.43 0-23.084 56.5-24.906 102.66-3.645 35.24 16.402 41.92 16.402 32.2-.607-4.25-7.897-2.43-13.972 8.51-24.907 7.89-7.897 16.4-21.261 18.22-29.158 1.82-8.505 10.33-17.01 21.26-20.655 9.72-3.037 17.62-9.112 17.62-12.149 0-3.645 3.64-6.682 8.5-6.682 4.25 0 12.15-4.253 16.4-9.72 7.9-9.719 31.59-9.112 80.19 1.215 13.97 3.037 16.4 1.822 16.4-8.505 0-7.897-5.46-13.971-13.36-17.009-7.9-1.822-18.23-7.29-23.09-11.542-4.86-4.252-15.79-9.719-24.29-12.757-23.7-8.504-91.13-47.383-91.13-52.85 0-2.43 5.47-10.327 11.55-17.617 15.79-16.402 6.68-31.588-24.91-40.701-12.76-4.252-21.87-9.719-20.05-12.757 1.83-3.644 19.44 1.823 38.27 11.542 29.16 14.58 41.92 17.617 77.15 17.01 35.24 0 47.99 2.43 72.9 15.794 16.4 9.112 36.45 16.402 43.74 16.402 6.68 0 29.76 5.467 49.81 11.542 34.63 10.934 37.66 10.934 43.74 1.215 5.47-8.505 6.07-8.505 3.04.607-3.65 12.15 11.54 14.58 26.73 4.86 7.89-4.86 6.68-6.682-4.26-9.719-7.89-2.43-12.15-6.075-10.32-9.113 1.82-3.037 0-5.467-3.04-5.467-3.65 0-12.15-5.467-18.23-11.542-12.15-12.149-12.15-12.149 3.65-13.972 9.11-1.215 17.62-5.467 18.83-10.327 1.82-6.075 0-7.29-6.68-4.86-6.08 2.43-8.51 1.215-6.68-3.644 1.21-4.253-4.86-12.15-14.58-17.617-28.55-17.01-132.43-41.308-176.17-41.308-30.37 0-47.99-3.645-71.07-14.58-32.81-16.402-305.56-84.439-394.86-99.018-29.77-4.86-77.76-9.72-106.31-10.935-77.76-3.645-147.62-9.112-160.98-13.364-9.72-2.43-9.11-.608 4.86 12.757 9.11 8.504 19.44 15.794 22.47 15.794 3.04 0 15.8 6.075 28.56 13.365l23.08 13.972-17.01 1.822c-9.72 1.215-20.65-.608-24.91-4.252-4.25-3.645-20.65-8.505-36.44-10.327-15.8-2.43-29.77-6.075-30.99-8.505-1.82-3.037 2.43-3.645 9.12-1.822 6.68 1.822 12.15 0 12.15-3.645s-1.83-6.075-4.26-6.075c-3.03.607-14.58 0-26.12-.608l-21.26-1.822 21.26-4.252 21.26-4.253-19.44-1.822c-37.66-3.645-41.3-3.037-41.3 6.075 0 6.682-6.69 9.112-27.34 8.504-49.21-1.822-160.98-2.43-170.09-1.215-21.26 3.038-72.9-8.504-72.9-17.009 0-11.542-28.55-24.906-77.15-36.448-33.41-7.897-60.14-9.112-136.07-6.075-75.94 3.037-98.41 2.43-116.03-4.86-11.54-4.86-34.02-10.327-50.42-12.757-41.92-4.86-58.32-9.719-54.07-15.794 9.72-15.794-111.16-31.589-129.39-17.009-5.47 4.859-8.5 5.467-6.07 1.215 6.68-10.328-6.68-12.757-120.28-23.084-123.32-10.935-119.07-10.935-100.24 0l15.19 8.504-22.48.608c-17.61 0-21.86 1.822-19.43 9.112 2.43 4.86 10.93 9.112 19.43 9.112 8.51 0 13.37 1.822 10.94 4.252-1.82 2.43 3.64 7.897 12.76 12.15l17.01 7.897-18.23-3.645c-9.72-2.43-23.69-3.645-30.37-3.645-6.68.608-29.16 1.215-50.42 1.215-20.66 0-44.35 3.037-51.64 5.467-8.5 3.038-25.51 3.038-41.31-.607-14.58-3.038-32.8-6.075-40.09-6.682-6.68-.608-11.54-3.038-9.72-6.075 1.22-2.43-.61-4.252-4.86-4.252-3.64 0-5.47 4.859-3.64 10.327 12.75 40.7 13.36 38.271-8.51 34.626-31.59-6.075-78.97-29.159-101.45-50.421-10.93-10.327-24.3-18.831-29.16-18.831-4.86 0-8.5-3.645-8.5-7.898 0-17.009-109.95-47.99-119.07-33.411-1.82 2.43-6.68 3.038-10.32.608-4.25-2.43-13.97-5.467-22.48-6.075-8.5-1.215-27.34-4.86-42.52-8.505-19.44-4.252-27.95-4.252-29.16 0-1.22 3.645-4.86 5.468-7.9 3.038-3.04-1.823-5.47 0-5.47 3.037 0 3.645 5.47 9.72 12.15 13.972 6.69 4.252 12.15 9.112 12.15 10.935 0 3.037-51.63 2.43-109.34-2.43-18.23-1.215-38.88-2.43-45.56-3.038-9.11-.607-10.33-1.822-3.65-6.074 4.86-3.038 5.47-6.683 1.83-9.112-8.51-4.86-155.52-6.683-163.42-1.823-9.11 5.467-50.42-18.832-50.42-29.766 0-6.075-7.89-8.505-27.94-8.505-22.48 0-28.55 2.43-30.98 11.542-1.82 7.897-6.68 10.327-14.58 8.505-6.07-1.823-15.79-1.215-21.26.607-7.9 3.038-8.51 5.468-2.43 12.15 5.47 7.29 3.04 10.327-16.4 15.187-29.16 8.504-58.32 8.504-53.46.607 1.82-3.645 10.33-6.075 18.22-6.075 7.9 0 17.01-3.644 19.44-7.897 6.08-9.112 21.87-18.831 57.71-36.448 15.8-7.29 30.38-17.009 32.2-21.869 5.47-13.972-21.26-37.664-39.49-35.234-8.5 1.215-11.54 1.215-7.29 0 6.08-2.43 5.47-4.86-3.03-11.542-12.76-9.719-22.48-10.934-17.01-2.43 6.07 9.72-4.26 7.29-16.41-4.252-9.11-7.897-24.9-10.327-85.65-10.327-40.7-.608-80.79 1.822-88.69 4.86-10.93 3.645-13.36 3.037-11.54-3.038 4.25-12.149-6.08-29.766-17.01-29.766-4.86 0-7.29 2.43-5.47 6.075 6.08 9.112-20.05 7.29-35.84-3.037-16.4-10.935-98.41-17.617-116.63-9.72Zm471.4 146.401c6.68 4.253 4.25 6.075-10.33 6.075-10.94 0-20.05-3.037-20.05-6.075 0-7.897 18.23-7.897 30.38 0ZM1625.6 514.144c14.58 16.402 7.29 20.046-9.72 5.467-7.9-6.682-17.62-12.149-21.87-12.149s-9.11-2.43-10.93-4.86c-6.08-10.327 32.19.607 42.52 11.542Zm3790.03 84.439c1.82 3.645-.61 4.252-5.47 2.43-10.93-4.253-12.75-8.505-4.25-8.505 3.65 0 7.9 2.43 9.72 6.075Zm-115.42 103.27c4.86 7.898-9.11 7.898-21.26 0-7.29-4.859-6.68-6.074 4.25-6.074 7.29 0 15.19 2.43 17.01 6.074ZM3187.42 1143.49c24.3 56.49 27.33 68.03 20.04 78.97-6.07 9.72-6.68 9.72-3.64 0 1.82-5.47.61-10.33-2.43-10.33-3.65 0-6.08 5.47-6.08 12.15 0 7.29 4.26 12.15 10.94 12.15 6.07 0 7.9 1.82 3.64 4.86-3.64 2.43-8.5 9.72-10.93 16.4-1.82 7.9-13.97 16.4-29.77 21.87-21.87 8.51-25.51 11.54-23.69 25.52 1.82 13.36-1.21 16.4-22.48 23.08-18.22 5.47-28.55 5.47-38.27.61-13.36-6.08-13.36-6.69 3.65-6.69 17.01-.6 40.09-15.18 40.09-26.12 0-2.43 5.47-10.32 12.76-17.61 6.68-6.69 10.93-16.41 9.11-21.27-1.82-4.25 0-10.32 4.25-12.75 20.05-12.76 25.52-60.75 12.76-106.92-5.47-17.01 12.15-12.15 20.05 6.08Zm-1168.18 438.59c1.83 3.04-.6 6.69-5.46 9.12-4.86 1.82-9.12 7.29-9.12 12.75 0 4.86-4.25 9.11-9.11 9.11-6.07 0-9.11 6.08-9.11 18.84 0 16.4-1.21 18.22-9.11 11.54-10.94-9.11-12.15-36.45-1.82-36.45 3.64 0 5.46-1.82 3.64-3.65-5.47-5.46 15.19-25.51 26.73-26.12 5.47-.6 11.54 1.83 13.36 4.86Zm35.85-1.21c-4.26 1.21-11.55 1.21-15.19 0-4.25-1.82-1.22-3.04 7.29-3.04 8.5 0 11.54 1.22 7.9 3.04Zm83.22 7.9c6.68 4.86 4.25 5.46-9.11 2.43-22.48-4.86-27.34-8.51-11.55-8.51 6.08 0 15.8 3.04 20.66 6.08Zm36.45-.61c0 3.64-5.47 5.47-12.15 4.86-6.68-.61-12.15-3.04-12.15-5.47 0-2.43 5.47-4.86 12.15-4.86 6.68 0 12.15 2.43 12.15 5.47Zm-730.79 10.33c-1.83 1.82-7.29 2.43-11.55.6-4.86-1.82-3.03-3.64 3.65-3.64 6.68-.61 10.33 1.21 7.9 3.04Zm-46.78 26.72c0 3.04-3.04 6.08-6.68 6.08-3.04 0-4.25 3.04-2.43 6.07 2.43 3.65 9.11 4.86 15.79 3.04 8.51-3.04 12.15 0 15.19 11.54 1.82 8.51 7.29 18.23 12.15 22.48 6.68 5.47 6.68 9.72-1.22 24.91-6.07 12.15-12.15 17.01-18.22 14.58-5.47-1.83-13.36-3.65-18.22-3.65-6.08 0-8.51-8.5-8.51-32.8 0-18.23-2.43-35.24-6.07-37.06-3.65-2.43-3.04-6.68 1.82-12.15 8.5-10.33 16.4-11.54 16.4-3.04Zm-21.26 30.38c6.07 20.04-3.65 26.73-12.76 9.11-10.33-20.65-10.33-21.26 0-21.26 4.86 0 10.33 5.47 12.76 12.15Zm-18.23 47.38c-3.64 3.65-15.18-27.34-14.57-40.09 0-5.47 4.25.6 9.11 13.36 4.86 13.37 7.29 24.91 5.46 26.73Zm-166.44 136.07c3.64 7.9 15.18 21.87 26.12 30.99 10.33 9.72 15.19 15.79 10.93 13.36-4.86-2.43-12.15.61-17.01 6.68-6.68 8.51-10.32 9.11-12.15 3.65-1.82-3.65-9.11-7.29-15.79-7.29-15.79 0-28.55-16.4-29.16-37.67 0-24.9 25.51-31.58 37.06-9.72Zm-753.879 694.35c0 4.86-2.43 9.11-6.074 9.11-3.038 0-4.253-4.25-2.43-9.11 2.43-4.86 4.86-9.11 6.074-9.11 1.215 0 2.43 4.25 2.43 9.11Zm2338.779 458.64c0 3.04-1.22 6.08-2.43 6.08-1.83 0-4.86-3.04-6.69-6.08-1.82-3.64-.6-6.07 2.43-6.07 3.65 0 6.69 2.43 6.69 6.07ZM804.296 3160.91c1.822 3.04-.608 5.47-5.467 5.47-4.86 0-7.29-2.43-5.468-5.47 1.823-2.43 4.253-4.86 5.468-4.86 1.214 0 3.644 2.43 5.467 4.86ZM3653.96 3453.1c1.82 3.04.6 7.29-3.04 9.72-3.04 1.83-6.08-.6-6.08-5.46 0-10.94 3.65-12.76 9.12-4.26Zm127.57 55.28c6.07 6.69 7.89 12.15 4.25 12.15-3.65 0-9.72-5.46-13.37-12.15-3.64-6.68-5.46-12.15-4.25-12.15 1.22 0 7.29 5.47 13.37 12.15Z"/>
  <path fill="#F95" d="M3444.38 269.947c0 10.327 17.61 20.046 29.16 16.401 7.89-2.429 13.36-.607 15.79 5.468 2.43 6.074-.61 9.112-9.11 9.112-7.29 0-10.33 2.43-7.9 6.682 1.82 3.645 9.72 4.86 17.62 3.037 7.29-1.822 36.45-.607 63.78 3.038 49.82 6.074 65.61 3.645 48.6-6.682-15.19-9.72-70.47-24.299-92.34-24.299-10.93 0-25.51-4.253-31.58-9.113-13.37-9.719-34.02-12.149-34.02-3.644ZM4792.96 1647.09c0 4.86-2.43 7.29-6.07 5.47-3.04-1.83-6.08-.61-6.08 3.03 0 4.26 3.65 6.08 8.51 4.26 15.18-6.08 55.28 52.85 48.59 71.68-1.82 4.25-.6 9.72 3.04 12.15 13.37 7.9 6.08 13.97-10.93 9.11-22.48-6.07-27.95-1.21-15.19 12.76 8.5 9.72 9.11 11.54 1.22 14.58-5.47 2.43-9.12 11.54-9.12 23.08 0 10.94 1.22 15.79 2.43 12.15 4.26-11.54 30.38 7.9 34.63 26.12 4.25 16.4 20.05 19.44 25.51 5.47 2.43-4.86 7.29-9.11 12.15-9.11 16.4 0 8.51-11.55-15.79-21.87-13.37-6.08-24.3-12.76-24.3-15.8 0-6.68 8.5-6.07 16.4 1.83 4.86 4.86 9.72 4.25 18.83-1.22 9.72-6.07 17.62-5.47 45.56 6.08 18.83 7.89 37.06 12.14 41.31 9.11 4.86-2.43 5.47-1.82 3.04 2.43-2.43 4.25-1.22 7.29 2.43 7.29 4.86 0 6.07-5.47 3.64-14.58-5.46-23.09 1.83-34.02 23.09-34.02 20.04-.61 40.09-12.15 40.09-23.08 0-3.65-4.25-5.47-9.72-3.04-7.29 3.04-9.11-1.22-7.9-24.3 1.22-19.44 3.65-26.73 9.72-24.3 4.26 1.82 7.9.61 7.9-3.04 0-3.03-5.47-7.29-12.15-9.11-10.33-2.43-12.76.61-15.79 20.65-4.26 24.91-14.58 26.73-14.58 1.83 0-17.62-9.72-19.44-15.19-2.43-3.64 11.54-4.86 11.54-47.38-4.26-39.49-13.97-68.65-28.55-77.15-38.27-6.08-7.29-47.38-30.37-54.07-30.37-3.64 0-6.68 4.25-6.68 9.72Z"/>
  <path fill="#F95" d="M4884.1 1853.03c0 5.46-3.03 7.89-6.68 5.46-4.86-3.03-6.07.61-3.04 11.55 1.83 9.11.61 17.61-3.03 19.44-4.26 3.03-3.04 7.89 3.64 15.18 4.86 5.47 7.9 14.58 5.47 20.66-2.43 6.68-.61 9.72 6.07 9.72 4.86 0 12.15 5.46 15.8 12.15 9.72 18.83 11.54 74.71 2.43 85.04-7.9 9.11-8.51 11.54-8.51 27.34 0 5.47-7.29 12.76-16.4 17.01-9.72 3.64-18.83 9.72-21.26 13.36-6.68 8.51-17.62-9.72-13.37-22.47 4.26-13.37-4.25-17.62-17-8.51-8.51 6.08-8.51 9.11-1.22 21.87 4.25 8.5 7.9 11.54 8.51 6.68 0-4.86 1.21-7.29 3.03-5.47 3.65 3.65-10.93 35.24-16.4 35.24-7.29 0-6.07 23.08 1.22 25.51 3.64 1.22 3.64 5.47 0 10.33-4.26 7.29-6.69 7.29-14.58 1.21-7.29-6.07-15.8-6.68-39.49-.6-16.4 3.64-36.45 6.68-44.34 6.07-25.52-2.43-35.24 0-35.24 7.29 0 10.33-30.37 44.35-43.74 49.21-6.07 1.82-10.93 9.11-10.93 15.79s-3.65 15.19-7.29 18.83c-4.25 3.65-13.97 11.54-21.87 17.62l-13.97 12.15 16.4 18.22c9.11 10.33 18.83 17.01 22.48 14.58 3.64-1.82 4.25-1.21 2.43 2.43-2.43 3.04 3.64 17.01 12.75 29.77 9.12 12.76 16.41 27.94 16.41 32.8 0 4.86 6.07 9.72 13.97 10.94 7.29 1.21 13.36 5.46 13.36 9.11 0 4.25 6.08.61 13.97-7.9 11.55-12.76 13.37-21.26 12.15-54.67-.6-22.48-1.21-42.52-2.43-45.56-2.43-15.19 1.83-14.58 19.44 2.43 20.05 20.04 39.49 25.51 33.41 9.11-4.86-12.15 6.69-32.8 17.62-32.8 4.86 0 9.11 2.43 9.11 6.07 0 11.54 9.11 6.08 16.4-9.72 3.65-8.5 6.08-18.83 4.26-23.69-1.83-4.25-.61-9.72 3.03-12.15 3.65-1.82 6.69 0 6.69 4.86 0 10.94 24.29 32.8 38.87 35.84 9.12 1.22 12.76-3.04 17.01-18.22 3.04-10.94 9.12-19.44 13.98-19.44 13.36 0 10.93-17.01-3.04-21.26-6.68-1.83-12.15-6.08-12.15-9.12 0-2.43 5.47-3.64 12.15-1.82 6.68 1.82 12.15 4.86 12.15 7.29 0 1.82 12.15 3.65 27.33 3.65 24.91 0 27.34-1.22 27.34-15.19l.61-15.19 9.11 17.01c10.33 19.44 23.08 15.8 18.83-5.46-3.04-17.01 8.51-19.44 22.48-4.86 9.11 8.5 10.33 8.5 19.44 0 4.86-5.47 7.29-12.76 5.46-15.8-2.43-3.64-1.21-10.33 2.43-14.58 4.86-6.07 3.65-11.54-5.46-21.87-6.69-7.89-12.76-19.44-12.76-26.73-.61-7.29-1.82-17.01-2.43-21.87-.61-4.86-1.82-13.36-2.43-18.83 0-5.46-6.07-15.79-12.76-23.69-6.68-7.9-12.15-17.62-12.15-22.48 0-6.07 3.65-7.28 12.15-4.85 6.69 2.42 12.15 1.21 12.15-2.43 0-3.65-2.43-6.69-6.07-6.69-3.04 0-6.08-13.36-6.08-29.76 0-28.55-1.82-32.2-39.48-71.08-21.87-22.47-39.49-44.95-39.49-49.2 0-4.26-3.64-7.9-8.5-7.9-4.86 0-12.76-1.82-18.23-3.65-6.68-2.43-9.72-.6-9.72 6.69Zm30.38 17.61c0 1.22-4.26 3.65-9.12 6.08-4.85 1.82-9.11.61-9.11-2.43 0-3.65 4.26-6.08 9.11-6.08 4.86 0 9.12 1.22 9.12 2.43Zm-111.17 340.8c4.86 13.36 0 16.4-18.83 11.54-12.76-3.04-14.58-5.47-9.11-12.15 9.11-11.54 23.08-10.94 27.94.61Zm-44.35 18.22c-4.25 10.33-18.22 12.15-23.69 3.65-2.43-4.86 5.47-9.12 22.48-12.15 2.43 0 3.04 3.64 1.21 8.5Zm-52.85 10.33c-1.82 4.86-3.64 3.04-3.64-3.65-.61-6.68 1.21-10.32 3.04-7.89 1.82 1.82 2.43 7.29.6 11.54Zm17.62 3.04c-4.25 16.4-18.83 32.19-29.16 32.19-2.43 0-4.25-3.64-3.04-7.9.61-4.25-6.68-7.89-18.22-9.11-10.93-1.21-20.05-4.86-20.05-8.5 0-4.25 10.33-4.86 29.77-2.43 26.73 3.64 30.37 2.43 34.02-8.51 6.07-18.22 10.93-14.58 6.68 4.26Zm-4338.583-86.27c-6.075 4.86-21.87 9.11-34.019 9.11-12.757 0-23.084 2.43-23.084 6.07 0 3.04-5.467 6.08-12.757 6.08-18.224 0-12.15 19.44 9.112 29.16 15.187 7.89 18.832 7.29 34.626-4.26 9.112-7.29 20.047-12.75 23.084-12.75 3.645 0 4.86-3.65 3.038-8.51-1.823-5.47 1.822-12.15 9.112-17.01 12.757-7.89 17.009-17.01 7.897-17.01-3.038 0-10.327 4.26-17.009 9.12ZM4387.79 3054c-5.47 8.51-4.25 95.98 1.21 116.64 3.65 11.54 3.04 12.15-4.86 1.82-19.44-23.69-21.87-4.25-6.07 44.95 10.33 31.59 26.12 54.07 38.27 54.07 3.64 0 6.07-4.86 6.07-10.33s1.83-7.9 4.26-6.07c1.82 2.43.6 10.93-4.26 18.83-8.5 15.79-4.25 37.06 6.08 30.98 3.04-1.82 6.07-.61 6.07 2.43 0 10.33-18.22 7.9-21.87-2.43-2.43-4.86-7.89-9.11-12.75-9.11-6.08 0-3.65 6.68 9.11 22.47 9.72 12.76 22.48 31.59 27.94 42.53 12.76 25.51 21.87 30.37 31.59 17.01 10.33-13.37 4.86-38.88-9.72-52.25-10.93-9.72-10.93-10.32 3.04-17.61 15.19-8.51 35.23-2.43 20.65 6.07-6.07 4.25-6.07 7.29.61 15.19 7.9 9.72 9.11 9.72 15.8 0 6.68-9.11 7.89-9.11 13.36 1.21 3.65 6.08 8.5 8.51 10.93 6.08 3.04-2.43 1.22-10.33-3.03-17.01-13.97-23.08-3.04-17.62 24.9 12.15 25.52 27.34 29.77 37.06 15.8 37.06-2.43 0-4.25-1.83-3.65-4.86 1.83-6.08-15.18-31.59-20.65-31.59-8.51 0-4.86 18.83 4.25 21.87 6.08 2.43 9.11 12.15 9.11 29.15 0 16.41 1.83 21.87 5.47 16.41 4.25-6.69 7.9-6.69 19.44 1.82 21.26 14.58 24.91 12.15 13.97-9.11-5.47-11.55-7.29-20.66-3.64-23.09 3.03-1.82 6.68-10.93 8.5-20.04 2.43-13.37 0-17.62-13.97-23.7-18.83-7.29-23.69-17.61-8.5-17.61 4.86 0 9.11 2.43 9.11 6.07 0 7.29 6.07 7.9 17.61.61 6.08-4.25 6.69-7.9 1.22-18.22-8.51-14.58-18.83-17.01-18.83-3.65 0 8.51-1.82 8.51-18.23 0-10.32-5.47-20.65-7.9-23.69-6.07-3.04 1.21-7.29-1.22-9.11-6.69-3.04-7.89-9.11-9.11-30.37-6.07-20.66 3.04-27.34 2.43-29.77-5.47-3.65-8.5 3.04-11.54 24.91-10.93 3.64.6 7.29-1.22 7.29-3.04 0-6.07-21.27-18.83-31.59-19.44-12.15 0-15.19-8.5-12.15-31.59 1.82-10.93 6.07-17.01 13.36-17.01 15.19 0 21.87-51.03 8.51-71.07-4.86-7.9-9.72-25.52-9.72-38.88 0-23.69-.61-23.69-20.05-20.05-11.54 1.83-21.26.61-23.69-3.03-6.08-9.12-32.2-8.51-38.27.6Z"/>
  <path fill="#F95" d="M4598.58 3375.35c0 6.07 7.9 17.01 17.62 24.3 10.33 7.29 16.4 16.4 14.58 21.87-2.43 6.68-4.86 6.07-10.94-2.43-11.54-15.19-16.4-6.69-12.15 18.83 2.43 12.76 7.9 21.87 12.76 21.87 5.47 0 8.51 6.68 8.51 17.61 0 13.37 4.25 18.84 17.01 24.3 9.71 4.26 17.61 10.33 17.61 14.58s1.82 13.37 4.25 20.05c3.04 10.93 1.83 12.76-11.54 12.76-8.5 0-15.18-1.83-15.18-4.86 0-3.04-2.43-5.47-6.08-5.47-3.04 0-4.25 7.9-1.82 19.44 3.04 13.97 1.82 17.61-3.65 14.58-4.86-3.04-8.5 0-10.93 7.89-4.25 15.8-6.68 15.8-20.05-.6-9.11-12.15-12.75-12.76-26.73-6.08-8.5 3.65-15.79 10.94-15.79 16.4 0 5.47-5.47 9.12-15.19 9.12-8.5 0-16.4 3.64-17.61 7.29-1.22 4.25-4.26 16.4-7.9 26.12-3.04 10.32-4.86 21.87-3.04 26.12 3.65 10.93 19.44 8.5 19.44-3.65 0-5.46 4.25-15.79 9.11-21.87 9.11-11.54 9.11-11.54 9.11 1.22 0 13.97 8.51 18.22 15.19 7.29 1.82-3.04 7.29-4.25 12.15-1.82 6.08 1.82 9.11-1.22 9.11-9.72 0-10.94 1.83-12.15 11.54-6.68 9.72 4.86 12.15 12.14 11.55 37.66-.61 27.33 1.21 32.8 16.4 44.95 9.72 7.9 23.08 14.58 30.37 15.8 7.29 1.21 12.76 7.29 13.97 15.79 2.43 14.58 15.8 15.19 17.01.61 0-4.86 2.43-13.37 4.86-19.44 3.04-6.68 1.83-17.62-3.03-27.34-10.94-21.87-10.33-27.33 2.43-29.16 6.07-.6 10.32 2.43 10.32 9.12 0 5.46 4.26 15.79 9.11 22.47 7.9 10.94 8.51 10.33 9.12-10.93 0-12.15 3.03-24.3 6.07-26.12 3.65-1.83 6.08-9.12 6.08-16.41 0-22.47-26.12-108.13-31.59-104.48-3.65 2.43-3.65-6.08-1.22-19.44 3.65-20.05 3.04-21.87-6.68-18.83-7.29 3.04-10.93.61-13.36-7.9-3.65-13.97-13.98-16.4-13.98-3.04 0 4.86-4.25 9.12-9.72 9.12-7.28 0-8.5-2.43-3.64-7.9 3.04-4.25 3.64-12.76.61-19.44-7.9-20.05-6.08-22.48 12.75-20.05l17.62 2.43-11.54-18.83c-6.68-10.93-12.15-26.12-12.15-34.02 0-23.08-9.72-32.19-35.84-33.41-20.66-1.21-24.91.61-24.91 10.33Z"/>
  <path fill="#F95" d="M4489.22 3404.51c0 3.64 3.04 7.9 6.08 9.72 4.25 2.43 5.46 18.22 4.25 37.06-2.43 34.01 0 38.27 13.36 24.9 6.08-5.47 9.11-5.47 10.94 0 1.21 4.25 6.68 5.47 11.54 3.65 12.76-4.86 10.33 12.15-3.65 24.3-10.32 8.5-10.93 12.14-4.86 22.47 4.26 6.68 10.94 12.15 14.58 12.15 4.26 0 8.51 4.25 10.94 9.11 5.47 15.19 14.58 10.33 21.87-12.15 3.64-11.54 9.72-21.26 12.75-21.26 3.65 0 4.26 2.43 2.43 6.08-4.25 6.68 14.58 7.89 29.77 2.43 14.58-5.47 11.54-23.69-5.47-32.81-12.15-6.68-15.18-12.75-15.18-31.59 0-18.83-1.83-23.08-12.15-23.08-6.69 0-12.15 2.43-12.15 6.08 0 3.03-4.86 6.07-11.54 6.07-8.51 0-10.33-3.64-7.9-15.19 2.43-12.75 0-15.18-11.54-15.18-7.9-.61-21.27-4.26-29.77-9.12-18.22-10.32-24.3-10.93-24.3-3.64Zm95.37 56.49c-1.82 4.86-3.64 3.04-3.64-3.64-.61-6.68 1.21-10.33 3.04-7.9 1.82 1.83 2.43 7.29.6 11.54Zm-4.25 44.35c0 3.04-3.04 1.82-6.07-3.04-3.04-4.86-6.08-12.15-6.08-15.18 0-3.65 3.04-1.83 6.08 3.03 3.03 4.86 6.07 11.55 6.07 15.19Zm10.33-1.82c-1.82 4.86-3.65 3.04-3.65-3.65-.6-6.68 1.22-10.32 3.04-7.89 1.82 1.82 2.43 7.29.61 11.54Zm-24.3 12.15c-1.82 4.86-3.64 3.03-3.64-3.65-.61-6.68 1.21-10.32 3.03-7.89 1.82 1.82 2.43 7.28.61 11.54Zm-190.13-68.03c-2.43 11.54-9.11 28.55-15.8 37.66-6.68 9.72-9.72 20.05-7.89 23.08 2.43 3.65 1.82 5.47-1.22 4.86-7.29-2.43-54.67 46.17-59.53 61.36-2.43 7.9-1.22 17.01 2.43 20.65 4.86 4.86 6.68 4.86 6.68 0 0-3.03 13.97-20.04 30.37-37.05 17.01-17.01 30.38-33.41 30.38-37.06 0-9.72 26.12-35.23 38.88-37.66 16.4-3.04 18.83-15.19 3.64-19.44-8.5-1.82-12.15-7.9-12.15-19.44 0-9.11 2.43-14.58 6.08-12.15 3.64 1.82 6.07 1.21 6.07-2.43 0-3.04-5.47-5.47-12.15-4.86-8.5.61-13.36 6.68-15.79 22.48Zm-1816.33 68.03c-2.43 3.64-1.22 8.5 2.42 9.72 4.26 1.21 7.29 7.28 7.29 13.97 0 7.29-3.03 9.72-9.11 7.89-4.86-2.43-9.11-.6-9.11 3.04 0 3.65 3.04 6.68 6.08 6.68 7.89 0 7.89 26.13.6 33.41-4.86 5.47 6.08 88.7 14.58 111.17 5.47 13.97 29.16 18.83 48.6 9.11 31.59-15.79 39.49-26.12 39.49-52.24 0-24.9-24.3-82.61-40.1-95.98-4.86-3.64-8.5-10.33-8.5-13.97 0-9.11-31.59-40.09-40.7-40.09-4.26 0-9.12 3.03-11.54 7.29Zm1724.6 125.13c-3.04 2.43-9.72 14.58-14.58 26.73-4.25 12.76-10.33 23.09-13.36 23.09-2.43 0-7.9 7.89-10.94 17.61-3.64 9.72-13.36 22.48-21.26 27.95-12.15 7.89-13.97 11.54-7.9 18.83 5.47 7.29 4.26 8.5-9.11 8.5-9.11 0-20.65 4.25-25.51 9.11-5.47 4.86-14.58 9.12-21.26 9.12-7.9 0-11.55 4.25-11.55 12.75 0 7.29-10.93 26.12-24.29 41.92-20.05 24.3-28.56 29.77-51.64 32.8-14.58 2.43-28.55 6.68-30.37 10.33-2.43 3.04-6.69 4.25-9.72 2.43-4.86-3.04-8.51 19.44-6.08 35.23.61 2.43-1.82 10.33-5.47 17.01-5.46 9.72-8.5 10.94-20.04 4.25-7.29-4.25-18.23-6.68-24.3-5.46-5.47.61-12.15-3.04-13.97-7.9-5.47-13.36-22.48-2.43-34.02 21.26-10.33 20.05-9.72 42.53 0 94.77 8.5 43.13 16.4 55.89 31.59 52.24 10.32-3.04 12.15-.61 11.54 17.01 0 11.54 1.82 33.41 3.64 49.21 4.86 30.37 4.26 29.76 50.42 29.15 21.27 0 25.52 1.83 25.52 11.55 0 13.97 9.72 21.87 15.19 12.75 2.42-3.64 8.5-4.86 14.57-3.03 6.08 1.82 16.41-2.43 23.7-9.12 7.29-7.29 13.36-9.72 13.36-6.07 0 3.04 4.25 6.07 9.11 6.07 4.86 0 9.11 3.04 9.11 6.69 0 4.25 5.47 5.46 12.76 3.64 20.05-5.47 29.77 1.82 29.77 20.65 0 21.27 3.64 21.87 37.05 2.43l26.73-14.57 7.29 13.36c6.68 13.36 7.29 13.36 13.97-4.25 3.65-9.72 4.86-22.48 3.04-28.55-2.43-6.08 1.22-21.27 6.68-34.02 7.29-14.58 8.51-23.09 4.26-24.3-11.55-4.25-1.22-28.55 20.65-49.21 11.54-10.32 23.08-19.44 26.73-19.44 3.04 0 4.25-13.36 1.82-32.19-4.25-40.7 5.47-55.89 35.84-54.07 32.81 2.43 34.63-9.72 4.86-35.84-20.65-17.61-25.51-24.9-21.87-35.23 2.43-8.51-.6-18.83-8.5-30.38-10.94-15.18-12.15-20.04-5.47-34.01 4.86-11.55 4.86-17.62 0-22.48-8.5-8.51 3.04-20.65 25.52-26.73 21.86-5.47 25.51-13.36 6.68-18.22-18.23-4.26-20.05-14.58-2.43-14.58 15.18 0 35.84-10.33 35.84-18.83 0-3.04-6.08-8.51-13.37-11.55-17.61-7.89-37.05-20.04-41.91-26.12-1.82-2.43-7.29-4.25-12.15-3.04-5.47 1.22-7.9-2.43-6.68-10.32.6-7.29-4.86-18.23-13.98-26.12-7.89-7.29-13.36-17.01-11.54-21.87 3.65-10.33-4.25-17.01-13.97-10.94Z"/>
  <path fill="#F95" d="M3283.4 3733.16c-12.15 19.43 6.68 46.16 77.76 112.99 20.65 19.43 34.62 38.27 34.62 46.77 0 4.25 12.15 16.4 27.34 27.34 15.18 10.32 26.73 21.26 26.12 23.69-3.04 12.76 20.65 74.11 30.37 77.76 17.01 5.46 61.97 86.26 65.61 116.63 1.22 14.58 19.44 41.31 46.78 68.65 9.11 9.11 16.4 18.83 16.4 21.86 0 2.43 24.3 28.56 54.06 57.71 53.46 52.85 54.68 53.46 73.51 46.78 15.18-4.86 21.26-4.86 27.94 2.43 7.29 7.29 7.9 12.15 1.82 24.91-7.89 17.01-17.61 21.87-17.61 9.11 0-9.11-7.9-.61-9.72 10.33-1.22 6.68 4.86 9.11 21.87 9.11 20.65 0 42.52 13.36 37.66 23.69-.61 1.82 8.5 5.47 21.26 8.5 12.76 2.43 28.55 6.69 35.23 9.72 21.27 9.72 32.2 12.15 35.85 7.9 7.29-7.29 54.67 0 77.14 10.94 23.09 12.14 114.21 26.12 130 20.65 4.86-2.43 9.12-.61 9.12 3.64 0 3.65 3.64 6.08 7.89 4.26 3.65-1.22 15.8 1.21 26.73 6.07 26.73 10.94 33.41 10.33 29.16-3.64-3.04-9.72-1.21-10.94 9.11-8.51 7.29 1.82 12.15 8.51 12.15 16.4.61 12.76.61 12.76 9.11 1.22 4.86-6.68 9.12-9.11 9.12-4.86 0 3.64 10.32 8.5 23.08 10.33 12.15 2.43 28.55 6.07 35.23 9.11 8.51 3.04 24.3 2.43 42.53-3.04 16.4-4.25 26.12-8.5 21.26-8.5-4.86-.61-6.68-2.43-4.86-4.26 2.43-2.43 7.29-1.82 11.54 1.83 12.15 9.11 33.41 7.89 41.92-1.83 5.46-6.68 9.11-6.68 15.18-1.82 13.98 11.54 99.02 12.15 136.08 1.22 18.22-5.47 37.05-9.12 41.31-8.51 4.86.61 11.54-1.21 15.79-4.86 3.65-3.04 10.94-3.64 15.19-1.21 7.9 4.86 46.77-.61 53.46-7.9 9.72-9.72-6.08-11.54-61.97-7.9-16.4 1.22-32.19-1.21-35.23-4.25-3.04-4.25-9.11-.61-17.01 10.33-6.68 9.11-15.19 14.58-18.83 12.75-7.9-4.86-43.13-9.72-79.58-10.93-20.05 0-30.98 2.43-34.63 8.5-4.25 6.69-6.07 7.29-6.07 1.22 0-5.47-4.25-6.68-11.54-4.25-6.69 1.82-13.37.6-15.8-3.04-1.82-3.04-.6-6.08 3.04-6.08s4.86-3.03 2.43-6.68c-3.04-4.86-4.86-4.86-7.9 0-4.86 7.29-27.33 6.08-34.62-1.21-7.9-7.9-33.41-4.25-37.06 5.46-1.82 4.86-6.68 7.9-11.54 6.08-4.25-1.82-8.51 0-10.33 4.25-1.21 4.86-5.47 3.65-12.76-3.64-13.36-13.37-23.08-10.94-30.98 6.68-3.03 7.29-9.11 13.36-13.36 13.36-9.72 0-10.33-9.72-1.22-15.18 9.12-6.08-17.01-23.09-27.94-18.84-12.76 4.86-27.34-1.82-27.34-12.14 0-9.12-1.21-9.72-42.52-10.94-20.05-.61-27.34-3.04-29.16-10.93-1.21-7.9 1.22-9.72 10.33-7.9 17.01 3.04 50.42-8.51 47.38-17.01-1.21-3.64-18.83-5.47-44.95-4.86-29.16 1.22-49.21-1.82-61.36-7.9-9.72-4.86-19.44-7.29-21.87-5.46-1.82 2.43-7.28-1.22-12.14-7.29-7.9-10.94-8.51-10.33-18.23 4.86-7.9 11.54-14.58 15.18-26.73 13.36-9.11-.61-27.33-1.82-40.7-2.43-18.83-.61-26.12-3.64-30.37-13.97-3.65-7.29-12.15-13.97-20.05-15.19-7.9-1.21-22.48-6.07-33.41-11.54-11.54-6.68-19.44-7.9-21.26-3.65-1.22 4.26-8.51 4.26-20.66.61-10.32-2.43-21.26-3.64-24.29-1.82-3.04 2.43-4.26-4.86-1.83-17.01 1.83-10.93 4.26-40.7 6.08-65.61 3.04-61.96 7.29-74.11 21.87-66.21 13.36 6.68 35.84-2.43 35.84-14.58 0-4.86-1.82-4.86-5.47 1.21-3.64 5.47-6.68 6.08-9.11 1.22-2.43-3.65-3.04-9.11-1.22-12.15 1.83-3.04-1.82-6.68-8.5-8.5-12.15-3.04-14.58-6.69-20.66-36.45-4.85-20.05-16.4-20.66-36.44-2.43-16.41 15.18-15.19 22.47 3.64 22.47 6.08 0 10.94 3.04 10.94 6.69 0 4.25-5.47 5.46-13.37 3.03-7.9-1.82-15.79-3.64-18.22-3.64-3.04 0-4.86-3.04-4.86-6.68 0-3.65-4.26-10.33-9.11-15.19-4.86-5.47-9.12-17.62-9.12-27.34 0-14.58-2.43-17.61-13.97-17.61-7.9 0-19.44-3.65-25.51-8.51-10.33-7.29-10.94-9.72-3.04-18.83 12.15-14.58 13.97-36.45 3.64-44.95-4.86-4.26-7.28-12.15-5.46-17.01 3.03-7.29 1.21-9.11-6.08-6.08-6.68 2.43-10.32.61-10.32-4.86 0-4.86-6.69-10.32-15.19-12.75-8.51-1.83-15.19-7.29-15.19-12.15 0-7.9-3.04-9.72-24.3-10.94-4.86-.61-9.11-6.07-9.11-12.76 0-7.29-4.86-12.75-12.15-13.97-6.68-1.21-15.19-4.86-18.83-7.89-3.04-2.43-11.54-3.65-18.83-1.83-9.11 2.43-13.97 0-17.01-9.11-1.82-7.29-6.68-12.76-9.72-12.76-3.04 0-5.47-3.03-5.47-6.68 0-7.9-9.11-17.01-36.45-35.84-11.54-7.9-24.9-18.22-29.16-22.48-4.25-4.25-10.93-7.89-13.97-7.89-3.03 0-5.46-4.26-5.46-9.11 0-5.47-3.04-12.76-6.08-17.01-3.64-4.26-11.54-13.98-18.22-21.87-9.72-11.55-17.62-13.98-41.92-13.98-21.26 0-34.63-3.64-43.74-11.54-14.58-12.75-27.33-14.58-32.8-5.46Zm1047.89 744.76c0 1.21-4.25 2.43-9.11 2.43-4.86 0-9.11-2.43-9.11-6.08 0-3.03 4.25-4.25 9.11-2.43 4.86 2.43 9.11 4.86 9.11 6.08ZM2235.5 3823.67c0 10.33 2.43 19.44 6.07 21.87 3.04 1.82 4.25 7.29 2.43 11.54-1.82 4.86-.61 10.33 3.04 12.76 3.64 1.82 6.68 7.29 6.68 10.93 0 4.25-2.43 3.65-6.68-1.82-5.47-7.29-6.08-7.29-3.04 1.82 1.82 6.08 3.64 16.4 3.64 23.09 0 13.97 13.98 15.18 24.3 1.82 6.69-7.9 6.08-9.72-4.86-12.76-7.29-1.82-11.54-6.07-9.72-9.11 6.08-9.72-3.64-47.99-10.93-43.74-4.25 3.04-5.47-2.43-3.65-15.19 1.22-10.32.61-18.83-2.43-18.83-2.42 0-4.85 7.9-4.85 17.62Zm30.37 79.58c0 3.04-2.43 6.07-6.08 6.07-3.03 0-6.07-3.03-6.07-6.07 0-3.65 3.04-6.08 6.07-6.08 3.65 0 6.08 2.43 6.08 6.08Zm2527.11 21.86c-4.86 8.51-8.51 26.12-9.11 39.49 0 12.76-2.43 23.69-6.08 23.69-3.03 0-1.82 3.04 3.04 6.68 6.07 4.25 6.68 7.29 2.43 9.11-4.25 1.83-5.47 9.12-3.65 15.8 3.04 12.76 3.65 12.76 7.9 1.21 3.65-9.72 4.86-8.5 4.86 6.08.61 14.58-1.21 16.4-11.54 13.97-14.58-3.64-20.65 3.64-15.19 19.44 4.26 15.19 39.49 21.26 39.49 7.29.61-7.9 1.21-7.9 6.68 1.21 12.15 20.66 15.8 4.26 4.86-18.83-15.79-31.59-10.93-44.95 13.37-36.45 24.29 8.51 27.33 3.65 9.11-13.97-14.58-13.97-14.58-14.58-3.04-22.47 10.93-7.9 16.4-37.67 6.68-37.67-2.43 0-10.93 4.25-18.22 9.72-13.37 9.11-13.37 8.51-13.37-15.19 0-28.55-6.68-31.58-18.22-9.11Z"/>
  <path fill="#F95" d="M4644.75 3957.92c-13.97 14.58-27.34 23.69-33.41 21.87-5.47-1.82-30.98-4.86-56.5-7.29-26.12-1.82-47.38-6.08-47.38-8.5 0-6.08-21.87-11.55-28.55-6.69-3.04 1.83-7.29 8.51-9.72 14.58-2.43 6.08-7.29 9.11-10.33 7.29-8.5-5.47-30.37 19.44-30.37 34.63 0 6.07-2.43 10.93-4.86 10.93-3.04 0-4.26 7.9-2.43 17.62 1.21 10.33-1.83 23.69-7.29 32.2-5.47 7.29-9.72 22.47-9.72 32.8 0 20.65-15.8 57.1-24.91 57.1-3.04 0-4.86 7.29-3.04 16.4 1.22 9.72 3.04 21.26 3.04 26.73.61 6.68 4.86 9.11 14.58 7.29 12.15-2.43 13.97 0 15.19 20.05 1.21 12.76-1.22 36.45-5.47 52.85-8.5 35.23-3.64 41.91 25.51 37.05 19.44-3.64 21.27-5.46 21.87-25.51 1.22-95.37 4.86-122.71 15.8-126.35 16.4-5.47 20.04 1.82 11.54 23.08-6.68 17.62-5.47 20.65 10.33 34.63 12.75 12.15 15.79 18.83 12.75 27.94-4.86 12.76 3.04 27.34 14.58 27.34 3.65 0 11.54-5.47 17.62-12.15 5.47-6.69 13.36-12.15 17.01-12.15 4.86 0 4.25 3.64-1.82 10.32-15.19 17.62-17.01 36.45-4.26 47.99 10.94 9.72 12.15 9.72 23.7-.6 7.29-6.68 10.93-15.19 9.11-21.87-1.82-5.47-1.22-12.15 1.21-13.37 2.43-1.82 4.86-13.36 4.86-26.72-.61-18.84-2.43-22.48-11.54-21.27-13.36 2.43-27.34-15.18-23.69-29.76 1.82-6.08-5.47-24.91-15.8-42.53-15.18-24.29-17.61-32.8-12.14-39.48 3.64-4.86 10.93-8.51 15.18-8.51s14.58-8.5 21.87-18.83c10.33-13.97 17.01-17.61 27.34-14.58 10.93 2.43 13.97.61 13.97-9.11 0-16.4-15.19-21.87-34.02-12.15-7.9 4.25-24.3 8.51-36.45 8.51-15.18.6-25.51 5.46-33.41 15.18-10.93 13.37-29.77 13.97-29.77.61 0-3.04-5.46-11.54-12.75-18.83-9.72-9.72-12.15-17.01-9.11-31.59 6.07-30.98 11.54-32.8 88.69-27.34 103.27 6.69 121.49 6.08 121.49-7.89 0-3.65 6.68-15.19 15.19-26.13 9.11-12.14 13.97-24.29 11.54-30.37-5.47-13.97-8.5-12.76-35.23 14.58Zm187.69 217.48c-9.72 1.22-20.04 5.47-22.47 9.12-3.65 5.46-4.86 5.46-4.86 0 0-5.47-4.25-4.26-12.15 2.43-14.58 12.15-15.8 23.08-3.04 17.61 6.68-2.43 9.11.61 9.11 10.94 0 13.97 1.22 14.58 21.27 7.89 11.54-3.64 21.26-10.32 21.26-14.58 0-6.68 2.43-6.68 12.15-1.82 7.29 3.65 17.61 4.86 23.69 3.04 6.68-1.82 20.65 1.82 32.19 9.11 25.52 15.8 29.16 15.19 29.16-1.82 0-30.98-45.56-48.6-106.31-41.92Zm-94.75 289.15c-1.21 1.22-18.83 4.26-38.88 6.69-25.51 2.43-39.48 7.29-45.56 15.18-4.86 6.69-21.87 17.01-37.66 24.3-17.62 7.9-29.77 17.62-32.81 26.12-1.82 7.29-7.89 17.62-12.75 23.7-6.68 7.28-6.68 10.93-1.83 13.97 12.76 7.89 52.86-10.33 74.72-32.81 12.15-12.75 32.81-26.12 47.99-30.98 34.02-10.93 72.9-35.23 68.65-42.52-3.65-6.08-17.01-7.9-21.87-3.65Z"/>
</svg>
