<svg xmlns="http://www.w3.org/2000/svg" width="1918" height="2274" fill="none" viewBox="0 0 1918 2274">
  <path fill="#00AAD4" d="M1050.47 11.012c-11.54 6.683-24.3 14.58-28.55 17.617-4.86 4.252-8.5 4.252-10.93.607-4.25-6.682-27.339-8.504-27.339-2.43 0 10.328 26.729 38.879 36.449 38.879 17.01 0 30.37 6.682 30.37 15.187 0 17.617 20.66 26.121 56.5 23.691 25.51-1.822 34.62-1.215 31.59 3.645-2.43 4.252-10.33 5.467-18.23 3.645-8.5-2.43-17.01 0-21.26 5.467-4.25 5.468-12.76 7.897-18.22 6.075-12.15-3.645-30.38 1.822-30.38 9.72 0 3.037 6.69 8.504 15.19 11.542 8.51 3.037 15.19 9.719 15.19 15.186 0 4.86 3.03 9.113 6.68 9.113 3.04 0 4.25 3.037 2.43 6.074-5.47 9.112 3.04 30.981 9.72 26.729 3.64-1.822 10.33 0 15.19 4.252 4.86 3.645 10.93 5.468 12.75 3.038 2.43-2.43 1.22-6.075-2.43-8.505-4.25-3.037-5.46-7.897-1.82-12.757 4.25-7.289 8.51-6.682 27.34 1.823 12.15 6.074 27.33 15.187 33.41 20.046 6.07 5.468 19.44 10.935 29.16 11.542 23.69 3.038 113.59 46.168 112.99 54.065-.61 3.038 3.03 11.543 7.29 18.225 4.86 6.682 8.5 16.402 8.5 22.476 0 6.075 1.82 10.935 4.86 10.935 2.43 0 4.25 9.719 4.86 21.261 0 16.402-1.82 21.262-10.33 21.262-11.54 0-41.91 38.878-41.91 53.458 0 8.504 54.67 8.504 61.35-.608 1.83-2.43 12.76-6.074 24.3-7.289 19.44-2.43 23.09-.608 43.74 26.728 22.48 29.159 23.08 29.767 55.89 29.767 18.83-.608 35.23 1.215 37.66 3.037 1.82 2.43 8.51 1.215 14.58-1.822 9.11-4.86 10.33-4.253 8.51 6.074-1.22 6.683-4.26 15.187-6.08 18.225-1.82 3.644-1.21 6.074 1.82 6.074 7.29 0 13.37-14.579 13.37-30.981 0-6.075 3.03-11.542 6.07-11.542 3.65 0 6.08-4.252 6.08-9.719 0-4.86 2.43-7.898 5.46-6.075 3.04 1.822 5.47-3.038 5.47-10.935 0-24.299 44.35-55.887 58.32-41.308 2.43 2.43 14.58 7.29 26.73 10.327 13.36 3.645 24.9 11.542 28.55 20.047 3.04 7.289 7.9 13.364 10.33 13.364 3.03 0 4.86 4.86 4.86 11.542 0 6.075 4.25 14.58 9.11 18.832 4.86 4.252 7.29 9.719 5.47 12.757-1.83 3.037 1.21 5.467 6.07 5.467 5.47 0 10.93 6.682 13.36 14.579 2.43 10.935 10.33 16.402 31.59 22.477 15.8 4.252 37.06 7.29 46.78 6.682 10.33 0 24.3 3.645 31.59 8.505 15.79 9.719 60.14 11.542 65.6 2.43 2.43-3.645 1.83-6.075-1.21-5.468-2.43.608-9.11.608-13.97 0-7.29-.607-7.29-1.822-1.22-5.467 5.47-3.645 0-7.897-17.01-13.364-21.87-7.29-33.41-18.224-18.22-18.224 13.97 0 4.86-11.542-10.33-13.365-13.97-1.215-16.4-4.252-15.18-16.402 1.82-13.364.6-13.972-15.8-10.934-16.4 3.645-18.22 1.822-26.12-21.869-4.86-13.972-18.83-35.234-30.98-47.383-12.76-12.15-23.09-27.944-23.09-34.626 0-10.935 3.65-13.365 21.27-13.365 16.4 0 21.26-2.43 21.26-10.934 0-12.757-20.05-33.411-34.02-35.234-5.47-.607-13.97-5.467-19.44-10.327-6.08-4.86-17.62-10.327-26.12-12.757-13.37-3.037-15.19-6.075-12.76-18.831 1.22-8.505 4.86-15.187 7.9-15.187s5.47-4.253 5.47-9.72c0-8.505-1.83-8.505-9.12-2.43-7.89 6.682-11.54 5.467-21.26-4.86-6.68-7.289-12.15-15.794-12.15-19.439 0-3.645-2.43-5.467-5.46-3.037-3.04 1.822-9.72-1.215-14.58-6.075-5.47-4.86-14.58-9.112-21.27-9.112-6.68 0-15.18-4.252-19.43-9.112-3.65-4.86-22.48-12.757-41.31-18.224-19.44-5.468-45.56-16.402-58.93-23.692-13.36-7.897-27.94-12.757-31.59-11.542-4.25 1.823-7.89 0-7.89-3.037 0-3.038-11.55-7.29-24.91-9.72-13.97-2.43-43.74-13.972-66.22-26.121-38.27-20.047-42.52-21.262-59.53-13.365-10.32 4.253-20.04 12.757-21.26 18.832-1.82 6.682-9.11 10.935-18.83 10.935-8.51 0-15.8 2.43-15.8 4.859 0 3.038-4.86 10.935-10.32 18.225-6.08 6.682-15.19 18.224-20.05 24.906-4.86 7.29-14.58 12.757-21.87 12.757-10.33 0-14.58-5.467-20.65-29.159-4.25-15.794-9.11-24.906-10.33-20.654-4.25 10.935-13.97 2.43-13.97-12.757 0-10.934 1.21-12.15 6.68-4.252 5.47 7.29 6.08 6.682 2.43-3.037-2.43-6.683-4.86-22.477-6.07-35.234-3.04-27.944-7.9-36.448-18.23-32.196-4.25 1.215-17.61-2.43-29.76-9.112-26.73-13.972-37.06-13.972-64.4.607Zm450.76 541.865c-3.04 4.252-7.9 14.579-10.33 23.084-2.43 8.505-9.72 24.299-17.01 35.234-6.68 11.542-12.76 31.588-13.97 44.953-1.21 13.364-4.86 27.943-8.5 32.196-3.04 4.252-7.29 24.906-9.12 46.168-3.64 46.168-24.3 112.99-40.09 130.607-6.68 6.682-11.54 15.187-11.54 18.831 0 12.15-18.83 26.122-34.02 26.122-9.72 0-23.69-9.112-38.88-24.299-13.36-13.365-29.16-24.299-35.23-24.299-6.08 0-15.19-6.682-19.44-15.187-4.25-8.505-11.54-15.187-15.8-15.187-4.86 0-9.72-6.682-12.15-15.187-4.25-16.401-14.57-20.654-14.57-6.074 0 6.074-10.94-1.215-29.77-18.832l-29.77-28.551 12.15-12.757c6.68-7.29 14.58-18.832 17.62-26.729 3.04-7.897 8.5-12.15 12.15-10.327 3.64 2.43 4.86 7.897 3.04 12.149-3.04 7.897 18.83 17.009 27.94 11.542 4.86-3.037 2.43-31.588-3.65-37.663-1.82-1.823-7.28.607-12.75 4.86-7.9 6.682-9.11 5.467-9.11-8.505 0-8.505 3.03-15.187 6.68-14.579 3.64 1.215 13.36-10.327 21.87-25.514 12.15-22.477 12.75-27.944 6.07-33.411-4.86-3.038-7.29-9.72-6.07-13.972 1.82-3.645 0-7.29-3.65-7.29-3.64 0-6.68 2.43-6.68 5.467 0 3.038-5.47 6.682-12.76 8.505-9.11 2.43-11.54 1.215-9.11-5.467 4.25-11.542 0-10.935-20.65 4.859-13.98 10.327-20.05 11.542-25.52 6.075-4.25-4.252-13.36-7.29-20.65-7.29-7.9 0-17.62-3.644-21.87-7.897-4.25-4.859-11.54-7.289-15.79-5.467-3.65 1.215-7.29-3.037-7.29-9.112 0-9.112-1.22-9.72-6.08-1.822-5.47 7.897-7.29 7.897-12.76-1.823-3.64-5.467-8.5-9.112-12.15-7.29-3.03 2.43-5.46-1.822-5.46-8.504 0-10.935-1.83-11.542-15.19-6.682-8.5 3.037-15.19 3.644-15.19 1.822 0-2.43-3.03-1.215-7.29 3.037-8.5 8.505 4.26 26.122 15.8 21.869 11.54-4.252 17.61 15.187 8.5 26.122-5.46 7.289-15.79 8.504-39.48 6.075-18.227-1.823-32.199-.608-32.199 2.429 0 3.038-3.038 5.468-7.29 5.468-10.935 0-40.701 36.448-37.663 45.56 1.822 4.86-2.43 10.935-9.113 15.187-7.289 3.645-12.756 9.72-12.756 13.365 0 4.252-6.075 13.364-13.365 21.261-10.934 11.542-12.149 15.794-5.467 19.439 13.972 9.112 1.215 18.225-21.262 15.187-12.149-1.215-26.121.608-30.373 4.253-7.29 6.074-7.898 5.467-4.86-3.038 2.43-6.075 0-10.934-6.075-13.364-5.467-1.823-9.72-7.29-9.72-11.542 0-4.86-8.504-14.58-18.831-21.869-17.617-12.15-20.047-12.757-26.729-3.645-4.252 5.467-8.505 9.112-9.72 7.289-6.682-6.074-41.915-9.112-41.915-3.037 0 3.037 3.037 6.075 6.074 6.075 3.645 0 6.075 6.075 6.075 13.364-.607 13.365-.607 13.972-9.112 2.43-8.505-10.934-9.112-10.934-9.112-1.215 0 7.897-3.038 9.72-12.15 6.682-10.327-3.037-12.149-1.215-12.149 12.757 0 9.113-1.823 15.187-3.645 13.365-6.682-6.682-35.234 26.729-36.448 42.523-.608 9.112-1.823 18.832-1.823 21.869-.607 2.43-10.327 3.037-22.476.608-13.972-2.43-20.655-1.823-18.225 2.429 2.43 3.038 1.215 7.29-2.43 9.72-4.252 2.43-4.252 7.29 0 15.794 4.253 6.683 4.253 11.542.608 11.542-3.037 0-6.682 4.86-8.505 10.327-1.215 6.075-4.86-.607-7.289-15.186-2.43-13.972-6.683-25.514-8.505-25.514-2.43 0-14.579 10.327-26.729 23.084-17.617 17.616-22.476 27.944-22.476 44.345 0 16.402-5.468 27.337-19.44 43.131-10.934 12.149-24.906 28.551-30.981 37.663-15.187 21.867-44.345 35.837-78.364 37.057-17.009.61-33.411 4.86-40.093 10.93-6.075 5.47-18.225 10.33-26.729 10.33-8.505 0-18.832 4.25-23.084 9.11-5.467 6.69-15.187 8.51-30.981 6.69-13.365-1.22-24.907 0-27.337 3.03-1.822 3.04-7.289 5.47-12.149 5.47-4.86 0-17.617 7.9-28.551 17.62-10.328 10.32-29.159 22.47-41.309 27.94-12.149 6.08-25.514 17.62-30.373 26.73l-7.29 15.79-3.645-18.22c-3.037-14.58-4.86-16.4-9.72-9.11-15.186 23.08-21.261 39.48-21.261 55.88 0 9.72-6.682 27.95-15.187 40.1-18.224 26.73-18.224 32.19-4.252 78.36 13.972 45.56 10.934 68.65-4.86 34.63l-10.935-23.69-6.074 15.18-6.075 15.19-6.682-15.19c-6.075-13.36-6.683-11.54-3.645 11.55 1.822 14.58 7.897 34.62 12.757 44.34 5.467 10.33 10.327 32.2 11.542 49.81 1.215 17.01 4.252 38.88 6.075 49.21 2.43 9.72 4.252 26.12 3.644 36.45 0 9.72-1.215 51.03-1.822 90.51-1.215 51.64-4.252 73.51-9.112 74.72-4.252 1.82-7.897 9.11-7.897 16.4 0 18.23-16.402 40.1-30.982 40.1-7.29 0-13.971 6.07-17.616 15.79-8.505 21.87-7.897 26.73 5.467 26.73 6.682 0 13.364 4.86 15.187 10.93 4.86 14.58 24.299 23.7 59.532 27.95 27.337 3.04 59.533-4.86 59.533-14.58 0-4.86 19.439-12.76 37.056-15.19 5.467-.61 15.187-6.68 21.869-13.36 15.187-15.19 58.925-21.26 130.607-17.62l52.243 3.04 26.728-27.34c13.972-14.58 30.982-26.73 36.449-26.73 5.467 0 11.542-2.43 13.364-5.46 1.823-3.04 10.935-7.29 20.047-9.72 9.719-1.83 21.869-7.9 27.336-13.37 7.29-6.68 16.402-7.9 30.374-5.47 20.047 3.65 103.878-15.18 117.242-26.72 3.645-3.04 31.589-7.29 62.57-9.72 52.851-4.26 57.103-3.65 71.075 9.72 7.897 7.28 18.224 12.14 22.476 10.93 4.253-1.82 18.225 3.64 30.374 11.54 12.757 7.29 26.121 13.97 30.374 13.97 5.467 0 5.467 1.83 0 7.29-10.327 10.33-9.112 29.16 1.215 29.16 13.972 0 20.654 55.28 7.897 63.18-8.505 5.47-7.29 8.5 9.719 23.69 19.44 17.01 19.44 17.01 21.262 3.65 2.43-15.19 41.308-54.07 54.065-54.07 4.86 0 21.262-12.15 36.452-27.34 15.18-15.18 29.16-26.12 31.59-23.69 1.82 2.43 0 5.47-3.65 6.68-4.25 1.83-7.9 7.9-7.9 13.98 0 6.07-7.29 15.18-15.79 21.26-8.51 5.47-19.44 19.44-24.3 30.98-4.86 11.54-15.187 23.69-22.476 26.12-7.898 3.04-17.617 10.33-22.477 16.4-8.505 9.72-7.897 10.33 6.075 6.68 8.504-2.42 20.046-4.25 26.121-4.25 6.075 0 16.402-9.72 23.084-21.26 7.293-11.54 15.183-21.26 18.223-21.26 12.15 0 4.25 30.37-12.76 47.38-20.042 20.05-18.22 26.73 6.08 21.87 13.97-3.04 17.62-.61 24.3 16.4 7.29 17.62 7.29 21.87-3.65 41.31-10.32 18.83-11.54 24.91-5.46 42.52 4.25 11.55 13.36 23.09 20.65 25.52 6.68 3.04 12.76 7.29 12.76 10.33 0 3.03 10.93 5.46 24.9 5.46 13.98 0 26.73 3.04 29.16 6.08 1.82 3.64 9.72 9.11 17.01 13.36 11.54 6.08 18.23 4.86 42.52-7.9 15.8-8.5 30.38-13.36 32.2-10.93 1.82 2.43 13.37 9.72 26.12 15.79 12.15 6.69 22.48 15.8 22.48 20.66 0 7.29 2.43 7.29 12.76-2.43 35.23-31.59 99.62-63.18 131.21-63.18 38.88 0 74.11-19.44 74.72-40.7 0-4.25 6.68-14.58 15.19-23.69 8.5-9.11 15.18-19.44 15.18-23.69 0-3.65 12.15-18.23 27.34-32.2 15.19-13.97 40.7-41.31 55.89-60.75 37.05-46.16 66.82-74.71 94.76-89.29 12.15-6.69 22.48-15.19 22.48-18.84 0-3.64 7.29-14.58 17.01-24.9 27.34-29.77 37.66-44.35 37.66-51.64 0-4.25 6.08-17.01 13.97-28.55 34.63-52.85 54.07-88.69 56.5-106.31 1.82-10.32 7.29-29.16 12.15-42.52 9.72-24.91 6.68-39.49-3.04-15.19-3.04 7.9-6.07 11.54-6.07 8.51-.61-6.68 10.32-49.82 15.79-63.79 1.82-4.86 3.04-11.54 2.43-13.97-.61-3.04 4.86-13.97 11.54-25.51 6.69-10.94 12.15-24.91 11.55-30.98 0-8.51-1.22-9.12-3.65-2.43-9.11 24.9-32.2 29.15-32.2 5.46 0-6.07-2.43-11.54-5.46-11.54-3.04 0-6.69-8.5-8.51-18.22-2.43-10.33-7.9-18.23-12.75-18.23-4.86 0-9.72-6.07-10.94-13.97-1.21-7.29-5.47-12.76-9.72-11.54-6.68 1.21-7.29-6.08-3.64-32.8 3.64-32.81 3.64-34.63-8.51-31.59-7.9 2.43-13.97 0-15.79-5.47-3.04-7.9-5.47-7.9-13.37-1.22-7.89 6.69-9.11 4.26-7.89-17.01 1.21-15.18-2.43-30.98-8.51-40.7-12.76-18.83-12.76-21.86-1.21-21.86 6.07 0 8.5-4.86 6.68-13.98-1.22-7.29-5.47-12.75-9.72-11.54-10.33 2.43-47.99-23.69-52.24-36.45-1.83-6.072-6.69-9.109-12.15-6.679-4.26 1.819-8.51 0-8.51-4.253 0-3.645-2.43-5.467-5.47-3.645-9.11 6.075-20.65-13.972-17.61-29.766 1.82-8.504.61-17.009-2.43-18.832-2.43-1.822-3.04-6.074-1.22-9.719 7.29-11.542 2.43-61.355-6.68-71.682-9.11-9.72-10.33-74.719-1.21-88.691 2.43-4.253-2.43-11.542-12.15-17.617-14.58-9.72-15.19-11.542-6.08-18.224 7.29-5.468 8.51-8.505 3.04-13.972-4.25-4.253-11.54-7.29-16.4-6.682-6.69 0-6.08 1.822 2.43 5.467 12.15 5.467 12.15 5.467 0 6.075-6.69 1.215-13.97 1.215-16.4.607-3.04 0-4.86 1.822-4.86 5.467 0 3.038-4.26 6.075-9.72 6.075-7.29 0-8.51-6.075-7.29-30.374 1.21-22.476 4.25-29.766 9.72-27.336 6.07 2.43 7.89-3.037 7.29-20.047-.61-12.149-.61-23.691 0-25.514 4.25-12.757 4.25-24.299-.61-24.299-6.08 0-7.9 12.15-6.08 41.916 1.22 12.15-.6 18.832-4.25 16.402-3.64-1.822-5.47-8.505-4.25-14.579.61-5.468-1.22-13.365-4.25-17.01-6.08-8.504-4.26-21.261 4.25-28.551 3.64-3.037 1.82-4.252-4.25-1.822-10.33 3.037-26.13-15.187-19.44-22.477 1.82-1.822 1.82-11.542-.61-21.869-4.25-19.439-15.19-24.299-26.12-11.542ZM66.374 1368.71c0 4.86-1.215 9.12-2.43 9.12s-3.645-4.26-6.075-9.12c-1.822-4.85-.607-9.11 2.43-9.11 3.645 0 6.075 4.26 6.075 9.11Zm1154.206 619.63c-4.26 5.47-9.12 7.9-10.33 6.68-4.25-4.25 4.25-15.79 11.54-15.79 3.64 0 3.64 3.64-1.21 9.11Zm-87.48 135.47c-8.51 12.76-17.01 34.63-18.23 48.6-1.82 13.36-6.07 30.37-9.72 37.06-3.64 7.28-6.07 23.69-4.86 36.44 1.22 21.27 3.04 24.3 18.84 27.34 18.83 3.64 58.92-11.54 58.92-21.87 0-4.25 3.04-4.25 7.9 0 6.07 4.86 12.15 2.43 24.3-10.93 9.11-9.12 16.4-21.27 16.4-26.73 0-5.47 4.86-9.72 11.54-9.72 7.29 0 13.97-5.47 16.4-13.97 2.43-7.29 10.33-23.09 18.23-35.24 18.83-29.76 10.93-36.45-29.77-24.9-53.46 14.58-55.28 14.58-68.04 3.03-6.68-6.68-14.58-12.75-18.22-14.58-3.04-1.21-5.47-6.07-4.25-10.32 3.03-12.76-2.43-7.9-19.44 15.79Z"/>
</svg>
