<svg xmlns="http://www.w3.org/2000/svg" width="56" height="33" fill="none" viewBox="0 0 56 33">
  <path fill="#F3F2F1" d="M18.311.651h-.419v.852h-.473v1.785h-.5v3.367h-.271v5.065h-.373v20.814h6.735V11.72h-.373V6.655h-.27V3.288h-.5V1.503h-.474V.651h-3.082"/>
  <path fill="#DADBD8" d="m20.974.651.105-.002.314-.002h.005V.65l.003.852-.008-.008.473-.001h.01v.01l.003 1.784-.013-.013h.514v.013l.005 3.367-.018-.018h.288v.018l.005 5.065-.023-.023h.396v.023l.007 20.814v.03h-6.795v-.03l.007-20.814v-.023h.396l-.023.023.005-5.065v-.018h.288l-.017.018.004-3.367v-.013h.513l-.012.013.005-1.785v-.008h.008l.473.001-.007.007.003-.852V.648h.004c.34 0 .42.003.42.003s-.08.003-.42.004l.003-.004.004.852v.007h-.007l-.473.001.008-.008.004 1.785V3.3h-.012l-.5.001.013-.013c0 .925.003 2.034.004 3.367v.018h-.288l.018-.018.005 5.065v.023h-.396l.023-.023.007 20.814-.03-.03h6.735l-.03.03.007-20.814.023.023h-.396v-.023l.005-5.065.018.019h-.289v-.019l.005-3.367.014.014-.5-.001h-.014v-.013l.004-1.785.01.01-.474-.002h-.008v-.008l.003-.852.005.005-.314-.003a2.07 2.07 0 0 1-.105-.002"/>
  <path fill="#DADBD8" d="M22.755 11.727c0 .016-1.437.03-3.21.03-1.774 0-3.211-.014-3.211-.03 0-.017 1.437-.03 3.21-.03 1.774 0 3.211.013 3.211.03Z"/>
  <path fill="#fff" d="M22.637 8.3c0 .016-1.34.03-2.994.03-1.655 0-2.995-.014-2.995-.03 0-.018 1.34-.031 2.995-.031 1.653 0 2.994.013 2.994.03Zm-.27-2.744c0 .017-1.22.03-2.724.03-1.505 0-2.724-.013-2.724-.03s1.219-.03 2.724-.03c1.504 0 2.724.013 2.724.03m0-1.164c0 .017-1.22.03-2.724.03-1.505 0-2.724-.013-2.724-.03s1.219-.03 2.724-.03c1.504 0 2.724.013 2.724.03m-.501-2.009c0 .016-.995.03-2.223.03-1.229 0-2.224-.014-2.224-.03 0-.017.995-.03 2.224-.03 1.228 0 2.223.013 2.223.03Zm.771 7.365c0 .017-1.34.03-2.994.03-1.655 0-2.995-.013-2.995-.03 0-.016 1.34-.03 2.995-.03 1.653 0 2.994.014 2.994.03Zm.31 3.685c0 .017-1.48.03-3.306.03-1.827 0-3.307-.013-3.307-.03s1.48-.03 3.307-.03c1.826 0 3.306.013 3.306.03Zm0 1.449c0 .016-1.48.03-3.306.03-1.827 0-3.307-.014-3.307-.03 0-.017 1.48-.03 3.307-.03 1.826 0 3.306.013 3.306.03Zm0 1.6c0 .017-1.48.03-3.306.03-1.827 0-3.307-.013-3.307-.03s1.48-.03 3.307-.03c1.826 0 3.306.013 3.306.03Zm0 1.449c0 .017-1.48.03-3.306.03-1.827 0-3.307-.013-3.307-.03s1.48-.03 3.307-.03c1.826 0 3.306.013 3.306.03Zm0 1.601c0 .017-1.48.03-3.306.03-1.827 0-3.307-.013-3.307-.03s1.48-.03 3.307-.03c1.826 0 3.306.013 3.306.03Zm0 1.448c0 .017-1.48.031-3.306.031-1.827 0-3.307-.014-3.307-.03 0-.017 1.48-.03 3.307-.03 1.826 0 3.306.013 3.306.03Zm0 1.601c0 .017-1.48.03-3.306.03-1.827 0-3.307-.013-3.307-.03s1.48-.03 3.307-.03c1.826 0 3.306.013 3.306.03Zm0 1.449c0 .017-1.48.03-3.306.03-1.827 0-3.307-.013-3.307-.03s1.48-.03 3.307-.03c1.826 0 3.306.013 3.306.03Zm0 1.6c0 .018-1.48.031-3.306.031-1.827 0-3.307-.014-3.307-.03 0-.017 1.48-.03 3.307-.03 1.826 0 3.306.013 3.306.03Zm0 1.45c0 .017-1.48.03-3.306.03-1.827 0-3.307-.013-3.307-.03s1.48-.03 3.307-.03c1.826 0 3.306.013 3.306.03Zm0 1.6c0 .017-1.48.03-3.306.03-1.827 0-3.307-.013-3.307-.03s1.48-.03 3.307-.03c1.826 0 3.306.013 3.306.03Zm0 1.45c0 .016-1.48.03-3.306.03-1.827 0-3.307-.014-3.307-.03 0-.018 1.48-.031 3.307-.031 1.826 0 3.306.013 3.306.03Z"/>
  <path fill="#F3F2F1" d="M21.068.651h-2.843v-.62h2.843v.62Z"/>
  <path fill="#DADBD8" d="M22.637 6.656c0 .017-1.31.03-2.926.03s-2.926-.013-2.926-.03 1.31-.03 2.926-.03 2.926.013 2.926.03Zm-.591-3.364c0 .017-1.076.03-2.403.03-1.328 0-2.404-.013-2.404-.03s1.076-.03 2.404-.03c1.327 0 2.403.013 2.403.03Zm-.454-1.785c0 .017-.904.03-2.019.03-1.115 0-2.019-.013-2.019-.03s.904-.03 2.02-.03c1.114 0 2.018.013 2.018.03Z"/>
  <path fill="#DADBD8" d="M21.049 32.534s-.002-.057-.002-.167l-.003-.487-.004-1.871-.009-6.908L21.018.03l.03.03h-2.804l.03-.03-.018 32.503-.012-.012 2.077.007.541.002.187.003-.182.002-.54.003-2.083.007h-.012v-.012L18.214.03V0h2.865v.03l-.013 23.093-.009 6.9a6130.81 6130.81 0 0 1-.006 2.348l-.002.163"/>
  <path fill="#fff" d="M19.673 7.703c-.01-.013.136-.14.327-.281.19-.142.353-.246.363-.233.01.014-.136.14-.327.282-.19.141-.353.246-.363.232Zm.332-.653c.01.014-.245.222-.569.466-.324.243-.595.43-.605.416-.01-.013.244-.221.569-.465.324-.243.595-.43.605-.416"/>
  <path fill="#DADBD8" d="M15.78 32.788h7.749v-.64H15.78v.64Z"/>
  <path fill="#fff" d="M20.234 10.326c.009.015-.296.222-.669.48-.374.257-.675.469-.685.455-.005-.006.064-.068.18-.16a9.319 9.319 0 0 1 .96-.662c.127-.077.21-.12.214-.113m-.21.402c.01.013-.078.092-.196.177-.119.084-.222.14-.232.127-.01-.014.078-.093.196-.177.118-.084.222-.141.232-.127m-.449 3.8c-.01.013-.16-.079-.337-.207-.175-.127-.31-.242-.3-.256.01-.013.16.08.336.207.176.128.31.242.3.256Zm.715 2.458c.009.015-.267.181-.616.371-.348.191-.637.333-.645.319-.008-.015.268-.181.616-.372.349-.19.637-.333.646-.318m-.58.024c.008.015-.101.091-.245.171-.144.08-.267.133-.275.118-.008-.014.102-.091.245-.17.144-.08.267-.134.275-.12Zm.724 4.197c.004.007-.092.069-.253.16a12.433 12.433 0 0 1-1.296.635c-.17.07-.278.11-.281.102-.004-.008.098-.06.264-.142l.647-.314.646-.319c.166-.081.27-.13.273-.122m-.427.549c.007.015-.142.089-.331.163-.19.075-.348.123-.354.107-.006-.015.142-.088.331-.163.19-.075.348-.123.354-.107Zm-.499 3.399c-.007.015-.169-.034-.362-.111-.193-.077-.345-.152-.34-.167.007-.016.169.034.363.11.193.077.345.152.339.168m.978 2.375c.007.015-.306.167-.7.339-.392.171-.716.298-.723.283-.007-.015.306-.167.7-.34.392-.171.716-.298.723-.283m-.201.449c.007.015-.1.073-.238.129-.137.055-.254.088-.26.072-.007-.016.1-.073.238-.129.137-.055.254-.088.26-.072Zm-.616 3.298c-.004.016-.172-.022-.356-.123-.185-.1-.307-.22-.297-.233.012-.014.148.082.326.18.179.097.333.16.328.176"/>
  <path fill="#E7E8E5" d="M4.327 32.834h6.707V14.529H4.327v18.305Z"/>
  <path fill="#FAFAF9" d="M5.894 16.175h-.619v-.653h.62v.653Z"/>
  <path fill="#DADBD8" d="M6.747 16.175h-.619v-.653h.62v.653Z"/>
  <path fill="#FAFAF9" d="M7.6 16.175h-.619v-.653h.62v.653Z"/>
  <path fill="#F3F2F1" d="M8.453 16.175h-.619v-.653h.62v.653Z"/>
  <path fill="#FAFAF9" d="M9.306 16.175h-.619v-.653h.62v.653Zm.854 0h-.62v-.653h.62v.653Zm-4.266 1.108h-.619v-.653h.62v.653Z"/>
  <path fill="#F3F2F1" d="M6.747 17.283h-.619v-.653h.62v.653Z"/>
  <path fill="#FAFAF9" d="M7.6 17.283h-.619v-.653h.62v.653Z"/>
  <path fill="#DADBD8" d="M8.453 17.283h-.619v-.653h.62v.653Z"/>
  <path fill="#FAFAF9" d="M9.306 17.283h-.619v-.653h.62v.653Zm.854 0h-.62v-.653h.62v.653Zm-4.266 1.109h-.619v-.654h.62v.654Zm.853 0h-.619v-.654h.62v.654Zm.853 0h-.619v-.654h.62v.654Zm.853 0h-.619v-.654h.62v.654Z"/>
  <path fill="#F3F2F1" d="M9.306 18.392h-.619v-.654h.62v.654Z"/>
  <path fill="#FAFAF9" d="M10.16 18.392h-.62v-.654h.62v.654ZM5.894 19.5h-.619v-.653h.62v.653Z"/>
  <path fill="#DADBD8" d="M6.747 19.5h-.619v-.653h.62v.653Z"/>
  <path fill="#F3F2F1" d="M7.6 19.5h-.619v-.653h.62v.653Z"/>
  <path fill="#FAFAF9" d="M8.453 19.5h-.619v-.653h.62v.653Z"/>
  <path fill="#DADBD8" d="M9.306 19.5h-.619v-.653h.62v.653Z"/>
  <path fill="#FAFAF9" d="M10.16 19.5h-.62v-.653h.62v.653Zm-4.266 1.108h-.619v-.653h.62v.653Zm.853 0h-.619v-.653h.62v.653Z"/>
  <path fill="#DADBD8" d="M7.6 20.608h-.619v-.653h.62v.653Z"/>
  <path fill="#FAFAF9" d="M8.453 20.608h-.619v-.653h.62v.653Zm.853 0h-.619v-.653h.62v.653Zm.854 0h-.62v-.653h.62v.653Z"/>
  <path fill="#F3F2F1" d="M5.894 21.717h-.619v-.654h.62v.654Z"/>
  <path fill="#FAFAF9" d="M6.747 21.717h-.619v-.654h.62v.654Zm.853 0h-.619v-.654h.62v.654Zm.853 0h-.619v-.654h.62v.654Zm.853 0h-.619v-.654h.62v.654Z"/>
  <path fill="#F3F2F1" d="M9.54 21.717h.62v-.653h-.62v.653Z"/>
  <path fill="#FAFAF9" d="M5.894 22.825h-.619v-.653h.62v.653Zm.853 0h-.619v-.653h.62v.653Zm.853 0h-.619v-.653h.62v.653Z"/>
  <path fill="#DADBD8" d="M8.453 22.825h-.619v-.653h.62v.653Z"/>
  <path fill="#FAFAF9" d="M9.306 22.825h-.619v-.653h.62v.653Zm.234 0h.62v-.653h-.62v.653Zm-3.646 1.108h-.619v-.653h.62v.653Z"/>
  <path fill="#DADBD8" d="M6.747 23.933h-.619v-.653h.62v.653Z"/>
  <path fill="#FAFAF9" d="M7.6 23.933h-.619v-.653h.62v.653Z"/>
  <path fill="#F3F2F1" d="M8.453 23.933h-.619v-.653h.62v.653Z"/>
  <path fill="#DADBD8" d="M9.306 23.933h-.619v-.653h.62v.653Z"/>
  <path fill="#FAFAF9" d="M9.54 23.933h.62v-.653h-.62v.653Zm-3.646 1.109h-.619v-.653h.62v.653"/>
  <path fill="#F3F2F1" d="M6.747 25.042h-.619v-.653h.62v.653"/>
  <path fill="#FAFAF9" d="M7.6 25.042h-.619v-.653h.62v.653"/>
  <path fill="#DADBD8" d="M8.453 25.042h-.619v-.653h.62v.653"/>
  <path fill="#F3F2F1" d="M9.306 25.042h-.619v-.653h.62v.653"/>
  <path fill="#FAFAF9" d="M9.54 25.042h.62v-.653h-.62v.653ZM5.894 26.15h-.619v-.653h.62v.653Zm.853 0h-.619v-.653h.62v.653Zm.853 0h-.619v-.653h.62v.653Zm.853 0h-.619v-.653h.62v.653Zm.853 0h-.619v-.653h.62v.653Zm.234 0h.62v-.653h-.62v.653Zm-3.646 1.108h-.619v-.653h.62v.653"/>
  <path fill="#DADBD8" d="M6.747 27.258h-.619v-.653h.62v.653"/>
  <path fill="#F3F2F1" d="M7.6 27.258h-.619v-.653h.62v.653"/>
  <path fill="#DADBD8" d="M8.453 27.258h-.619v-.653h.62v.653"/>
  <path fill="#F3F2F1" d="M9.306 27.258h-.619v-.653h.62v.653"/>
  <path fill="#FAFAF9" d="M9.54 27.258h.62v-.653h-.62v.653Zm-3.646 1.109h-.619v-.653h.62v.653Zm.853 0h-.619v-.653h.62v.653Z"/>
  <path fill="#F3F2F1" d="M7.6 28.367h-.619v-.653h.62v.653Z"/>
  <path fill="#FAFAF9" d="M8.453 28.367h-.619v-.653h.62v.653Zm.853 0h-.619v-.653h.62v.653Z"/>
  <path fill="#E7E8E5" d="M9.54 28.367h.62v-.653h-.62v.653Z"/>
  <path fill="#DADBD8" d="M5.894 29.475h-.619v-.653h.62v.653Z"/>
  <path fill="#F3F2F1" d="M6.747 29.475h-.619v-.653h.62v.653Z"/>
  <path fill="#FAFAF9" d="M7.6 29.475h-.619v-.653h.62v.653Z"/>
  <path fill="#DADBD8" d="M8.453 29.475h-.619v-.653h.62v.653Z"/>
  <path fill="#FAFAF9" d="M9.306 29.475h-.619v-.653h.62v.653Zm.234 0h.62v-.653h-.62v.653Zm-3.646 1.109h-.619v-.654h.62v.654Z"/>
  <path fill="#DADBD8" d="M6.747 30.584h-.619v-.654h.62v.654Z"/>
  <path fill="#FAFAF9" d="M7.6 30.584h-.619v-.654h.62v.654Zm.853 0h-.619v-.654h.62v.654Z"/>
  <path fill="#F3F2F1" d="M9.306 30.584h-.619v-.654h.62v.654Z"/>
  <path fill="#FAFAF9" d="M9.54 30.584h.62v-.654h-.62v.654Zm-3.646 1.108h-.619v-.653h.62v.653Z"/>
  <path fill="#F3F2F1" d="M6.747 31.692h-.619v-.653h.62v.653Z"/>
  <path fill="#DADBD8" d="M7.6 31.692h-.619v-.653h.62v.653Z"/>
  <path fill="#FAFAF9" d="M8.453 31.692h-.619v-.653h.62v.653Z"/>
  <path fill="#DADBD8" d="M9.306 31.692h-.619v-.653h.62v.653Z"/>
  <path fill="#FAFAF9" d="M9.54 31.692h.62v-.653h-.62v.653Z"/>
  <path fill="#DADBD8" d="M3.02 32.834h1.307V14.529H3.019v18.305Z"/>
  <path fill="#E7E8E5" d="M49.53 32.815h5.108v-13.94H49.53v13.94Z"/>
  <path fill="#FAFAF9" d="M50.724 20.128h-.472v-.498h.471v.498Z"/>
  <path fill="#DADBD8" d="M51.373 20.128h-.471v-.498h.471v.498Z"/>
  <path fill="#FAFAF9" d="M52.023 20.128h-.472v-.498h.472v.498Z"/>
  <path fill="#F3F2F1" d="M52.672 20.128h-.471v-.498h.471v.498Z"/>
  <path fill="#FAFAF9" d="M53.322 20.128h-.471v-.498h.471v.498Zm.65 0H53.5v-.498h.472v.498Zm-3.248.844h-.472v-.498h.471v.498Z"/>
  <path fill="#F3F2F1" d="M51.373 20.972h-.471v-.498h.471v.498Z"/>
  <path fill="#FAFAF9" d="M52.023 20.972h-.472v-.498h.472v.498Z"/>
  <path fill="#DADBD8" d="M52.672 20.972h-.471v-.498h.471v.498Z"/>
  <path fill="#FAFAF9" d="M53.322 20.972h-.471v-.498h.471v.498Zm.65 0H53.5v-.498h.472v.498Zm-3.248.844h-.472v-.497h.471v.497Zm.649 0h-.471v-.497h.471v.497Zm.65 0h-.472v-.497h.472v.497Zm.649 0h-.471v-.497h.471v.497Z"/>
  <path fill="#F3F2F1" d="M53.322 21.816h-.471v-.497h.471v.497Z"/>
  <path fill="#FAFAF9" d="M53.972 21.816H53.5v-.497h.472v.497Zm-3.248.844h-.472v-.497h.471v.497Z"/>
  <path fill="#DADBD8" d="M51.373 22.66h-.471v-.497h.471v.497Z"/>
  <path fill="#F3F2F1" d="M52.023 22.66h-.472v-.497h.472v.497Z"/>
  <path fill="#FAFAF9" d="M52.672 22.66h-.471v-.497h.471v.497Z"/>
  <path fill="#DADBD8" d="M53.322 22.66h-.471v-.497h.471v.497Z"/>
  <path fill="#FAFAF9" d="M53.972 22.66H53.5v-.497h.472v.497Zm-3.248.844h-.472v-.497h.471v.497Zm.649 0h-.471v-.497h.471v.497Z"/>
  <path fill="#DADBD8" d="M52.023 23.504h-.472v-.497h.472v.497Z"/>
  <path fill="#FAFAF9" d="M52.672 23.504h-.471v-.497h.471v.497Zm.65 0h-.471v-.497h.471v.497Zm.65 0H53.5v-.497h.472v.497Z"/>
  <path fill="#F3F2F1" d="M50.724 24.348h-.472v-.497h.471v.497Z"/>
  <path fill="#FAFAF9" d="M51.373 24.348h-.471v-.497h.471v.497Zm.65 0h-.472v-.497h.472v.497Zm.649 0h-.471v-.497h.471v.497Zm.65 0h-.471v-.497h.471v.497Z"/>
  <path fill="#F3F2F1" d="M53.972 24.348H53.5v-.497h.472v.497Z"/>
  <path fill="#FAFAF9" d="M50.724 25.192h-.472v-.497h.471v.497Zm.649 0h-.471v-.497h.471v.497Zm.65 0h-.472v-.497h.472v.497Z"/>
  <path fill="#DADBD8" d="M52.672 25.192h-.471v-.497h.471v.497Z"/>
  <path fill="#FAFAF9" d="M53.322 25.192h-.471v-.497h.471v.497Zm.65 0H53.5v-.497h.472v.497Zm-3.248.845h-.472v-.498h.471v.498Z"/>
  <path fill="#DADBD8" d="M51.373 26.037h-.471v-.498h.471v.498Z"/>
  <path fill="#FAFAF9" d="M52.023 26.037h-.472v-.498h.472v.498Z"/>
  <path fill="#F3F2F1" d="M52.672 26.037h-.471v-.498h.471v.498Z"/>
  <path fill="#DADBD8" d="M53.322 26.037h-.471v-.498h.471v.498Z"/>
  <path fill="#FAFAF9" d="M53.972 26.037H53.5v-.498h.472v.498Zm-3.248.843h-.472v-.497h.471v.498Z"/>
  <path fill="#F3F2F1" d="M51.373 26.88h-.471v-.497h.471v.498Z"/>
  <path fill="#FAFAF9" d="M52.023 26.88h-.472v-.497h.472v.498Z"/>
  <path fill="#DADBD8" d="M52.672 26.88h-.471v-.497h.471v.498Z"/>
  <path fill="#F3F2F1" d="M53.322 26.88h-.471v-.497h.471v.498Z"/>
  <path fill="#FAFAF9" d="M53.972 26.88H53.5v-.497h.472v.498Zm-3.248.845h-.472v-.498h.471v.498Zm.649 0h-.471v-.498h.471v.498Zm.65 0h-.472v-.498h.472v.498Zm.649 0h-.471v-.498h.471v.498Zm.65 0h-.471v-.498h.471v.498Zm.65 0H53.5v-.498h.472v.498Zm-3.248.845h-.472v-.498h.471v.497Z"/>
  <path fill="#DADBD8" d="M51.373 28.57h-.471v-.498h.471v.497Z"/>
  <path fill="#F3F2F1" d="M52.023 28.57h-.472v-.498h.472v.497Z"/>
  <path fill="#DADBD8" d="M52.672 28.57h-.471v-.498h.471v.497Z"/>
  <path fill="#F3F2F1" d="M53.322 28.57h-.471v-.498h.471v.497Z"/>
  <path fill="#FAFAF9" d="M53.972 28.57H53.5v-.498h.472v.497Zm-3.248.843h-.472v-.497h.471v.497Zm.649 0h-.471v-.497h.471v.497Z"/>
  <path fill="#F3F2F1" d="M52.023 29.413h-.472v-.497h.472v.497Z"/>
  <path fill="#FAFAF9" d="M52.672 29.413h-.471v-.497h.471v.497Zm.65 0h-.471v-.497h.471v.497Z"/>
  <path fill="#E7E8E5" d="M53.972 29.413H53.5v-.497h.472v.497Z"/>
  <path fill="#DADBD8" d="M50.724 30.257h-.472v-.497h.471v.497"/>
  <path fill="#F3F2F1" d="M51.373 30.257h-.471v-.497h.471v.497"/>
  <path fill="#FAFAF9" d="M52.023 30.257h-.472v-.497h.472v.497"/>
  <path fill="#DADBD8" d="M52.672 30.257h-.471v-.497h.471v.497"/>
  <path fill="#FAFAF9" d="M53.322 30.257h-.471v-.497h.471v.497m.65 0H53.5v-.497h.472v.497m-3.248.845h-.472v-.498h.471v.498"/>
  <path fill="#DADBD8" d="M51.373 31.102h-.471v-.498h.471v.498"/>
  <path fill="#FAFAF9" d="M52.023 31.102h-.472v-.498h.472v.498m.649 0h-.471v-.498h.471v.498"/>
  <path fill="#F3F2F1" d="M53.322 31.102h-.471v-.498h.471v.498"/>
  <path fill="#FAFAF9" d="M53.972 31.102H53.5v-.498h.472v.498m-3.248.844h-.472v-.498h.471v.498Z"/>
  <path fill="#F3F2F1" d="M51.373 31.946h-.471v-.498h.471v.498Z"/>
  <path fill="#DADBD8" d="M52.023 31.946h-.472v-.498h.472v.498Z"/>
  <path fill="#FAFAF9" d="M52.672 31.946h-.471v-.498h.471v.498Z"/>
  <path fill="#DADBD8" d="M53.322 31.946h-.471v-.498h.471v.498Z"/>
  <path fill="#FAFAF9" d="M53.972 31.946H53.5v-.498h.472v.498Z"/>
  <path fill="#DADBD8" d="M48.534 32.815h.996v-13.94h-.996v13.94Z"/>
  <path fill="#17282F" d="M55.537 32.872c0 .011-12.433.02-27.767.02-15.34 0-27.77-.009-27.77-.02 0-.012 12.43-.022 27.77-.022 15.334 0 27.767.01 27.767.022Z"/>
  <path fill="#F2575D" d="M23.281 32.886h1.937V3.218H23.28v29.668Z"/>
  <path fill="#CC4341" d="M25.218 32.886H23.28v-.052h.92v-.002h.837v.002h.18v.052m0-17.372H23.28V3.218h1.937v12.296Z"/>
  <path fill="#F2575D" d="M25.217 32.886h6.446V3.218h-6.446v29.668Z"/>
  <path fill="#33535F" d="M25.669 4.756h3.345v-.908H25.67v.908Z"/>
  <path fill="#6A858C" d="M28.861 4.756H25.67v-.908h3.345-3.345v.143l3.185.003.007.762Z"/>
  <path fill="#33535F" d="M29.56 4.756h1.672v-.908h-1.673v.908Z"/>
  <path fill="#6A858C" d="M31.048 4.756h-1.489v-.908h1.673-1.673v.132h1.489v.776"/>
  <path fill="#46585F" d="M29.014 4.756h-.153l-.007-.762-3.185-.003v-.143h3.345v.908Zm2.218 0h-.184V3.98h-1.489v-.132h1.673v.908"/>
  <path fill="#33535F" d="M25.669 6.318h3.345V5.41H25.67v.908Z"/>
  <path fill="#6A858C" d="M28.861 6.318H25.67V5.41h3.345-3.345v.143l3.185.003.007.762Z"/>
  <path fill="#33535F" d="M29.56 6.318h1.672V5.41h-1.673v.908Z"/>
  <path fill="#6A858C" d="M31.048 6.318h-1.489V5.41h1.673-1.673v.132h1.489v.776Z"/>
  <path fill="#46585F" d="M29.014 6.318h-.153l-.007-.762-3.185-.003V5.41h3.345v.908Zm2.218 0h-.184v-.776h-1.489V5.41h1.673v.908Z"/>
  <path fill="#33535F" d="M25.669 7.88h3.345v-.907H25.67v.907Z"/>
  <path fill="#6A858C" d="M28.861 7.88H25.67v-.907h3.345-3.345v.143l3.185.002.007.762"/>
  <path fill="#33535F" d="M29.56 7.88h1.672v-.907h-1.673v.907Z"/>
  <path fill="#6A858C" d="M31.048 7.88h-.236l-.004-.203-.544.001v.202h-.705v-.907h1.673-1.673v.132h1.489v.775Z"/>
  <path fill="#46585F" d="M29.014 7.88h-.153l-.007-.762-3.185-.002v-.143h3.345v.907m2.218 0h-.184v-.775h-1.489v-.132h1.673v.907Z"/>
  <path fill="#33535F" d="M25.669 9.442h3.345v-.907H25.67v.907Zm3.891 0h1.672v-.907h-1.673v.907Z"/>
  <path fill="#6A858C" d="M29.894 9.442h-.335v-.907h.672-.672v.132h.672v.322h-.337v.453Zm1.046 0h.108v-.775h-.108v.775Zm-2.079 0H25.67v-.907h3.345-3.345v.143l3.185.002.007.762Z"/>
  <path fill="#46585F" d="M29.014 9.442h-.153l-.007-.762-3.185-.002v-.143h3.345v.907Z"/>
  <path fill="#20353D" d="M30.231 8.667h.71v-.132h-.71v.132Z"/>
  <path fill="#46585F" d="M29.56 8.667h.671v-.132h-.672v.132Zm1.672.775h-.184v-.775h-.108v-.132h.292v.907Z"/>
  <path fill="#33535F" d="M25.669 11.005h3.345v-.908H25.67v.908Z"/>
  <path fill="#6A858C" d="M28.861 11.005h-.943v-.587h-1.465v.338h-.784v-.66h3.345-3.345v.144l3.185.002.007.762"/>
  <path fill="#33535F" d="M29.56 11.005h1.672v-.908h-1.673v.908Z"/>
  <path fill="#6A858C" d="M30.94 11.005h.108v-.776h-.108v.776Z"/>
  <path fill="#46585F" d="M29.014 11.005h-.153l-.007-.763-3.185-.002v-.143h3.345v.908Z"/>
  <path fill="#6A858C" d="M29.894 11.005h-.335v-.908h.335-.335v.132h.335v.776Z"/>
  <path fill="#20353D" d="M29.894 10.229h1.046v-.132h-1.046v.132Z"/>
  <path fill="#46585F" d="M31.232 11.005h-.184v-.776h-.108v-.132h.292v.908Zm-1.672-.776h.334v-.132h-.335v.132Z"/>
  <path fill="#33535F" d="M25.669 12.567h3.345v-.908H25.67v.908Zm3.891 0h1.672v-.908h-1.673v.908Z"/>
  <path fill="#20353D" d="M29.014 12.567h-.153l-.007-.763-3.185-.002v-.143h3.345v.908Zm2.218 0h-.184v-.776h-1.489v-.132h1.673v.908Z"/>
  <path fill="#33535F" d="M25.669 14.129h3.345v-.908H25.67v.908Zm3.891 0h1.672v-.908h-1.673v.908Z"/>
  <path fill="#20353D" d="M29.014 14.129h-.153l-.007-.763-3.185-.002v-.143h3.345v.908Zm2.218 0h-.184v-.776h-1.489v-.132h1.673v.908Z"/>
  <path fill="#33535F" d="M25.669 15.69h3.345v-.907H25.67v.908Zm3.891 0h1.672v-.907h-1.673v.908Z"/>
  <path fill="#20353D" d="M29.014 15.69h-.153l-.007-.762-3.185-.002v-.143h3.345v.908Zm2.218 0h-.184v-.775h-1.489v-.132h1.673v.908Z"/>
  <path fill="#33535F" d="M25.669 17.253h3.345v-.908H25.67v.908Zm3.891 0h1.672v-.908h-1.673v.908Z"/>
  <path fill="#20353D" d="M29.014 17.253h-.153l-.007-.762h-.423v-.146h.583v.908Zm2.218 0h-.184v-.776h-1.489v-.132h1.673v.908Z"/>
  <path fill="#33535F" d="M25.669 18.815h3.345v-.908H25.67v.908Zm3.891 0h1.672v-.908h-1.673v.908Z"/>
  <path fill="#20353D" d="M29.014 18.815h-.153l-.007-.762h-.423v-.146h.583v.908Zm2.218 0h-.184v-.776h-1.489v-.132h1.673v.908Z"/>
  <path fill="#33535F" d="M25.669 20.377h3.345v-.908H25.67v.908Zm3.891 0h1.672v-.908h-1.673v.908Z"/>
  <path fill="#20353D" d="M29.014 20.377h-.153l-.007-.762h-.423v-.146h.583v.908Zm2.204 0h-.17v-.776h-1.489v-.132h1.673v.613h-.014v.295"/>
  <path fill="#33535F" d="M25.669 21.94h3.345v-.909H25.67v.908Zm3.891 0h1.672v-.909h-1.673v.908Z"/>
  <path fill="#20353D" d="M29.014 21.94h-.153l-.007-.763h-.423v-.146h.583v.908Zm2.204 0h-.17v-.777h-1.489v-.132h1.66v.908"/>
  <path fill="#33535F" d="M25.669 23.501h3.345v-.908H25.67v.908Zm3.891 0h1.672v-.908h-1.673v.908Z"/>
  <path fill="#20353D" d="M29.014 23.501h-.153l-.007-.762h-.423v-.146h.583v.908m2.204 0h-.17v-.776h-1.489v-.132h1.66v.908"/>
  <path fill="#33535F" d="M24.724 4.668h-.408v-.653h.408v.653Zm0 1.522h-.408v-.654h.408v.654Zm0 1.539h-.408v-.654h.408v.654Zm0 1.539h-.408v-.654h.408v.654Zm0 1.539h-.408v-.654h.408v.654Zm0 1.539h-.408v-.654h.408v.654Zm0 1.539h-.408v-.654h.408v.654Zm0 1.539h-.408v-.654h.408v.654Zm-.408 1.539h.408v-.654h-.408v.654Zm0 1.539h.408v-.654h-.408v.654Zm0 1.538h.408v-.653h-.408v.654Zm.408 1.54h-.408v-.654h.408v.654Zm-.663-16.912h-.408v-.653h.408v.653Zm0 1.522h-.408v-.654h.408v.654Zm0 1.539h-.408v-.654h.408v.654Zm0 1.539h-.408v-.654h.408v.654Zm0 1.539h-.408v-.654h.408v.654Zm0 1.539h-.408v-.654h.408v.654Zm0 1.539h-.408v-.654h.408v.654Zm0 1.539h-.408v-.654h.408v.654Zm-.408 1.539h.408v-.654h-.408v.654Zm0 1.539h.408v-.654h-.408v.654Zm0 1.538h.408v-.653h-.408v.654Zm0 1.54h.408v-.654h-.408v.654Z"/>
  <path fill="#fff" d="M28.943 15.69c0 .012-.733.022-1.637.022s-1.637-.01-1.637-.021c0-.012.733-.021 1.637-.021s1.637.009 1.637.02m2.151 0c0 .012-.334.022-.744.022-.411 0-.744-.01-.744-.021 0-.012.333-.021.744-.021.41 0 .744.009.744.02Zm-2.151 1.58c0 .011-.733.02-1.637.02s-1.637-.009-1.637-.02c0-.012.733-.022 1.637-.022s1.637.01 1.637.021m2.151.001c0 .011-.334.02-.744.02-.411 0-.744-.009-.744-.02 0-.012.333-.022.744-.022.41 0 .744.01.744.021Zm-2.151 1.578c0 .012-.733.021-1.637.021s-1.637-.01-1.637-.021c0-.012.733-.021 1.637-.021s1.637.01 1.637.021m2.151 0c0 .012-.334.021-.744.021-.411 0-.744-.01-.744-.021 0-.012.333-.021.744-.021.41 0 .744.01.744.021Zm-2.151 1.579c0 .011-.733.02-1.637.02s-1.637-.009-1.637-.02c0-.012.733-.021 1.637-.021s1.637.009 1.637.02m2.151.001c0 .011-.334.02-.744.02-.411 0-.744-.009-.744-.02 0-.012.333-.021.744-.021.41 0 .744.009.744.02Zm-2.151 1.578c0 .012-.733.021-1.637.021s-1.637-.01-1.637-.02c0-.012.733-.022 1.637-.022s1.637.01 1.637.021m2.151 0c0 .012-.334.021-.744.021-.411 0-.744-.01-.744-.02 0-.012.333-.022.744-.022.41 0 .744.01.744.021Zm-2.151 1.579c0 .011-.733.02-1.637.02s-1.637-.009-1.637-.02c0-.012.733-.021 1.637-.021s1.637.01 1.637.02m2.151.001c0 .011-.334.02-.744.02-.411 0-.744-.009-.744-.02 0-.012.333-.021.744-.021.41 0 .744.01.744.02ZM28.943 9.46c0 .012-.733.021-1.637.021s-1.637-.009-1.637-.02c0-.012.733-.022 1.637-.022s1.637.01 1.637.021m0-1.58c0 .012-.733.021-1.637.021s-1.637-.009-1.637-.02c0-.012.733-.022 1.637-.022s1.637.01 1.637.021m0-1.58c0 .012-.733.022-1.637.022s-1.637-.01-1.637-.021c0-.012.733-.022 1.637-.022s1.637.01 1.637.022m0 4.704c0 .011-.733.02-1.637.02s-1.637-.009-1.637-.02c0-.012.733-.022 1.637-.022s1.637.01 1.637.022m0 1.544c0 .012-.733.021-1.637.021s-1.637-.01-1.637-.021c0-.012.733-.021 1.637-.021s1.637.01 1.637.02m0 1.545c0 .012-.733.021-1.637.021s-1.637-.01-1.637-.02c0-.012.733-.022 1.637-.022s1.637.01 1.637.021m-.063-9.341c0 .012-.73.022-1.63.022-.9 0-1.63-.01-1.63-.022 0-.011.73-.02 1.63-.02.9 0 1.63.009 1.63.02Zm2.214 0c0 .012-.334.022-.744.022-.411 0-.744-.01-.744-.022 0-.011.333-.02.744-.02.41 0 .744.009.744.02Zm0 1.548c0 .012-.334.022-.744.022-.411 0-.744-.01-.744-.021 0-.012.333-.022.744-.022.41 0 .744.01.744.022Zm0 1.549c0 .011-.334.02-.744.02-.411 0-.744-.009-.744-.02 0-.012.333-.021.744-.021.41 0 .744.01.744.02Zm0 1.611c0 .012-.334.021-.744.021-.411 0-.744-.009-.744-.02 0-.012.333-.022.744-.022.41 0 .744.01.744.021Zm0 1.545c0 .011-.334.02-.744.02-.411 0-.744-.009-.744-.02 0-.012.333-.022.744-.022.41 0 .744.01.744.022Zm0 1.55c0 .011-.334.02-.744.02-.411 0-.744-.009-.744-.02 0-.012.333-.022.744-.022.41 0 .744.01.744.022Zm0 1.549c0 .012-.334.022-.744.022-.411 0-.744-.01-.744-.021 0-.012.333-.022.744-.022.41 0 .744.01.744.021Z"/>
  <path fill="#F2575D" d="M12.78 32.801h8.75V11.424h-8.75v21.377Z"/>
  <path fill="#33535F" d="M16.277 31.951h.685V12.303h-.685V31.95Zm.963 0h.686V12.303h-.685V31.95Zm.965 0h.685V12.303h-.685V31.95Zm-4.828 0h.685V12.303h-.685V31.95Zm.963 0h.686V12.303h-.685V31.95Zm4.829 0h.685V12.303h-.685V31.95Zm.964 0h.685V12.303h-.685V31.95Z"/>
  <path fill="#CC4341" d="M15.586 20.955h-.56v-8.652h-.685v8.652h-.28v-8.652h-.684v8.652h-.597v-9.53h2.806v9.53"/>
  <path fill="#20353D" d="M13.377 20.955h.685v-8.652h-.685v8.652Zm.963 0h.686v-8.652h-.685v8.652Z"/>
  <path fill="#fff" d="M18.816 14.476c.008.009-.08.111-.199.229-.117.118-.22.207-.228.198-.008-.008.08-.11.198-.228.118-.118.22-.207.229-.199m.853.577c.008.008-.053.08-.136.16-.084.08-.158.137-.166.129-.008-.009.053-.08.136-.16.084-.08.157-.137.166-.129m.866-1.218c.008.009-.05.077-.13.154-.08.076-.15.131-.159.123-.008-.009.05-.078.13-.154s.15-.131.159-.123"/>
  <path fill="#17282F" d="M33.396 9.703h4.415V8.534h-4.415v1.17Z"/>
  <path fill="#33535F" d="M33.581 9.439h4.044V8.68h-4.044v.758Z"/>
  <path fill="#6A858C" d="M37.625 9.439H37.1a64.453 64.453 0 0 0-.007-.758h.533v.758Zm-.545 0h-1.441a64.453 64.453 0 0 0-.007-.758h1.454a82.17 82.17 0 0 0-.006.758Zm-1.46 0h-1.44a64.453 64.453 0 0 0-.007-.758h1.454c-.003.112-.005.373-.007.758m-1.46 0h-.578V8.68h.585a82.17 82.17 0 0 0-.006.758Z"/>
  <path fill="#17282F" d="M32.721 23.9h5.673V9.531H32.72v14.367Z"/>
  <path fill="#33535F" d="M33.025 23.9h5.03V9.863h-5.03V23.9Z"/>
  <path fill="#6A858C" d="M37.325 17.619h-.215a2384.857 2384.857 0 0 0-.01-7.755h.954V11.9h-.73v5.72Zm-.257 0h-.563v-4.034h-.856c-.002-1.537-.004-2.837-.008-3.72h1.437a1783.876 1783.876 0 0 0-.01 7.754m-3.024-1.173h-1.019V9.864h1.133c-.004 1.12-.008 2.908-.009 5h-.105v1.582m.82-1.582h-.673c-.001-2.092-.005-3.88-.01-5h1.437c-.004.884-.007 2.184-.008 3.72h-.746v1.28"/>
  <path fill="#17282F" d="M38.286 11.341c0 .012-1.206.021-2.693.021s-2.692-.01-2.692-.021c0-.012 1.205-.021 2.692-.021s2.693.01 2.693.021Zm0 1.439c0 .013-1.206.022-2.693.022s-2.692-.01-2.692-.021c0-.012 1.205-.021 2.692-.021s2.693.01 2.693.02Zm0 1.44c0 .012-1.206.022-2.693.022s-2.692-.01-2.692-.021c0-.012 1.205-.021 2.692-.021s2.693.009 2.693.02Zm0 1.44c0 .012-1.206.022-2.693.022s-2.692-.01-2.692-.021c0-.012 1.205-.022 2.692-.022s2.693.01 2.693.022Zm0 1.44c0 .012-1.206.022-2.693.022s-2.692-.01-2.692-.021c0-.012 1.205-.022 2.692-.022s2.693.01 2.693.021Zm0 1.44c0 .012-1.206.021-2.693.021s-2.692-.009-2.692-.02c0-.012 1.205-.022 2.692-.022s2.693.01 2.693.021Zm0 1.44c0 .012-1.206.021-2.693.021s-2.692-.01-2.692-.02c0-.012 1.205-.022 2.692-.022s2.693.01 2.693.021Zm0 1.44c0 .012-1.206.021-2.693.021s-2.692-.01-2.692-.02c0-.013 1.205-.022 2.692-.022s2.693.01 2.693.021Zm0 1.44c0 .012-1.206.021-2.693.021s-2.692-.01-2.692-.021c0-.012 1.205-.021 2.692-.021s2.693.01 2.693.021Z"/>
  <path fill="#17282F" d="M34.17 24.199c-.012 0-.021-3.488-.021-7.79s.01-7.789.021-7.789c.012 0 .021 3.487.021 7.79 0 4.301-.01 7.789-.02 7.789m1.459 0c-.012 0-.022-3.488-.022-7.79s.01-7.789.022-7.789c.011 0 .02 3.487.02 7.79 0 4.301-.009 7.789-.02 7.789m1.459 0c-.012 0-.021-3.488-.021-7.79s.01-7.789.021-7.789c.012 0 .021 3.487.021 7.79 0 4.301-.01 7.789-.021 7.789M32.757 9.532h.639v-.998h-.64v.998Z"/>
  <path fill="#0F191D" d="M32.757 9.532h.639v-.998h-.64v.998Z"/>
  <path fill="#17282F" d="M32.11 21.632h.639V9.541h-.639v12.091Z"/>
  <path fill="#0F191D" d="M32.11 20.082h.639V9.541h-.639v10.541Z"/>
  <path fill="#fff" d="M35.419 11.602c.008.009-.179.198-.417.422-.239.225-.438.4-.446.391-.008-.008.179-.197.417-.422.238-.224.438-.399.446-.39Zm1.351-.025c.008.009-.179.197-.417.422-.239.224-.438.4-.446.39-.008-.008.179-.196.417-.42.238-.225.438-.4.446-.392Zm.022-1.143c.008.008-.178.197-.416.421-.238.225-.438.4-.446.391-.008-.008.178-.197.417-.421.238-.225.438-.4.445-.391Z"/>
  <path fill="#33535F" d="M47.721 29.217h-7.52V15.826l7.52-3.665v17.056"/>
  <path fill="#E7E8E5" d="M43.216 22.597h.676v-.972h-.676v.972Z"/>
  <path fill="#979999" d="M43.892 22.597h-.114v-.852h-.562v-.12h.676v.972Z"/>
  <path fill="#E7E8E5" d="M43.216 24.478h.676v-.972h-.676v.972Z"/>
  <path fill="#979999" d="M43.892 24.478h-.114v-.852h-.562v-.12h.676v.972Z"/>
  <path fill="#E7E8E5" d="M43.216 26.359h.676v-.972h-.676v.972Z"/>
  <path fill="#979999" d="M43.892 26.359h-.114v-.852h-.562v-.12h.676v.972Z"/>
  <path fill="#E7E8E5" d="M43.216 29.224h.676V27.28h-.676v1.945Z"/>
  <path fill="#979999" d="M43.892 28.612h-.114V27.52h-.562v-.241h.676v1.333Z"/>
  <path fill="#E7E8E5" d="M43.216 20.67h.676v-.972h-.676v.972Z"/>
  <path fill="#979999" d="M43.892 20.67h-.114v-.851h-.562v-.121h.676v.972Z"/>
  <path fill="#E7E8E5" d="M43.216 18.743h.676v-.971h-.676v.971Z"/>
  <path fill="#979999" d="M43.892 18.743h-.114v-.851h-.562v-.12h.676v.971Z"/>
  <path fill="#E7E8E5" d="M43.216 16.817h.676v-.972h-.676v.972Z"/>
  <path fill="#979999" d="M43.892 16.817h-.114v-.852h-.562v-.12h.676v.972Z"/>
  <path fill="#E7E8E5" d="M44.748 22.554h.676v-.971h-.676v.971Z"/>
  <path fill="#979999" d="M45.424 22.554h-.114v-.851h-.562v-.12h.676v.971Z"/>
  <path fill="#E7E8E5" d="M44.748 24.436h.676v-.973h-.676v.973Z"/>
  <path fill="#979999" d="M45.424 24.436h-.114v-.852h-.562v-.12h.676v.972Z"/>
  <path fill="#E7E8E5" d="M44.748 26.317h.676v-.972h-.676v.972Z"/>
  <path fill="#979999" d="M45.424 26.317h-.114v-.852h-.562v-.12h.676v.972Z"/>
  <path fill="#E7E8E5" d="M44.748 29.224h.676v-1.998h-.676v1.998Z"/>
  <path fill="#979999" d="M45.424 28.612h-.114v-1.138h-.562v-.248h.676v1.386Z"/>
  <path fill="#E7E8E5" d="M44.748 20.628h.676v-.972h-.676v.972Z"/>
  <path fill="#979999" d="M45.424 20.628h-.114v-.852h-.562v-.12h.676v.972Z"/>
  <path fill="#E7E8E5" d="M44.748 18.701h.676v-.972h-.676v.972Z"/>
  <path fill="#979999" d="M45.424 18.701h-.114v-.851h-.562v-.12h.676v.971Z"/>
  <path fill="#E7E8E5" d="M44.748 16.774h.676v-.972h-.676v.972Z"/>
  <path fill="#979999" d="M45.424 16.774h-.114v-.851h-.562v-.12h.676v.971Z"/>
  <path fill="#E7E8E5" d="M46.28 22.586h.677v-.972h-.677v.972Z"/>
  <path fill="#979999" d="M46.957 22.586h-.114v-.851h-.563v-.12h.677v.971Z"/>
  <path fill="#E7E8E5" d="M46.28 24.468h.677v-.973h-.677v.973Z"/>
  <path fill="#979999" d="M46.957 24.468h-.114v-.852h-.563v-.12h.677v.972Z"/>
  <path fill="#E7E8E5" d="M46.28 26.349h.677v-.972h-.677v.972Z"/>
  <path fill="#979999" d="M46.957 26.349h-.114v-.852h-.563v-.12h.677v.972Z"/>
  <path fill="#E7E8E5" d="M46.28 29.203h.677v-1.945h-.677v1.945Z"/>
  <path fill="#979999" d="M46.957 28.612h-.114v-1.113h-.563v-.241h.677v1.354Z"/>
  <path fill="#E7E8E5" d="M46.28 20.66h.677v-.972h-.677v.972Z"/>
  <path fill="#979999" d="M46.957 20.66h-.114v-.852h-.563v-.12h.677v.972Z"/>
  <path fill="#E7E8E5" d="M46.28 18.733h.677v-.972h-.677v.972Z"/>
  <path fill="#979999" d="M46.957 18.733h-.114v-.851h-.563v-.12h.677v.971Z"/>
  <path fill="#E7E8E5" d="M46.28 16.806h.677v-.972h-.677v.972Z"/>
  <path fill="#979999" d="M46.957 16.806h-.114v-.851h-.563v-.12h.677v.971"/>
  <path fill="#E7E8E5" d="M46.28 15.164h.677v-.972h-.677v.972Z"/>
  <path fill="#979999" d="M46.957 15.164h-.114v-.851h-.563v-.121h.677v.972Z"/>
  <path fill="#17282F" d="M41.5 17.116h.237v-.972H41.5v.973Z"/>
  <path fill="#fff" d="M41.338 17.263h.433v-.147h-.433v.147Z"/>
  <path fill="#17282F" d="M41.5 18.968h.237v-.972H41.5v.972Z"/>
  <path fill="#fff" d="M41.338 19.115h.433v-.147h-.433v.147Z"/>
  <path fill="#17282F" d="M41.5 20.82h.237v-.972H41.5v.972Z"/>
  <path fill="#fff" d="M41.338 20.967h.433v-.147h-.433v.147Z"/>
  <path fill="#17282F" d="M41.5 22.672h.237V21.7H41.5v.972Z"/>
  <path fill="#fff" d="M41.338 22.818h.433v-.146h-.433v.146Z"/>
  <path fill="#17282F" d="M41.524 24.476h.237v-.973h-.237v.973Z"/>
  <path fill="#fff" d="M41.361 24.622h.433v-.147h-.432v.147Z"/>
  <path fill="#17282F" d="M41.547 26.279h.237v-.972h-.237v.972Z"/>
  <path fill="#fff" d="M41.385 26.425h.433v-.146h-.433v.146Z"/>
  <path fill="#17282F" d="M41.57 28.082h.237v-.972h-.236v.973Z"/>
  <path fill="#fff" d="M41.408 28.229h.433v-.146h-.433v.146Z"/>
  <path fill="#17282F" d="M40.776 17.116h.237v-.972h-.237v.973Z"/>
  <path fill="#fff" d="M40.613 17.263h.433v-.147h-.433v.147Z"/>
  <path fill="#17282F" d="M40.776 18.968h.237v-.972h-.237v.972Z"/>
  <path fill="#fff" d="M40.613 19.115h.433v-.147h-.433v.147Z"/>
  <path fill="#17282F" d="M40.776 20.82h.237v-.972h-.237v.972Z"/>
  <path fill="#fff" d="M40.613 20.967h.433v-.147h-.433v.147Z"/>
  <path fill="#17282F" d="M40.776 22.672h.237V21.7h-.237v.972Z"/>
  <path fill="#fff" d="M40.613 22.818h.433v-.146h-.433v.146Z"/>
  <path fill="#17282F" d="M40.799 24.476h.237v-.973h-.237v.973Z"/>
  <path fill="#fff" d="M40.637 24.622h.432v-.147h-.432v.147Z"/>
  <path fill="#17282F" d="M40.822 26.279h.237v-.972h-.236v.972Z"/>
  <path fill="#fff" d="M40.66 26.425h.433v-.146h-.433v.146Z"/>
  <path fill="#17282F" d="M40.846 28.082h.237v-.972h-.237v.973Z"/>
  <path fill="#fff" d="M40.684 28.229h.433v-.146h-.433v.146Z"/>
  <path fill="#A7A9A8" d="M40.504 29.224h.016v-.008h-.016v.008Z"/>
  <path fill="#20353D" d="M40.52 29.217h-.016v-.21h.016v.21Zm1.812-.605h-1.828v-8.53h-.303v-4.256l2.177-1.061-.046 13.847m-.924-.53v.147h.433v-.146h-.433Zm-.724 0v.147h.433v-.146h-.433Zm.887-.972v.973h.237v-.973h-.237m-.725 0v.973h.237v-.973h-.237Zm.539-.831v.146h.433v-.146h-.433Zm-.725 0v.146h.433v-.146h-.433Zm.887-.972v.972h.237v-.972h-.237Zm-.724 0v.972h.237v-.972h-.237Zm.538-.832v.147h.433v-.147h-.432Zm-.724 0v.147h.433v-.147h-.433Zm.887-.972v.972h.237v-.972h-.237Zm-.725 0v.972h.237v-.972H40.8Zm.539-.831v.146h.433v-.146h-.433Zm-.725 0v.146h.433v-.146h-.433Zm.887-.972v.972h.237V21.7H41.5Zm-.724 0v.972h.237V21.7h-.237Zm.562-.88v.146h.433v-.146h-.433Zm-.725 0v.146h.433v-.146h-.433Zm.887-.972v.972h.237v-.972H41.5Zm-.724 0v.972h.237v-.972h-.237Zm.562-.88v.147h.433v-.147h-.433Zm-.725 0v.147h.433v-.147h-.433Zm.887-.972v.972h.237v-.972H41.5Zm-.724 0v.972h.237v-.972h-.237Zm.562-.88v.147h.433v-.147h-.433Zm-.725 0v.147h.433v-.147h-.433Zm.887-.972v.972h.237v-.972H41.5Zm-.724 0v.972h.237v-.972h-.237Z"/>
  <path fill="#0F191D" d="M41.5 17.116h.237v-.972H41.5v.973Z"/>
  <path fill="#A7A9A8" d="M41.338 17.263h.433v-.147h-.433v.147Z"/>
  <path fill="#0F191D" d="M41.5 18.968h.237v-.972H41.5v.972Z"/>
  <path fill="#A7A9A8" d="M41.338 19.115h.433v-.147h-.433v.147Z"/>
  <path fill="#0F191D" d="M41.5 20.82h.237v-.972H41.5v.972Z"/>
  <path fill="#A7A9A8" d="M41.338 20.967h.433v-.147h-.433v.147Z"/>
  <path fill="#0F191D" d="M41.5 22.672h.237V21.7H41.5v.972Z"/>
  <path fill="#A7A9A8" d="M41.338 22.818h.433v-.146h-.433v.146Z"/>
  <path fill="#0F191D" d="M41.524 24.476h.237v-.973h-.237v.973Z"/>
  <path fill="#A7A9A8" d="M41.361 24.622h.433v-.147h-.432v.147Z"/>
  <path fill="#0F191D" d="M41.547 26.279h.237v-.972h-.237v.972Z"/>
  <path fill="#A7A9A8" d="M41.385 26.425h.433v-.146h-.433v.146Z"/>
  <path fill="#0F191D" d="M41.57 28.082h.237v-.972h-.236v.973Z"/>
  <path fill="#A7A9A8" d="M41.408 28.229h.433v-.146h-.433v.146Z"/>
  <path fill="#0F191D" d="M40.776 17.116h.237v-.972h-.237v.973Z"/>
  <path fill="#A7A9A8" d="M40.613 17.263h.433v-.147h-.433v.147Z"/>
  <path fill="#0F191D" d="M40.776 18.968h.237v-.972h-.237v.972Z"/>
  <path fill="#A7A9A8" d="M40.613 19.115h.433v-.147h-.433v.147Z"/>
  <path fill="#0F191D" d="M40.776 20.82h.237v-.972h-.237v.972Z"/>
  <path fill="#A7A9A8" d="M40.613 20.967h.433v-.147h-.433v.147Z"/>
  <path fill="#0F191D" d="M40.776 22.672h.237V21.7h-.237v.972Z"/>
  <path fill="#A7A9A8" d="M40.613 22.818h.433v-.146h-.433v.146Z"/>
  <path fill="#0F191D" d="M40.799 24.476h.237v-.973h-.237v.973Z"/>
  <path fill="#A7A9A8" d="M40.637 24.622h.432v-.147h-.432v.147Z"/>
  <path fill="#0F191D" d="M40.822 26.279h.237v-.972h-.236v.972Z"/>
  <path fill="#A7A9A8" d="M40.66 26.425h.433v-.146h-.433v.146Z"/>
  <path fill="#0F191D" d="M40.846 28.082h.237v-.972h-.237v.973Z"/>
  <path fill="#A7A9A8" d="M40.684 28.229h.433v-.146h-.433v.146Z"/>
  <path fill="#DADBD8" d="M22.004 32.832h6.427V15.514h-6.427v17.318Z"/>
  <path fill="#33535F" d="M24.501 16.78h.422v-.607h-.422v.606Zm.648 0h.422v-.607h-.422v.606Zm.647 0h.422v-.607h-.422v.606Zm.648 0h.422v-.607h-.422v.606Zm.647 0h.422v-.607h-.422v.606Zm.648 0h.422v-.607h-.422v.606Zm-5.465 0h.422v-.607h-.422v.606Zm.647 0h.422v-.607h-.422v.606Zm.648 0h.422v-.607h-.422v.606Zm.932.9h.422v-.607h-.422v.607Zm.648 0h.422v-.607h-.422v.607Zm.647 0h.422v-.607h-.422v.607Zm.648 0h.422v-.607h-.422v.607Zm.647 0h.422v-.607h-.422v.607Zm.648 0h.422v-.607h-.422v.607Zm-5.465 0h.422v-.607h-.422v.607Zm.647 0h.422v-.607h-.422v.607Zm.648 0h.422v-.607h-.422v.607Zm.932.9h.422v-.606h-.422v.606Zm.648 0h.422v-.606h-.422v.606Zm.647 0h.422v-.606h-.422v.606Z"/>
  <path fill="#20353D" d="M26.218 18.58h-.07v-.531h-.352v-.075h.422v.606Z"/>
  <path fill="#33535F" d="M26.444 18.58h.422v-.606h-.422v.606Z"/>
  <path fill="#20353D" d="M26.866 18.58h-.071v-.531h-.351v-.075h.422v.606Z"/>
  <path fill="#33535F" d="M27.091 18.58h.422v-.606h-.422v.606Zm.648 0h.422v-.606h-.422v.606Z"/>
  <path fill="#20353D" d="M28.161 18.58h-.071v-.531h-.351v-.075h.422v.606Z"/>
  <path fill="#33535F" d="M22.274 18.58h.422v-.606h-.422v.606Zm.647 0h.422v-.606h-.422v.606Zm.648 0h.422v-.606h-.422v.606Zm.932.901h.422v-.607h-.422v.607Zm.648 0h.422v-.607h-.422v.607Z"/>
  <path fill="#20353D" d="M25.57 19.481h-.07v-.531h-.351v-.075h.422v.606Z"/>
  <path fill="#33535F" d="M25.796 19.481h.422v-.607h-.422v.607Z"/>
  <path fill="#20353D" d="M26.218 19.481h-.07v-.531h-.352v-.075h.422v.606Z"/>
  <path fill="#33535F" d="M26.444 19.481h.422v-.607h-.422v.607Z"/>
  <path fill="#20353D" d="M26.866 19.481h-.071v-.531h-.351v-.075h.422v.606Z"/>
  <path fill="#33535F" d="M27.091 19.481h.422v-.607h-.422v.607Zm.648 0h.422v-.607h-.422v.607Z"/>
  <path fill="#20353D" d="M28.161 19.481h-.071v-.531h-.351v-.075h.422v.606Z"/>
  <path fill="#33535F" d="M22.274 19.481h.422v-.607h-.422v.607Zm.647 0h.422v-.607h-.422v.607Zm.648 0h.422v-.607h-.422v.607Zm.932.901h.422v-.607h-.422v.607Z"/>
  <path fill="#20353D" d="M24.923 20.382h-.07v-.532H24.5v-.075h.422v.607Z"/>
  <path fill="#33535F" d="M25.149 20.382h.422v-.607h-.422v.607Z"/>
  <path fill="#20353D" d="M25.57 20.382h-.07v-.532h-.351v-.075h.422v.607Z"/>
  <path fill="#33535F" d="M25.796 20.382h.422v-.607h-.422v.607Z"/>
  <path fill="#20353D" d="M26.218 20.382h-.07v-.532h-.352v-.075h.422v.607Z"/>
  <path fill="#33535F" d="M26.444 20.382h.422v-.607h-.422v.607Z"/>
  <path fill="#20353D" d="M26.866 20.382h-.071v-.532h-.351v-.075h.422v.607Z"/>
  <path fill="#33535F" d="M27.091 20.382h.422v-.607h-.422v.607Z"/>
  <path fill="#20353D" d="M27.514 20.382h-.072v-.532h-.35v-.075h.422v.607Z"/>
  <path fill="#33535F" d="M27.739 20.382h.422v-.607h-.422v.607Z"/>
  <path fill="#20353D" d="M28.161 20.382h-.071v-.532h-.351v-.075h.422v.607Z"/>
  <path fill="#33535F" d="M22.274 20.382h.422v-.607h-.422v.607Zm.647 0h.422v-.607h-.422v.607Zm.648 0h.422v-.607h-.422v.607Zm.932.9h.422v-.606h-.422v.606Z"/>
  <path fill="#20353D" d="M24.923 21.282h-.07v-.531H24.5v-.075h.422v.606Z"/>
  <path fill="#33535F" d="M25.149 21.282h.422v-.606h-.422v.606Z"/>
  <path fill="#20353D" d="M25.57 21.282h-.07v-.531h-.351v-.075h.422v.606Z"/>
  <path fill="#33535F" d="M25.796 21.282h.422v-.606h-.422v.606Z"/>
  <path fill="#20353D" d="M26.218 21.282h-.07v-.531h-.352v-.075h.422v.606Z"/>
  <path fill="#33535F" d="M26.444 21.282h.422v-.606h-.422v.606Z"/>
  <path fill="#20353D" d="M26.866 21.282h-.071v-.531h-.351v-.075h.422v.606Z"/>
  <path fill="#33535F" d="M27.091 21.282h.422v-.606h-.422v.606Z"/>
  <path fill="#20353D" d="M27.514 21.282h-.072v-.531h-.35v-.075h.422v.606Z"/>
  <path fill="#33535F" d="M27.739 21.282h.422v-.606h-.422v.606Z"/>
  <path fill="#20353D" d="M28.161 21.282h-.071v-.531h-.351v-.075h.422v.606Z"/>
  <path fill="#33535F" d="M22.274 21.282h.422v-.606h-.422v.606Zm.647 0h.422v-.606h-.422v.606Zm.648 0h.422v-.606h-.422v.606Zm.932 1.331h.422v-.606h-.422v.606Z"/>
  <path fill="#20353D" d="M24.923 22.613h-.07v-.53H24.5v-.076h.422v.606Z"/>
  <path fill="#33535F" d="M25.149 22.613h.422v-.606h-.422v.606Z"/>
  <path fill="#20353D" d="M25.57 22.613h-.07v-.53h-.351v-.076h.422v.606Z"/>
  <path fill="#33535F" d="M25.796 22.613h.422v-.606h-.422v.606Z"/>
  <path fill="#20353D" d="M26.218 22.613h-.07v-.53h-.352v-.076h.422v.606Z"/>
  <path fill="#33535F" d="M26.444 22.613h.422v-.606h-.422v.606Z"/>
  <path fill="#20353D" d="M26.866 22.613h-.071v-.53h-.351v-.076h.422v.606Z"/>
  <path fill="#33535F" d="M27.091 22.613h.422v-.606h-.422v.606Z"/>
  <path fill="#20353D" d="M27.514 22.613h-.072v-.53h-.35v-.076h.422v.606Z"/>
  <path fill="#33535F" d="M27.739 22.613h.422v-.606h-.422v.606Z"/>
  <path fill="#20353D" d="M28.161 22.613h-.071v-.53h-.351v-.076h.422v.606Z"/>
  <path fill="#33535F" d="M22.274 22.613h.422v-.606h-.422v.606Zm.647 0h.422v-.606h-.422v.606Zm.648 0h.422v-.606h-.422v.606Zm.932.87h.422v-.606h-.422v.606Z"/>
  <path fill="#20353D" d="M24.923 23.483h-.07v-.531h-.333v-.075h.403v.606Z"/>
  <path fill="#33535F" d="M25.149 23.483h.422v-.606h-.422v.606Z"/>
  <path fill="#20353D" d="M25.57 23.483h-.07v-.531h-.351v-.075h.422v.606Z"/>
  <path fill="#33535F" d="M25.796 23.483h.422v-.606h-.422v.606Z"/>
  <path fill="#20353D" d="M26.218 23.483h-.07v-.531h-.352v-.075h.422v.606Z"/>
  <path fill="#33535F" d="M26.444 23.483h.422v-.606h-.422v.606Z"/>
  <path fill="#20353D" d="M26.866 23.483h-.071v-.531h-.351v-.075h.422v.606Z"/>
  <path fill="#33535F" d="M27.091 23.483h.422v-.606h-.422v.606Z"/>
  <path fill="#20353D" d="M27.514 23.483h-.072v-.531h-.35v-.075h.422v.606Z"/>
  <path fill="#33535F" d="M27.739 23.483h.422v-.606h-.422v.606Z"/>
  <path fill="#20353D" d="M28.161 23.483h-.071v-.531h-.351v-.075h.422v.606Z"/>
  <path fill="#33535F" d="M22.274 23.483h.422v-.606h-.422v.606Zm.647 0h.422v-.606h-.422v.606Zm.648 0h.422v-.606h-.422v.606Zm.932.87h.422v-.607h-.422v.607Z"/>
  <path fill="#20353D" d="M24.923 24.353h-.07v-.531h-.333v-.075h.403v.606Z"/>
  <path fill="#33535F" d="M25.149 24.353h.422v-.607h-.422v.607Z"/>
  <path fill="#20353D" d="M25.57 23.866h-.07v-.044h-.351v-.075h.422v.119Z"/>
  <path fill="#33535F" d="M25.796 24.353h.422v-.607h-.422v.607Z"/>
  <path fill="#20353D" d="M26.218 23.866h-.07v-.044h-.352v-.075h.422v.119Z"/>
  <path fill="#33535F" d="M26.444 24.353h.422v-.607h-.422v.607Z"/>
  <path fill="#20353D" d="M26.866 23.866h-.071v-.044h-.351v-.075h.422v.119Z"/>
  <path fill="#33535F" d="M27.091 24.353h.422v-.607h-.422v.607Z"/>
  <path fill="#20353D" d="M27.514 23.866h-.072v-.044h-.35v-.075h.422v.119Z"/>
  <path fill="#33535F" d="M27.739 24.353h.422v-.607h-.422v.607Z"/>
  <path fill="#20353D" d="M28.161 23.866h-.071v-.044h-.351v-.075h.422v.119Z"/>
  <path fill="#33535F" d="M22.274 24.353h.422v-.607h-.422v.607Zm.647 0h.422v-.607h-.422v.607Zm.648 0h.422v-.607h-.422v.607Zm.932.87h.422v-.607h-.422v.607Z"/>
  <path fill="#20353D" d="M24.923 25.223h-.07v-.532h-.333v-.075h.403v.607"/>
  <path fill="#33535F" d="M25.149 25.223h.422v-.607h-.422v.607Zm.647 0h.422v-.607h-.422v.607Zm.648 0h.422v-.607h-.422v.607Zm.647 0h.422v-.607h-.422v.607Zm.648 0h.422v-.607h-.422v.607Zm-5.465 0h.422v-.607h-.422v.607Zm.647 0h.422v-.607h-.422v.607Zm.648 0h.422v-.607h-.422v.607Zm.932.869h.422v-.606h-.422v.606Z"/>
  <path fill="#20353D" d="M24.923 26.092h-.07v-.531h-.333v-.075h.403v.606"/>
  <path fill="#33535F" d="M25.149 26.092h.422v-.606h-.422v.606Zm.647 0h.422v-.606h-.422v.606Zm.648 0h.422v-.606h-.422v.606Zm.647 0h.422v-.606h-.422v.606Zm.648 0h.422v-.606h-.422v.606Zm-5.465 0h.422v-.606h-.422v.606Zm.647 0h.422v-.606h-.422v.606Zm.648 0h.422v-.606h-.422v.606Zm.932.87h.422v-.606h-.422v.606Z"/>
  <path fill="#20353D" d="M24.923 26.962h-.07v-.531h-.333v-.075h.403v.606Z"/>
  <path fill="#33535F" d="M25.149 26.962h.422v-.606h-.422v.606Zm.647 0h.422v-.606h-.422v.606Zm.648 0h.422v-.606h-.422v.606Zm.647 0h.422v-.606h-.422v.606Zm.648 0h.422v-.606h-.422v.606Zm-5.465 0h.422v-.606h-.422v.606Zm.647 0h.422v-.606h-.422v.606Zm.648 0h.422v-.606h-.422v.606Zm.932 1.14h.422v-.606h-.422v.606Z"/>
  <path fill="#20353D" d="M24.923 28.102h-.07v-.531h-.333v-.075h.403v.606Z"/>
  <path fill="#33535F" d="M25.149 28.102h.422v-.606h-.422v.606Zm.647 0h.422v-.606h-.422v.606Zm.648 0h.422v-.606h-.422v.606Zm.647 0h.422v-.606h-.422v.606Zm.648 0h.422v-.606h-.422v.606Zm-5.465 0h.422v-.606h-.422v.606Zm.647 0h.422v-.606h-.422v.606Zm.648 0h.422v-.606h-.422v.606Zm.932.87h.422v-.607h-.422v.607Z"/>
  <path fill="#20353D" d="M24.923 28.972h-.07v-.532h-.333v-.075h.403v.607"/>
  <path fill="#33535F" d="M25.149 28.972h.422v-.607h-.422v.607Zm.647 0h.422v-.607h-.422v.607Zm.648 0h.422v-.607h-.422v.607Zm.647 0h.422v-.607h-.422v.607Zm.648 0h.422v-.607h-.422v.607Zm-5.465 0h.422v-.607h-.422v.607Zm.647 0h.422v-.607h-.422v.607Zm.648 0h.422v-.607h-.422v.607Zm.932.87h.422v-.607h-.422v.607Z"/>
  <path fill="#20353D" d="M24.923 29.842h-.07v-.532h-.333v-.075h.403v.607Z"/>
  <path fill="#33535F" d="M25.149 29.842h.422v-.607h-.422v.607Zm.647 0h.422v-.607h-.422v.607Zm.648 0h.422v-.607h-.422v.607Zm.647 0h.422v-.607h-.422v.607Zm.648 0h.422v-.607h-.422v.607Zm-5.465 0h.422v-.607h-.422v.607Zm.647 0h.422v-.607h-.422v.607Zm.648 0h.422v-.607h-.422v.607Zm.932.869h.422v-.606h-.422v.606Z"/>
  <path fill="#20353D" d="M24.923 30.711h-.07v-.531h-.333v-.075h.403v.606Z"/>
  <path fill="#33535F" d="M25.149 30.711h.422v-.606h-.422v.606Zm.647 0h.422v-.606h-.422v.606Zm.648 0h.422v-.606h-.422v.606Zm.647 0h.422v-.606h-.422v.606Zm.648 0h.422v-.606h-.422v.606Zm-5.465 0h.422v-.606h-.422v.606Zm.647 0h.422v-.606h-.422v.606Zm.648 0h.422v-.606h-.422v.606Zm.932.869h.422v-.606h-.422v.607Z"/>
  <path fill="#20353D" d="M24.923 31.58h-.07v-.53h-.333v-.076h.403v.607Z"/>
  <path fill="#33535F" d="M25.149 31.58h.422v-.606h-.422v.607Zm.647 0h.422v-.606h-.422v.607Zm.648 0h.422v-.606h-.422v.607Zm.647 0h.422v-.606h-.422v.607Zm.648 0h.422v-.606h-.422v.607Zm-5.465 0h.422v-.606h-.422v.607Zm.647 0h.422v-.606h-.422v.607Zm.648 0h.422v-.606h-.422v.607Zm.932.87h.422v-.606h-.422v.607Z"/>
  <path fill="#20353D" d="M24.923 32.45h-.07v-.53h-.333v-.076h.403v.607Z"/>
  <path fill="#33535F" d="M25.149 32.45h.422v-.606h-.422v.607Zm.647 0h.422v-.606h-.422v.607Zm.648 0h.422v-.606h-.422v.607Zm.647 0h.422v-.606h-.422v.607Zm.648 0h.422v-.606h-.422v.607Zm-5.465 0h.422v-.606h-.422v.607Zm.647 0h.422v-.606h-.422v.607Zm.648 0h.422v-.606h-.422v.607Z"/>
  <path fill="#7D969B" d="M24.501 16.78h.351v-.532h-.35v.531Z"/>
  <path fill="#718388" d="M24.923 16.78h-.07v-.532H24.5v-.075h.422v.606"/>
  <path fill="#7D969B" d="M25.149 16.78h.35v-.532h-.35v.531Z"/>
  <path fill="#718388" d="M25.57 16.78h-.07v-.532h-.351v-.075h.422v.606"/>
  <path fill="#7D969B" d="M25.796 16.78h.351v-.532h-.35v.531Z"/>
  <path fill="#718388" d="M26.218 16.78h-.07v-.532h-.352v-.075h.422v.606"/>
  <path fill="#7D969B" d="M26.444 16.78h.35v-.532h-.35v.531Z"/>
  <path fill="#718388" d="M26.866 16.78h-.071v-.532h-.351v-.075h.422v.606"/>
  <path fill="#7D969B" d="M27.091 16.78h.351v-.532h-.35v.531Z"/>
  <path fill="#718388" d="M27.514 16.78h-.072v-.532h-.35v-.075h.422v.606"/>
  <path fill="#7D969B" d="M27.739 16.78h.35v-.532h-.35v.531Z"/>
  <path fill="#718388" d="M28.161 16.78h-.071v-.532h-.351v-.075h.422v.606"/>
  <path fill="#7D969B" d="M24.501 17.68h.351v-.532h-.35v.532Z"/>
  <path fill="#718388" d="M24.923 17.68h-.07v-.532H24.5v-.075h.422v.607Z"/>
  <path fill="#7D969B" d="M25.149 17.68h.35v-.532h-.35v.532Z"/>
  <path fill="#718388" d="M25.57 17.68h-.07v-.532h-.351v-.075h.422v.607Z"/>
  <path fill="#7D969B" d="M25.796 17.68h.351v-.532h-.35v.532Z"/>
  <path fill="#718388" d="M26.218 17.68h-.07v-.532h-.352v-.075h.422v.607Z"/>
  <path fill="#7D969B" d="M26.444 17.68h.35v-.532h-.35v.532Z"/>
  <path fill="#718388" d="M26.866 17.68h-.071v-.532h-.351v-.075h.422v.607Z"/>
  <path fill="#7D969B" d="M27.091 17.68h.351v-.532h-.35v.532Z"/>
  <path fill="#718388" d="M27.514 17.68h-.072v-.532h-.35v-.075h.422v.607Z"/>
  <path fill="#7D969B" d="M27.739 17.68h.35v-.532h-.35v.532Z"/>
  <path fill="#718388" d="M28.161 17.68h-.071v-.532h-.351v-.075h.422v.607Z"/>
  <path fill="#7D969B" d="M24.501 18.58h.351v-.531h-.35v.531Z"/>
  <path fill="#718388" d="M24.923 18.58h-.07v-.531H24.5v-.075h.422v.606Z"/>
  <path fill="#7D969B" d="M25.149 18.58h.35v-.531h-.35v.531Z"/>
  <path fill="#718388" d="M25.57 18.58h-.07v-.531h-.351v-.075h.422v.606Z"/>
  <path fill="#7D969B" d="M27.091 18.58h.351v-.531h-.35v.531Z"/>
  <path fill="#718388" d="M27.514 18.58h-.072v-.531h-.35v-.075h.422v.606Z"/>
  <path fill="#7D969B" d="M24.501 19.481h.351v-.531h-.35v.531Z"/>
  <path fill="#718388" d="M24.923 19.481h-.07v-.531H24.5v-.075h.422v.606Z"/>
  <path fill="#7D969B" d="M27.091 19.481h.351v-.531h-.35v.531Z"/>
  <path fill="#718388" d="M27.514 19.481h-.072v-.531h-.35v-.075h.422v.606Z"/>
  <path fill="#A7A9A8" d="M22.004 32.834h1.277v-.002h-1.277v.002Z"/>
  <path fill="#862B2C" d="M23.281 32.834h.92v-.002h-.92v.002Z"/>
  <path fill="#8F9192" d="M24.201 32.832h-2.197v-.016H24.2v.016Zm0-10.09h-2.197v-7.228H24.2v7.229Zm-.282-.129h.072v-.606h-.422v.606h.35Zm-.647 0h.071v-.606h-.422v.606h.35Zm-.648 0h.072v-.606h-.423v.606h.351Zm1.295-1.33h.072v-.607h-.422v.606h.35Zm-.647 0h.071v-.607h-.422v.606h.35Zm-.648 0h.072v-.607h-.423v.606h.351Zm1.295-.901h.072v-.607h-.422v.607h.35Zm-.647 0h.071v-.607h-.422v.607h.35Zm-.648 0h.072v-.607h-.423v.607h.351Zm1.295-.901h.072v-.607h-.422v.607h.35Zm-.647 0h.071v-.607h-.422v.607h.35Zm-.648 0h.072v-.607h-.423v.607h.351Zm1.295-.9h.072v-.607h-.422v.606h.35Zm-.647 0h.071v-.607h-.422v.606h.35Zm-.648 0h.072v-.607h-.423v.606h.351Zm1.295-.901h.072v-.607h-.422v.607h.35Zm-.647 0h.071v-.607h-.422v.607h.35Zm-.648 0h.072v-.607h-.423v.607h.351Zm1.295-.9h.072v-.607h-.422v.606h.35m-.647 0h.071v-.606h-.422v.606h.35Zm-.648 0h.072v-.606h-.423v.606h.351Z"/>
  <path fill="#20353D" d="M23.272 18.58h-.351v-.606h.422-.422v.075h.35v.531Z"/>
  <path fill="#142127" d="M23.343 18.58h-.071v-.531h-.351v-.075h.422v.606Z"/>
  <path fill="#536369" d="M22.274 16.78h.35v-.532h-.35v.531Z"/>
  <path fill="#4A575C" d="M22.696 16.78h-.072v-.532h-.35v-.075h.422v.606"/>
  <path fill="#536369" d="M22.921 16.78h.35v-.532h-.35v.531Z"/>
  <path fill="#4A575C" d="M23.343 16.78h-.071v-.532h-.351v-.075h.422v.606"/>
  <path fill="#536369" d="M23.569 16.78h.35v-.532h-.35v.531Z"/>
  <path fill="#4A575C" d="M23.99 16.78h-.07v-.532h-.352v-.075h.423v.606"/>
  <path fill="#536369" d="M22.274 17.68h.35v-.532h-.35v.532Z"/>
  <path fill="#4A575C" d="M22.696 17.68h-.072v-.532h-.35v-.075h.422v.607Z"/>
  <path fill="#536369" d="M22.921 17.68h.35v-.532h-.35v.532Z"/>
  <path fill="#4A575C" d="M23.343 17.68h-.071v-.532h-.351v-.075h.422v.607Z"/>
  <path fill="#536369" d="M23.569 17.68h.35v-.532h-.35v.532Z"/>
  <path fill="#4A575C" d="M23.99 17.68h-.07v-.532h-.352v-.075h.423v.607Z"/>
  <path fill="#536369" d="M22.274 18.58h.35v-.531h-.35v.531Z"/>
  <path fill="#4A575C" d="M22.696 18.58h-.072v-.531h-.35v-.075h.422v.606Z"/>
  <path fill="#536369" d="M23.569 18.58h.35v-.531h-.35v.531Z"/>
  <path fill="#4A575C" d="M23.99 18.58h-.07v-.531h-.352v-.075h.423v.606Z"/>
  <path fill="#20353D" d="M22.625 19.481h-.351v-.607h.422-.422v.076h.35v.531Z"/>
  <path fill="#142127" d="M22.696 19.481h-.072v-.531h-.35v-.075h.422v.606Z"/>
  <path fill="#20353D" d="M23.272 19.481h-.351v-.607h.422-.422v.076h.35v.531Z"/>
  <path fill="#142127" d="M23.343 19.481h-.071v-.531h-.351v-.075h.422v.606Z"/>
  <path fill="#20353D" d="M23.92 19.481h-.352v-.607h.423-.422v.076h.35v.531Z"/>
  <path fill="#142127" d="M23.99 19.481h-.07v-.531h-.352v-.075h.423v.606Z"/>
  <path fill="#20353D" d="M22.625 20.382h-.351v-.607h.422-.422v.075h.35v.532Z"/>
  <path fill="#142127" d="M22.696 20.382h-.072v-.532h-.35v-.075h.422v.607Z"/>
  <path fill="#20353D" d="M23.272 20.382h-.351v-.607h.422-.422v.075h.35v.532Z"/>
  <path fill="#142127" d="M23.343 20.382h-.071v-.532h-.351v-.075h.422v.607Z"/>
  <path fill="#20353D" d="M23.92 20.382h-.352v-.607h.423-.422v.075h.35v.532Z"/>
  <path fill="#142127" d="M23.99 20.382h-.07v-.532h-.352v-.075h.423v.607Z"/>
  <path fill="#20353D" d="M22.625 21.282h-.351v-.606h.422-.422v.075h.35v.531Z"/>
  <path fill="#142127" d="M22.696 21.282h-.072v-.531h-.35v-.075h.422v.606Z"/>
  <path fill="#20353D" d="M23.272 21.282h-.351v-.606h.422-.422v.075h.35v.531Z"/>
  <path fill="#142127" d="M23.343 21.282h-.071v-.531h-.351v-.075h.422v.606Z"/>
  <path fill="#20353D" d="M23.92 21.282h-.352v-.606h.423-.422v.075h.35v.531Z"/>
  <path fill="#142127" d="M23.99 21.282h-.07v-.531h-.352v-.075h.423v.606Z"/>
  <path fill="#20353D" d="M22.625 22.613h-.351v-.606h.422-.422v.075h.35v.531Z"/>
  <path fill="#142127" d="M22.696 22.613h-.072v-.53h-.35v-.076h.422v.606Z"/>
  <path fill="#20353D" d="M23.272 22.613h-.351v-.606h.422-.422v.075h.35v.531Z"/>
  <path fill="#142127" d="M23.343 22.613h-.071v-.53h-.351v-.076h.422v.606Z"/>
  <path fill="#20353D" d="M23.92 22.613h-.352v-.606h.423-.422v.075h.35v.531Z"/>
  <path fill="#142127" d="M23.99 22.613h-.07v-.53h-.352v-.076h.423v.606Z"/>
  <path fill="#F2575D" d="M20.829 32.816h3.69V22.742h-3.69v10.074Zm-1.885 0h1.885V22.742h-1.885v10.074Z"/>
  <path fill="#33535F" d="M21.374 24.748h.759v-1.027h-.76v1.027Z"/>
  <path fill="#20353D" d="M22.133 24.748h-.128v-.9h-.631v-.127h.759v1.027"/>
  <path fill="#fff" d="M22.177 24.957h-.803v-.209h.803v.209Zm0-1.242h-.803v-.21h.803v.21Zm.903 1.242h.803v-.209h-.804v.209Zm0-1.242h.803v-.21h-.804v.21Z"/>
  <path fill="#33535F" d="M23.08 24.748h.758v-1.027h-.759v1.027Z"/>
  <path fill="#20353D" d="M23.838 24.748h-.128v-.9h-.63v-.127h.758v1.027"/>
  <path fill="#33535F" d="M21.374 26.653h.759v-1.027h-.76v1.027Z"/>
  <path fill="#20353D" d="M22.133 26.653h-.128v-.9h-.631v-.127h.759v1.027Z"/>
  <path fill="#fff" d="M22.177 26.862h-.803v-.209h.803v.21Zm0-1.242h-.803v-.209h.803v.209m.903 1.242h.803v-.209h-.804v.21Zm0-1.242h.803v-.209h-.804v.209Z"/>
  <path fill="#33535F" d="M23.08 26.653h.758v-1.027h-.759v1.027Z"/>
  <path fill="#20353D" d="M23.838 26.653h-.128v-.9h-.63v-.127h.758v1.027Z"/>
  <path fill="#33535F" d="M21.374 28.626h.759V27.6h-.76v1.027Z"/>
  <path fill="#20353D" d="M22.133 28.626h-.128v-.9h-.631V27.6h.759v1.027Z"/>
  <path fill="#fff" d="M22.177 28.835h-.803v-.209h.803v.21Zm0-1.242h-.803v-.21h.803v.21Zm.903 1.242h.803v-.209h-.804v.21Zm0-1.242h.803v-.21h-.804v.21Z"/>
  <path fill="#33535F" d="M23.08 28.626h.758V27.6h-.759v1.027Z"/>
  <path fill="#20353D" d="M23.838 28.626h-.128v-.9h-.63V27.6h.758v1.027Z"/>
  <path fill="#33535F" d="M21.374 30.586h.759v-1.028h-.76v1.028Z"/>
  <path fill="#20353D" d="M22.133 30.586h-.128v-.9h-.631v-.128h.759v1.028Z"/>
  <path fill="#fff" d="M22.177 30.794h-.803v-.208h.803v.208Zm0-1.242h-.803v-.209h.803v.21Zm.903 1.242h.803v-.208h-.804v.208Zm0-1.242h.803v-.209h-.804v.21Z"/>
  <path fill="#33535F" d="M23.08 30.586h.758v-1.028h-.759v1.028Z"/>
  <path fill="#20353D" d="M23.838 30.586h-.128v-.9h-.63v-.128h.758v1.028Z"/>
  <path fill="#17282F" d="M20.068 24.714h.266v-1.027h-.266v1.027Z"/>
  <path fill="#fff" d="M19.886 24.869h.486v-.155h-.486v.155Z"/>
  <path fill="#17282F" d="M19.357 24.714h.265v-1.027h-.265v1.027Z"/>
  <path fill="#fff" d="M19.174 24.869h.486v-.155h-.486v.155Z"/>
  <path fill="#17282F" d="M20.068 26.671h.266v-1.027h-.266v1.027Z"/>
  <path fill="#fff" d="M19.886 26.826h.486v-.155h-.486v.155Z"/>
  <path fill="#17282F" d="M19.357 26.671h.265v-1.027h-.265v1.027Z"/>
  <path fill="#fff" d="M19.174 26.826h.486v-.155h-.486v.155Z"/>
  <path fill="#17282F" d="M20.068 28.629h.266V27.6h-.266v1.028Z"/>
  <path fill="#fff" d="M19.886 28.783h.486v-.154h-.486v.154Z"/>
  <path fill="#17282F" d="M19.357 28.629h.265V27.6h-.265v1.028Z"/>
  <path fill="#fff" d="M19.174 28.783h.486v-.154h-.486v.154Z"/>
  <path fill="#33535F" d="M21.374 32.816h.759v-1.62h-.76v1.62Z"/>
  <path fill="#20353D" d="M22.133 32.816h-.128v-1.5h-.631v-.12h.759v1.62Z"/>
  <path fill="#33535F" d="M23.101 32.816h.76v-1.62h-.76v1.62Z"/>
  <path fill="#20353D" d="M23.86 32.816h-.127v-1.5H23.1v-.12h.76v1.62Z"/>
  <path fill="#17282F" d="M20.068 30.586h.266v-1.027h-.266v1.027Z"/>
  <path fill="#fff" d="M19.886 30.74h.486v-.154h-.486v.155Z"/>
  <path fill="#17282F" d="M19.357 30.586h.265v-1.027h-.265v1.027Z"/>
  <path fill="#fff" d="M19.174 30.74h.486v-.154h-.486v.155Z"/>
  <path fill="#17282F" d="M20.068 32.306h.266v-1.027h-.266v1.027Z"/>
  <path fill="#fff" d="M19.886 32.46h.486v-.154h-.486v.155Z"/>
  <path fill="#17282F" d="M19.357 32.306h.265v-1.027h-.265v1.027Z"/>
  <path fill="#fff" d="M19.174 32.46h.486v-.154h-.486v.155Z"/>
  <path fill="#A7A9A8" d="M20.829 32.816h-1.94v-.015h.055v.015h1.885Z"/>
  <path fill="#CC4341" d="M18.89 32.801h.054V22.742h-.054v10.06Zm1.939.015h-1.885V22.742h1.885v10.074Zm-.943-.51v.155h.486v-.155h-.486Zm-.712 0v.155h.486v-.155h-.486Zm.894-1.027v1.027h.266v-1.027h-.266Zm-.712 0v1.027h.266v-1.027h-.265Zm.53-.693v.155h.486v-.155h-.486Zm-.712 0v.155h.486v-.155h-.486Zm.894-1.027v1.027h.266v-1.027h-.266Zm-.712 0v1.027h.266v-1.027h-.265Zm.53-.93v.154h.486v-.154h-.486Zm-.712 0v.154h.486v-.154h-.486Zm.894-1.028v1.028h.266V27.6h-.266Zm-.712 0v1.028h.266V27.6h-.265Zm.53-.93v.155h.486v-.154h-.486Zm-.712 0v.155h.486v-.154h-.486Zm.894-1.027v1.028h.266v-1.028h-.266Zm-.712 0v1.028h.266v-1.028h-.265Zm.53-.93v.155h.486v-.155h-.486Zm-.712 0v.155h.486v-.155h-.486Zm.894-1.027v1.027h.266v-1.027h-.266Zm-.712 0v1.027h.266v-1.027h-.265Z"/>
  <path fill="#0F191D" d="M20.068 24.714h.266v-1.027h-.266v1.027Z"/>
  <path fill="#A7A9A8" d="M19.886 24.869h.486v-.155h-.486v.155Z"/>
  <path fill="#0F191D" d="M19.357 24.714h.265v-1.027h-.265v1.027Z"/>
  <path fill="#A7A9A8" d="M19.174 24.869h.486v-.155h-.486v.155Z"/>
  <path fill="#0F191D" d="M20.068 26.671h.266v-1.027h-.266v1.027Z"/>
  <path fill="#A7A9A8" d="M19.886 26.826h.486v-.155h-.486v.155Z"/>
  <path fill="#0F191D" d="M19.357 26.671h.265v-1.027h-.265v1.027Z"/>
  <path fill="#A7A9A8" d="M19.174 26.826h.486v-.155h-.486v.155Z"/>
  <path fill="#0F191D" d="M20.068 28.629h.266V27.6h-.266v1.028Z"/>
  <path fill="#A7A9A8" d="M19.886 28.783h.486v-.154h-.486v.154Z"/>
  <path fill="#0F191D" d="M19.357 28.629h.265V27.6h-.265v1.028Z"/>
  <path fill="#A7A9A8" d="M19.174 28.783h.486v-.154h-.486v.154Z"/>
  <path fill="#0F191D" d="M20.068 30.586h.266v-1.027h-.266v1.027Z"/>
  <path fill="#A7A9A8" d="M19.886 30.74h.486v-.154h-.486v.155Z"/>
  <path fill="#0F191D" d="M19.357 30.586h.265v-1.027h-.265v1.027Z"/>
  <path fill="#A7A9A8" d="M19.174 30.74h.486v-.154h-.486v.155Z"/>
  <path fill="#0F191D" d="M20.068 32.306h.266v-1.027h-.266v1.027Z"/>
  <path fill="#A7A9A8" d="M19.886 32.46h.486v-.154h-.486v.155Z"/>
  <path fill="#0F191D" d="M19.357 32.306h.265v-1.027h-.265v1.027Z"/>
  <path fill="#A7A9A8" d="M19.174 32.46h.486v-.154h-.486v.155Z"/>
  <path fill="#F2575D" d="M40.52 32.852h8.016v-4.24H40.52v4.24Z"/>
  <path fill="#DADBD8" d="M40.418 29.008h8.288v-.396h-8.288v.396Z"/>
  <path fill="#33535F" d="M41.593 32.07h.335v-2.421h-.335v2.42Zm-.646 0h.335v-2.421h-.335v2.42Z"/>
  <path fill="#DADBD8" d="M40.52 32.852h8.016v-.79H40.52v.79Z"/>
  <path fill="#33535F" d="M43.965 32.852h-.799v-1.727h.799v1.727Zm-.799-2.473h.474v-.61h-.474v.61Z"/>
  <path fill="#20353D" d="M43.64 30.379h-.08v-.534h-.394v-.076h.474v.61"/>
  <path fill="#33535F" d="M44.527 30.379H45v-.61h-.473v.61Z"/>
  <path fill="#20353D" d="M45 30.379h-.08v-.534h-.393v-.076H45v.61"/>
  <path fill="#33535F" d="M45.983 30.379h.474v-.61h-.474v.61Z"/>
  <path fill="#20353D" d="M46.457 30.379h-.08v-.534h-.394v-.076h.474v.61"/>
  <path fill="#33535F" d="M47.44 30.379h.473v-.61h-.473v.61Z"/>
  <path fill="#20353D" d="M47.913 30.379h-.08v-.534h-.393v-.076h.473v.61"/>
  <path fill="#33535F" d="M44.527 31.468H45v-.609h-.473v.61Z"/>
  <path fill="#20353D" d="M45 31.468h-.08v-.533h-.393v-.076H45v.61"/>
  <path fill="#33535F" d="M45.983 31.468h.474v-.609h-.474v.61Z"/>
  <path fill="#20353D" d="M46.457 31.468h-.08v-.533h-.394v-.076h.474v.61"/>
  <path fill="#33535F" d="M47.44 31.468h.473v-.609h-.473v.61Z"/>
  <path fill="#20353D" d="M47.913 31.468h-.08v-.533h-.393v-.076h.473v.61"/>
  <path fill="#CC4341" d="M42.657 32.062h-.73v-2.413h-.334v2.413h-.31v-2.413h-.336v2.413h-.427v-3.054h2.137v3.054"/>
  <path fill="#20353D" d="M41.593 32.062h.335v-2.413h-.335v2.413Zm-.646 0h.335v-2.413h-.335v2.413Z"/>
  <path fill="#8F9192" d="M42.657 32.852H40.52v-.79h2.137v.79Z"/>
  <path fill="#F2575D" d="M31.218 32.834h9.286V20.293h-9.286v12.54Z"/>
  <path fill="#33535F" d="M33.258 22.167h.682v-.98h-.682v.98Z"/>
  <path fill="#20353D" d="M33.94 22.167h-.115v-.859h-.567v-.121h.682v.98Z"/>
  <path fill="#33535F" d="M34.51 22.167h.683v-.98h-.682v.98Z"/>
  <path fill="#20353D" d="M35.193 22.167h-.116v-.859h-.566v-.121h.681v.98"/>
  <path fill="#33535F" d="M35.763 22.167h.682v-.98h-.682v.98Z"/>
  <path fill="#20353D" d="M36.445 22.167h-.115v-.859h-.567v-.121h.682v.98Z"/>
  <path fill="#33535F" d="M37.015 22.167h.682v-.98h-.682v.98Z"/>
  <path fill="#20353D" d="M37.697 22.167h-.115v-.859h-.567v-.121h.682v.98Z"/>
  <path fill="#33535F" d="M38.268 22.167h.682v-.98h-.682v.98Z"/>
  <path fill="#20353D" d="M38.95 22.167h-.115v-.859h-.567v-.121h.682v.98Z"/>
  <path fill="#33535F" d="M39.52 22.167h.682v-.98h-.682v.98Z"/>
  <path fill="#20353D" d="M40.202 22.167h-.115v-.859h-.567v-.121h.682v.98Z"/>
  <path fill="#33535F" d="M33.317 24.548H34v-.98h-.682v.98Z"/>
  <path fill="#20353D" d="M34 24.548h-.116v-.859h-.567v-.121H34v.98"/>
  <path fill="#33535F" d="M34.57 24.548h.682v-.98h-.682v.98Z"/>
  <path fill="#20353D" d="M35.252 24.548h-.115v-.859h-.567v-.121h.682v.98Z"/>
  <path fill="#33535F" d="M35.822 24.548h.682v-.98h-.682v.98Z"/>
  <path fill="#20353D" d="M36.504 24.548h-.115v-.859h-.567v-.121h.682v.98Z"/>
  <path fill="#33535F" d="M37.075 24.548h.682v-.98h-.682v.98Z"/>
  <path fill="#20353D" d="M37.757 24.548h-.115v-.859h-.567v-.121h.682v.98Z"/>
  <path fill="#33535F" d="M38.327 24.548h.682v-.98h-.682v.98Z"/>
  <path fill="#20353D" d="M39.01 24.548h-.116v-.859h-.567v-.121h.682v.98Z"/>
  <path fill="#33535F" d="M39.58 24.548h.682v-.98h-.682v.98Z"/>
  <path fill="#20353D" d="M40.262 24.548h-.115v-.859h-.567v-.121h.682v.98Z"/>
  <path fill="#33535F" d="M33.245 26.922h.682v-.98h-.682v.98Z"/>
  <path fill="#20353D" d="M33.927 26.922h-.115v-.859h-.567v-.121h.682v.98Z"/>
  <path fill="#33535F" d="M34.497 26.922h.682v-.98h-.682v.98Z"/>
  <path fill="#20353D" d="M35.18 26.922h-.116v-.859h-.567v-.121h.682v.98"/>
  <path fill="#33535F" d="M35.75 26.922h.682v-.98h-.682v.98Z"/>
  <path fill="#20353D" d="M36.432 26.922h-.115v-.859h-.567v-.121h.682v.98Z"/>
  <path fill="#33535F" d="M37.002 26.922h.682v-.98h-.682v.98Z"/>
  <path fill="#20353D" d="M37.684 26.922h-.115v-.859h-.567v-.121h.682v.98Z"/>
  <path fill="#33535F" d="M38.255 26.922h.682v-.98h-.682v.98Z"/>
  <path fill="#20353D" d="M38.937 26.922h-.115v-.859h-.567v-.121h.682v.98Z"/>
  <path fill="#33535F" d="M39.507 26.922h.682v-.98h-.682v.98Z"/>
  <path fill="#20353D" d="M40.19 26.922h-.116v-.859h-.567v-.121h.682v.98"/>
  <path fill="#33535F" d="M33.279 29.288h.681v-.98h-.681v.98Z"/>
  <path fill="#20353D" d="M33.96 29.288h-.114v-.858h-.567v-.122h.681v.98Z"/>
  <path fill="#33535F" d="M34.531 29.288h.682v-.98h-.682v.98Z"/>
  <path fill="#20353D" d="M35.213 29.288h-.115v-.858h-.567v-.122h.682v.98Z"/>
  <path fill="#33535F" d="M35.784 29.288h.682v-.98h-.682v.98Z"/>
  <path fill="#20353D" d="M36.466 29.288h-.116v-.858h-.566v-.122h.682v.98"/>
  <path fill="#33535F" d="M33.482 32.834h2.017v-1.805h-2.017v1.805Z"/>
  <path fill="#20353D" d="M35.5 32.834h-.212v-1.581h-1.806v-.224h2.017v1.805Z"/>
  <path fill="#33535F" d="M35.93 32.834h1.256v-1.805H35.93v1.805Z"/>
  <path fill="#20353D" d="M37.186 32.834h-.212v-1.581H35.93v-.224h1.256v1.805Z"/>
  <path fill="#33535F" d="M38.86 32.834h1.256v-1.805H38.86v1.805Z"/>
  <path fill="#20353D" d="M40.116 32.834h-.212v-1.581H38.86v-.224h1.256v1.805Z"/>
  <path fill="#33535F" d="M37.036 29.288h.682v-.98h-.682v.98Z"/>
  <path fill="#20353D" d="M37.718 29.288h-.115v-.858h-.567v-.122h.682v.98Z"/>
  <path fill="#33535F" d="M38.288 29.288h.683v-.98h-.682v.98Z"/>
  <path fill="#20353D" d="M38.97 29.288h-.115v-.858h-.566v-.122h.681v.98Z"/>
  <path fill="#33535F" d="M39.54 29.288h.683v-.98h-.682v.98Z"/>
  <path fill="#20353D" d="M40.223 29.288h-.115v-.858h-.567v-.122h.682v.98Z"/>
  <path fill="#F9A78D" d="M31.218 20.504h9.286v-.421h-9.286v.42Zm0 2.482h9.286v-.421h-9.286v.42Zm0 2.374h9.286v-.421h-9.286v.42Zm0 2.373h9.286v-.42h-9.286v.42Z"/>
  <path fill="#F2575D" d="M31.218 30.154h9.286v-.42h-9.286v.42Z"/>
  <path fill="#17282F" d="M31.616 22.128h.248V21.11h-.248v1.018Zm.729 0h.248V21.11h-.248v1.018Zm-.715 2.266h.249v-1.017h-.249v1.017Zm.739 0h.248v-1.017h-.248v1.017Zm-.744 2.374h.248v-1.017h-.248v1.017Zm.739 0h.248v-1.017h-.248v1.017Zm-.772 2.397h.248v-1.017h-.248v1.017Zm.682 0h.248v-1.017h-.248v1.017Zm-.682 3.669h.248v-1.8h-.248v1.8Zm.682 0h.248v-1.8h-.248v1.8Z"/>
  <path fill="#F9A78D" d="M31.218 30.284h9.286v-.42h-9.286v.42Z"/>
  <path fill="#CC4341" d="M32.843 32.834h-.321v-1.8h-.248v1.8h-.434v-1.8h-.248v1.8h-.374v-2.55h1.625v2.55Zm0-3.1h-1.625v-2h1.625v2Zm-.57-1.586v1.017h.249v-1.017h-.248Zm-.682 0v1.017h.249v-1.017h-.248Zm1.252-.836h-1.625V25.36h1.625v1.952Zm-.479-1.562v1.018h.248V25.75h-.248Zm-.739 0v1.018h.248V25.75h-.248Zm1.218-.811h-1.625v-.645h.152v-.428h-.152v-.88h1.625v1.953Zm-.474-1.562v1.017h.248v-1.017h-.248Zm-.739 0v1.017h.248v-1.017h-.248Zm1.213-.812h-1.625v-2.062h1.625v2.062Zm-.498-1.455v1.018h.248V21.11h-.248Zm-.729 0v1.018h.248V21.11h-.248Z"/>
  <path fill="#BA7562" d="M31.218 20.504h1.625v-.421h-1.625v.42Zm0 2.482h1.625v-.421h-1.625v.42Zm0 2.374h1.625v-.421h-1.625v.42Zm0 2.373h1.625v-.42h-1.625v.42Z"/>
  <path fill="#CC4341" d="M31.218 29.863h1.625v-.13h-1.625v.13Z"/>
  <path fill="#0F191D" d="M31.616 22.128h.248V21.11h-.248v1.018Zm.729 0h.248V21.11h-.248v1.018Zm-.715 2.266h.249v-1.017h-.249v1.017Zm.739 0h.248v-1.017h-.248v1.017Zm-.744 2.374h.248v-1.017h-.248v1.017Zm.739 0h.248v-1.017h-.248v1.017Zm-.772 2.397h.248v-1.017h-.248v1.017Zm.682 0h.248v-1.017h-.248v1.017Zm-.434 3.669h-.248v-1.8h.248v1.8Zm.434 0h.248v-1.8h-.248v1.8Z"/>
  <path fill="#BA7562" d="M31.218 30.284h1.625v-.42h-1.625v.42Z"/>
  <path fill="#CC4341" d="M32.843 27.91h7.661v-.177h-7.66v.178Zm0 2.558h7.661v-.178h-7.66v.178Zm0-4.908h7.661v-.178h-7.66v.177Zm0-2.397h7.661v-.177h-7.66v.177Zm0-2.482h7.661v-.177h-7.66v.177ZM37.6 32.834h.944v-1.7H37.6v1.7Z"/>
  <path fill="#F9A78D" d="M33.586 20.082h1.86v-.989h-1.86v.99Z"/>
  <path fill="#BA7562" d="M33.586 20.082h.59v-.989h-.59v.99Z"/>
  <path fill="#fff" d="M33.967 29.27c0 .012-.155.022-.347.022-.193 0-.348-.01-.348-.022 0-.011.155-.02.348-.02.192 0 .347.009.347.02Zm1.24 0c0 .012-.156.022-.348.022-.192 0-.348-.01-.348-.022 0-.011.156-.02.348-.02.192 0 .348.009.348.02Zm1.239 0c0 .012-.155.022-.347.022-.193 0-.348-.01-.348-.022 0-.011.155-.02.348-.02.192 0 .347.009.347.02Zm1.279 0c0 .012-.156.022-.348.022-.192 0-.348-.01-.348-.022 0-.011.156-.02.348-.02.192 0 .348.009.348.02Zm1.258 0c0 .012-.156.022-.348.022-.192 0-.348-.01-.348-.022 0-.011.156-.02.348-.02.192 0 .348.009.348.02Zm1.258 0c0 .012-.155.022-.348.022-.192 0-.348-.01-.348-.022 0-.011.156-.02.348-.02.193 0 .348.009.348.02Zm-6.274-2.364c0 .011-.155.02-.347.02-.193 0-.348-.009-.348-.02 0-.012.155-.021.348-.021.192 0 .347.009.347.02Zm1.24 0c0 .011-.156.02-.348.02-.192 0-.348-.009-.348-.02 0-.012.156-.021.348-.021.192 0 .348.009.348.02Zm1.239 0c0 .011-.155.02-.347.02-.193 0-.348-.009-.348-.02 0-.012.155-.021.348-.021.192 0 .347.009.347.02Zm1.279 0c0 .011-.156.02-.348.02-.192 0-.348-.009-.348-.02 0-.012.156-.021.348-.021.192 0 .348.009.348.02Zm1.258 0c0 .011-.156.02-.348.02-.192 0-.348-.009-.348-.02 0-.012.156-.021.348-.021.192 0 .348.009.348.02Zm1.258 0c0 .011-.155.02-.348.02-.192 0-.348-.009-.348-.02 0-.012.156-.021.348-.021.193 0 .348.009.348.02Zm-6.274-2.358c0 .011-.155.02-.347.02-.193 0-.348-.009-.348-.02 0-.012.155-.021.348-.021.192 0 .347.009.347.02Zm1.24 0c0 .011-.156.02-.348.02-.192 0-.348-.009-.348-.02 0-.012.156-.021.348-.021.192 0 .348.009.348.02Zm1.239 0c0 .011-.155.02-.347.02-.193 0-.348-.009-.348-.02 0-.012.155-.021.348-.021.192 0 .347.009.347.02Zm1.279 0c0 .011-.156.02-.348.02-.192 0-.348-.009-.348-.02 0-.012.156-.021.348-.021.192 0 .348.009.348.02Zm1.258 0c0 .011-.156.02-.348.02-.192 0-.348-.009-.348-.02 0-.012.156-.021.348-.021.192 0 .348.009.348.02Zm1.258 0c0 .011-.155.02-.348.02-.192 0-.348-.009-.348-.02 0-.012.156-.021.348-.021.193 0 .348.009.348.02Zm-6.274-2.381c0 .011-.155.02-.347.02-.193 0-.348-.009-.348-.02 0-.012.155-.021.348-.021.192 0 .347.01.347.02Zm1.24 0c0 .011-.156.02-.348.02-.192 0-.348-.009-.348-.02 0-.012.156-.021.348-.021.192 0 .348.01.348.02Zm1.239 0c0 .011-.155.02-.347.02-.193 0-.348-.009-.348-.02 0-.012.155-.021.348-.021.192 0 .347.01.347.02Zm1.279 0c0 .011-.156.02-.348.02-.192 0-.348-.009-.348-.02 0-.012.156-.021.348-.021.192 0 .348.01.348.02Zm1.258 0c0 .011-.156.02-.348.02-.192 0-.348-.009-.348-.02 0-.012.156-.021.348-.021.192 0 .348.01.348.02Zm1.258 0c0 .011-.155.02-.348.02-.192 0-.348-.009-.348-.02 0-.012.156-.021.348-.021.193 0 .348.01.348.02Z"/>
  <path fill="#F57F62" d="M25.038 32.824h6.168v-8.53h-6.168v8.53Z"/>
  <path fill="#33535F" d="M27.62 30.839h.708V29.82h-.708v1.018Z"/>
  <path fill="#20353D" d="M28.328 30.839h-.12v-.891h-.588v-.127h.708v1.018"/>
  <path fill="#fff" d="M28.535 30.959h-.915v-.12h.915v.12Z"/>
  <path fill="#33535F" d="M27.62 32.445h.708v-1.018h-.708v1.018Z"/>
  <path fill="#20353D" d="M28.328 32.445h-.12v-.891h-.588v-.127h.708v1.018"/>
  <path fill="#fff" d="M28.535 32.565h-.915v-.12h.915v.12Z"/>
  <path fill="#33535F" d="M27.606 29.416h.709v-1.018h-.709v1.018Z"/>
  <path fill="#20353D" d="M28.315 29.416h-.12v-.892h-.589v-.126h.709v1.018"/>
  <path fill="#fff" d="M28.521 29.536h-.915v-.12h.915v.12Z"/>
  <path fill="#33535F" d="M27.593 27.993h.708v-1.018h-.708v1.018Z"/>
  <path fill="#20353D" d="M28.301 27.993h-.12V27.1h-.588v-.126h.708v1.018Z"/>
  <path fill="#fff" d="M28.508 28.112h-.915v-.12h.915v.12Z"/>
  <path fill="#33535F" d="M27.58 26.57h.708v-1.018h-.708v1.018Z"/>
  <path fill="#20353D" d="M28.288 26.57h-.12v-.892h-.588v-.126h.708v1.018"/>
  <path fill="#fff" d="M28.495 26.69h-.915v-.12h.915v.12Z"/>
  <path fill="#33535F" d="M29.45 30.839h.707V29.82h-.708v1.018Z"/>
  <path fill="#20353D" d="M30.157 30.839h-.12v-.891h-.588v-.127h.708v1.018Z"/>
  <path fill="#fff" d="M30.364 30.959h-.915v-.12h.915v.12Z"/>
  <path fill="#33535F" d="M29.436 29.416h.708v-1.018h-.708v1.018Z"/>
  <path fill="#20353D" d="M30.144 29.416h-.12v-.892h-.588v-.126h.708v1.018"/>
  <path fill="#fff" d="M30.35 29.536h-.914v-.12h.915v.12Z"/>
  <path fill="#33535F" d="M29.423 27.993h.708v-1.018h-.708v1.018Z"/>
  <path fill="#20353D" d="M30.13 27.993h-.118V27.1h-.59v-.126h.709v1.018"/>
  <path fill="#fff" d="M30.338 28.112h-.915v-.12h.915v.12Z"/>
  <path fill="#33535F" d="M29.41 26.57h.708v-1.018h-.709v1.018Z"/>
  <path fill="#20353D" d="M30.118 26.57h-.12v-.892h-.589v-.126h.709v1.018"/>
  <path fill="#fff" d="M30.324 26.69h-.915v-.12h.915v.12Z"/>
  <path fill="#17282F" d="M25.56 26.492h.248v-1.018h-.248v1.018Z"/>
  <path fill="#fff" d="M25.39 26.645h.453v-.153h-.453v.153Z"/>
  <path fill="#17282F" d="M25.56 28.053h.248v-1.018h-.248v1.018Z"/>
  <path fill="#fff" d="M25.39 28.206h.453v-.153h-.453v.153Z"/>
  <path fill="#17282F" d="M25.56 29.614h.248v-1.017h-.248v1.017Z"/>
  <path fill="#fff" d="M25.39 29.768h.453v-.154h-.453v.154Z"/>
  <path fill="#17282F" d="M25.56 31.175h.248v-1.017h-.248v1.017Z"/>
  <path fill="#fff" d="M25.39 31.329h.453v-.154h-.453v.154Z"/>
  <path fill="#17282F" d="M25.56 32.59h.248v-1.018h-.248v1.018Z"/>
  <path fill="#fff" d="M25.39 32.743h.453v-.153h-.453v.153Z"/>
  <path fill="#E7E8E5" d="M24.924 24.294h6.446v-.428h-6.446v.428Z"/>
  <path fill="#DADBD8" d="M25.03 24.602h6.17v-.126h-6.17v.126Zm5.326 6.65h-.978v1.572h.978v-1.572Z"/>
  <path fill="#17282F" d="M30.271 31.328h-.814v1.506h.814v-1.506Z"/>
  <path fill="#862B2C" d="M25.038 32.834h.18v-.002h-.18v.002Z"/>
  <path fill="#CC4341" d="M25.217 32.834h1.3v-.002h-1.3v.002Z"/>
  <path fill="#8F9192" d="M26.517 32.832h-1.479v-.008h1.48v.008Z"/>
  <path fill="#C25D43" d="M26.517 32.824h-1.479v-8.222h1.48v8.222Zm-1.127-.234v.153h.453v-.153h-.453m.17-1.018v1.018h.248v-1.018h-.248Zm-.17-.397v.153h.453v-.153h-.453Zm.17-1.017v1.017h.248v-1.017h-.248m-.17-.544v.153h.453v-.153h-.453m.17-1.017v1.017h.248v-1.017h-.248Zm-.17-.544v.153h.453v-.153h-.453Zm.17-1.018v1.018h.248v-1.018h-.248Zm-.17-.543v.153h.453v-.153h-.453Zm.17-1.018v1.018h.248v-1.018h-.248Z"/>
  <path fill="#0F191D" d="M25.56 26.492h.248v-1.018h-.248v1.018Z"/>
  <path fill="#A7A9A8" d="M25.39 26.645h.453v-.153h-.453v.153Z"/>
  <path fill="#0F191D" d="M25.56 28.053h.248v-1.018h-.248v1.018Z"/>
  <path fill="#A7A9A8" d="M25.39 28.206h.453v-.153h-.453v.153Z"/>
  <path fill="#0F191D" d="M25.56 29.614h.248v-1.017h-.248v1.017Z"/>
  <path fill="#A7A9A8" d="M25.39 29.768h.453v-.154h-.453v.154Z"/>
  <path fill="#0F191D" d="M25.56 31.175h.248v-1.017h-.248v1.017Z"/>
  <path fill="#A7A9A8" d="M25.39 31.329h.453v-.154h-.453v.154Z"/>
  <path fill="#C25D43" d="M26.517 24.476h-1.479v-.182h1.48v.182Z"/>
  <path fill="#0F191D" d="M25.56 32.59h.248v-1.018h-.248v1.018Z"/>
  <path fill="#A7A9A8" d="M25.39 32.743h.453v-.153h-.453v.153Z"/>
  <path fill="#8F9192" d="M25.038 24.602h1.48v-.126h-1.48v.126Z"/>
  <path fill="#979999" d="M24.924 24.294h1.174v-.428h-1.174v.428Z"/>
  <path fill="#F9A78D" d="M9.46 32.834h9.232v-11.68H9.459v11.68Z"/>
  <path fill="#F57F62" d="M9.318 21.35h9.492v-.395H9.318v.396Zm.142 1.001h9.232v-.325H9.459v.325Zm0-.581h9.232v-.163H9.459v.163Z"/>
  <path fill="#F57F62" d="M15.786 30.703h2.14v-8.402h-2.14v8.402Zm-4.353 0h2.14v-8.402h-2.14v8.402Z"/>
  <path fill="#F57F62" d="M9.46 31.029h9.35v-.326H9.46v.326Zm5.907.163h-1.629v1.628h1.629v-1.628Z"/>
  <path fill="#33535F" d="M16.031 32.326h.708v-1.018h-.708v1.018Z"/>
  <path fill="#20353D" d="M16.74 32.326h-.12v-.891h-.589v-.127h.708v1.018"/>
  <path fill="#fff" d="M16.946 32.446h-.915v-.12h.915v.12Z"/>
  <path fill="#33535F" d="M17.622 32.326h.708v-1.018h-.708v1.018Z"/>
  <path fill="#20353D" d="M18.33 32.326h-.12v-.891h-.588v-.127h.708v1.018Z"/>
  <path fill="#fff" d="M18.537 32.446h-.915v-.12h.915v.12Z"/>
  <path fill="#33535F" d="M9.972 32.326h.708v-1.018h-.708v1.018Z"/>
  <path fill="#fff" d="M9.972 32.446h.915v-.12h-.915v.12Z"/>
  <path fill="#33535F" d="M12.164 32.409h.709V31.39h-.709v1.018Z"/>
  <path fill="#20353D" d="M12.873 32.409h-.12v-.892h-.589v-.126h.709v1.018Z"/>
  <path fill="#fff" d="M13.08 32.528h-.916v-.12h.915v.12Z"/>
  <path fill="#33535F" d="M14.325 30.135h.709v-1.018h-.709v1.018Z"/>
  <path fill="#20353D" d="M15.034 30.135h-.12v-.892h-.589v-.126h.709v1.018Z"/>
  <path fill="#33535F" d="M14.325 28.118h.709v-1.017h-.709v1.017Z"/>
  <path fill="#20353D" d="M15.034 28.118h-.12v-.891h-.589V27.1h.709v1.018"/>
  <path fill="#33535F" d="M14.325 26.101h.709v-1.018h-.709v1.018Z"/>
  <path fill="#20353D" d="M15.034 26.101h-.12v-.892h-.589v-.126h.709v1.018Z"/>
  <path fill="#33535F" d="M14.325 24.084h.709v-1.017h-.709v1.017Z"/>
  <path fill="#6A858C" d="M14.914 24.084h-.589v-1.017h.709-.709v.126h.589v.891"/>
  <path fill="#46585F" d="M15.034 24.084h-.12v-.891h-.589v-.127h.709v1.018"/>
  <path fill="#33535F" d="M12.15 30.154h.707v-1.018h-.708v1.018Z"/>
  <path fill="#20353D" d="M12.857 30.154h-.12v-.891h-.588v-.127h.708v1.018"/>
  <path fill="#33535F" d="M12.15 28.137h.707v-1.018h-.708v1.018Z"/>
  <path fill="#20353D" d="M12.857 28.137h-.12v-.891h-.588v-.127h.708v1.018"/>
  <path fill="#33535F" d="M12.15 26.12h.707v-1.018h-.708v1.018Z"/>
  <path fill="#6A858C" d="M12.738 26.12h-.589v-1.018h.708-.708v.127h.589v.891Z"/>
  <path fill="#46585F" d="M12.857 26.12h-.12v-.891h-.588v-.127h.708v1.018"/>
  <path fill="#33535F" d="M12.15 24.103h.707v-1.017h-.708v1.017Z"/>
  <path fill="#6A858C" d="M12.738 24.103h-.589v-1.017h.708-.708v.126h.589v.891"/>
  <path fill="#46585F" d="M12.857 24.103h-.12v-.891h-.588v-.126h.708v1.017"/>
  <path fill="#33535F" d="M16.592 30.153h.708v-1.017h-.708v1.017Z"/>
  <path fill="#20353D" d="M17.3 30.153h-.12v-.891h-.588v-.126h.708v1.017Z"/>
  <path fill="#33535F" d="M16.592 28.136h.708V27.12h-.708v1.017Z"/>
  <path fill="#20353D" d="M17.3 28.136h-.12v-.891h-.588v-.126h.708v1.017"/>
  <path fill="#33535F" d="M16.592 26.12h.708v-1.018h-.708v1.017Z"/>
  <path fill="#6A858C" d="M17.18 26.12h-.588v-1.018h.708-.708v.126h.589v.891Z"/>
  <path fill="#46585F" d="M17.3 26.12h-.12v-.892h-.588v-.126h.708v1.017Z"/>
  <path fill="#33535F" d="M16.592 24.102h.708v-1.017h-.708v1.017Z"/>
  <path fill="#6A858C" d="M17.18 24.102h-.588v-1.017h.708-.708v.126h.589v.891"/>
  <path fill="#46585F" d="M17.3 24.102h-.12v-.891h-.588v-.126h.708v1.017"/>
  <path fill="#17282F" d="M10.04 24.162h.248v-1.017h-.249v1.017Z"/>
  <path fill="#fff" d="M9.87 24.316h.453v-.154H9.87v.154Z"/>
  <path fill="#17282F" d="M10.04 26.1h.248v-1.017h-.249v1.018Z"/>
  <path fill="#fff" d="M9.87 26.254h.453v-.153H9.87v.153Z"/>
  <path fill="#17282F" d="M10.04 28.04h.248v-1.018h-.249v1.018Z"/>
  <path fill="#fff" d="M9.87 28.193h.453v-.154H9.87v.154Z"/>
  <path fill="#17282F" d="M10.04 29.978h.248v-1.017h-.249v1.017Z"/>
  <path fill="#fff" d="M9.87 30.131h.453v-.153H9.87v.153Z"/>
  <path fill="#BA7562" d="M11.142 32.834H9.46v-1.805h1.683v1.805Zm-1.17-.508v.12h.915v-.12h-.915Zm.588 0h.12v-1.018h-.708v1.018h.588Zm.582-1.623H9.46v-8.352h1.683v8.352Zm-1.272-.725v.153h.453v-.153H9.87Zm.17-1.018v1.018h.248V28.96h-.248Zm-.17-.92v.153h.453v-.154H9.87Zm.17-1.018v1.017h.248v-1.017h-.248Zm-.17-.921v.153h.453v-.153H9.87Zm.17-1.018v1.018h.248v-1.018h-.248Zm-.17-.92v.153h.453v-.154H9.87Zm.17-1.018v1.017h.248v-1.017h-.248Zm1.102-1.12H9.46v-.255h1.683v.255Zm0-.418H9.46v-.256h1.683v.256"/>
  <path fill="#C25D43" d="M9.46 22.351h1.682v-.325H9.46v.325Zm0-.581h1.682v-.163H9.46v.163Zm0 9.259h1.682v-.326H9.46v.326Z"/>
  <path fill="#20353D" d="M10.56 32.326h-.588v-1.018h.708-.708v.127h.588v.891Z"/>
  <path fill="#142127" d="M10.68 32.326h-.12v-.891h-.588v-.127h.708v1.018Z"/>
  <path fill="#A7A9A8" d="M9.972 32.446h.915v-.12h-.915v.12Z"/>
  <path fill="#0F191D" d="M10.04 24.162h.248v-1.017h-.249v1.017Z"/>
  <path fill="#A7A9A8" d="M9.87 24.316h.453v-.154H9.87v.154Z"/>
  <path fill="#0F191D" d="M10.04 26.1h.248v-1.017h-.249v1.018Z"/>
  <path fill="#A7A9A8" d="M9.87 26.254h.453v-.153H9.87v.153Z"/>
  <path fill="#0F191D" d="M10.04 28.04h.248v-1.018h-.249v1.018Z"/>
  <path fill="#A7A9A8" d="M9.87 28.193h.453v-.154H9.87v.154Z"/>
  <path fill="#0F191D" d="M10.04 29.978h.248v-1.017h-.249v1.017Z"/>
  <path fill="#A7A9A8" d="M9.87 30.131h.453v-.153H9.87v.153Z"/>
  <path fill="#17282F" d="M15.21 32.82h-1.29v-1.47h1.29v1.47Z"/>
  <path fill="#C25D43" d="M9.318 21.35h1.55v-.395h-1.55v.396Z"/>
  <path fill="#fff" d="M12.838 24.127c0 .012-.156.02-.348.02-.192 0-.348-.008-.348-.02s.156-.021.348-.021c.192 0 .348.01.348.02Zm2.209-.024c0 .012-.156.021-.348.021-.192 0-.348-.01-.348-.02 0-.012.156-.022.348-.022.192 0 .348.01.348.021Zm2.267.018c0 .012-.156.022-.348.022-.193 0-.348-.01-.348-.022 0-.011.155-.02.348-.02.192 0 .348.009.348.02Zm0 2.017c0 .012-.156.021-.348.021-.193 0-.348-.009-.348-.02 0-.012.155-.022.348-.022.192 0 .348.01.348.021Zm-2.311-.037c0 .012-.156.021-.348.021-.192 0-.348-.01-.348-.021 0-.012.156-.021.348-.021.192 0 .348.01.348.021Zm0 2.015c0 .012-.156.021-.348.021-.192 0-.348-.009-.348-.02 0-.012.156-.022.348-.022.192 0 .348.01.348.021Zm2.32.02c0 .012-.155.021-.348.021-.192 0-.347-.01-.347-.02 0-.012.155-.022.348-.022.192 0 .347.01.347.021Zm-4.531-.021c0 .012-.156.021-.348.021-.192 0-.348-.01-.348-.02 0-.012.156-.022.348-.022.192 0 .348.01.348.021Zm.066 2.039c0 .012-.156.021-.348.021-.192 0-.348-.01-.348-.021 0-.012.156-.021.348-.021.192 0 .348.01.348.021Zm2.15-.023c0 .012-.156.022-.348.022-.192 0-.348-.01-.348-.022 0-.011.156-.02.348-.02.192 0 .348.009.348.02Zm2.278.023c0 .012-.156.021-.348.021-.192 0-.348-.01-.348-.021 0-.012.155-.021.348-.021.192 0 .348.01.348.021Zm-4.448-4.034c0 .012-.156.021-.348.021-.192 0-.348-.01-.348-.02 0-.012.156-.022.348-.022.192 0 .348.01.348.021Z"/>
  <path fill="#33535F" d="M7.755 31.477c-.05-.193-.08-.386-.167-.569a.63.63 0 0 0-.532-.341v-.003l-.03.001-.028-.002v.004a.631.631 0 0 0-.533.341c-.087.183-.116.376-.167.569-.063.24-.126.483-.12.729.007.225.08.46.269.62.148.128.362.158.58.154.235-.005.432-.026.58-.153.188-.161.261-.396.268-.621.006-.246-.057-.49-.12-.73m17.926.001c-.05-.193-.08-.386-.167-.569a.63.63 0 0 0-.532-.341v-.003l-.03.001-.029-.002v.004a.631.631 0 0 0-.532.341c-.088.183-.116.376-.167.569-.063.24-.126.483-.12.729.007.225.08.46.268.62.149.128.363.158.58.154.236-.005.432-.026.58-.153.19-.161.262-.396.268-.621.007-.246-.056-.49-.119-.73ZM9.262 30.21c-.206.02-.516 1.557-.642 2.232a.383.383 0 0 0 .27.436c.373.11.66.082.859.021a.38.38 0 0 0 .264-.45c-.153-.66-.546-2.26-.751-2.24"/>
  <path fill="#33535F" d="M10.22 31.468c-.11.01-.278.842-.347 1.207a.207.207 0 0 0 .147.237.8.8 0 0 0 .464.011.206.206 0 0 0 .143-.243c-.083-.358-.295-1.224-.406-1.212m20.941-1.315c-.206.02-.516 1.557-.642 2.232a.383.383 0 0 0 .27.437c.373.11.66.08.859.02a.38.38 0 0 0 .264-.449c-.153-.662-.546-2.261-.751-2.24Z"/>
  <path fill="#33535F" d="M32.066 31.401c-.11.012-.279.843-.347 1.208a.208.208 0 0 0 .146.236.8.8 0 0 0 .465.012.206.206 0 0 0 .143-.244c-.083-.358-.295-1.223-.407-1.212m8.778-.96c-.206.02-.516 1.453-.642 2.082-.036.18.082.356.27.408a1.6 1.6 0 0 0 .859.02c.193-.055.31-.237.264-.42-.153-.617-.545-2.11-.751-2.09m6.825.975c-.112.011-.28.843-.348 1.208a.207.207 0 0 0 .146.236.8.8 0 0 0 .465.012.206.206 0 0 0 .143-.244c-.083-.358-.295-1.223-.407-1.212Z"/>
  <path fill="#33535F" d="M48.558 30.154c-.205.021-.516 1.558-.642 2.232a.383.383 0 0 0 .27.437c.373.11.66.081.859.021a.38.38 0 0 0 .264-.45c-.153-.661-.545-2.26-.751-2.24Z"/>
  <path fill="#33535F" d="M49.494 31.412c-.111.01-.28.842-.348 1.207a.208.208 0 0 0 .146.237.8.8 0 0 0 .465.011.206.206 0 0 0 .143-.243c-.083-.358-.295-1.224-.406-1.212Zm-40.965.256c-.094.01-.236.713-.294 1.021a.175.175 0 0 0 .123.2c.171.05.303.037.393.01a.174.174 0 0 0 .121-.206c-.07-.303-.25-1.035-.343-1.025M2.882 30.21c-.206.02-.516 1.557-.643 2.232a.383.383 0 0 0 .27.436c.373.11.66.082.86.021a.38.38 0 0 0 .264-.45c-.154-.66-.546-2.26-.751-2.24Z"/>
  <path fill="#33535F" d="M3.84 31.468c-.11.01-.279.842-.347 1.207a.207.207 0 0 0 .146.237.8.8 0 0 0 .465.011.206.206 0 0 0 .143-.243c-.083-.358-.295-1.224-.407-1.212Zm-1.692.2c-.094.01-.236.713-.294 1.021a.175.175 0 0 0 .124.2c.17.05.302.037.393.01a.174.174 0 0 0 .12-.206c-.07-.303-.249-1.035-.343-1.025Zm11.25-.188c-.11.012-.274.829-.341 1.187a.204.204 0 0 0 .143.232.775.775 0 0 0 .457.011.202.202 0 0 0 .14-.238c-.081-.352-.29-1.202-.4-1.191Zm2.321-.014c-.112.01-.28.844-.349 1.21a.208.208 0 0 0 .147.237c.202.06.358.044.466.012a.206.206 0 0 0 .143-.244c-.083-.359-.296-1.227-.407-1.215"/>
</svg>
