<svg xmlns="http://www.w3.org/2000/svg" width="21" height="31" fill="none" viewBox="0 0 21 31">
  <path fill="#BD242B" d="M20.601 10.3c0 5.69-10.3 20.7-10.3 20.7S0 15.99 0 10.3C0 4.613 4.612 0 10.3 0c5.69 0 10.301 4.612 10.301 10.3Z"/>
  <path fill="#fff" d="M15.143 9.847a4.842 4.842 0 1 1-9.684 0 4.842 4.842 0 0 1 9.684 0"/>
  <path fill="#CD4A45" d="M1.765 11.205a8.948 8.948 0 0 1 16.042-5.454 8.948 8.948 0 1 0-14.852 9.914 8.907 8.907 0 0 1-1.19-4.46"/>
  <path fill="#AC262B" d="M7.871 27.06c1.404 2.352 2.43 3.94 2.43 3.94s10.3-15.01 10.3-20.7c0-.298-.015-.593-.04-.885a25.017 25.017 0 0 1-1.687 4.588c-1.95 4.058-4.833 6.659-7.904 9.951a58.85 58.85 0 0 1-3.099 3.106Z"/>
</svg>
