<svg xmlns="http://www.w3.org/2000/svg" width="3284" height="2215" fill="none" viewBox="0 0 3284 2215">
  <path fill="#C83771" d="M2552.02 5.468c-2.43 3.037-15.19 7.29-29.77 9.72-25.51 4.252-77.14 26.12-83.83 35.84-2.43 3.038-7.29 3.038-10.93 1.215-3.65-2.43-6.68-1.215-6.68 1.823 0 3.645 3.64 7.29 7.89 7.29 3.65.607 13.98 1.822 21.27 2.43 8.5.607 20.04-4.253 26.72-11.543 7.29-6.682 10.94-9.72 9.12-6.075-2.43 4.253 1.82 8.505 9.72 10.935 18.83 4.86 23.69 4.252 19.44-2.43-1.83-3.645.6-4.252 5.46-2.43 5.47 1.823 7.9 6.682 5.47 10.327-2.43 4.253 12.15 4.86 47.38 2.43 30.38-1.822 46.17-1.215 38.88 1.823-9.72 4.252-6.68 5.467 12.76 5.467 17.61.607 26.73-2.43 29.16-8.505 1.82-4.86 8.5-9.112 15.18-9.112 15.8 0 30.98-6.075 30.98-12.757 0-3.037-5.46-5.467-11.54-5.467-6.68 0-12.75-2.43-13.97-6.075-1.82-4.86-41.31-10.934-80.19-12.15-9.11 0-9.72-1.822-3.64-9.111 6.68-7.898 4.25-9.113-13.97-9.113-12.15 0-23.09 2.43-24.91 5.468Zm72.29 30.98c-6.07 6.683-18.22 12.15-26.73 11.543l-15.79-.608 15.18-4.86c8.51-2.43 10.94-5.467 6.08-6.074-4.86-.607-2.43-3.645 6.07-6.075 24.3-7.897 26.73-6.682 15.19 6.075Zm-154.91 8.506c0 1.822-2.43 4.86-6.07 6.682-3.04 1.822-6.07.607-6.07-2.43 0-3.645 3.03-6.682 6.07-6.682 3.64 0 6.07 1.215 6.07 2.43Zm-126.34-12.156c-10.93 3.645-18.22 9.112-15.79 11.542 2.43 2.43 1.21 4.252-2.43 4.252-4.25 0-7.29-3.037-7.29-6.075 0-7.29-43.74-7.29-88.09 0-30.37 4.253-21.87 7.898 19.44 7.898 10.94 0 18.23 2.43 16.4 5.467-1.82 2.43-2.42 4.86-1.21 5.467 32.2 5.467 72.29 5.467 69.25 0-3.04-4.252 1.22-6.682 9.72-6.682 9.72 0 11.54 1.822 6.08 5.467-9.72 5.467 18.22 12.757 49.81 12.757 14.58 0 17.01-1.822 9.72-6.075-4.86-3.645-17.01-4.252-27.34-2.43-16.4 3.645-17.01 3.038-9.72-6.074 4.26-5.468 13.37-9.72 20.05-9.72 6.07 0 9.72-3.037 7.9-6.075-1.83-3.644-9.12-6.074-15.8-6.074-6.07 0-11.54-3.038-11.54-6.075 0-7.29-3.64-7.29-29.16 2.43ZM1436.7 59.531c-5.47 6.075-15.19 7.29-31.59 4.86-18.22-3.037-24.3-1.822-27.34 6.075-1.82 5.467 0 12.15 4.86 15.187 4.86 3.037 5.47 5.467 1.83 5.467-3.65 0-10.33-4.252-15.19-9.72-4.25-5.467-13.37-8.504-21.87-6.682-7.9 1.215-15.19.608-17.01-1.822-1.21-2.43-18.22-3.037-37.66-2.43-19.44 1.215-42.53 1.822-51.64 2.43-13.36 0-15.79 2.43-12.76 10.327 2.43 6.075 10.94 17.617 19.44 25.514l15.8 14.579-16.4-9.719c-9.72-6.075-17.62-7.898-20.05-4.253-1.82 3.038 7.9 10.935 22.48 18.225 30.37 14.579 32.8 15.186 23.08 3.037-14.58-17.617 30.98 10.934 47.38 28.551 7.9 9.72 18.83 17.009 24.3 17.009 6.08.608 21.26 5.468 34.63 12.15 35.84 17.617 49.81 15.794 54.67-6.075 2.43-10.327 7.9-18.224 12.15-18.224 9.11 0 44.35-30.374 35.84-30.374-3.04 0-.61-3.037 5.47-6.682 12.15-7.29 31.59-2.43 51.63 13.364 12.76 9.72 13.37 10.935 3.04 17.01-12.15 7.289-7.9 8.504 20.05 6.682 10.93-.608 21.26 1.822 23.69 5.467 4.25 7.29 32.2 3.038 42.52-6.075 3.04-3.037 10.33-5.467 17.01-5.467 6.08 0 9.11-3.037 7.29-6.075-1.82-3.644-11.54-6.074-21.26-6.074-9.72 0-18.22-4.253-20.65-9.72-2.43-6.682-8.51-9.112-18.84-7.29-8.5 1.823-15.18.608-15.18-1.822 0-8.505-55.28-30.981-65.61-26.729-7.9 3.038-8.5 1.823-3.04-3.645 4.86-4.86 18.83-5.467 45.56-3.037 65 7.29 120.89 3.645 125.14-8.505 1.22-3.645 7.29-6.074 13.37-6.074 15.79 0 20.65-10.328 7.89-17.01-17.61-9.112-91.72-12.757-95.98-4.86-1.82 4.86-4.25 4.253-6.68-1.215-5.47-10.934-32.8-9.112-32.8 2.43 0 7.898-1.82 8.505-9.11 2.43-12.76-10.934-108.13-11.542-118.46-1.215Zm53.46 30.374c1.82 5.467-1.22 7.897-8.51 6.075-5.47-.608-11.54-5.467-13.36-9.72-1.83-5.467 1.21-7.897 8.5-6.075 5.47.608 11.54 5.468 13.37 9.72Zm-120.28 40.701c0 1.822-4.86 3.037-10.94 3.037-6.07 0-11.54-4.252-11.54-8.504 0-6.683 3.04-7.898 11.54-3.038 6.08 3.038 10.94 7.29 10.94 8.505Zm-42.53 15.187c0 3.037-2.43 6.074-6.07 6.074-3.04 0-6.08-3.037-6.08-6.074 0-3.645 3.04-6.075 6.08-6.075 3.64 0 6.07 2.43 6.07 6.075Zm1610.42 34.632c-8.5 1.822-21.26 7.29-29.16 12.15-9.72 6.682-39.48 10.934-90.51 14.579-72.9 4.86-99.02 9.112-105.7 17.009-6.68 8.505-52.24 26.729-62.57 25.514-7.9-1.215-10.94 1.823-9.72 9.72 3.04 19.439-6.68 35.841-26.73 45.56l-19.44 9.72 15.19 6.075c9.11 4.252 11.54 6.682 5.46 6.682-5.46.607-17.61 7.289-27.33 15.794-13.97 11.542-15.19 15.187-6.68 15.187 15.18 0 12.75 11.542-4.86 18.224-8.51 3.038-15.19 9.72-15.19 14.58 0 12.757 16.4 23.691 30.37 20.046 6.69-1.822 10.94-.607 8.51 2.43-1.82 3.037 4.25 8.505 13.36 11.542 12.76 4.86 17.62 4.86 21.87-1.215 3.65-6.075 4.86-5.467 4.86 1.823 0 13.364 12.76 17.616 60.75 21.869 72.9 5.467 80.79 5.467 83.83-3.645 1.82-6.075 0-7.29-7.29-4.86-5.47 2.43-9.11 1.822-7.29-1.215 1.82-2.43-7.9-8.505-20.65-12.757-13.37-4.252-24.3-9.719-24.3-11.542 0-2.43-7.29-8.505-17.01-13.972-16.4-9.719-26.73-41.308-13.37-41.308 3.65 0 6.08-3.037 6.08-6.075 0-8.504 63.78-72.897 72.29-72.897 3.64 0 11.54-4.859 17.61-10.934 13.98-13.972 40.1-21.869 119.68-37.664 105.7-21.261 126.96-34.626 77.15-48.598-23.09-6.074-24.91-6.074-49.21-1.822Zm-312.24 133.037c-1.82 1.822-7.29 2.43-11.54.607-4.86-1.822-3.04-3.644 3.64-3.644 6.68-.608 10.33 1.214 7.9 3.037Z"/>
  <path fill="#C83771" d="M1719.17 425.834c-2.43 3.644-8.51 4.859-13.97 2.43-4.86-1.823-15.8 2.429-24.3 10.327-8.51 7.897-13.37 10.327-10.94 6.074 3.04-4.859-1.21-7.289-15.79-7.289-26.12 0-47.99 6.074-44.35 12.149 3.65 6.075-26.12 14.58-44.95 12.757-10.33-1.215-12.76.608-9.72 6.682 3.65 6.075 3.04 6.683-3.64 0-14.58-13.364-54.07-7.289-54.07 8.505 0 9.112-.61 9.112-22.48 11.542-24.9 2.43-33.41 8.505-30.37 21.262 1.82 6.682 0 13.971-3.04 16.401-4.25 2.43-4.86.608-1.82-4.252 3.65-6.075 1.22-6.682-12.15-3.645-15.19 3.645-16.4 3.038-9.72-4.86 11.54-13.364 0-12.757-32.19 3.038-20.05 9.112-26.13 15.187-23.7 21.869 2.43 6.682 1.22 8.504-3.03 5.467-8.51-4.86-49.82 11.542-49.82 20.047 0 8.504 2.43 8.504 27.34-1.823 11.54-4.859 21.26-7.897 21.26-6.682 0 1.215 8.51 0 18.23-3.037 10.93-3.038 18.22-3.038 18.22.607 0 3.038-4.25 5.468-9.11 5.468-4.86 0-9.11 5.467-9.11 11.542 0 6.682-12.15 20.654-30.38 33.411-16.4 12.149-30.37 24.299-30.37 27.336 0 3.037-5.47 6.682-12.15 8.505-8.51 1.822-12.15 8.504-12.15 18.831 0 20.654-20.05 40.094-40.7 40.094-13.97 0-15.19 1.215-7.9 6.682 7.29 5.467 7.9 6.682.61 9.719-4.25 1.823-18.83 13.972-31.59 26.729-21.26 21.262-24.91 23.084-36.45 16.402-10.33-6.682-13.36-6.075-19.44 1.822-4.25 5.468-10.93 8.505-15.79 6.683-6.08-1.823-7.29 0-4.86 6.682 2.43 6.682-1.22 10.327-14.58 13.364-9.72 2.43-17.62 6.683-17.62 9.72 0 3.037-6.68 6.682-15.18 9.112-8.51 1.822-15.19 6.075-15.19 9.72 0 3.037-2.43 4.252-4.86 2.43-3.04-1.823-13.37 1.822-23.69 8.504-18.23 10.935-18.83 12.757-19.44 57.103-.61 38.271 1.21 44.953 8.5 42.523 9.72-3.645 12.76 6.682 4.26 12.149-7.29 4.253-7.9 40.094-.61 40.094 3.04 0 5.47 5.467 5.47 12.149 0 7.29 9.11 17.613 24.29 27.333 31.59 20.05 64.4 20.05 91.73 0 11.54-7.89 32.2-20.651 46.78-27.94 13.97-7.29 25.51-17.617 26.12-23.084 0-7.898 1.21-8.505 3.64-.608 1.83 4.86 7.29 11.542 11.55 13.972 4.86 2.43 8.5 12.15 8.5 21.26 0 9.11 5.47 23.09 12.15 31.59 6.68 8.5 12.15 17.62 12.15 20.05 0 3.03 9.72 15.18 21.26 27.33 11.54 12.15 18.23 23.09 15.19 24.3-3.65 1.22-6.08 6.08-6.08 10.94 0 4.86-1.82 7.89-4.25 7.89-9.72-1.82-44.34 8.51-44.34 12.76 0 6.08-35.85 14.58-40.7 10.33-1.22-1.82 0-8.51 3.64-14.58 6.07-10.33 6.07-10.33 6.68 0 0 6.07 3.04 9.11 6.08 7.29 3.64-2.43 4.86-6.08 3.03-9.11-1.82-3.04-.6-6.69 3.04-9.12 10.94-6.68 6.68-21.26-6.07-21.26-12.15 0-17.01-14.58-6.69-21.26 7.29-4.25 6.69-39.48-.6-39.48-2.43 0-4.86 2.42-4.86 6.07 0 3.04-3.65 6.07-8.51 6.07-4.25 0-11.54 4.26-15.79 9.12-4.25 4.86-15.19 9.11-24.91 9.11-32.8 0-55.28 65-30.98 89.9 8.51 9.72 9.11 17.62 1.22 22.48-3.04 1.82-4.26 7.29-1.83 12.76 2.43 6.68 5.47 7.29 11.55 1.82 6.68-5.47 8.5-4.86 8.5 3.04 0 5.47-3.04 9.72-6.68 9.72-4.86 0-4.86 3.04.61 9.11 13.36 15.79-3.04 27.94-30.99 23.69-15.79-3.04-27.94-1.21-37.05 4.86-8.51 5.47-21.87 7.9-32.81 6.68-28.55-4.25-54.67 11.55-59.528 36.45-6.075 32.2-46.168 68.65-91.729 83.83-26.728 8.51-30.981 12.15-35.233 31.59-4.86 19.44-8.505 23.09-29.159 28.55-13.364 3.65-27.336 12.15-31.589 18.23-8.504 13.97-29.766 15.79-41.915 4.25-4.253-4.86-15.795-10.33-25.514-12.76-15.794-3.64-17.009-3.03-12.757 9.72 12.757 41.31 11.542 44.35-13.365 44.35-12.756 0-26.121-2.43-30.373-4.86-7.897-4.86-54.065.61-68.645 8.5-11.542 5.47-12.757 35.84-1.822 35.84 4.252 0 7.897 2.43 7.897 6.08 0 3.04 3.645 4.25 7.897 2.43 13.972-5.47 40.701 8.5 37.056 18.83-1.822 4.86-.607 9.11 3.645 9.11 3.645 0 4.86-3.03 3.037-6.07-6.682-10.94 15.187-6.08 28.552 6.07 7.897 6.68 9.719 12.15 5.467 12.15-5.467 0-4.86 3.04 1.822 9.72 5.467 4.86 9.72 12.15 9.72 15.19 0 3.04 4.252 5.47 9.719 5.47 4.86 0 7.29 2.43 5.468 6.07-1.823 3.04-1.215 6.08 1.822 6.08s5.467 3.64 5.467 7.28c0 4.26 1.215 10.33 2.43 13.98 2.43 8.5-6.075 69.25-13.364 92.94-7.29 21.87-24.299 34.02-41.916 28.55-10.327-3.04-91.729-9.11-168.27-11.54-17.617-.61-33.411-3.04-35.841-5.47-8.505-8.5-30.981-4.25-41.916 7.9-6.075 6.68-15.794 12.15-21.262 12.15-17.009 0-25.513 14.58-18.831 32.2 3.037 7.89 6.682 33.41 7.289 56.49 1.823 44.35-12.149 95.37-30.373 109.95-4.86 4.26-7.29 7.9-5.468 7.9 2.43 0 1.823 7.9-1.214 18.22-3.038 10.94-3.038 18.23.607 18.23 3.037 0 5.467 4.25 5.467 9.11 0 4.86 3.645 8.51 7.897 7.29 7.898-1.21 9.113 29.77 1.823 56.5-4.252 14.57-3.038 15.18 21.869 14.57 14.579 0 32.196-2.43 40.093-4.85 21.869-7.29 37.664 1.82 47.991 27.33 10.327 26.73 33.411 37.66 46.168 21.87 13.364-16.4 49.205-27.94 86.261-28.55 20.047 0 41.308 0 47.383-.61 5.467 0 14.579-8.5 19.439-18.22 6.682-12.15 15.795-19.44 27.944-21.87 13.972-2.43 20.654-9.11 27.944-26.73 4.86-13.36 12.757-23.69 17.009-23.69 4.252 0 10.935-4.25 15.187-9.11 6.682-7.9 6.075-10.94-1.215-17.01-14.579-11.55-16.402-25.52-6.075-41.92 21.869-32.2 58.925-71.68 67.43-71.68 4.86 0 23.084-7.29 40.701-16.4 32.803-16.4 51.027-40.7 38.878-52.85-3.037-3.04-6.075-12.15-6.075-19.44 0-29.77 64.393-40.7 101.45-17.01 20.05 12.76 34.02 10.33 55.89-9.11 11.54-10.33 27.94-20.05 37.66-21.87 9.72-2.43 20.65-9.11 23.69-15.19 3.04-6.07 9.72-12.15 14.58-13.97 12.76-4.86 64.39 18.83 64.39 29.76 0 4.86 3.65 13.98 7.9 21.27 6.07 10.32 5.47 13.36-3.65 20.65-7.89 5.47-9.11 9.11-3.64 12.15 3.64 2.43 9.11 1.21 11.54-3.64 4.25-6.08 6.68-6.08 14.58 0 5.47 4.85 9.72 12.14 9.72 16.4 0 4.86 5.47 8.5 12.15 8.5 6.68 0 12.15 1.82 12.15 4.86 0 9.11 60.75 52.24 74.72 52.85 7.9 0 21.26 7.29 29.77 16.4 8.5 9.72 20.04 17.01 25.51 17.01 5.47 0 9.72 4.25 9.72 9.72 0 5.47 7.9 12.76 18.22 16.4 13.37 4.86 20.05 13.37 27.34 34.63 6.07 17.01 7.29 27.94 3.04 29.16-3.04 1.21-6.08 7.29-6.08 12.76 0 13.97-55.89 26.72-99.62 22.47-35.84-3.03-46.17 0-46.17 14.58 0 10.33 54.67 42.52 71.68 42.52 3.65 0 9.11 3.65 11.54 7.9 2.43 4.86 10.94 9.72 18.83 12.15 15.19 3.65 27.95-12.76 21.87-28.55-1.82-5.47-1.82-17.01 0-25.51 3.04-12.15 6.69-14.58 16.4-11.55 15.19 4.86 41.92-17.61 41.92-35.23 0-6.07 5.47-12.76 12.15-14.58 17.01-4.25 15.79-27.33-3.04-38.27-13.36-8.5-13.97-10.93-7.29-24.3 6.08-12.15 11.55-14.58 25.52-13.36 10.32 1.21 19.44 4.86 20.04 7.89 1.22 3.04 6.69 10.33 12.15 15.19 9.12 9.11 10.33 9.11 15.8-3.04 7.89-18.22-10.33-36.44-63.18-61.96-35.84-17.01-40.7-21.87-35.84-30.98 3.04-6.07 3.64-10.93 1.21-11.54-2.43 0-16.4-.61-30.37-1.82-20.65-1.22-30.37-6.08-47.38-23.7-11.54-12.15-21.26-26.72-21.26-32.8-.61-15.19-10.94-27.34-37.67-43.13-24.9-15.19-34.02-33.41-23.08-46.78 4.25-5.46 4.86-9.11 0-12.14-12.15-7.29-6.08-18.84 13.97-26.13 24.3-8.5 41.92-9.72 29.77-2.43-5.47 3.65-6.08 9.72-1.83 20.66 7.29 20.04 18.84 27.33 25.52 16.4 3.64-6.68 5.47-4.86 5.47 4.86 0 7.29 3.03 15.19 6.07 17.01 3.64 1.82 6.07-1.82 6.07-8.51 0-6.68 3.04-13.97 7.29-16.4 4.86-3.03 5.47-1.21 3.04 6.08-2.43 6.07-.61 14.58 5.47 20.04 6.68 7.29 7.29 10.94 2.43 13.98-7.9 4.86 20.65 30.37 34.02 30.37 4.86 0 13.36 5.47 18.83 12.15 6.07 6.68 17.62 12.15 26.12 12.76l15.19.6-15.19 4.86c-14.58 4.86-14.58 4.86 4.25 5.47 10.33.61 21.26 3.04 23.09 6.68 1.82 3.04 8.5 6.08 14.58 6.08 5.46 0 24.3 10.32 41.3 22.47l31.59 23.09-3.64 37.66c-3.04 35.23-2.43 37.66 13.36 47.99 9.72 6.08 13.37 12.15 9.12 14.58-8.51 5.47-1.22 24.3 9.11 24.3 4.86 0 12.75 4.25 17.61 9.72 9.72 9.11 9.72 20.05.61 41.31-2.43 6.07-2.43 12.75 1.22 15.18 3.03 1.83 7.29 8.51 9.72 13.98 4.25 12.15 16.4 14.58 16.4 3.64 0-15.19 23.08 15.19 27.33 35.84 3.65 18.83 5.47 20.66 18.84 17.62 10.32-3.04 14.58-1.22 14.58 5.47 0 4.86 3.03 9.11 6.07 9.11 3.64 0 6.07-3.04 6.07-6.08 0-3.64 3.04-6.07 6.08-6.07 3.64 0 6.07 6.68 6.07 15.19 0 8.5 3.04 15.18 6.08 15.18 11.54 0 9.11-30.98-4.25-57.71-6.69-12.75-6.69-15.79-1.22-10.93 4.25 4.25 12.76 7.9 19.44 7.9 8.51 0 10.33-3.04 7.29-12.76-3.64-10.33-1.82-12.15 10.33-10.33 10.93 1.22 13.36-.61 12.15-9.72-1.83-10.33-1.22-10.93 7.29-4.25 5.46 4.86 9.72 6.07 9.72 3.64s4.25-1.21 9.11 3.04c4.86 4.25 9.11 12.76 9.11 19.44 0 10.94.61 10.94 9.72 2.43 8.5-8.5 7.9-10.93-3.04-23.08-7.29-7.29-12.75-10.94-12.75-8.51 0 9.11-19.44-10.93-24.91-24.9-3.04-8.51-10.33-13.98-17.62-13.98-8.5 0-14.58-6.07-18.83-18.22-3.64-10.33-9.11-18.22-12.15-18.22-6.68 0-24.91-35.24-22.48-43.74 1.22-3.65 10.94.6 21.27 9.72 18.83 15.79 29.76 20.65 23.08 9.72-2.43-3.65.61-4.26 6.68-1.83 8.51 3.04 9.72 1.83 6.08-7.89-3.65-9.12-3.04-10.33 3.03-4.26 14.58 14.58 20.05 7.9 6.08-6.68s-13.97-14.58-1.82-21.26c9.11-4.86 13.97-4.86 17.01.61 2.43 4.25 1.82 4.86-2.43 2.43-4.26-2.43-7.29-1.22-7.29 1.82 0 11.54 16.4 7.29 20.04-4.86 2.43-10.93 4.86-10.93 23.09-4.25 11.54 3.64 26.73 10.33 34.62 14.58 18.84 10.32 38.27 7.29 51.03-8.51 7.9-9.72 17.01-12.75 32.8-12.15 11.55.61 24.3-2.43 27.95-7.29 7.29-8.5 7.29-8.5-13.97-17.61-18.83-7.9-44.96-55.89-35.84-65 3.64-3.65 6.07-12.15 6.07-19.44 0-7.9 4.86-14.58 11.54-16.4 9.72-2.43 12.15-9.12 13.97-32.2 1.83-25.51 4.26-30.98 18.84-37.66 11.54-5.47 16.4-12.76 16.4-23.09 0-8.5 7.9-23.69 18.22-34.62 9.72-10.94 18.23-23.09 18.23-27.34 0-3.64 6.68-7.29 15.18-7.29 9.12 0 15.19 3.65 15.19 9.11 0 9.12 31.59 17.62 65 17.01 10.93-.61 18.22 1.82 16.4 4.86-1.82 3.04-6.07 5.47-9.11 5.47-7.9 0-33.41 24.3-26.12 24.91 7.9 1.21 15.79 3.03 31.59 8.5 10.93 3.65 13.36 8.51 12.15 20.65-1.83 13.37.6 15.8 15.79 17.62 11.54 1.22 19.44-1.21 23.08-7.29 3.04-5.47 12.15-9.72 20.05-9.72s16.4-3.04 18.23-6.07c1.82-3.65 13.36-6.08 24.9-6.08 14.58 0 20.66-3.03 20.66-9.11 0-10.33 3.03-8.5 30.98 16.4 6.07 6.08 15.18 10.94 19.44 10.94 4.25 0 13.36 4.25 20.04 9.11 6.08 4.86 15.19 9.11 20.05 9.11 4.86 0 13.36 4.25 19.44 9.72 9.11 7.9 14.58 8.51 29.77 3.65 15.18-5.47 21.86-4.86 38.27 4.25 10.32 6.68 29.15 13.36 40.7 15.79 11.54 2.43 34.02 12.15 49.2 21.87 24.91 15.8 31.59 17.62 60.75 13.97l32.8-3.64 39.49 34.62c66.82 57.71 227.8 131.22 216.87 98.41-1.22-3.64-6.69-7.28-12.15-7.28-6.08 0-36.45-28.56-68.04-63.18-49.81-53.46-57.71-65.61-57.71-83.23 0-20.04-17.62-44.95-38.27-53.45-4.86-1.83-5.47-4.26-1.22-7.9 3.65-2.43 9.12-12.76 12.15-22.48 6.08-18.83 37.06-40.09 50.42-35.23 3.65 1.21 7.29-1.22 7.29-6.08 0-12.15 15.19-24.9 54.68-44.95 18.22-9.72 34.62-18.22 36.45-19.44 1.82-1.21-4.86-8.5-15.19-16.4-14.58-12.15-17.62-18.83-16.4-35.84 1.21-17.01-3.04-26.12-18.84-44.35-26.12-29.16-32.19-40.7-37.05-72.89-3.65-25.52-3.65-25.52 18.83-31.59 12.76-3.65 37.06-6.68 54.07-6.68 16.4 0 33.41-3.04 37.05-6.69 12.15-12.15 86.87-8.5 126.36 5.47 27.33 10.33 43.13 12.76 65 9.72 20.04-3.04 29.15-1.82 29.15 3.04 0 3.64 5.47 6.68 11.55 6.68 6.68 0 15.79 4.25 21.26 9.11 10.93 11.54 25.51 11.54 29.76.61 2.43-6.08 10.33-7.9 26.73-5.47 43.13 5.47 52.85-29.76 12.15-43.74-30.98-10.32-43.73-21.26-33.41-28.55 7.9-5.46 3.65-9.72-31.59-35.23-12.15-8.51-12.75-10.94-6.07-37.66 6.07-24.91 6.07-30.38-3.65-46.78-15.18-25.51-34.01-24.91-57.71 2.43-25.51 28.55-45.56 28.55-66.21-.61-8.51-11.54-21.87-29.76-29.77-39.48-13.97-17.62-13.97-18.83-3.64-29.77 6.07-6.68 18.83-12.15 28.55-12.15 40.7 0 55.28-48.6 23.69-77.76-22.48-20.65-30.98-42.52-30.98-78.967-.61-68.644-16.4-136.682-51.03-213.223-23.69-52.851-32.19-77.757-27.94-82.617 3.64-4.252 19.44-12.149 35.23-18.224 61.96-23.084 127.57-69.86 128.79-91.121 0-3.645-11.55-17.617-25.52-31.589-29.76-28.551-66.82-41.308-138.5-47.383-64.39-6.075-67.43-6.682-102.67-21.869-23.69-9.719-33.41-11.542-38.27-6.682-5.46 5.467-3.64 10.327 6.08 19.439 7.29 7.29 15.79 11.542 18.83 9.72 6.08-3.645 53.46 18.224 65.61 29.766 11.54 11.542 9.72 15.187-7.29 15.187-10.94 0-13.97 2.43-11.54 9.112 3.03 6.682 1.21 7.897-6.08 5.467-4.86-1.822-9.11-5.467-9.11-7.29 1.82-12.149-9.11-30.981-19.44-33.411-12.76-3.644-16.4 5.468-3.64 9.72 3.64 1.215-3.65 4.86-17.01 7.29-13.37 2.43-26.73 6.682-30.38 9.112-3.04 2.43-18.83 4.252-35.23 4.252-15.8.608-32.8 3.645-37.66 7.897-4.26 3.645-14.58 6.075-22.48 4.86-17.01-2.43-21.87-20.654-6.68-24.906 6.07-1.823 0-3.038-13.37-3.645-13.36 0-30.37 3.645-37.66 8.504-6.68 4.86-21.87 9.72-32.8 10.327-11.55.608-31.59 7.898-44.96 15.187-13.36 7.898-29.76 13.972-36.45 13.972-18.83.608-37.05 13.972-36.44 27.337 0 6.682-4.26 13.971-9.12 16.401-16.4 7.29-46.77 4.86-54.67-4.252-4.25-4.86-11.54-9.112-16.4-9.112-17.01 0-3.65-14.579 19.44-20.654l23.08-6.682-20.65-15.795c-16.4-12.757-29.77-16.402-65-18.831-44.96-3.038-64.39 3.037-31.59 10.327 17.01 3.644 18.22 6.074 18.22 29.766 0 21.869 2.43 27.336 15.19 32.803 15.79 7.29 18.83 16.402 9.72 30.982-3.64 6.074-7.9 6.682-17.62 1.215-6.68-3.645-18.22-6.683-24.9-6.683-7.29 0-12.76-4.252-12.76-9.719 0-6.075-6.07-3.645-19.44 9.112-10.93 10.327-24.3 18.832-29.16 18.832-4.86 0-17.01 6.682-26.73 13.972l-17.61 13.971 13.97 13.365c22.47 20.654 9.11 27.944-32.2 17.009-18.22-4.86-39.48-12.149-47.38-15.794-9.72-5.467-16.4-5.467-26.73 0-14.58 7.897-13.97 24.299.61 24.299 4.86 0 8.5 2.43 8.5 6.075 0 3.037 7.9 6.074 17.62 6.074s18.83 3.645 21.26 9.112c5.47 15.795-30.98 13.365-62.57-3.644-12.15-6.075-26.73-11.542-32.2-11.542-6.07 0-10.93-3.645-10.93-7.898 0-4.859-5.47-13.364-12.15-19.439-9.11-8.504-10.33-13.364-5.47-22.476 7.29-13.972-4.86-26.122-32.19-32.196-8.51-1.823-17.01-7.29-18.83-11.542-2.43-5.468 8.5-4.86 46.77 2.429 126.36 26.122 161.59 26.122 199.25-.607 19.44-13.972 21.26-27.336 6.08-46.168-10.33-12.757-55.28-34.626-60.75-29.766-1.22 1.822-11.54-1.215-21.87-6.683-10.33-5.467-20.05-9.719-21.87-9.719-4.86.607-18.83-4.86-48.6-17.617-15.18-6.682-52.85-14.579-83.22-18.224-37.06-4.252-56.5-9.112-56.5-13.972 0-8.505-41.91-17.009-51.02-10.327-3.65 2.43-18.83 3.037-34.02 1.215l-27.34-3.038 20.05-7.289c11.54-4.253 18.83-9.72 17.01-12.757-4.86-7.897-75.33-26.729-82.62-22.477-3.64 1.823-6.07.608-6.07-2.43 0-3.644-9.12-6.682-20.66-6.682-13.97 0-23.08 4.252-29.76 13.365-6.69 9.719-9.72 10.934-10.33 4.859 0-4.859-7.29-12.757-16.4-17.009-20.05-9.112-24.3-9.112-29.16-.607Zm27.34 11.542c0 3.037-3.04 6.074-6.69 6.074-3.03 0-4.25-3.037-2.43-6.074 1.83-3.645 4.86-6.075 6.69-6.075 1.21 0 2.43 2.43 2.43 6.075Zm66.82-3.645c0 5.467-18.23 8.504-21.26 3.645-2.43-3.645 1.82-6.075 8.5-6.075 7.29 0 12.76 1.215 12.76 2.43Zm-279.44 58.317c0 3.038-4.25 4.253-9.11 2.43-4.86-2.43-9.12-4.86-9.12-6.075 0-1.214 4.26-2.429 9.12-2.429 4.86 0 9.11 2.429 9.11 6.074Zm-60.75 12.15c0 3.037-4.86 6.075-10.33 6.075-9.11 0-9.71-1.215-1.82-6.075 11.54-7.29 12.15-7.29 12.15 0Zm-64.39 40.093c1.82 4.86 1.21 7.29-2.43 5.467-3.65-1.822-6.08-6.074-6.08-9.719 0-8.505 4.26-6.682 8.51 4.252Zm47.99-5.467c-4.25 1.215-11.54 1.215-15.19 0-4.25-1.823-1.21-3.038 7.29-3.038 8.51 0 11.54 1.215 7.9 3.038Zm270.93 133.037c12.76 2.43 18.84 7.289 18.84 14.579 0 8.505-3.04 10.327-12.76 7.897-9.72-2.43-12.15-1.215-10.33 4.86 3.65 9.72-34.02 47.991-47.38 47.991-4.86 0-8.51 2.429-8.51 4.859 0 8.505-35.23 25.514-44.34 21.869-4.86-1.822-10.94-.607-13.37 3.038-1.82 3.645.61 8.504 5.47 10.327 8.51 3.037 8.51 4.86.61 12.149-6.68 6.683-7.29 12.15-3.04 20.654 3.65 6.683 8.51 17.01 10.94 22.477 3.03 6.075 4.25 24.906 3.64 41.916-1.21 26.121 0 30.981 8.5 30.373 5.47 0 9.72 2.43 9.12 6.075-.61 4.252 7.89 9.112 19.44 10.935 10.93 2.429 21.26 6.682 22.47 10.327 1.22 4.252 18.23 1.822 46.78-5.468 24.9-6.682 49.2-10.934 53.46-9.112 4.86 1.823 10.93.608 13.36-3.037 1.82-3.645 23.08-7.897 46.17-9.72 35.23-2.43 44.95-1.215 57.71 8.505 17.01 12.757 15.19 17.617-7.9 19.439-9.11.608-16.4 4.86-16.4 9.72 0 7.897-30.37 7.289-91.12-.608-28.55-3.645-99.63 28.552-80.19 36.449 10.33 4.252 9.11 14.575-1.82 10.327-4.86-2.43-9.11-7.29-9.11-12.15s-3.65-8.504-7.29-7.897c-11.54.608-33.41 10.327-24.3 10.935 10.93.607 9.11 12.76-2.43 12.76-7.9 0-9.11 3.64-5.47 16.4 4.86 20.05 9.72 25.51 13.37 15.19 1.82-3.65 7.89-7.29 14.58-7.29 6.07 0 11.54-2.43 11.54-5.47 0-7.29 23.69-12.76 27.94-6.08 1.82 3.04 7.9 5.47 13.37 5.47 20.65 0 14.57 60.14-5.47 60.75-1.82 0-13.37-9.11-26.12-20.66-20.66-18.22-24.91-19.44-40.1-13.97-23.69 9.11-38.87 45.56-34.62 83.23 3.64 30.98-6.68 48.59-27.95 48.59-5.46 0-10.32 4.26-10.32 9.12 0 5.46-6.69 12.15-14.58 16.4-16.4 7.29-37.06 2.43-30.98-7.29 10.93-17.62-75.33-9.72-91.13 9.11-3.03 3.65-23.08 10.33-43.73 15.19-39.49 7.89-56.5 3.64-56.5-15.19 0-17.01-17.01-14.58-75.33 11.54-12.75 5.47-24.9 8.51-27.33 6.68-4.86-5.46 23.69-27.94 29.76-24.29 2.43 1.82 6.08-1.22 8.51-6.08 1.82-4.86 7.9-9.11 12.76-9.11 5.46 0 7.89-3.04 6.07-6.08-2.43-3.64-7.29-4.25-10.93-1.82-4.86 3.04-4.86 1.22 0-5.47 4.25-4.86 6.07-10.93 3.64-12.75-1.82-2.43-.61-4.25 3.04-4.25 4.25 0 7.29-4.86 7.9-10.94.6-6.68 2.43-4.86 4.86 4.86 3.64 13.36 7.89 15.19 30.98 15.19 22.47 0 27.33-2.43 29.76-12.15 3.04-17.62 18.83-26.73 44.96-27.34 17.01 0 22.47-2.43 22.47-10.93 0-8.51 1.22-9.12 6.08-1.22 3.03 4.86 6.68 7.29 7.89 6.08 7.29-7.9 21.87-51.03 18.84-54.07-2.43-1.82-5.47 0-6.69 3.65-4.86 13.97-14.58 8.5-10.93-6.08 3.04-10.93 6.68-32.8 8.5-53.46.61-2.43 6.69-6.07 14.58-8.501 7.29-2.43 14.58-4.86 16.41-5.467 1.82-.608 9.11-3.037 17-6.075 7.29-2.43 13.37-8.504 13.37-13.972 0-5.467 4.25-12.757 9.11-16.401 7.29-5.468 7.29-9.113 1.22-21.262-7.29-15.187-12.15-18.224-43.74-32.196-18.83-8.505-25.52-22.477-17.62-40.093 2.43-5.468 4.25-17.617 4.25-26.122 0-10.327 5.47-19.439 17.01-27.336 9.72-6.075 17.62-14.58 17.62-17.617 0-6.075 42.52-27.336 55.28-27.336 3.04 0 15.79-9.72 28.55-21.869 16.4-15.795 20.05-22.477 13.97-26.122-6.68-4.252-5.46-9.112 5.47-23.691 7.9-10.327 16.4-17.617 19.44-15.795 2.43 1.823 4.86 0 4.86-3.037 0-7.29 47.99-9.112 78.36-3.037Zm-473.22 58.317c0 8.505-29.16 35.234-38.27 35.234-3.04 0-2.43-4.253 1.82-9.112 4.25-4.86 5.47-9.112 3.04-9.112-3.04 0 1.21-5.468 9.11-12.15 15.8-13.972 24.3-15.187 24.3-4.86Zm-111.17 69.252c-1.82 1.823-7.29 2.43-11.54.608-4.86-1.823-3.04-3.645 3.65-3.645 6.68-.608 10.32 1.215 7.89 3.037Zm129.4 379.06c0 2.43-4.26 6.69-9.72 8.51-4.86 1.82-7.29 1.21-5.47-2.43 1.82-3.65.61-6.08-2.43-6.08-3.65 0-6.68-2.43-6.68-5.46 0-3.04 5.46-4.26 12.15-2.43 6.68 1.82 12.15 5.46 12.15 7.89Zm365.69 1.22c-4.25 4.25-7.28 4.86-7.28 1.21 0-8.5 7.28-15.79 11.54-11.54 1.21 1.82-.61 6.68-4.26 10.33Zm-396.07 10.33c0-3.04 3.65-2.43 8.51 1.82 12.75 11.54-5.47 20.65-24.3 11.54-20.05-9.11-19.44-20.05.6-12.76 9.72 3.65 15.19 3.65 15.19-.6Zm-209.58 109.34c-1.82 3.65-6.68 6.68-9.72 6.68-3.03 0-2.43-3.64 1.83-8.5 8.5-9.72 14.58-7.9 7.89 1.82Zm1351.63 291.59c-11.54 6.07-23.08 10.33-25.51 8.5-3.04-1.21-4.86 1.22-4.86 6.08s6.07 10.93 13.97 12.76c11.54 3.64 12.15 4.86 3.65 9.72-5.47 3.03-12.15 12.75-13.98 21.86-4.25 15.19-5.46 15.8-40.09 12.76-19.44-1.21-38.27 0-41.31 3.04-3.64 3.64-10.93-.61-18.22-10.33l-12.76-16.4 16.4-17.62c9.12-9.72 24.91-18.22 34.63-20.04 10.33-1.22 23.08-4.26 29.77-6.69 15.79-6.68 46.77-13.97 64.39-14.58 13.36-.6 12.75.61-6.08 10.94Zm-686.44 445.89c3.03-1.22 4.25 2.43 2.43 7.28-2.43 4.86-6.08 9.12-9.12 9.12-3.03 0-7.28.6-9.71 1.21-2.43 1.22-4.86-7.9-6.08-19.44-1.82-20.65-1.82-20.65 7.9-9.11 4.86 6.68 11.54 11.54 14.58 10.94Zm115.42-13.98c7.89 4.86 7.89 6.08-1.22 6.08-5.46 0-12.15-3.04-13.97-6.08-4.86-7.89 3.04-7.89 15.19 0Zm-38.27 21.87c-1.83 1.82-7.29 2.43-11.55.61-4.86-1.82-3.03-3.64 3.65-3.64 6.68-.61 10.33 1.21 7.9 3.03Zm12.15 21.87c-1.83 4.86-3.65 3.04-3.65-3.64-.61-6.69 1.22-10.33 3.04-7.9 1.82 1.82 2.43 7.29.61 11.54ZM61.378 635.412c-5.467 4.86-15.187 9.72-21.869 10.327-6.682.608-12.15 4.253-12.15 8.505 0 4.252-2.43 7.897-4.86 7.897-3.037 0-10.326 4.252-17.009 9.112-10.327 9.112-8.504 9.112 26.73 7.29 47.99-3.038 52.85 10.934 5.467 17.617-28.552 4.252-35.841 7.897-31.589 14.579 1.822 3.037 6.682 6.075 9.72 6.075 3.644 0 4.86-2.43 3.037-4.86-4.252-7.29 41.308-.608 46.168 7.29 9.112 13.364 4.86 21.869-10.327 21.869-9.112 0-15.187 3.645-15.187 8.504 0 6.075 7.29 7.897 29.159 6.683 16.402-1.215 37.056 1.822 47.99 7.289 23.692 10.935 77.149 12.757 102.056 3.645 34.018-12.757 60.747-21.262 88.691-29.159 38.271-10.934 78.364-37.056 78.364-51.028 0-6.682-7.289-13.971-18.224-18.831-9.719-4.253-16.402-9.72-14.579-12.757 1.822-3.038-.608-5.467-4.86-5.467-4.86-.608-3.037-4.253 4.252-9.72 11.542-9.112 10.935-9.72-10.327-6.075-12.757 2.43-23.691 1.215-26.121-2.43-6.075-9.719-27.337-7.289-27.337 3.038 0 5.467-5.467 9.112-13.364 9.112h-51.635c-29.159 0-38.879 2.43-43.738 10.934-5.468 9.72-6.075 9.72-9.72-.607-6.075-14.579-21.262-12.757-21.262 2.43 0 8.504-3.037 11.542-9.112 9.719-4.86-2.43-10.327-1.215-12.149 1.823-6.682 10.327-13.972 6.682-10.935-5.467 1.823-7.898-3.645-14.58-19.439-24.299-26.121-15.187-24.299-15.187-35.84-3.038Zm523.031 188.926c-6.682 6.075-4.859 21.262 1.215 17.01 3.038-1.823 7.897 0 10.327 3.644 1.823 3.645.608 9.112-3.037 11.542-5.467 3.038-4.252 6.683 3.037 12.757 9.72 7.29 10.327 7.29 6.683-1.822-1.823-6.075-1.215-12.15 2.429-13.972 3.038-2.43 4.253-6.075 2.43-9.112-1.822-3.037-.607-6.682 3.038-9.112 3.037-1.823 6.074-7.29 6.074-10.935 0-4.86-1.822-4.86-5.467 1.215-3.645 5.467-6.682 6.075-9.112 1.215-4.86-7.29-11.542-8.505-17.617-2.43Z"/>
  <path fill="#C83771" d="M714.412 973.785c-3.645 3.645-6.683 10.327-6.683 14.579 0 9.112-25.514 16.406-45.56 12.756-10.935-2.429-17.617.61-24.299 11.54-15.795 23.69-33.411 38.88-40.093 35.24-3.038-2.43-9.72-.61-15.187 3.03-6.683 6.08-7.29 9.72-1.215 17.01 4.252 4.86 7.289 10.33 6.682 11.55-1.215.6-1.822 3.64-1.822 6.07 0 3.04 2.429 1.22 5.467-3.64 3.037-4.86 6.682-5.47 9.112-1.83 1.822 3.65-5.467 9.72-17.617 13.37-11.542 3.64-21.261 9.72-21.261 12.75 0 3.65 4.859 3.04 12.149-.6 9.72-4.86 12.15-4.86 12.15 2.43 0 4.86 4.859 9.72 10.934 11.54 7.897 1.82 6.682 3.64-6.075 9.11-9.719 3.65-17.009 9.72-17.009 12.76 0 9.72 12.15 13.97 20.654 7.29 8.505-6.68 15.794-3.04 15.794 7.89 0 3.65-3.037 2.43-6.074-2.43-4.86-7.89-6.075-7.29-6.075 1.83 0 9.11 3.037 10.32 18.224 7.29 15.187-3.04 17.617-2.43 14.58 5.46-1.823 5.47-6.075 9.72-9.113 9.72-3.644 0-3.037 6.08 1.215 12.76 3.645 7.29 8.505 10.94 10.935 7.9 6.075-8.51 49.205-8.51 45.561 0-1.215 3.64 2.429 12.75 8.504 18.83 10.935 12.76 10.935 33.41-1.215 40.7-3.645 2.43-17.009 3.04-29.159 1.22-13.971-1.22-23.084 0-23.084 3.64s3.038 4.86 6.075 3.04c10.935-6.68 6.682 2.43-7.289 15.18l-13.972 13.37 15.186-2.43c26.729-3.65 22.477 16.4-6.074 27.94-34.019 13.37-31.589 29.77 5.467 31.59 29.159 1.22 51.028 14.58 24.299 14.58-14.579 0-41.916 19.44-41.916 29.77 0 2.43-9.719 9.72-21.261 15.79-11.542 6.68-19.44 12.76-17.617 14.58 6.682 6.68 23.084 5.47 37.056-3.64 8.504-5.47 20.654-7.9 30.981-6.08 12.757 2.43 20.047 0 27.336-7.9 7.897-9.72 16.402-10.93 52.243-9.11 23.692 1.22 43.131 0 43.131-3.04 0-2.43 11.542-4.25 26.121-3.64 26.729 1.82 77.149-15.79 77.149-26.12 0-3.65-4.252-6.68-9.112-6.68-11.542 0-12.149-15.8-.607-20.05 17.009-6.68 29.159-32.8 22.476-46.17-8.504-15.19-40.093-22.48-54.065-11.54-9.112 6.68-9.719 6.68-2.43-1.82 6.075-7.9 6.075-13.37 0-27.34-3.645-9.72-7.289-20.65-7.289-23.69-.608-7.9-17.617-24.3-33.412-33.41-6.682-3.65-14.579-13.97-16.401-23.09-6.075-23.08-21.869-43.13-34.019-43.73-14.579 0-13.972-19.44 1.215-30.38 6.682-4.86 12.15-12.15 12.15-15.79 0-4.25 4.252-12.15 9.719-17.01 14.58-15.19 4.252-21.87-34.018-21.87-19.44 0-37.664-3.04-39.486-6.08-1.823-3.64-.608-6.07 3.037-6.07 4.252 0 13.972-5.47 22.477-12.15 8.504-6.68 13.364-12.15 10.934-12.15-3.037 0 .608-6.07 7.29-13.971 6.682-7.29 13.972-16.402 15.794-20.047 5.467-9.112-23.084-9.112-31.588-.607Zm-116.028 83.225c0 3.04-3.037 6.07-6.682 6.07-3.038 0-4.253-3.03-2.43-6.07 1.822-3.65 4.86-6.08 6.682-6.08 1.215 0 2.43 2.43 2.43 6.08Z"/>
  <path fill="#C83771" d="M515.167 1165.13c-14.579 4.86-43.13 37.67-32.196 37.67 3.645 0 4.86 3.04 3.038 6.07-1.823 3.65-15.795 4.86-30.982 3.65-21.261-2.43-27.943-.61-32.803 8.5-4.253 7.9-3.645 12.15 1.822 13.97 5.467 2.43 5.467 4.26 0 10.94-11.542 11.54-9.719 15.79 7.29 20.05 21.261 5.46 18.832 15.79-9.112 36.44-22.477 17.01-32.804 40.1-17.617 40.1 3.037 0 4.252 3.03 1.822 7.29-3.037 4.86-1.214 5.46 5.468 3.03 6.074-1.82 10.327-1.21 10.327 2.43 0 10.33 46.775 0 77.756-16.4 15.187-7.9 35.841-14.58 46.776-14.58 17.009 0 20.047-2.43 26.121-23.69 4.253-12.76 7.29-34.02 7.29-47.38 0-20.05 2.43-25.52 15.187-30.98 17.617-7.9 19.439-23.09 4.252-41.31-12.149-13.97-60.14-23.09-84.439-15.8Zm670.043 628.13c-2.43 5.47-10.94 11.54-18.83 13.37-7.9 1.82-15.19 8.5-16.4 14.57-3.65 15.8 5.46 44.35 17 52.85 9.72 6.69 9.12 8.51-6.07 18.23-12.76 8.5-17.62 9.72-21.26 3.64-3.65-5.46-6.08-4.25-7.9 3.65-1.82 6.68.61 17.01 4.86 23.08 4.86 6.08 7.29 17.01 5.47 23.69-9.11 47.99-9.11 51.64 4.25 58.93 10.93 5.47 14.58 4.86 20.65-3.65 4.26-6.07 12.15-9.11 17.01-7.29 11.55 4.86 15.19-6.68 17.01-58.31 1.83-34.63 0-43.13-9.11-49.82-9.72-7.29-10.33-10.93-4.25-31.58 7.9-25.52 6.07-78.98-2.43-61.36Zm620.23 379.67c-2.43 1.83-4.25 8.51-4.25 13.98 0 7.89 7.29 11.54 25.52 14.58 13.97 2.43 27.33 6.68 29.15 10.32 2.43 3.65 16.41 3.65 36.45 1.22 30.98-4.86 42.53-12.76 24.91-18.83-5.47-1.83-6.68 0-3.65 5.46 3.65 6.08 1.22 5.47-6.68-1.21-6.07-5.47-24.9-10.33-41.91-10.94-16.41-1.21-31.59-4.25-32.2-7.29-1.21-3.03-4.86-3.64-8.5-1.82-3.65 2.43-7.9.61-10.33-3.04-2.43-3.64-6.08-4.86-8.51-2.43Z"/>
</svg>
