<svg xmlns="http://www.w3.org/2000/svg" width="144" height="126" fill="none" viewBox="0 0 144 126">
  <path fill="#70C1B8" stroke="#000" stroke-width="3" d="M1.5 1.5H119c12.979 0 23.5 10.521 23.5 23.5v76c0 12.979-10.521 23.5-23.5 23.5H1.5V1.5Z"/>
  <path fill="#fff" d="M27.651 107V85.182h5.274v8.757h8.597v-8.757h5.263V107h-5.263v-8.768h-8.597V107H27.65Zm43.035-10.91c0 2.401-.462 4.436-1.385 6.105-.924 1.669-2.174 2.937-3.75 3.804-1.57.866-3.331 1.299-5.284 1.299-1.96 0-3.726-.436-5.295-1.31-1.57-.874-2.816-2.141-3.74-3.803-.916-1.669-1.374-3.7-1.374-6.094 0-2.4.458-4.435 1.375-6.104.923-1.67 2.17-2.937 3.739-3.804 1.57-.866 3.334-1.3 5.295-1.3 1.953 0 3.714.434 5.284 1.3 1.576.867 2.826 2.134 3.75 3.803.923 1.67 1.385 3.704 1.385 6.105Zm-5.39 0c0-1.42-.203-2.62-.608-3.6-.398-.98-.973-1.722-1.726-2.227-.746-.504-1.644-.756-2.695-.756-1.044 0-1.943.252-2.696.756-.752.505-1.331 1.247-1.736 2.227-.398.98-.597 2.18-.597 3.6 0 1.421.2 2.622.597 3.602.405.98.983 1.722 1.736 2.226.753.505 1.652.757 2.696.757 1.05 0 1.95-.252 2.695-.757.753-.504 1.328-1.246 1.726-2.226.405-.98.607-2.18.607-3.601Zm8.469-10.908h6.53l5.54 13.508h.256l5.54-13.508h6.53V107h-5.135V93.598h-.181l-5.242 13.264h-3.28L79.08 93.523h-.18V107h-5.135V85.182ZM101.45 107V85.182h15.213v4.282h-9.939v4.475h9.161v4.293h-9.161v4.485h9.939V107H101.45Z"/>
  <path fill="#000" d="M27.651 107h-1v1h1v-1Zm0-21.818v-1h-1v1h1Zm5.274 0h1v-1h-1v1Zm0 8.757h-1v1h1v-1Zm8.597 0v1h1v-1h-1Zm0-8.757v-1h-1v1h1Zm5.263 0h1v-1h-1v1Zm0 21.818v1h1v-1h-1Zm-5.263 0h-1v1h1v-1Zm0-8.768h1v-1h-1v1Zm-8.597 0v-1h-1v1h1Zm0 8.768v1h1v-1h-1Zm-4.274 0V85.182h-2V107h2Zm-1-20.818h5.274v-2H27.65v2Zm4.274-1v8.757h2v-8.757h-2Zm1 9.757h8.597v-2h-8.597v2Zm9.597-1v-8.757h-2v8.757h2Zm-1-7.757h5.263v-2h-5.263v2Zm4.263-1V107h2V85.182h-2Zm1 20.818h-5.263v2h5.263v-2Zm-4.263 1v-8.768h-2V107h2Zm-1-9.768h-8.597v2h8.597v-2Zm-9.597 1V107h2v-8.768h-2Zm1 7.768H27.65v2h5.274v-2Zm36.376-3.805-.875-.484.875.484Zm-3.75 3.804-.482-.877-.002.001.484.876Zm-10.58-.011.487-.874-.486.874Zm-3.738-3.803-.877.481.002.004.875-.485Zm0-12.198-.875-.485-.002.003.877.482Zm3.739-3.804.483.876-.483-.876Zm10.579 0-.484.876h.002l.482-.876Zm3.75 3.803-.875.485.875-.484Zm-4.613 2.504-.927.376.003.006.924-.382Zm-1.726-2.227-.56.829.004.002.556-.83Zm-5.39 0 .556.831-.557-.83Zm-1.737 2.227-.924-.382-.003.006.927.376Zm0 7.202-.927.376.003.006.924-.382Zm1.736 2.226.557-.831-.557.831Zm5.391 0-.556-.831-.004.003.56.828Zm1.726-2.226-.924-.382-.003.006.927.376Zm4.998-3.601c0 2.274-.438 4.133-1.26 5.62l1.75.968c1.024-1.85 1.51-4.061 1.51-6.588h-2Zm-1.26 5.62c-.838 1.514-1.956 2.641-3.357 3.411l.963 1.753c1.753-.963 3.135-2.372 4.144-4.196l-1.75-.968Zm-3.359 3.412c-1.408.778-3 1.175-4.8 1.175v2c2.106 0 4.036-.469 5.767-1.424l-.967-1.751Zm-4.8 1.175c-1.806 0-3.401-.4-4.809-1.184l-.972 1.748c1.731.963 3.666 1.436 5.78 1.436v-2Zm-4.809-1.184c-1.397-.777-2.513-1.906-3.351-3.415l-1.749.971c1.009 1.815 2.385 3.222 4.128 4.192l.972-1.748Zm-3.349-3.411c-.817-1.488-1.25-3.344-1.25-5.612h-2c0 2.52.482 4.725 1.497 6.575l1.753-.963Zm-1.25-5.612c0-2.275.433-4.135 1.25-5.623l-1.753-.963c-1.016 1.85-1.498 4.06-1.498 6.586h2Zm1.249-5.62c.838-1.516 1.953-2.643 3.347-3.412l-.966-1.751c-1.745.963-3.123 2.372-4.131 4.194l1.75.969Zm3.347-3.412c1.408-.778 3.004-1.175 4.812-1.175v-2c-2.113 0-4.047.468-5.778 1.424l.966 1.75Zm4.812-1.175c1.8 0 3.392.397 4.8 1.175l.967-1.751c-1.73-.956-3.66-1.425-5.767-1.425v2Zm4.802 1.176c1.401.77 2.52 1.896 3.357 3.41l1.75-.968c-1.01-1.823-2.391-3.232-4.144-4.195l-.963 1.753Zm3.357 3.41c.823 1.488 1.26 3.347 1.26 5.62h2c0-2.526-.486-4.737-1.51-6.588l-1.75.969Zm-2.13 5.62c0-1.509-.215-2.847-.684-3.982l-1.848.764c.34.825.531 1.888.531 3.219h2Zm-.681-3.976c-.46-1.133-1.151-2.048-2.096-2.681l-1.113 1.661c.56.376 1.02.945 1.355 1.772l1.854-.752Zm-2.093-2.679c-.937-.634-2.039-.928-3.255-.928v2c.886 0 1.58.21 2.135.585l1.12-1.657Zm-3.255-.928c-1.212 0-2.31.295-3.252.926l1.113 1.661c.564-.378 1.262-.587 2.139-.587v-2Zm-3.252.926c-.944.632-1.637 1.544-2.104 2.675l1.848.764c.343-.83.807-1.401 1.369-1.778l-1.113-1.661Zm-2.107 2.681c-.46 1.133-.67 2.47-.67 3.977h2c0-1.333.188-2.398.523-3.225l-1.853-.752Zm-.67 3.977c0 1.508.21 2.844.67 3.977l1.853-.752c-.335-.828-.523-1.892-.523-3.225h-2Zm.673 3.983c.467 1.131 1.16 2.043 2.104 2.675l1.113-1.662c-.562-.376-1.026-.948-1.369-1.777l-1.848.764Zm2.104 2.675c.941.631 2.04.926 3.252.926v-2c-.877 0-1.575-.21-2.14-.588l-1.112 1.662Zm3.252.926c1.216 0 2.318-.294 3.255-.928l-1.12-1.657c-.554.375-1.25.585-2.135.585v2Zm3.252-.926c.945-.633 1.636-1.548 2.096-2.681l-1.854-.752c-.335.826-.795 1.396-1.355 1.771l1.113 1.662Zm2.093-2.675c.469-1.135.683-2.474.683-3.983h-2c0 1.331-.19 2.394-.531 3.219l1.848.764Zm8.153-14.892v-1h-1v1h1Zm6.53 0 .925-.38-.254-.62h-.67v1Zm5.54 13.508-.925.38.254.62h.67v-1Zm.256 0v1h.67l.255-.62-.925-.38Zm5.54-13.508v-1h-.671l-.255.62.925.38Zm6.53 0h1v-1h-1v1Zm0 21.818v1h1v-1h-1Zm-5.135 0h-1v1h1v-1Zm0-13.402h1v-1h-1v1Zm-.181 0v-1h-.68l-.25.633.93.367Zm-5.242 13.264v1h.68l.25-.633-.93-.367Zm-3.28 0-.932.365.25.635h.681v-1ZM79.08 93.523l.93-.365-.249-.635h-.681v1Zm-.181 0v-1h-1v1h1Zm0 13.477v1h1v-1h-1Zm-5.135 0h-1v1h1v-1Zm0-20.818h6.53v-2h-6.53v2Zm5.605-.62 5.54 13.508 1.85-.76-5.54-13.508-1.85.76Zm6.465 14.128h.256v-2h-.256v2Zm1.18-.62 5.54-13.509-1.85-.759-5.54 13.509 1.85.759Zm4.615-12.888h6.53v-2h-6.53v2Zm5.53-1V107h2V85.182h-2Zm1 20.818h-5.134v2h5.135v-2Zm-4.134 1V93.598h-2V107h2Zm-1-14.402h-.181v2h.18v-2Zm-1.111.633-5.242 13.263 1.86.735 5.242-13.263-1.86-.735Zm-4.312 12.631h-3.28v2h3.28v-2Zm-2.35.634L80.01 93.158l-1.861.731 5.241 13.338 1.862-.731ZM79.08 92.523h-.18v2h.18v-2Zm-1.181 1V107h2V93.523h-2Zm1 12.477h-5.135v2H78.9v-2Zm-4.135 1V85.182h-2V107h2Zm26.685 0h-1v1h1v-1Zm0-21.818v-1h-1v1h1Zm15.213 0h1v-1h-1v1Zm0 4.282v1h1v-1h-1Zm-9.939 0v-1h-1v1h1Zm0 4.475h-1v1h1v-1Zm9.161 0h1v-1h-1v1Zm0 4.293v1h1v-1h-1Zm-9.161 0v-1h-1v1h1Zm0 4.485h-1v1h1v-1Zm9.939 0h1v-1h-1v1Zm0 4.283v1h1v-1h-1Zm-14.213 0V85.182h-2V107h2Zm-1-20.818h15.213v-2H101.45v2Zm14.213-1v4.282h2v-4.282h-2Zm1 3.282h-9.939v2h9.939v-2Zm-10.939 1v4.475h2v-4.474h-2Zm1 5.475h9.161v-2h-9.161v2Zm8.161-1v4.293h2V93.94h-2Zm1 3.293h-9.161v2h9.161v-2Zm-10.161 1v4.485h2v-4.485h-2Zm1 5.485h9.939v-2h-9.939v2Zm8.939-1V107h2v-4.283h-2Zm1 3.283H101.45v2h15.213v-2Z"/>
  <path fill="#D9D9D9" stroke="#000" stroke-width="3" d="M48.5 41.5h47v27h-47z"/>
  <path fill="#D9D9D9" stroke="#000" stroke-width="3" d="m72.5 15 35.074 30H37.426L72.5 15Z"/>
  <path fill="#D9D9D9" d="M50 43h44v5H50z"/>
</svg>
