<svg xmlns="http://www.w3.org/2000/svg" width="6194" height="3729" fill="none" viewBox="0 0 6194 3729">
  <path fill="#FC0" d="M5511.91 3.07c-44.95 2.43-119.06 6.075-164.01 7.897-44.96 1.823-89.91 5.468-100.24 7.898-9.72 1.822-24.9 3.037-33.41 2.43l-15.18-1.823 15.18 12.757c12.15 9.72 13.37 12.15 4.86 12.757-5.47 0-12.15-3.037-14.58-6.682-1.82-3.645-9.11-5.468-15.18-3.645-6.69 1.822-15.8-.608-20.05-5.467-10.33-9.72-18.22-11.542-12.76-2.43 2.43 3.645-5.46 6.075-18.22 6.075-18.23 0-21.87 1.822-18.83 9.72 3.03 7.896 1.21 9.111-9.72 5.466-34.02-9.72-55.89-9.72-63.79.608-7.29 10.327-7.9 10.327-7.9-.608 0-10.327-4.85-10.934-68.64-7.29-37.66 2.43-86.26 5.468-107.52 7.29-21.87 1.823-35.84 1.823-31.59-.607 14.58-7.29 6.68-14.58-15.8-14.58-12.75 0-26.12-3.037-30.37-7.29-4.86-4.859-66.82-7.289-215.05-7.896-212-1.215-280.65 2.43-323.78 17.009-17.01 6.075-30.98 6.682-49.81 3.037-17.01-3.645-37.06-3.645-58.32 1.215-18.22 3.645-54.67 7.897-80.79 9.112-69.86 3.645-111.78 9.72-111.78 15.795 0 3.037 5.47 5.467 12.15 5.467 6.68 0 12.15 3.645 12.15 8.505 0 4.252 9.11 10.934 20.05 14.579 13.36 4.252 15.79 6.075 7.29 6.682-7.29.608-16.41 4.252-20.66 7.897-6.07 6.683-7.29 6.075-5.46-.607 1.21-4.86-4.26-9.112-12.76-10.327-8.51-1.823-20.05-7.897-26.12-14.58-8.51-9.112-19.44-12.15-41.31-12.15-16.4 0-31.59 2.43-33.41 6.076-1.82 3.037-13.37 6.074-24.91 6.074-11.54 0-20.65 2.43-20.65 6.075 0 3.037-6.08 6.075-13.37 6.682-7.89 0-26.12 4.86-41.31 10.935-21.26 9.112-26.72 13.972-26.72 25.514-.61 11.542 3.64 15.187 17.61 17.009 13.37 1.215 15.19 3.037 7.9 6.075-9.72 3.645-9.72 4.86 1.21 18.832 10.94 14.579 13.37 15.186 92.34 15.794 82.01.607 123.93 8.504 99.63 18.224-7.9 3.037-12.76 1.823-14.58-2.43-2.43-7.29-47.39-10.327-63.79-3.645-5.47 1.823-7.89 7.898-5.47 15.795 2.43 10.934 1.22 12.149-9.71 9.112-7.29-1.823-28.56.607-46.78 4.86-18.22 4.252-34.02 6.074-35.84 4.859-4.86-4.859-27.94 4.86-27.94 10.935 0 3.645 3.03 4.252 7.28 1.822 4.26-3.037 4.86-1.822 2.43 3.038-3.64 5.467-7.29 4.859-15.79-2.43-8.5-7.897-17.62-9.112-38.27-6.075-17.62 2.43-28.55 1.822-30.98-2.43-2.43-3.645-10.94-6.682-18.83-6.682-7.9 0-15.8-2.43-17.62-5.467-3.65-6.075-59.53-1.215-64.39 5.467-1.82 2.43-7.29 6.075-12.15 7.897-7.29 2.43-7.29 3.645 1.21 3.645 10.33.607 21.87 27.944 15.19 34.626-1.22 1.822-21.87 4.252-44.35 5.467l-41.91 3.038 17.62-15.795c15.79-14.579 15.79-17.009 7.28-26.121-7.89-7.897-12.14-7.897-21.86-1.823-14.58 9.113-20.05 9.113-15.19 1.215 5.47-9.112-36.45-7.289-73.51 3.645-20.65 6.075-32.8 12.757-32.8 18.224 0 4.86-3.04 7.29-6.07 5.468-3.65-2.43-4.86-6.075-3.04-9.112 4.86-7.898-25.51-24.299-37.06-20.047-14.58 5.467-34.62 26.121-25.51 26.121 3.64 0 4.86 1.823 3.04 4.253-7.9 7.289 17.61 19.439 41.91 20.046 20.66 0 25.52 1.823 24.3 10.327-.61 9.72 4.86 10.935 44.35 9.113 33.41-1.215 46.77-4.253 52.24-11.542 4.86-6.683 10.93-8.505 18.83-4.86 7.9 3.037 9.11 5.467 3.65 7.289-6.08 2.43-4.86 5.468 3.03 11.542 6.69 4.86 7.9 7.898 3.65 8.505-10.94 0-9.72 12.15 1.21 12.15 4.86 0 9.12-2.43 9.12-5.468 0-2.43 13.36-3.645 29.76-1.822 26.73 2.43 32.2.607 46.78-13.972 13.36-13.364 14.58-17.617 7.89-22.477-6.68-4.252-6.68-6.682-.6-9.112 3.64-1.215 7.29-6.682 7.29-11.542 0-12.757 52.24-11.542 57.1 1.215 2.43 5.468 3.04 10.935 2.43 10.935-1.22.607-9.11 4.252-17.62 7.897-14.58 6.075-28.55 30.981-18.83 32.804 18.83 3.644 49.21 5.467 142.76 9.112 77.75 3.037 109.95 1.822 116.02-3.038 6.69-5.467 9.72-5.467 12.76 0 4.86 7.29 71.08 3.645 106.31-6.682 19.44-5.467 36.45-19.439 36.45-29.766 0-18.832-83.83-23.084-166.45-9.112-26.73 4.252-50.42 6.682-53.46 4.86-3.04-1.823-17.61-4.253-32.8-4.86-27.34-1.823-54.07-15.795-29.16-15.795 7.29 0 14.58-1.822 17.01-4.859 2.43-2.43 39.48-4.86 81.4-4.86 42.52-.608 93.55-1.215 113.6-1.823 20.04-.607 41.91-1.215 48.6-.607 12.15.607 12.15.607 0 6.682-8.51 3.645-1.22 4.86 24.3 2.43 26.72-1.822 32.8-1.215 23.08 3.037-18.22 7.29-17.62 12.15 1.82 12.15 10.33 0 17.01-3.645 18.83-12.15 1.83-7.289 8.51-12.149 17.01-12.149 22.48 0 51.64-12.757 51.64-22.477 0-6.682-4.25-8.504-15.8-5.467-10.32 3.037-13.97 1.823-11.54-2.43 1.82-3.037 9.72-6.075 17.01-6.075 7.29 0 21.87-4.252 31.59-9.719 10.33-5.467 32.2-10.935 48.6-12.15 42.52-3.644 55.89-8.504 44.95-15.186-5.47-3.645-1.82-4.253 10.33-1.823 11.54 2.43 20.65.608 23.08-3.037 2.43-3.645 9.11-6.682 15.19-6.682 6.07 0 17.01-6.683 24.3-14.58 13.97-14.579 29.76-18.832 97.19-25.514 18.23-1.215 41.92-7.289 52.85-12.149 10.94-5.468 23.09-10.327 27.95-10.935 126.96-23.084 161.59-30.981 154.9-35.233-3.64-2.43 3.04-3.038 15.19-.608 12.76 1.823 26.12.608 30.37-3.037 8.51-6.075 95.98-21.87 100.24-17.01 1.21 1.215-1.83 6.683-7.29 12.15-6.68 6.682-21.26 9.72-44.35 9.72-46.17.607-172.52 25.514-176.17 35.233-1.21 4.86 6.08 7.29 25.52 7.29 15.19 0 27.94 2.43 27.94 6.075 0 11.542-28.55 20.046-85.04 24.906-88.7 7.29-184.07 21.869-202.29 31.589l-16.41 8.504 15.8 6.683c8.5 4.252 20.05 7.289 26.73 7.289 6.07 0 12.76 2.43 14.58 4.86 1.21 2.43-12.15 4.252-30.38 3.645-18.22-.608-34.62 1.215-36.44 4.252-1.83 3.038 3.64 5.467 12.14 5.467 10.33 0 14.58 2.43 12.15 7.898-5.46 13.972 42.53 41.915 77.76 45.56 21.26 1.823 29.77.608 26.73-3.645-2.43-4.252 1.82-4.859 15.19-1.215 10.93 3.038 21.26 4.253 24.3 2.43 14.58-9.112 103.27-6.682 147.61 4.253 47.99 11.542 63.18 17.616 44.35 17.616-13.97 0-6.68 16.402 9.72 20.654 12.75 3.645 12.75 4.253 2.43 12.15-10.94 8.505-10.94 8.505 0 11.542 8.5 2.43 7.89 3.037-3.04 3.645-7.9 0-12.76 3.037-10.33 6.682 1.82 3.037 7.9 4.252 13.97 2.43 6.69-2.43 5.47 1.215-4.86 10.327l-15.18 13.364 13.97-3.644c13.97-3.038 13.97-3.038 3.64 8.504-9.72 10.327-9.72 13.365-2.43 17.617 7.29 4.86 6.08 6.075-4.25 6.075-15.18 0-18.83 9.112-6.07 14.579 4.86 1.823 1.82 7.897-9.72 17.009-14.58 12.757-15.8 15.795-8.51 26.122 6.69 8.504 13.37 10.327 30.38 7.289 12.15-1.822 23.69-1.215 25.51 2.43 1.82 3.038-.61 3.645-5.47 1.823-5.46-1.823-9.72-.608-9.72 3.037s5.47 6.682 12.76 6.682c8.51 0 11.54-3.644 10.33-10.934-.61-5.467 1.21-10.327 4.25-10.327s5.47 3.645 4.25 7.289c-1.21 4.86 4.26 7.898 12.15 7.898 10.33 0 14.58 3.644 15.19 12.149 1.21 12.757-6.68 16.402-13.37 6.075-4.86-7.897-74.11-7.897-78.36-.608-2.43 3.038 0 7.29 3.65 9.112 4.25 1.823 0 2.43-9.12.608-9.72-1.822-15.79-1.215-13.97 1.822 1.82 3.038-1.82 12.757-8.5 20.654l-11.55 15.187 19.44 10.935c17.62 9.112 23.09 9.112 52.25 1.822 37.66-9.112 44.34-17.616 21.26-28.551-9.11-3.645-14.58-9.112-12.15-10.935 1.82-2.429 7.29-.607 10.93 3.038 4.26 4.252 13.37 7.29 20.66 7.29 17.01 0 17.61 19.439 1.21 43.738-10.32 15.187-13.97 15.794-40.09 12.757-27.34-3.038-30.37-1.823-44.95 15.794-9.12 10.327-17.62 18.832-20.05 18.832-6.68 0-33.41 32.196-33.41 40.093 0 4.86 4.86 8.505 10.93 9.112 7.9 0 7.29 1.215-3.03 5.467-15.19 6.075-29.16 27.944-20.66 32.804 3.04 1.822 4.25 9.72 1.82 17.009-2.43 10.327-1.21 12.15 7.9 9.112 7.9-3.037 9.72-1.822 6.68 4.86-1.82 4.86-1.21 9.112 1.83 9.112 3.03 0 1.82 10.327-2.43 22.477-6.69 20.046-6.69 23.691 1.21 28.551 6.68 3.645 7.29 6.075 2.43 9.112-9.11 5.467 1.82 37.056 12.15 37.056 4.25 0 5.47 6.682 3.64 18.224-2.43 9.72-1.82 18.225 1.22 18.225 2.43 0 7.9 10.934 12.15 23.691 3.64 12.757 10.93 25.514 15.79 27.336 4.86 1.823 9.12 9.113 9.12 15.795 0 13.364 7.29 15.187 23.08 6.682 14.58-7.29 68.04 9.112 68.04 21.262 0 4.859 4.86 10.327 10.93 12.149 5.47 1.822 16.4 6.075 23.69 9.72 17.01 8.509 45.56-1.215 53.46-18.225 3.04-7.289 9.11-13.364 13.37-13.364 3.64 0 8.5-5.467 10.93-12.15 1.82-6.074 12.76-20.654 23.69-31.588 10.94-10.935 21.87-27.944 24.3-37.056 2.43-10.327 10.33-19.439 19.44-22.477 7.9-3.037 22.48-12.757 31.59-21.261 9.11-8.505 21.26-17.01 27.33-18.832 5.47-1.822 10.33-7.29 10.33-11.542 0-4.86 6.08-13.972 12.76-20.654 8.5-7.897 12.15-16.402 9.72-24.299-1.82-6.682-1.22-11.542 1.21-10.935 7.9 2.43 43.13-15.794 39.49-20.654-1.82-3.037 9.72-5.467 24.9-5.467 20.66 0 26.73-1.822 23.7-7.897-3.65-5.467-2.43-5.467 4.25-.608 12.76 9.72 41.91 15.795 41.91 8.505 0-3.037 4.26-6.075 9.12-6.075 4.86 0 9.11-3.037 9.11-6.682 0-3.037 3.04-4.252 6.07-2.43 3.65 2.43 9.72 1.823 13.98-1.215 4.25-3.037 22.47-10.327 40.7-16.402 20.04-6.682 45.56-21.261 63.78-37.663 17.01-14.579 37.66-27.944 46.78-30.374 9.72-1.822 19.44-7.897 23.08-13.364 4.86-8.505 6.68-9.112 11.54-1.823 3.65 6.075 12.76 7.29 32.2 4.253 87.47-13.365 177.99-33.411 204.11-46.168 13.97-6.682 27.34-12.15 29.77-12.15 3.03 0 23.69-7.897 46.16-17.617l41.31-17.009-35.23-4.252c-49.21-5.467-92.94-13.972-75.94-15.187 10.94-.607 13.98-3.645 12.15-14.579-1.21-10.935 1.22-13.365 15.8-13.365 12.76 0 18.22 3.038 19.44 10.935.61 6.682 3.04 13.364 5.46 15.187 5.47 6.074 69.26 11.542 76.55 6.682 3.64-2.43 7.89-15.794 8.5-30.374 1.22-24.906 0-26.729-20.65-37.056-18.23-8.504-19.44-9.719-4.86-6.682 19.44 3.645 40.09-9.112 27.33-17.009-6.07-4.253-4.86-5.468 3.04-5.468s10.33-3.037 7.29-11.542c-3.64-12.149 9.72-18.831 40.09-18.831 24.91 0 40.1-20.654 19.44-26.122-7.89-1.822-6.68-3.037 4.26-4.252 8.5-.607 17.61-1.215 20.65-.607 9.11 1.822 54.67-19.44 61.96-29.159 3.65-4.86 10.94-6.682 16.4-4.86 5.47 1.822 11.55 1.215 13.37-1.822 2.43-3.645-.61-6.075-6.08-6.075-5.46 0-7.89-3.038-6.07-6.075 2.43-3.645-3.65-6.075-13.97-6.075-17.62 0-29.16 13.365-21.87 24.907 3.64 6.075-23.69 7.897-29.77 1.215-2.43-1.823 1.22-7.897 7.9-12.15 17.01-12.149 13.97-42.523-4.86-55.28-17.62-11.542-9.11-17.617 19.44-14.579 15.79 1.822 20.04 4.86 17.61 12.149-2.43 5.467-1.21 7.897 2.43 5.467 4.26-3.037 5.47 0 3.65 7.898-4.86 18.831 4.25 13.972 10.93-6.075 3.65-10.327 10.94-18.224 15.8-18.224 4.86 0 7.9-4.253 6.68-10.935-1.21-7.29-8.5-10.327-24.91-11.542-12.75 0-24.9-2.43-27.33-4.86-2.43-3.037 1.82-3.644 8.5-1.822 7.29 1.822 17.01 1.215 21.26-1.822 6.08-3.645 3.65-6.075-7.89-10.935-8.51-3.037-17.62-9.112-20.05-12.757-3.04-4.86-6.68-4.86-12.76.607-14.58 12.15-17.61 0-3.03-12.149 10.93-9.72 19.44-11.542 38.87-8.505 20.66 2.43 23.7 1.823 20.66-6.682-2.43-6.682-.61-9.719 6.68-10.327 8.51 0 8.51-1.215-1.82-5.467-15.19-6.075-6.68-9.72 32.8-13.972 14.58-1.823 28.55-6.075 30.38-9.112 1.82-3.645 13.97-7.897 26.12-10.327 12.75-2.43 21.26-6.682 19.44-9.72-1.83-3.037 6.68-5.467 18.22-5.467s22.48-2.43 24.3-4.86c1.82-3.037 22.48-8.505 46.17-12.757 61.35-10.934 46.77-19.439-38.88-23.691-50.42-1.823-72.9-.608-78.97 4.252-10.33 8.505-36.45 3.037-30.98-6.075 2.43-3.037-.61-5.467-5.47-5.467-5.47 0-9.11 3.037-7.9 7.29.61 3.644-3.64 8.504-9.72 9.72-6.07 1.214-9.72-1.216-9.11-5.468 1.22-4.252-3.64-9.112-10.33-10.327-6.68-1.215-10.32-.608-7.29 2.43 2.43 2.43-8.5 9.72-24.3 15.794-34.62 13.365-38.27 13.365-23.08 3.038 6.08-4.86 9.11-11.542 6.68-15.795-2.43-3.645 0-7.897 4.86-9.72 5.47-1.822 13.97-4.252 19.44-6.074 16.4-5.467 7.9-7.897-36.45-12.15-23.08-2.43-52.24-7.897-64.39-12.15-29.16-10.326-219.3-15.186-328.04-8.504Zm-238.73 44.953c0 10.327 0 10.327-13.97 4.86-9.72-3.645-9.72-4.252 1.21-8.505 6.08-2.43 11.54-4.86 12.15-4.86 0-.607.61 3.645.61 8.505Zm585 3.038c-4.86 3.037-14.58 5.467-21.27 5.467-9.72-.608-9.72-1.215 3.04-5.467 21.26-6.682 29.16-6.682 18.23 0Zm-1836.4 9.72c-1.82 1.822-7.29 2.43-11.54.607-4.86-1.823-3.04-3.645 3.64-3.645 6.69-.608 10.33 1.215 7.9 3.037Zm30.37 43.737c-14.57 1.215-25.51 6.075-30.37 13.972-9.72 15.795-15.19 14.58-12.15-3.037 3.04-16.402 21.26-21.87 50.42-15.794 12.15 2.43 10.94 3.644-7.9 4.859Zm95.99-4.86c1.82 3.038-1.22 6.075-6.69 6.075-9.72 0-9.72.608 1.22 9.112 10.93 8.505 10.33 8.505-4.86 2.43-13.37-6.074-15.19-9.112-10.33-15.794 8.51-9.72 15.8-10.327 20.66-1.822ZM4047.9 140.36c0 5.468-1.82 7.29-4.25 4.253-3.04-3.038-7.29-7.29-10.93-9.72-3.65-2.43-1.22-4.86 4.86-4.86 5.46 0 10.32 4.253 10.32 10.327Zm-12.15 10.327c0 1.823-2.43 4.86-6.07 6.683-3.04 1.822-6.08.607-6.08-2.43 0-3.645 3.04-6.682 6.08-6.682 3.64 0 6.07 1.215 6.07 2.429Zm-115.42 24.907c-4.25 4.86-10.32 9.112-13.97 9.112-3.64 0-1.21-4.252 5.47-9.112 15.18-11.542 18.22-11.542 8.5 0Zm591.07 37.663c-4.25 1.215-11.54 1.215-15.18 0-4.25-1.822-1.22-3.037 7.29-3.037 8.5 0 11.54 1.215 7.89 3.037Zm-91.12 6.075c-4.25 1.215-11.54 1.215-15.18 0-4.26-1.822-1.22-3.037 7.29-3.037 8.5 0 11.54 1.215 7.89 3.037ZM3419.17 258.21c6.68 10.327-.61 12.757-9.12 2.43-4.86-5.467-4.86-9.112-1.21-9.112 3.64 0 8.5 3.038 10.33 6.682Zm-95.98 9.112c-1.83 1.823-7.29 2.43-11.55.608-4.86-1.822-3.03-3.645 3.65-3.645 6.68-.607 10.33 1.215 7.9 3.037Zm2404.38 105.701c1.82 3.037.61 6.075-2.43 6.075-3.65 0-6.68-3.038-6.68-6.075 0-3.645 1.21-6.075 2.43-6.075 1.82 0 4.86 2.43 6.68 6.075Zm-13.37 18.224c-17.61 7.29-18.22 22.477-1.21 27.337 16.4 5.467 12.15 9.719-5.47 4.859-7.9-1.822-13.36-7.897-13.36-14.579 0-6.075-4.86-13.972-10.33-17.009-8.5-4.86-4.86-6.075 16.4-6.075 22.48 0 24.91 1.215 13.97 5.467Zm54.68-1.822c-4.26 1.215-12.76 1.215-18.23 0-6.07-1.823-2.43-3.038 7.29-3.038 10.33 0 14.58 1.215 10.94 3.038Zm2.43 11.542c-1.83 1.822-7.29 2.43-11.55.607-4.86-1.822-3.03-3.645 3.65-3.645 6.68-.607 10.33 1.215 7.9 3.038ZM4628.04 784.889c-1.82 1.823-6.68 0-10.93-4.252-5.47-6.075-4.86-6.682 3.64-3.037 6.07 1.822 9.11 5.467 7.29 7.289Z"/>
  <path fill="#FC0" d="M3452.59 141.573c-15.19 1.822-27.34 6.682-27.34 10.934 0 4.253-5.47 11.542-12.15 16.402-6.68 4.86-10.93 10.327-9.11 12.15 1.82 1.822 23.69 4.252 47.99 6.074 24.3 1.215 47.38 5.468 51.03 9.113 3.64 3.644 17.01 6.682 29.15 6.682 19.44 0 24.3-3.038 31.59-18.224 9.12-17.617 9.12-18.225-9.72-26.729-10.93-4.86-26.12-9.72-34.62-11.542-8.51-1.823-20.66-4.253-27.34-6.075-6.68-1.215-24.3-1.215-39.48 1.215Zm-253.32 27.335c-47.39 7.289-64.4 15.794-31.59 15.794 11.54 0 23.69 2.43 27.33 4.86 4.26 2.43-11.54 4.252-34.62 4.252-30.98 0-43.74 2.43-47.99 9.112-8.51 13.972 9.72 20.047 49.81 15.794 37.06-3.644 67.43-17.616 52.24-23.691-4.25-1.822 1.22-1.822 12.76 0 14.58 2.43 19.44 1.822 16.4-3.037-3.04-4.86.61-7.29 9.72-7.29 7.9 0 18.23-3.037 23.09-6.075 7.89-5.467 7.89-6.682 0-12.149-10.94-6.683-19.44-6.683-77.15 2.43Zm-256.97 45.554c-40.09 3.645-69.25 10.327-137.29 31.589-10.33 3.037-25.51 5.467-34.02 5.467-8.5 0-23.69 3.037-34.62 6.682-23.09 8.505-26.13 23.084-3.04 18.832 9.72-1.823 17.61.607 20.65 5.467 4.25 6.682 7.9 6.075 17.62-3.037 8.5-7.897 12.76-9.112 12.76-3.645 0 5.467 5.46 6.682 19.44 3.645 18.22-3.645 18.83-3.038 7.89 4.859-11.54 9.113-11.54 9.113 4.25 9.72 9.12 0 23.09-2.43 31.59-6.075 8.51-3.037 15.8-4.252 15.8-3.037 0 1.822-7.29 6.075-16.4 9.72-14.58 5.467-15.8 7.289-6.69 12.149 5.47 3.037 21.87 6.682 36.45 7.897 15.8 1.215 25.52 4.253 24.3 9.112-3.64 17.01 30.37 19.439 104.49 7.29 40.7-6.682 98.41-13.364 128.17-15.187 44.35-2.43 61.36-6.075 86.87-19.439 37.67-19.439 34.02-29.766-8.5-27.336l-28.55 1.215 9.72-14.58c9.11-14.579 7.89-22.476-3.04-22.476-3.04 0-3.65 3.037-1.22 7.289 2.43 4.253 1.83 4.86-3.03 2.43-3.65-2.43-17.01-1.215-29.77 2.43-43.74 13.365-41.31 12.15-31.59 18.224 7.29 4.86 6.08 6.075-4.25 6.075-16.4 0-18.83 10.327-3.04 13.972 5.47 1.822-5.47 3.037-24.9 3.645-19.44 0-34.02-1.823-32.2-4.86 7.29-11.542-20.05-24.906-57.71-29.159-38.27-3.645-38.88-4.252-20.66-11.542 10.33-4.252 15.8-8.504 12.15-9.112-3.03-.607 1.83-2.43 11.55-4.86 10.32-1.822 18.22-6.682 18.22-9.719.61-7.897-23.08-8.505-81.4-3.645Zm-12.76 55.888 27.95 4.859-28.56-1.822c-15.18-1.215-31.58 0-36.44 3.037-6.08 4.253-4.86 5.468 4.25 6.075 6.68 0 9.11 1.822 5.47 3.037-3.65 1.823-13.37 0-21.27-3.037-10.32-4.252-11.54-6.075-3.64-6.075 5.47-.607 10.33-3.645 10.33-7.289 0-4.253-7.29-4.86-19.44-2.43-20.05 3.645-20.05 3.645-4.86-4.86 10.32-5.467 18.83-6.682 26.73-2.43 6.07 3.037 23.69 7.897 39.48 10.935Zm21.87-12.757c-1.82 3.037-9.11 6.074-15.79 6.074-6.69 0-10.33-3.037-8.51-6.074 1.82-3.645 9.11-6.075 15.8-6.075 6.68 0 10.32 2.43 8.5 6.075Zm-6.07 54.672c2.43 3.645-4.26 6.075-16.41 5.468-18.83-.608-19.43-.608-4.86-5.468 8.51-2.43 15.8-4.859 16.41-5.467.6-.607 3.03 1.822 4.86 5.467Z"/>
  <path fill="#FC0" d="M2575.99 334.745c-10.33 1.823-19.44 8.505-23.69 17.617-3.65 7.897-10.33 14.579-13.98 14.579-4.25 0-20.04 6.682-35.84 15.187-15.79 8.505-31.58 15.187-35.23 15.187-3.64 0-11.54 3.645-16.4 8.505-5.47 4.252-22.48 12.757-38.27 18.831-15.8 6.075-27.34 12.757-25.52 15.795 1.22 2.43 6.08 3.645 10.33 2.43 11.54-4.253 30.37 13.364 26.12 24.299-5.46 13.971 9.11 17.009 39.49 7.289 14.58-4.86 37.66-9.112 50.42-9.719 13.36-.608 30.98-6.075 39.48-12.15 20.66-14.579 90.52-37.663 94.77-30.981 1.82 2.43-6.07 6.682-17.01 8.505-10.33 2.429-24.91 7.897-30.98 12.757-11.54 9.112-11.54 9.112-.61 17.009 10.33 7.897 9.72 9.112-7.89 15.187-22.48 7.897-23.09 9.112-9.72 21.869 7.89 8.504 18.83 9.112 65 6.075 62.57-4.86 61.35-4.86 85.65-3.645 9.72.607 16.4 3.037 13.97 4.859-1.82 1.823-34.63 4.253-72.29 5.468-91.12 1.822-120.28 7.289-120.28 21.869 0 20.046 17.01 29.766 53.46 29.766 26.12 0 32.2 1.822 26.73 7.29-4.25 4.252-7.29 11.542-7.29 17.009 0 9.112 7.29 9.72 53.46 8.505 29.16-1.215 66.82-4.86 83.22-8.505 17.01-3.645 42.52-7.897 57.71-9.112l27.34-2.43-24.3 4.86c-49.82 10.327-61.36 18.224-57.71 42.523.61 6.075-4.25 7.29-22.48 3.645-24.91-4.252-30.37-7.29-24.91-12.757 2.43-1.823 9.12-.608 15.8 3.037 14.58 7.897 21.87 1.823 10.33-9.112-6.69-6.682-12.15-7.29-25.52-1.822-34.02 13.364-110.56 18.831-131.82 9.112-8.5-4.253-10.33-3.645-7.29 1.215 3.04 5.467-3.64 7.289-23.69 6.075-32.2-1.215-25.51-8.505 13.97-14.58 31.59-4.86 37.66-13.364 20.05-27.336-9.72-7.897-23.09-10.935-47.99-10.327-18.83.607-47.99-3.645-63.79-9.112-15.79-5.468-32.8-10.327-37.05-10.327-4.86 0-11.55-4.253-15.8-9.113-10.32-12.149-59.53-12.149-83.83.608-10.93 4.86-24.91 7.897-31.59 5.467-12.75-4.252-17.01-15.187-6.07-15.187 3.64 0 6.07 2.43 6.07 6.075 0 3.037 3.04 6.075 6.68 6.075 3.04 0 4.86-2.43 3.04-5.467-1.82-3.038.61-6.683 5.47-9.113 4.86-1.822 9.11-6.074 9.11-9.719 0-7.29-29.16-1.823-42.52 8.504-8.51 7.29-40.1 21.87-46.17 21.87-1.22 0-.61-10.935 1.21-24.299 3.04-19.44 1.83-24.907-6.68-27.944-5.46-2.43-12.15-1.215-15.18 3.037-6.08 10.327-35.24 24.907-49.21 24.907-7.9 0-10.33-3.038-7.29-10.327 3.04-7.898 1.82-9.113-7.9-5.468-6.07 3.038-17.01 6.075-23.69 6.682-41.31 6.075-114.81 21.87-123.32 27.337-7.89 4.86-6.07 5.467 7.9 3.037 15.8-3.037 16.4-3.037 6.68 3.038-8.5 6.074-14.58 5.467-27.33-.608-17.01-8.505-73.51-11.542-73.51-4.252 0 3.037-5.46 4.86-11.54 4.86-6.68 0-16.4 4.859-21.87 10.327-17.61 17.616-85.65 7.289-78.36-12.15 1.82-5.467-6.08-7.897-29.16-9.112-41.92-1.822-65.61-6.682-65.61-14.579 0-3.038-18.22-5.468-43.74-4.86-24.29 0-61.96-2.43-83.83-6.075-21.87-3.645-62.57-8.505-91.12-10.934-38.27-3.038-51.03-6.075-49.81-12.15 1.21-6.682-6.08-7.897-32.2-6.075-23.69 1.215-34.02-.607-36.45-6.682-1.82-4.252-7.29-6.682-12.15-4.252-4.86 1.822-10.93-.608-13.97-6.075-4.25-7.29-9.72-6.682-40.7 4.252-20.04 6.683-54.06 13.365-75.93 14.58-21.87 1.215-55.89 6.074-75.94 11.542-19.44 5.467-44.34 9.719-55.28 9.719-21.26 0-67.43 15.187-118.454 38.879-20.654 9.719-55.28 18.831-85.047 22.476-27.944 3.645-58.925 10.327-68.037 15.187-9.719 4.86-22.476 8.505-29.159 8.505-15.186 0-14.579 10.327.608 15.187 16.402 5.467 27.944 26.121 18.832 35.233-10.327 10.327-7.898 16.402 5.467 16.402 8.505 0 10.934 3.037 7.897 10.327-5.467 15.187-26.121 32.196-37.663 31.589-17.01-1.215-46.776-10.327-36.449-10.935 5.467 0 13.365-4.86 17.617-9.719 9.72-12.15 3.037-12.15-51.635.607-52.243 11.542-81.402 18.224-124.533 26.729-37.055 7.897-49.812 15.794-34.626 21.869 9.113 3.645 9.113 5.467-1.822 20.654-16.402 22.477-9.72 26.121 44.346 25.514 23.691-.608 46.168 1.822 49.812 4.86 4.86 4.252 14.58 3.037 29.159-3.038 25.514-10.327 43.131-12.149 28.552-3.037-7.29 4.86-7.29 6.075-.608 6.075 12.757 0-21.262 29.766-38.878 34.018-8.505 1.823-24.907 1.823-36.449 0-12.149-2.43-21.261-1.822-21.261 1.823 0 9.719-37.664 19.439-59.533 15.187-20.654-4.253-36.448 1.215-69.252 23.084-8.504 6.074-20.046 10.934-25.514 10.934-9.719 0-52.85 18.224-58.317 24.907-1.823 1.822-10.935 5.467-20.047 7.897-17.009 4.252-32.196 29.159-24.906 40.701 1.822 3.037-3.645 7.897-11.542 10.934-12.757 4.86-15.187 9.72-14.58 27.336.608 19.44 2.43 21.869 15.795 21.869 9.112 0 26.121-2.429 38.27-5.467 20.655-4.86 22.477-4.252 17.01 5.467-3.645 6.076-11.542 12.756-17.617 15.186-6.682 1.82-15.794 10.33-21.262 18.23-5.467 8.5-14.579 15.18-20.046 15.18-7.29 0-8.505 1.82-3.645 6.68 4.86 4.86 10.327 4.86 20.047-.6 9.112-4.86 12.149-4.86 9.719-.61-6.075 9.11 0 8.5 20.654-2.43 21.262-10.93 51.028-6.07 46.168 6.68-4.252 11.54 14.58 10.94 23.084-1.21 5.468-6.69 10.935-7.9 21.869-3.65 14.58 5.47 14.58 5.47-12.149 25.52-15.187 10.93-39.486 24.9-54.673 31.58-15.187 6.69-32.803 13.98-39.486 17.01-6.682 3.04-32.803 12.15-57.71 20.05-55.28 18.22-78.971 28.55-78.971 35.84 0 3.04-5.468 2.43-11.542-.61-11.542-6.68-30.981-1.21-100.841 25.52-40.7 15.79-47.99 17.61-71.074 20.04-29.16 3.04-74.72 26.13-66.823 34.02 3.645 3.65 10.327 3.65 18.225-.6 6.682-3.65 20.046-6.69 29.766-6.69 9.112 0 24.906-4.25 35.233-9.72 9.72-4.86 23.692-7.89 30.374-6.07 6.682 1.82 17.617-1.22 23.692-5.47 6.074-4.86 13.364-7.29 16.401-6.07 2.43 1.82 6.075.6 8.505-3.04 6.682-11.54 34.019-6.68 37.663 6.07 3.645 13.98 8.505 15.19 18.832 4.86 4.86-4.86 9.112-4.86 15.794.61 7.29 6.08 10.327 4.86 15.795-4.86 5.467-10.32 4.86-12.75-3.038-12.75-4.859 0-9.112-4.26-9.112-9.72 0-7.29 3.645-9.12 15.187-6.08 9.72 2.43 20.654 0 30.374-6.07 7.897-4.86 17.617-7.9 20.654-5.47 7.29 4.25 47.383-12.76 60.14-25.52 4.86-4.25 10.934-6.68 13.972-4.85 3.037 2.43 5.467.6 5.467-3.04 0-3.65 7.29-4.86 18.832-3.04 10.934 1.82 17.009 1.22 15.187-2.43-1.823-3.04 7.289-7.29 20.654-9.72 13.364-2.43 30.373-8.5 37.663-14.58 11.542-8.5 27.944-15.19 71.682-27.94 1.822-.61 10.935-4.25 20.047-7.9 9.719-4.25 21.869-7.29 27.336-7.29 5.467 0 21.262-6.68 34.626-15.19 13.364-7.89 30.374-15.18 37.056-15.18 18.224 0 32.196-17.01 20.047-24.91-6.683-4.25-6.075-5.47 3.644-6.07 6.683-.61 15.187-.61 18.832 0 4.252.6 8.505-3.04 10.935-8.51 1.822-4.86 10.327-9.11 18.831-9.11 8.505 0 15.187-3.04 15.187-6.076 0-3.644 4.86-6.074 10.935-6.074s15.794-3.645 22.476-7.897c17.01-11.542 33.411-17.01 33.411-10.935 0 2.43-7.289 7.897-15.794 11.542-8.505 4.252-13.364 10.327-11.542 13.364 2.43 3.646-4.252 9.116-14.579 12.756-10.327 3.65-18.832 9.11-18.832 12.15 0 9.72 32.196 5.47 74.719-9.11 22.477-7.9 40.701-13.37 40.701-11.54 0 1.82 3.645.6 7.897-3.041 9.112-7.897 46.168-10.327 60.14-4.252 6.682 2.43 21.262-1.215 38.271-9.112 24.909-12.15 35.839-24.299 21.259-24.299-3.03 0-6.072 2.43-6.072 6.075 0 3.037-2.43 6.074-5.467 6.074-3.038 0-4.86-4.859-3.645-10.934.607-6.682 6.075-9.72 14.584-9.112 6.68 1.215 12.75-1.215 12.75-4.252 0-3.645 6.68-6.075 15.19-6.075 17.62 0 18.22 13.364.61 18.224-6.69 1.822-12.76 6.682-13.98 10.327-1.82 5.467 3.04 5.467 18.23.608 14.58-4.253 26.12-4.253 38.27 0 17.01 6.074 17.01 6.682 4.25 10.327-7.9 2.43-13.97 7.289-13.97 10.327 0 3.645 4.25 4.252 10.93 1.215 5.47-2.43 29.77-5.468 53.46-7.29 32.81-1.822 47.99 0 63.18 7.897 12.15 6.073 25.51 8.503 35.84 6.683 10.33-3.038 13.37-2.431 7.29 1.82-6.68 4.25-5.47 7.9 7.29 18.83 8.5 7.29 17.01 20.05 18.83 27.95 2.43 7.89 6.68 14.58 9.72 14.58 9.72 0-1.21 44.95-14.58 60.14-8.5 9.72-9.72 13.36-3.64 11.54 6.68-2.43 9.11.61 9.11 10.33 0 7.89-1.82 12.75-4.25 10.93-3.04-1.21-4.86 1.82-4.86 6.68 0 13.97 9.72 12.15 20.65-3.64 5.47-7.29 10.94-11.54 12.76-9.72 1.82 1.82-4.86 10.33-15.19 18.83-21.87 18.83-22.48 22.48-4.25 23.08h13.36l-13.36 5.47c-11.54 4.86-13.37 9.72-11.54 25.51 1.82 17.01 4.25 20.05 20.04 21.27 12.15 1.21 22.48-2.43 29.16-10.33 10.33-11.54 11.54-11.54 18.83-1.22 7.29 9.72 7.9 9.12 14.58-4.86l6.08-15.18-3.04 16.4c-1.82 9.11-.61 18.22 3.04 20.05 3.04 1.82 6.07 7.29 6.07 10.93 0 4.86-1.82 4.25-5.46-1.21-4.26-6.69-6.69-6.08-11.55 3.03-3.64 6.08-8.5 9.72-10.32 7.29-6.08-6.07-23.09 11.55-18.23 18.83 1.82 3.04.61 7.29-3.03 9.72-9.12 6.08-7.29 13.37 7.28 27.34 7.29 6.68 9.72 12.15 5.47 12.15-4.25 0-6.68 5.47-5.47 13.36 1.22 7.9 5.47 13.37 10.33 12.15 5.47-1.21 4.25 4.86-4.25 19.44-8.51 13.98-10.33 23.09-6.08 25.52 4.26 2.43 3.65 5.46-1.21 8.5-6.07 3.65-3.04 9.11 9.72 21.87 12.76 12.15 14.58 15.19 5.47 11.54-15.8-6.07-26.73-6.07-43.74-.6-8.51 2.43-13.97 1.82-13.97-1.83 0-3.03 6.07-7.29 13.97-8.5 11.54-1.82 11.54-2.43-1.82-1.82-12.76.6-15.19 3.64-13.98 17.01.61 9.71-1.82 17-6.07 17s-.61 3.65 7.9 7.9c8.5 4.25 15.79 10.94 15.79 15.19.61 4.25 1.22 9.72 1.82 12.76 0 3.03 6.08 7.89 12.76 9.72 6.68 2.42 10.93 6.68 9.11 9.71-2.43 3.04.61 7.29 5.47 9.12 5.47 1.82 7.9 6.07 6.07 9.11-1.82 3.04.61 5.47 4.86 5.47 4.26 0 12.76 4.25 19.44 9.11 10.33 7.9 10.33 8.5-5.46 7.29-18.23-1.22-20.66 1.82-35.84 49.2-10.33 31.59-44.96 95.98-60.14 111.78-4.26 4.25-14.58 17.62-22.48 29.16s-25.52 32.8-38.88 47.38c-33.41 35.84-44.35 54.07-55.28 89.3-4.86 16.4-19.44 43.74-32.8 59.53-20.66 24.3-23.09 30.98-17.62 40.7 5.47 8.51 4.25 15.8-3.65 33.41-9.11 18.23-9.71 25.52-4.25 37.67 4.25 8.5 5.47 20.04 3.65 26.12-1.82 6.07-.61 12.76 2.43 14.58 3.03 2.43 4.25 13.36 2.43 25.51-2.43 15.19-1.22 23.69 4.86 27.34 7.29 4.86 7.29 6.07 0 10.93-7.9 4.86-7.9 10.94-.61 41.31 4.86 19.44 8.5 44.95 8.5 56.5.61 20.04 1.83 21.26 23.7 23.08 14.58 1.21 22.47 4.86 22.47 10.93 0 7.29 11.54 11.55 26.73 9.12 3.04-.61 3.65 3.03 1.82 8.5-2.43 5.47-.6 9.11 4.26 9.11 15.18 0 27.33 21.26 27.33 48.6 0 26.73 4.86 100.23 6.68 100.23.61 0 1.83 14.58 3.04 32.81 1.82 23.69 5.47 34.62 14.58 40.7 6.68 4.86 17.62 18.22 24.91 29.76 12.75 20.05 12.75 22.48 3.64 36.45-9.72 15.19-15.18 17.62-35.23 15.8-6.08-.61-10.94.61-10.94 3.64 0 10.33 49.82 62.57 55.89 58.93 7.29-4.86 47.39 37.05 47.39 48.6 0 4.86-4.26 16.4-9.12 25.51-4.86 9.72-9.11 21.87-9.11 26.73 0 12.15 11.54 24.3 23.08 24.3 13.98 0 55.89 48.6 55.89 65 0 9.72 2.43 13.97 7.9 11.54 3.64-1.82 12.15-5.47 18.83-7.29 9.11-3.65 10.33-8.51 7.29-26.12-1.82-12.15-3.64-26.73-3.64-32.81 0-5.46-3.04-10.32-6.69-10.32-3.03 0-4.25 3.64-2.43 7.29 2.43 4.25-1.21 1.21-7.89-6.69-11.55-13.97-12.15-13.97-15.19-3.03-1.82 8.5-3.04 7.29-3.64-4.86 0-9.11 2.43-18.23 5.46-20.05 9.11-5.47 7.29-15.19-2.43-15.19-9.11 0-17.01-35.23-8.5-40.09 2.43-1.82 4.86-6.07 4.86-9.11 0-3.65-2.43-4.25-6.08-2.43-3.64 1.82-6.07-3.04-6.07-10.94 0-15.18-23.09-66.21-31.59-69.86-7.29-3.64-5.47-34.62 2.43-42.52 3.64-3.64 4.86-9.11 2.43-11.54-2.43-2.43-6.68-.61-9.72 4.25-4.86 7.29-6.07 6.08-6.07-4.25 0-7.29-2.43-15.19-6.08-17.01-3.04-1.82-6.07-6.68-6.07-10.93 0-3.65 4.25-1.22 9.72 5.46 9.11 10.94 9.11 10.94 5.46-6.68-4.86-22.48-8.5-26.12-14.58-15.79-3.64 5.46-7.89 2.43-17.01-11.55-10.93-17-10.93-21.86-4.25-55.28 8.51-42.52 10.33-44.95 24.91-38.87 6.07 3.03 13.36 4.25 15.79 3.64 8.51-1.82 30.38 23.08 27.34 30.98-1.82 4.25-1.22 23.09 1.21 41.31 3.04 23.69 2.43 38.27-3.64 49.21-7.29 15.18-6.08 23.69 4.25 23.69 2.43 0 3.04-6.08 1.22-13.97-1.83-7.9 1.82-4.86 7.89 7.89 6.08 11.54 14.58 24.91 18.83 29.16 4.26 4.25 7.9 10.33 7.9 13.37 0 3.03 4.86 6.68 11.54 9.11 7.9 2.43 10.33 7.29 7.9 18.83-1.82 12.15 0 15.79 10.33 18.83 6.68 1.82 12.76 7.9 12.76 13.97 0 6.08 6.07 12.15 13.36 13.97 12.15 3.65 12.15 4.26 3.04 18.84-6.08 8.5-10.33 18.83-10.33 22.47 0 7.9 23.08 29.77 31.59 29.77 3.04 0 8.5 7.29 12.76 16.4 3.64 9.72 13.97 23.69 23.08 32.2 8.5 8.5 20.65 24.9 26.73 36.45 5.47 11.54 17.01 29.76 24.3 40.09 13.36 17.01 15.79 30.37 15.79 81.4 0 37.66-1.21 42.52-10.33 42.52-12.75 0-10.32 26.73 5.47 50.42 7.29 11.55 23.09 26.13 34.63 32.2 11.54 6.07 23.69 17.62 26.73 24.91 5.46 12.15 40.7 27.94 61.96 27.94 5.47 0 18.22 8.51 29.16 19.44 18.22 18.83 80.79 51.63 97.8 51.63 4.25 0 12.15 3.65 16.4 7.29 12.76 12.15 44.96 29.16 55.28 29.16 4.86 0 16.4 3.65 25.52 8.51 17.61 9.11 35.84 6.07 71.07-10.94 10.33-5.46 23.69-9.72 29.16-9.72 24.91 0 55.28 19.44 78.36 50.42 37.67 50.42 55.89 65 89.3 70.47 16.4 2.43 35.24 7.29 41.92 10.94 34.62 18.22 58.32 24.9 84.44 23.08 22.47-1.22 26.73 0 19.44 5.47-8.51 5.46-6.69 10.32 13.36 32.19 55.28 63.18 66.22 83.83 54.07 103.88-7.9 12.15 1.21 30.38 20.04 40.09 16.41 7.9 18.83 7.9 24.3-1.21 5.47-9.72 5.47-9.72 6.08 0 0 5.47 9.11 14.58 20.65 20.05 21.26 10.32 31.59 24.3 21.87 30.37-7.29 4.25-.61 21.26 7.9 21.26 3.64 0 12.75 6.08 20.65 13.37 12.76 11.54 13.97 12.15 13.97 2.43 0-7.29 3.04-9.72 9.72-7.29 5.47 1.82 14.58 3.64 20.66 3.64 12.75 0 21.26 17.62 12.15 26.73-8.51 8.5-7.29 15.79 3.03 15.79 5.47 0 7.29-3.64 5.47-9.11-5.47-14.58 13.37-4.86 24.3 12.76 9.72 13.97 10.33 13.97 30.98 4.25 23.09-10.93 25.52-17.62 12.15-35.84-12.15-15.79-11.54-16.4 9.11-25.51 10.33-4.86 18.23-12.15 18.23-16.41 0-4.25 4.25-9.11 9.11-11.54 8.5-3.03 13.36-40.09 5.47-40.09-1.83 0-21.27 9.72-42.53 21.26-43.73 24.3-48.59 24.91-64.39 10.94-7.9-6.69-10.93-7.29-10.93-1.83 0 6.08-1.83 6.08-8.51 0-4.86-3.64-7.9-10.32-6.07-14.58 1.82-4.25-4.26-10.93-12.76-14.58-8.5-3.64-15.19-10.93-15.19-16.4 0-4.86-3.03-9.11-6.07-9.11-3.65 0-9.11-7.29-12.15-17.01-3.65-9.11-9.11-22.48-12.76-29.16-4.86-9.72-4.86-16.4 0-25.51 3.65-6.68 6.68-19.44 6.68-27.95 0-8.5 3.04-15.79 6.08-15.79 3.64 0 6.07-14.58 6.07-32.2 0-20.04 4.26-40.09 11.55-53.45 6.68-12.15 10.32-27.95 9.11-34.63-1.82-6.68-.61-13.97 3.64-16.4 4.26-2.43.61-9.11-10.32-18.83-9.12-7.9-21.27-18.83-26.73-23.69-12.15-11.55-84.44-21.87-94.77-13.98-8.5 6.69-58.92 7.9-68.64 1.83-3.65-2.43-10.33-.61-15.19 3.03-7.29 6.08-10.94 6.08-18.22 0-4.86-3.64-12.15-4.86-16.41-2.43-4.25 2.43 0-3.64 9.12-13.97 9.72-10.33 18.22-27.94 20.65-41.91 1.82-12.76 6.07-27.34 9.72-31.59 3.04-3.65 4.25-7.29 2.43-7.29-1.82 0 3.04-6.68 10.93-15.19 8.51-7.9 15.19-18.83 15.19-23.69 0-4.86 3.04-16.4 7.29-26.12 3.65-9.11 7.29-21.87 7.29-27.34.61-5.47 2.43-12.15 5.47-14.58 2.43-2.43 4.25-9.11 4.25-14.58 0-6.07 4.25-13.97 9.11-18.22 7.9-6.68 8.51-6.08 5.47 2.43-5.47 13.97 5.47 12.15 14.58-2.43 4.86-7.9 4.86-12.15 1.21-12.15-4.25 0-4.25-4.25 0-12.76 4.26-6.68 5.47-18.83 3.65-26.73-3.65-13.36-6.08-13.97-41.31-12.15-21.26.61-56.5 6.08-78.36 11.55-31.59 8.5-41.92 13.36-47.39 25.51-3.64 8.5-6.68 18.22-6.68 21.26 0 3.65-6.68 20.66-14.58 37.66-14.58 32.81-41.31 52.25-76.54 56.5-32.8 3.64-78.97 13.97-91.12 20.65-10.94 6.08-15.19 4.86-27.95-7.89-7.89-8.51-22.47-16.41-31.58-18.23-16.41-3.64-26.13-18.22-34.63-55.89-1.82-10.32-8.5-23.08-13.97-29.15-5.47-6.08-10.33-22.48-10.94-36.45-.6-13.97-3.64-32.2-6.68-40.7-3.64-8.51-5.47-20.66-4.25-27.34 9.72-60.14 32.8-129.39 51.03-154.91 8.5-12.14 13.36-29.76 15.18-55.28 3.65-55.28 17.01-71.68 96.59-119.06 88.69-53.46 120.28-65 135.47-49.81 3.04 3.03 20.05 6.68 37.66 6.68 21.26.61 30.98 3.64 30.98 9.11 0 4.25 3.65 8.51 7.9 9.11 25.51 3.04 44.35 1.83 47.99-3.64 4.25-6.68 24.3-10.94 20.65-4.86-1.21 2.43-.6 9.11 1.83 15.19 3.64 9.71 4.86 9.71 15.79 1.21 12.15-9.11 12.15-9.11-1.82-20.05-13.37-10.32-13.37-10.93-1.82-20.65 6.07-4.86 12.15-12.76 13.97-17.01 3.64-11.54 131.21-13.36 149.44-2.43 7.29 4.86 13.36 12.76 13.36 17.01 0 15.19 20.05 17.01 37.67 3.64 20.65-15.18 35.23-13.97 44.95 4.86 3.64 7.29 10.93 18.23 16.4 24.3 12.76 13.98 12.76 27.34 1.21 49.21-4.25 9.11-7.89 23.69-6.68 31.59 4.25 37.05 11.54 66.21 16.4 66.21 3.04 0 5.47 4.25 5.47 9.11 0 4.86 5.47 13.98 12.15 19.44 6.68 6.08 12.15 18.23 12.15 27.34 0 12.76 2.43 15.79 9.72 12.76 5.47-1.83 12.15 0 15.19 4.86 4.86 7.29 6.68 7.29 10.93-.61 3.04-4.86 6.08-12.15 6.68-15.19 0-3.64 4.26-11.54 8.51-18.22 16.4-26.73 21.87-60.14 15.19-99.02-3.04-21.26-4.26-40.7-2.43-43.74 1.82-2.43-1.22-22.48-6.69-43.13-19.44-76.54 13.98-143.36 91.73-181.63 9.72-4.86 29.16-20.66 43.13-35.24 16.4-17.01 29.77-25.51 40.7-25.51 8.51 0 17.62-3.04 19.44-6.08 7.9-12.15 51.64-36.44 66.22-36.44 18.22 0 34.02-17.01 22.47-23.7-5.46-3.64 0-9.11 17.01-17.01 23.09-11.54 24.3-11.54 18.23-1.21-3.04 6.68-10.33 11.54-16.4 12.15-5.47 0-7.29 1.82-3.04 3.04 4.25 1.82 12.75 0 19.44-3.65 10.93-5.47 12.75-12.15 12.75-47.38 0-23.09-3.03-44.35-6.07-47.38-4.86-4.86-4.25-12.15.61-24.3 3.64-9.72 7.89-23.09 9.11-29.16 3.64-20.66 12.76-23.09 11.54-3.65-.61 10.33-4.25 21.87-7.9 25.52-4.25 4.25-7.29 12.75-7.29 19.44 0 11.54 1.83 10.32 14.58-5.47 7.9-9.72 13.37-20.66 11.55-23.69-2.43-3.04-.61-3.65 3.03-1.22 4.26 2.43 13.97-3.04 23.09-12.75 12.15-13.37 15.18-21.27 12.75-36.45-1.82-10.94-.6-21.26 2.43-23.09 3.04-2.43 5.47.61 5.47 5.47 0 13.97 3.65 12.15 32.8-11.54 13.98-11.54 29.16-30.38 33.42-41.92 7.89-18.83 12.15-21.26 42.52-27.33 42.52-9.12 76.54-23.7 58.32-24.91-6.69-.61.6-4.86 17.01-9.11 15.79-4.25 34.01-6.68 40.09-4.86 6.07 1.82 13.36 0 15.19-3.65 2.43-3.64 9.11-6.68 15.79-6.68 12.76 0 21.26-17.62 12.15-26.73-4.25-4.25-6.08-3.04-6.08 4.25 0 14.58-11.54 12.76-17.61-3.64-4.25-9.11-3.04-15.19 3.04-20.05 4.86-3.64 8.5-10.93 8.5-15.79 0-18.23 39.49-44.95 91.12-62.57 28.55-9.72 57.71-21.26 65-25.52 7.29-4.86 21.26-9.11 31.59-9.11 17.62-.61 27.34-10.32 11.54-11.54-10.93-.61 13.97-9.72 35.24-13.36 9.71-1.83 24.9-6.08 34.01-9.72 9.72-3.65 18.23-4.26 20.05-.61 1.82 3.04-15.19 14.58-37.06 25.51-35.23 17.01-41.3 22.48-42.52 37.67-1.21 9.72 1.82 21.26 6.68 25.51 9.72 9.72 27.34 11.54 27.34 2.43 0-3.64 5.47-6.07 12.15-6.07 6.68 0 12.15-2.43 12.15-5.47 0-8.51 47.38-38.27 54.06-34.02 3.65 1.82 9.72 1.82 13.98-.61 13.36-8.5 104.48-38.27 107.52-35.84 1.21 1.82 6.07-2.43 10.93-9.11 4.86-6.68 12.76-12.15 18.23-12.15 13.36 0 44.34-19.44 44.34-28.55 0-4.25-4.25-7.9-9.11-7.9-10.93 0-11.54-2.43-1.82-18.22 6.07-9.12 6.07-13.37 0-19.44-5.47-5.47-15.19 1.21-43.74 30.37-20.05 20.66-36.45 35.23-36.45 31.59 0-3.64-5.47-3.64-13.36-.61-16.4 5.47-67.43-3.64-62.57-11.54 4.25-6.68 33.41-5.47 33.41 1.22 0 2.43 5.47 4.86 12.15 4.86 6.68 0 12.15-2.43 12.15-6.08 0-3.04 7.29-9.72 17.01-14.58 16.4-9.11 15.79-9.11-17.01-9.72-38.88 0-50.42-5.47-44.96-21.26 3.04-7.9 1.83-9.72-4.25-7.9-4.86 1.83-7.89 6.08-7.29 9.72 1.22 3.65-2.43 5.47-7.29 3.65-11.54-4.86-11.54 6.07 0 18.22 12.15 12.15 11.55 15.19-3.03 11.54-12.76-3.64-19.44-20.65-16.41-40.7 1.22-6.68 11.55-21.26 23.09-32.19l20.65-20.66-16.4 3.65c-24.91 6.07-20.65-1.83 7.29-12.76 48.6-19.44 35.23-54.67-20.05-52.85-37.05 1.21-117.24 26.12-153.69 47.38-34.02 20.05-37.66 19.44-13.36-2.43 23.69-20.04 68.64-43.13 85.65-43.13 6.68 0 19.44-7.89 28.55-17.61 8.51-10.33 23.09-21.27 32.81-24.91 10.32-3.65 67.43-6.08 144.58-5.47 76.54.61 129.39-1.82 131.82-5.47 1.82-3.03 9.72-7.28 17.61-9.71 7.29-2.43 20.66-10.94 30.38-18.23 20.04-16.4 51.03-27.94 76.54-27.94h18.83l-27.34 26.73c-43.73 41.91-72.89 74.72-72.89 82 0 3.65-4.25 6.69-9.11 6.69-5.47 0-10.94 4.25-12.76 9.11-2.43 4.86-6.08 7.29-9.11 5.47-5.47-3.04-23.69 10.93-23.69 18.83 0 1.82 6.07 2.43 13.97 0 7.29-1.82 1.82 3.64-12.76 12.76-42.52 26.12-33.41 32.8 50.42 35.84 154.91 6.68 142.76 4.86 133.04 15.79-10.33 10.94-10.94 23.69-1.82 23.69 3.03 0 4.85-2.43 2.42-5.47-1.82-3.03-.6-7.89 3.04-9.71 3.65-2.43 6.08-1.83 5.47 1.21-3.04 18.22 1.21 24.3 15.79 21.26 23.09-4.25 59.54-61.96 39.49-61.96-3.04 0-6.07 2.43-6.07 6.07 0 3.04-2.43 6.08-4.86 6.08-3.04 0-5.47-4.25-5.47-9.11 0-4.86 2.43-7.29 4.86-6.08 1.82 1.82 7.29-1.21 11.54-6.07 6.07-7.29 5.47-9.11-2.43-9.11-5.47 0-14.58 5.46-20.05 12.14-6.07 6.69-13.36 12.15-16.4 12.15-3.04 0 .61-6.68 7.9-14.58 10.33-10.93 11.54-15.18 5.47-17.61-4.26-1.82 0-2.43 10.32-2.43 12.15 1.21 18.23-1.82 20.05-9.11 1.21-7.29-1.22-9.12-10.33-6.69-15.18 3.65-18.22-12.75-3.64-18.83 13.36-4.86 10.93-15.18-4.25-21.87-7.9-3.03-10.33-5.46-6.08-5.46 4.25-.61 6.08-3.65 3.65-7.9-3.04-4.25-6.69-3.04-12.76 4.25-4.25 6.68-7.9 7.9-7.9 4.25 0-4.25-4.25-7.29-9.11-7.29-4.86 0-9.11 1.83-9.11 4.86 0 2.43-7.9 4.86-17.62 4.86-12.76.61-17.01-1.21-14.58-7.29 1.82-4.86 6.68-8.5 11.54-8.5 16.4 0 8.51-10.94-10.93-14.58l-20.05-4.25 20.66-17.62c13.97-11.54 22.47-15.79 25.51-11.54 5.47 9.72 12.76-3.04 7.9-15.19-1.83-5.47-1.22-9.72 2.43-9.72 3.03 0 7.29-4.25 9.72-9.11 2.43-6.68-1.22-9.11-13.37-9.11-11.54 0-13.97 1.82-8.5 5.46 5.46 3.04 1.82 4.86-10.33 4.26-10.33-.61-18.83-1.22-18.83-1.83 0-1.21 12.15-7.28 27.33-14.57 25.52-12.15 29.77-17.01 37.06-49.21 9.72-38.88 7.9-46.78-10.93-50.42-20.66-4.86-32.81-27.34-19.44-35.23 13.97-7.9-7.9-25.52-29.16-23.09-10.94.61-17.01-1.21-15.8-6.07 1.83-8.51-27.94-18.23-42.52-13.37-6.07 1.83-7.9.61-4.25-2.43 11.54-9.11 9.72-21.26-5.47-35.23-14.58-13.37-14.58-14.58-4.25-18.22 11.54-3.65 15.79-30.38 6.07-37.06-3.03-1.82-1.21-9.72 4.26-17.62 8.5-13.36 8.5-14.58-2.43-20.65-8.51-4.25-12.15-12.76-12.15-26.73 0-11.54-4.26-28.55-9.12-38.27-4.86-10.33-7.89-28.553-6.07-43.74 1.21-13.971.61-25.513-1.82-25.513-7.29 0-21.26 18.224-17.62 24.298 1.82 3.038 0 4.253-4.86 2.43-4.86-1.822-23.69 11.542-43.74 30.985-19.44 18.22-38.88 33.41-42.52 33.41-3.65 0-18.22 5.46-32.8 12.75-21.87 10.33-27.34 10.94-35.85 4.26-21.86-17.62-32.19-30.38-33.41-40.7-.6-12.15 17.62-52.854 26.13-58.321 3.64-2.43 4.86-6.683 2.43-9.72-1.83-3.037-1.22-4.86 1.82-4.252 2.43 1.215 4.86-.608 4.86-3.645 0-3.645-7.9-6.682-18.23-7.897-9.72-.608-24.9-3.038-32.19-4.86-12.15-3.037-13.37-4.86-6.69-12.757 6.08-7.897 6.08-10.327-1.21-14.579-17.62-10.935-38.27-27.944-47.38-38.271-5.47-5.468-12.76-10.327-17.01-10.327-10.33 0-10.33 12.149 0 12.149 3.64 0 2.43 3.038-3.65 6.682-10.93 6.683-20.65 5.468-92.94-7.897-35.23-6.075-37.66-6.075-50.42 6.682-7.29 7.29-14.58 20.047-15.19 27.944-1.82 19.439-14.58 33.411-38.27 43.738-24.3 9.72-26.12 15.795-4.25 10.327 14.58-3.644 15.79-3.037 11.54 10.327-3.04 7.898-4.86 18.225-4.86 21.87 0 4.252-1.82 7.897-4.25 7.897-2.43 0-16.4 9.72-30.98 21.26-14.58 11.54-29.16 21.26-31.59 21.26-6.08 0-22.48 15.8-22.48 20.66 0 1.82 2.43 3.64 6.08 3.64 10.93 0 36.45 26.12 36.45 37.67 0 15.18-22.48 61.96-35.24 73.5-23.08 20.65-94.16 54.06-128.78 60.14l-36.45 6.07 3.04 26.73c1.82 15.8.6 26.73-3.04 26.73-3.04 0-6.08 6.68-6.08 14.58 0 8.51-2.43 16.4-4.86 18.23-2.43 1.21-5.46 11.54-6.07 23.08-1.22 13.97-7.29 24.3-19.44 34.02-10.33 7.9-17.01 17.01-15.19 20.05 2.43 3.03 1.22 5.46-2.43 5.46-3.03 0-6.68-3.64-8.5-7.89-1.82-4.86-7.29-3.04-18.22 7.28-16.41 15.19-28.56 12.76-28.56-5.46 0-6.08-4.86-15.19-10.32-19.44-6.08-4.25-11.55-12.15-11.55-17.01-.6-4.86-3.03-13.97-5.46-19.44-3.65-9.11-1.83-9.72 13.36-5.47 34.63 10.33 35.24 10.33 35.24-5.46 0-13.37-2.43-15.19-18.84-14.58-15.79.6-18.83-.61-16.4-10.33 1.82-6.68 5.47-13.37 8.51-15.19 3.03-1.82 5.46-9.72 5.46-18.22 0-7.9 2.43-14.58 4.86-14.58 7.9 0 26.12-35.24 20.05-38.88-3.04-1.82-26.73-4.86-52.85-6.68-27.94-1.82-51.03-6.68-56.5-11.54-5.46-4.86-21.26-12.15-35.23-17.01-14.58-4.26-26.12-11.55-26.12-15.19 0-10.93-20.65-30.37-37.66-35.23-7.29-2.43-23.09-7.9-34.02-12.76-15.19-7.29-24.3-7.9-42.53-3.04-12.14 3.65-24.29 6.68-26.12 6.68-4.86 0 1.83-31.58 12.15-56.49 9.12-22.48 4.26-28.55-21.26-28.55-11.54 0-20.65-1.82-20.65-3.65 0-5.46 55.28-75.324 59.53-75.324 2.43 0 20.65-12.149 40.09-27.336 20.05-14.58 43.74-28.552 52.85-30.374 9.12-2.43 18.23-7.29 20.05-12.15 1.82-4.859 12.76-10.327 24.3-12.756 12.15-1.823 21.87-6.075 21.87-9.113 0-3.037 3.64-4.859 7.9-4.252 3.64 1.215 6.68-1.822 5.46-6.682-1.82-7.897 3.65-7.897 32.2 2.43 8.5 3.037 9.72 2.43 3.64-1.823-6.07-4.252-3.03-7.289 12.76-12.757 10.93-3.644 24.3-12.149 29.16-18.831 4.86-6.683 13.36-12.15 18.22-12.15 5.47 0 12.76-3.037 16.41-6.682 4.25-4.252 20.04-7.897 36.44-9.112 32.81-3.038 96.59-32.196 119.68-55.28 13.36-13.365 52.85-38.271 60.74-38.271 1.83 0-13.36 15.794-33.41 34.626-19.44 19.439-35.84 37.663-35.84 41.308 0 3.645-12.15 10.327-27.34 14.579-32.8 9.72-33.41 22.477-.6 20.047 20.65-1.822 22.47-1.215 18.83 10.327-4.86 17.009 10.33 17.009 41.31.608 12.15-6.683 26.73-12.15 31.59-12.15 4.86 0 13.36-5.467 19.44-12.149 12.75-12.757 39.48-10.935 34.62 3.037-4.86 12.15 41.31 17.617 66.82 8.505 17.62-6.075 20.05-9.72 15.19-18.225-3.04-6.074-9.11-9.719-13.97-7.897-4.86 1.823-9.72-2.43-11.54-10.934-3.65-12.757-26.13-30.374-54.68-42.523-7.89-3.645-9.72-8.505-6.68-21.262 2.43-9.72 5.47-18.224 6.68-20.047 3.65-4.252 13.37 13.972 10.33 19.44-3.04 4.252.61 5.467 23.69 7.289 3.65.608 7.29-4.86 7.9-11.542 1.82-36.448 1.82-35.841 13.97-20.654 10.94 13.365 12.15 13.365 15.8 3.645 2.43-5.467 9.11-10.327 14.57-10.327 5.47 0 17.62-4.252 27.34-9.112 9.11-4.86 20.66-9.112 24.3-9.112 4.25 0 13.97-6.683 21.87-15.187 10.93-11.542 12.15-16.402 7.29-23.084-8.51-10.327 5.47-24.907 32.8-34.626 9.72-3.645 20.66-13.365 24.91-21.262 6.07-13.364 5.47-15.187-4.25-15.187-21.26 0-18.83-11.542 3.64-17.616 17.01-4.86 26.12-4.253 39.49 2.429 9.72 5.468 24.3 7.29 34.62 5.468 22.48-4.253 32.2 7.897 10.94 13.364-18.23 4.252-34.02 20.654-21.26 20.654 5.46.608 3.03 4.86-6.08 12.757-7.9 6.682-12.15 13.972-9.72 16.402 2.43 2.43 6.08.607 7.29-3.645 1.82-3.645 6.68-7.29 11.54-7.29 7.9 0 10.94-7.289 9.12-20.046 0-2.43 2.43-4.252 5.46-4.252 9.72 0 54.68-30.982 54.68-37.664 0-3.645-4.86-4.252-10.33-1.822-22.48 9.112-32.2 10.327-32.2 3.645 0-3.645 6.68-6.683 15.19-6.683 10.33 0 17.62-4.252 21.26-13.972 3.04-7.289 5.47-9.719 5.47-6.074.61 4.252 4.86 7.897 9.72 7.897 5.47 0 7.29 3.645 4.86 10.327-2.43 6.682-1.82 8.505 3.04 5.467 4.25-2.43 7.28-1.822 7.28.608 0 3.037 7.29 9.719 17.01 15.186l16.41 10.328-17.01.607c-9.72 0-15.8-2.43-13.37-5.467 5.47-9.72-9.11-14.58-18.83-6.682-6.07 6.074-6.68 9.719-1.82 15.794 3.64 4.252 4.25 10.934 1.82 15.187-3.04 5.467 1.22 6.074 17.01 3.037 16.4-3.037 21.26-1.822 21.26 5.467 0 6.683-6.68 9.112-25.51 9.112-40.7 0-85.05 29.159-72.9 48.598 9.11 14.58 88.08-4.252 88.08-21.261 0-4.252 3.65-10.935 8.51-14.58 6.68-5.467 8.5-4.859 7.29 3.645-.61 8.505 4.86 11.542 22.48 12.757 16.4 1.215 22.47-.607 22.47-7.289 0-4.86-6.07-9.72-13.36-10.935-7.29-1.215-14.58-6.075-15.8-10.935-2.43-7.897-1.82-7.897 6.08-1.214 7.89 6.074 10.32 6.074 12.75 0 2.43-6.075 3.65-6.075 3.65-.608.61 4.252 6.07 7.897 12.76 7.897 9.11 0 11.54 3.038 9.72 13.365-1.83 7.897-3.04 18.831-3.04 24.299-.61 6.074-5.47 10.934-10.94 10.934-5.46 0-14.58 3.645-19.44 7.897-5.46 4.86-23.08 13.365-40.09 19.44-37.66 13.364-44.34 18.831-34.62 28.551 10.32 10.327 9.11 16.402-3.04 16.402-6.08 0-21.26 2.429-33.41 5.467-13.97 3.645-34.02 3.645-54.07 0-26.12-4.86-35.23-3.645-53.46 5.467-32.19 16.402-45.56 30.981-37.66 40.701 10.33 12.149 35.23 15.187 63.18 7.29 13.97-4.253 35.23-6.683 46.77-6.075 11.55.607 27.34 1.215 35.24 1.822 7.89 0 12.15 3.038 10.32 6.682-1.82 3.038.61 6.075 6.08 6.075 6.07 0 9.11 4.253 7.9 10.327-1.22 6.075 4.25 17.617 11.54 26.122 7.9 8.504 13.97 19.439 13.97 25.514 0 14.579 9.11 18.224 26.73 10.327 12.76-6.075 17.62-4.86 31.59 6.074 9.11 6.683 22.47 12.757 30.37 12.757 7.9 0 27.95 5.468 44.95 12.15 16.41 6.682 30.38 10.934 30.38 9.112 0-1.822 5.47 2.43 12.76 9.72 14.57 14.579 30.37 6.682 25.51-12.757-3.65-12.757-20.05-17.01-20.05-5.468 0 3.645-3.64 5.468-7.29 3.645-4.25-1.215-7.29-7.897-6.07-13.972.61-6.682-4.86-17.616-13.97-25.514-8.51-7.289-15.19-15.794-15.19-18.831 0-3.038-5.47-6.683-12.15-8.505-6.68-1.822-12.15-7.897-12.15-13.972 0-9.719.61-9.719 12.15.608 6.68 6.074 13.97 9.112 16.4 7.289 1.82-2.43 7.9 1.215 12.76 8.505 7.29 10.327 9.72 10.934 18.22 4.252 5.47-4.252 7.9-4.86 5.47-1.215-2.43 4.253 1.82 8.505 10.33 10.935 7.89 1.822 15.79 9.112 17.61 15.794 3.65 13.365 18.84 16.402 26.13 5.467 1.82-3.644 0-9.112-4.26-12.149-6.07-3.645-6.68-5.467-.6-5.467 3.64 0 7.28-5.468 7.28-12.15 0-7.29 3.04-10.327 8.51-8.504 4.25 1.822 12.76-1.215 18.22-7.29 9.12-8.505 9.12-11.542 1.22-23.084-6.08-9.72-6.68-16.402-2.43-24.299 6.68-12.15-1.82-21.869-20.05-21.869-10.32 0-17.61-10.935-21.26-32.196-1.21-6.075 1.22-10.327 6.68-10.327 10.94 0 11.54-6.683 1.83-17.617-6.69-6.682-6.08-7.29 0-4.252 4.25 2.429 11.54 1.822 15.18-1.823 9.72-7.897 36.45 14.579 39.49 32.804 2.43 13.972 13.36 29.158 18.22 24.906 1.22-1.822 7.9-.607 13.97 2.43 13.98 7.897 29.77 1.215 35.85-14.579 4.25-10.935 8.5-12.757 26.72-10.935 13.98 1.823 21.87 0 21.87-4.86 0-9.112 15.19-24.299 25.52-24.299 4.25 0 14.58-5.467 22.47-11.542l13.98-10.934-17.01-12.15c-9.72-6.682-21.27-10.934-26.13-9.112-4.86 1.823-6.68 0-4.25-4.252 2.43-3.645.61-6.682-4.25-6.682-4.25 0-14.58-6.683-22.48-15.795-10.32-10.327-18.83-13.972-28.55-11.542-7.29 1.823-15.18 0-17.61-3.645-1.83-3.644-13.37-10.327-24.3-15.186-11.55-4.86-20.66-10.935-20.66-13.365 0-7.897 28.55-21.261 35.84-17.009 11.55 7.29 20.05-2.43 11.55-13.365-6.08-7.289-6.08-9.719 0-11.542 20.04-7.289-5.47-40.7-38.28-49.812-12.75-3.645-25.51-4.86-28.55-3.038-2.43 1.823-4.86-1.215-4.86-6.682 0-5.467-2.43-8.505-5.46-6.682-3.04 1.822-6.69-1.823-8.51-8.505-2.43-9.719-8.5-12.149-29.76-12.149-14.58 0-30.38 3.645-35.24 7.289-7.29 6.683-7.29 6.075-.61-3.037 6.08-7.29 6.08-10.327 1.22-10.327-4.25 0-5.47-3.037-3.65-6.075 1.83-3.645-.6-6.075-5.46-6.075-5.47 0-9.72-4.252-9.72-9.112 0-4.859-6.08-10.327-13.37-11.542-7.89-1.822-19.44-4.252-26.12-5.467-8.5-1.822-7.29-3.037 4.86-3.645 9.11-.607 16.4-4.252 16.4-8.504 0-17.617-21.26-26.729-69.86-30.374-39.48-3.038-50.42-1.823-58.92 6.075-10.33 9.112-10.94 9.112-10.94 0 0-12.757-29.76-13.365-85.04-1.215-46.17 10.327-57.71 10.934-36.45 1.822l15.19-6.075-15.19-6.074c-41.31-15.795-157.94 20.046-207.76 64.392-6.07 5.467-12.75 9.719-15.18 9.719-5.47.608-28.55 30.374-24.91 32.804.61 1.215 17.01 4.86 35.23 7.897l33.41 6.682-35.84-1.215c-40.7-.607-47.99 6.683-27.33 26.122 9.11 8.505 18.22 11.542 25.51 9.112 7.9-2.43 10.33-1.215 7.9 3.037-4.86 7.29.61 8.505 35.84 7.898 13.36-.608 20.05.607 15.19 3.037-14.58 6.075-24.3 18.224-26.13 33.411-1.21 7.897-6.07 13.972-10.93 13.972-4.86 0-18.22 7.897-30.37 17.009-22.48 17.009-33.41 21.262-26.73 10.327 1.82-3.645 0-6.075-4.86-6.075-10.33 0-32.2 23.085-26.12 28.552 1.82 2.43-4.86 7.897-15.8 12.149-15.18 6.682-20.04 6.682-24.3.608-7.89-12.757-2.43-25.514 14.58-34.019 35.24-17.009 23.09-57.102-13.97-44.345-17.01 5.467-18.22 5.467-14.58-5.468 3.04-9.719 1.22-12.149-8.5-12.149-13.98 0-18.23-21.262-6.08-25.514 5.47-1.823 5.47-6.075 0-16.402-5.47-10.327-6.07-15.794-.61-21.869 9.12-10.935 1.83-33.411-10.93-34.019-5.47 0 1.21-4.859 15.79-10.934 14.58-5.467 28.56-13.365 30.38-17.009 2.43-3.645 19.44-7.898 37.66-9.112 41.31-4.253 134.25-45.561 120.89-54.066-4.86-3.037-19.44-5.467-32.8-5.467-13.37 0-35.24-1.822-48.6-3.645-29.16-3.645-73.51 4.86-71.68 14.58 1.21 3.644-2.43 5.467-7.9 3.037-4.86-1.822-15.19 1.822-22.48 8.505-7.29 6.682-18.22 13.972-24.9 16.401-7.29 2.43-10.33 7.898-7.9 15.187 3.64 13.972-13.97 31.589-42.53 43.131-10.93 4.252-20.04 9.112-20.04 11.542 0 2.43-5.47 4.252-12.76 4.86-17.01 1.215-41.91 18.224-41.91 28.551 0 4.252-6.69 11.542-15.19 15.794-10.33 5.468-15.19 12.757-13.97 20.654 1.21 9.72-1.83 13.365-15.19 14.58-10.33 1.215-21.87-1.823-28.55-7.897-9.11-7.897-13.37-8.505-27.95-1.823-9.71 4.253-20.04 10.935-22.47 15.187-2.43 4.252-15.8 9.72-28.55 11.542-26.12 4.252-33.41 18.224-10.94 21.869 7.29 1.215 13.97 5.467 15.8 10.327 1.82 5.468-1.22 6.682-10.33 3.645-9.11-2.43-16.4.608-26.12 10.327-12.76 13.365-19.44 14.58-82.62 15.795-55.89.607-69.25-.608-72.29-8.505-1.82-5.467-7.29-7.29-14.58-5.467-16.4 5.467-29.16-3.645-13.97-9.72 10.94-4.252 10.94-4.252 0-8.505-6.68-3.037-12.76-1.822-15.79 3.038-3.65 5.467-5.47 4.252-7.29-6.075-.61-7.897-5.47-15.187-10.33-17.009-4.86-1.823-6.68 0-4.86 3.037 1.82 3.037-4.25 4.86-14.58 3.037l-18.22-2.429 16.4-8.505c11.54-6.075 18.83-6.682 23.08-2.43 7.9 7.897 17.62 7.897 12.76 0-1.82-3.037 0-4.252 5.47-2.43 4.86 1.823 10.32 6.682 11.54 10.935 1.82 4.859 17.01 7.897 40.7 8.504 21.26.608 41.92 4.253 46.77 7.897 6.69 5.468 11.55 4.253 21.87-6.074 7.9-6.682 17.62-12.757 21.27-12.757 8.5 0 9.11-3.645 1.82-17.617-4.25-7.897-3.04-10.327 6.07-10.935 6.08-.607 11.54 3.038 11.54 7.898 0 4.859 1.83 8.504 3.65 8.504 7.9 0 38.88-25.514 38.88-32.196 0-6.682-25.52-20.654-55.89-30.374-14.58-4.859-13.97-14.579 1.22-22.476 6.68-3.645 12.14-10.327 12.14-15.187 0-20.654 26.73-49.205 58.32-63.177 18.23-7.897 32.81-16.402 32.81-18.832 0-6.682-16.41-12.149-36.45-12.149-21.26 0-54.68 12.756-43.74 16.401 3.64 1.823 7.29 5.468 7.29 8.505 0 3.645-4.86 3.645-11.54-.607-23.69-12.15-49.21-7.29-68.65 13.364-10.32 10.934-20.65 26.121-23.69 33.411-3.04 7.897-7.9 13.972-10.93 13.972-6.69 0-5.47-11.542 1.82-23.084 3.04-4.86.61-12.757-6.08-20.047-12.75-13.972-38.87-15.794-38.87-2.43 0 11.542-8.51 11.542-40.71-.607-20.65-7.897-29.15-8.505-45.56-3.037-15.79 5.467-18.22 5.467-12.15-.608 10.33-10.327 9.12-17.009-3.64-17.009-6.07 0-15.19-6.682-19.44-15.187-9.72-18.224-23.08-23.084-66.82-24.907-18.23-.607-59.53-3.037-91.12-4.252-31.59-1.822-65.61-1.822-74.72 0Zm1171.21 53.458c-9.72 5.467-23.09 18.224-29.77 29.159l-10.93 19.439-6.08-15.187c-3.03-7.897-3.03-15.794-.6-16.402 3.03-1.215 14.57-7.29 26.12-13.972 11.54-6.074 25.51-11.542 30.37-11.542 4.86 0 1.22 3.645-9.11 8.505Zm168.88 9.719c3.03 11.542 6.68 12.757 29.76 9.72 22.48-3.037 23.69-3.037 10.94 3.037-8.51 3.038-27.34 6.683-42.53 7.29-26.73 1.215-27.33.608-16.4-10.327 6.08-6.075 9.11-13.364 7.29-16.402-2.43-3.645-1.21-6.074 1.82-6.074 3.04 0 7.29 6.074 9.12 12.756Zm-224.77 34.019c-5.47 1.822-6.07 6.075-1.82 14.579 6.68 12.15-1.82 17.01-9.11 5.468-5.47-9.112 1.21-24.299 10.32-23.692 6.08 0 6.08 1.215.61 3.645Zm359.63 7.897c-1.83 3.038-8.51 6.075-13.98 5.467-8.5 0-7.89-1.214 1.83-5.467 16.4-6.682 16.4-6.682 12.15 0Zm88.08 48.598c-4.86 3.037-14.58 5.467-21.26 5.467-9.72-.607-9.72-1.215 3.03-5.467 21.27-6.682 29.16-6.682 18.23 0Zm63.18 25.514c-3.04 4.86-1.22 5.467 6.68 2.43 6.68-2.43 13.36-1.215 15.79 3.645 3.65 6.075-5.46 9.719-35.23 15.187-47.38 8.504-57.71 6.682-17.01-3.645 15.19-3.645 26.73-9.112 26.73-11.542-1.22-7.29.61-13.365 4.25-13.365 1.82 0 1.22 3.038-1.21 7.29Zm-605.66 2.43c-1.82 1.822-7.28 2.43-11.54.607-4.86-1.822-3.03-3.644 3.65-3.644 6.68-.608 10.32 1.215 7.89 3.037Zm578.93 4.86c0 1.215-5.47 3.645-12.15 5.467-6.68 1.822-10.94.607-8.51-2.43 3.04-5.467 20.66-7.897 20.66-3.037Zm-2049.01 7.289c-1.82 1.823-7.29 2.43-11.54.608-4.86-1.823-3.04-3.645 3.64-3.645 6.68-.607 10.33 1.215 7.9 3.037Zm1581.25 2.43c0 3.038-6.07 6.075-13.36 6.075-11.54 0-12.15-1.215-4.86-6.075 11.54-7.897 18.22-7.897 18.22 0Zm89.91-1.822c-6.08 1.215-15.8 1.215-21.26 0-6.08-1.823-1.22-3.037 10.32-3.037 11.55 0 16.41 1.214 10.94 3.037Zm-1717.94 7.897c-4.86 3.037-13.36 5.467-18.22 5.467-6.08 0-4.86-1.822 3.04-5.467 16.4-7.29 26.12-7.29 15.18 0Zm1324.3 0c0 3.037-2.43 6.075-6.08 6.075-3.04 0-6.07-3.038-6.07-6.075 0-3.645 3.03-6.075 6.07-6.075 3.65 0 6.08 2.43 6.08 6.075Zm-103.28 13.364c0 2.43-6.68 9.113-15.18 14.58-18.83 12.149-20.05 23.084-2.43 18.832 7.29-1.823 10.93-1.215 7.9 1.215-6.69 5.467-52.85 21.869-77.15 27.336-10.33 2.43-18.84 9.719-22.48 18.832-4.25 10.327-8.51 13.971-15.79 10.934-9.72-3.645-9.72-4.252.6-11.542 6.08-4.86 8.51-10.934 5.47-15.794-2.43-4.253-2.43-6.075.61-3.645 6.07 5.467 28.55-6.075 24.3-12.757-1.22-3.037 9.72-8.505 24.9-12.15 15.19-3.644 25.52-9.719 23.69-12.756-2.43-3.645-6.68-4.253-10.32-2.43-3.65 2.43-4.86-.608-3.65-7.29 1.22-7.897 6.68-10.935 15.19-9.72 7.29 1.215 14.58-.607 16.4-4.252 4.25-6.682 27.94-6.682 27.94.607Zm-1354.66 7.898c-27.95 10.934-43.74 10.934-24.3.607 8.5-4.86 21.87-8.505 30.37-8.505 13.37 0 12.15.608-6.07 7.898Zm2278.03-4.253c0 2.43-9.72 3.645-21.27 2.43-11.54-1.215-21.26-3.645-21.26-4.86 0-1.215 9.72-2.429 21.26-2.429 11.55 0 21.27 2.429 21.27 4.859Zm-799.44 20.654c-3.65 12.757-15.19 24.907-18.83 20.655-3.04-3.038 13.36-34.019 18.22-34.019 3.04 0 3.04 6.075.61 13.364Zm474.44-1.214c-1.83 3.037-6.69 6.074-9.72 6.074-3.65 0-4.26-3.037-2.43-6.074 1.82-3.645 6.68-6.075 9.72-6.075 3.64 0 4.25 2.43 2.43 6.075Zm-185.28 6.074c0 3.038-3.04 6.075-6.68 6.075-3.04 0-4.26-3.037-2.43-6.075 1.82-3.645 4.85-6.074 6.68-6.074 1.21 0 2.43 2.429 2.43 6.074Zm222.94-2.43c-1.82 1.823-7.29 2.43-11.54.608-4.86-1.823-3.04-3.645 3.64-3.645 6.69-.607 10.33 1.215 7.9 3.037Zm-420.37 38.271c-1.82 3.645-6.68 6.682-10.33 6.682-3.64 0-3.64-3.644 1.22-9.112 8.5-10.327 15.79-7.897 9.11 2.43Zm-379.67 3.038c0 1.215-4.26 3.644-9.12 6.074-4.86 1.823-9.11.608-9.11-2.43 0-3.644 4.25-6.074 9.11-6.074 4.86 0 9.12 1.215 9.12 2.43Zm812.8 1.822c-6.08 1.215-15.8 1.215-21.26 0-6.08-1.822-1.22-3.037 10.32-3.037 11.54 0 16.4 1.215 10.94 3.037ZM2747.9 650.024c0 1.215-5.46 2.43-12.75 2.43-6.69 0-10.94-2.43-8.51-6.075 3.04-4.859 21.26-1.822 21.26 3.645Zm423.41 6.075c-1.82 1.822-7.29 2.43-11.54.607-4.86-1.822-3.04-3.644 3.65-3.644 6.68-.608 10.32 1.215 7.89 3.037Zm-845.6 8.505c-6.68 2.43-21.26 8.504-32.8 12.757-20.05 7.289-20.05 7.897-6.08 13.364 7.9 3.037 28.55 3.645 44.95 1.215l30.38-3.645-19.44 12.15c-10.94 6.682-29.16 12.149-43.13 11.542-29.16 0-51.03 6.074-46.78 13.972 3.04 4.859-9.72 8.504-23.08 6.074-2.43-.607-14.58 3.645-26.73 8.505-12.15 4.86-23.08 7.897-24.91 6.075-4.86-4.86 41.92-22.477 51.03-18.832 4.25 1.822 9.72 0 12.15-3.645 7.29-11.542-46.17 0-65.61 14.579-14.58 9.72-20.65 10.935-30.98 6.075-10.93-5.467-11.54-6.682-2.43-6.682 5.47-.607 10.33-3.645 10.33-6.682 0-3.645 5.47-6.075 11.54-6.075 6.68 0 15.8-4.252 21.26-9.112 4.86-4.86 13.97-8.505 20.05-7.897h22.48c22.47-2.43-2.43-19.439-26.13-18.224l-21.86.607 20.04 2.43c10.33 1.215 19.44 4.86 19.44 8.505 0 3.037-.61 5.467-1.21 5.467-1.22-.608-17.01-4.252-35.24-8.505l-33.41-7.289 48.6-7.898c26.73-4.252 66.21-11.542 88.08-15.794 46.17-9.72 56.5-10.327 39.49-3.037Zm1691.81-.608c0 3.038 7.29 7.29 15.8 9.112 21.26 5.468 12.15 13.365-20.05 17.617-21.87 2.43-24.9 1.822-21.26-7.29 7.29-18.831 25.51-32.803 25.51-19.439Zm312.25 6.075c2.43 3.037-1.83 4.252-8.51 2.43-13.97-3.645-15.79-7.897-3.64-7.897 4.86 0 10.32 2.43 12.15 5.467ZM893.285 680.398c-1.823 1.822-7.29 2.43-11.542.607-4.86-1.822-3.038-3.644 3.645-3.644 6.682-.608 10.327 1.215 7.897 3.037Zm2599.985 21.869c0 10.935-1.21 16.402-2.43 12.15-1.82-3.645-8.5-7.29-15.18-7.29-7.29 0-10.94-1.823-9.11-4.252 2.43-1.823 1.21-7.29-2.43-12.15-5.47-6.075-3.04-7.897 10.93-7.897 16.4 0 18.22 1.822 18.22 19.439Zm-147 20.654c12.14 9.112 12.14 9.72-2.43 7.29-8.51-1.215-15.8-5.467-17.62-9.72-3.04-9.719 5.47-9.112 20.05 2.43ZM764.5 761.8c-1.822 3.037-7.289 6.074-10.934 6.074-4.252 0-3.645-2.43 1.822-6.074 11.542-7.29 13.972-7.29 9.112 0Zm3046.48 6.682c0 3.037-4.25 5.467-9.11 5.467-5.47 0-7.29-3.645-5.47-9.112 3.65-9.112 14.58-6.682 14.58 3.645Zm75.94 47.99c-1.83 3.038-6.08 6.075-9.72 6.075-3.04 0-5.47-3.037-5.47-6.075 0-3.645 4.25-6.075 9.72-6.075 4.86 0 7.29 2.43 5.47 6.075Zm-1574.58 72.29c10.33 9.112 41.31 5.467 80.19-7.898 6.68-2.429-1.21 3.038-18.22 12.15-16.4 9.112-43.74 18.832-60.75 21.262-16.4 3.037-33.41 9.112-36.45 13.971-7.9 10.328-99.02 18.832-112.38 9.72-7.9-5.467-7.9-6.075 0-6.682 4.86-.608 13.97 0 20.04.607 6.08.608 18.23-3.645 27.34-9.719 9.11-6.075 26.12-12.15 37.66-14.58 18.84-3.037 21.27-5.467 23.09-22.476 1.82-18.224 3.04-19.439 15.19-12.15 7.29 4.253 18.22 10.935 24.29 15.795Zm1764.11 22.476c-1.82 1.823-7.29 2.43-11.54.608-4.86-1.823-3.04-3.645 3.64-3.645 6.68-.608 10.33 1.215 7.9 3.037ZM943.705 935.537c0 1.215-4.252 2.43-9.112 2.43s-9.112-2.43-9.112-6.075c0-3.037 4.252-4.252 9.112-2.43 4.86 2.43 9.112 4.86 9.112 6.075Zm-50.42 6.075c-1.823 1.822-7.29 2.43-11.542.607-4.86-1.822-3.038-3.644 3.645-3.644 6.682-.608 10.327 1.214 7.897 3.037Zm-25.514 8.505c-5.467 8.504-27.336 19.439-27.336 13.971 0-4.252 14.579-13.364 29.158-19.439 1.215 0 0 1.823-1.822 5.468Zm-195.607 58.923c-4.252 1.22-12.757 1.22-18.224 0-6.075-1.82-2.43-3.04 7.29-3.04 10.327 0 14.579 1.22 10.934 3.04Zm34.626-1.82c0 1.21-5.467 3.64-12.149 5.47-6.682 1.82-10.935.6-8.505-2.43 3.038-5.47 20.654-7.9 20.654-3.04Zm618.41 49.2c-1.82 1.83-5.47-1.21-7.29-7.29-3.65-8.5-3.04-9.11 3.04-3.64 4.25 4.25 6.07 9.11 4.25 10.93Zm10.33 15.19c1.82 3.04 1.21 6.08-2.43 6.08-3.04 0-7.9-3.04-9.72-6.08-1.83-3.64-1.22-6.07 2.43-6.07 3.03 0 7.89 2.43 9.72 6.07Zm-30.38 12.15c-2.43 3.65-1.21 10.33 2.43 14.58 4.86 5.47 4.25 7.9-2.43 7.9-4.86 0-7.29-2.43-5.46-4.86 1.21-2.43-.61-6.68-4.26-9.11-4.86-2.43-4.25-5.47 1.22-9.12 10.93-6.68 12.75-6.68 8.5.61Zm-780.602 6.08c0 3.03-1.215 6.07-2.43 6.07-1.822 0-4.86-3.04-6.682-6.07-1.822-3.65-.607-6.08 2.43-6.08 3.645 0 6.682 2.43 6.682 6.08Zm832.242 27.33c-8.51 10.33-27.95 12.15-32.81 3.65-2.43-3.04 1.22-4.26 7.9-2.43 6.08 1.82 13.37 0 15.19-3.65 2.43-3.64 7.29-6.68 10.93-6.68 4.25 0 3.65 3.64-1.21 9.11Zm-8.51 22.48c2.43 3.64 1.83 4.86-2.43 2.43-3.64-1.82-9.11.61-12.15 6.07-3.64 6.69-6.68 7.9-9.72 3.04-2.43-3.64-1.21-6.68 2.43-6.68 3.65 0 4.86-3.04 3.04-6.08-1.82-3.64.61-6.07 5.47-6.07 4.86 0 10.93 3.04 13.36 7.29Zm-40.09 19.44c0 1.21-4.86 6.07-10.33 10.32-9.72 7.9-10.32 7.29-2.43-2.43 7.9-9.71 12.76-12.75 12.76-7.89Zm24.3 24.9c0 4.86-1.22 9.12-2.43 9.12-1.22 0-3.65-4.26-6.08-9.12-1.82-4.86-.6-9.11 2.43-9.11 3.65 0 6.08 4.25 6.08 9.11Zm40.7-5.46c-1.82 1.82-7.29 2.43-11.54.6-4.86-1.82-3.04-3.64 3.64-3.64 6.68-.61 10.33 1.21 7.9 3.04Zm-72.29 46.77c-3.64 7.29-7.29 13.97-7.9 14.58-.6 1.22-1.21-6.07-1.21-15.79 0-12.15 2.43-17.01 7.9-14.58 6.68 2.43 6.68 6.07 1.21 15.79Zm1274.48 71.68c4.86 8.51-9.72 96.59-16.4 96.59-3.04 0-5.47-1.82-5.47-4.86 0-2.43-2.43-7.89-5.47-12.75-4.25-6.69-7.89-7.29-14.57-1.83-6.08 5.47-8.51 5.47-8.51-.6 0-3.65-1.82-13.37-4.25-21.27-3.65-10.32-1.82-14.57 9.72-18.83l13.97-6.07h-13.36c-18.23-.61-17.62-4.25 3.03-21.87 17.62-15.8 34.63-19.44 41.31-8.51Zm1521.12-4.25c0 1.22-9.12 5.47-19.44 9.11-18.23 6.08-18.83 5.47-8.51-2.43 10.94-8.5 27.95-12.15 27.95-6.68Zm-2782.24 21.87c0 3.04-1.21 6.08-2.43 6.08-1.82 0-4.86-3.04-6.68-6.08-1.82-3.64-.61-6.07 2.43-6.07 3.65 0 6.68 2.43 6.68 6.07Zm1245.33 106.31c0 1.21-7.9 10.93-18.23 21.26-11.54 11.54-18.22 15.19-18.22 9.72 0-4.86 7.29-14.58 15.79-21.26 16.4-12.76 20.66-15.19 20.66-9.72Zm-1180.93 73.5c0 6.69 6.68 12.76 19.44 17.01 15.79 5.47 18.22 8.51 12.15 14.58-5.47 5.47-5.47 7.29 0 7.29 4.25 0 7.29 6.08 7.29 13.37 0 10.32-1.83 11.54-5.47 5.46-3.04-4.86-8.51-6.07-12.76-3.64-4.86 3.04-6.68 1.82-4.86-3.65 1.82-4.86-4.25-15.79-12.76-24.3-17.01-16.4-22.47-35.84-9.72-35.84 4.26 0 7.29 4.26 6.69 9.72Zm1504.71 54.68c5.47 1.82 7.29 8.5 6.07 17.61-3.64 16.4 15.19 29.77 32.81 23.09 9.11-3.65 9.72-2.43 3.64 5.46-4.25 4.86-6.07 10.94-4.25 12.76 2.43 1.82 1.82 8.51-.61 14.58-6.07 13.97-7.29 17.62-8.5 29.16 0 4.86-3.65 9.11-7.29 9.11-3.65 0-5.47-4.25-3.04-9.11 2.43-7.29-1.82-7.9-25.51-4.86-15.8 1.82-33.41 6.07-38.88 9.11-13.36 6.68-39.49 0-43.74-10.93-1.82-4.86-7.9-8.51-13.97-8.51-7.29 0-4.25-4.25 9.72-12.75 22.48-13.37 21.26-21.27-2.43-15.19-9.72 2.43-13.97 6.68-11.54 10.93 2.43 4.26 1.82 4.86-2.43 2.43-3.65-2.43-15.8.61-26.73 6.08-10.94 6.07-27.95 12.75-38.27 15.18-9.72 2.43-24.91 6.69-33.41 9.12-15.19 3.64-15.19 3.64-3.04-6.08 11.54-10.32 10.93-10.32-13.37-7.9-14.57 1.83-26.12 2.43-26.12 1.22 0-5.47 67.43-38.88 92.95-45.56 15.79-4.25 30.37-10.33 32.19-12.76 1.83-3.03 6.08-5.46 10.33-5.46 3.64 0 1.21 4.25-5.47 9.11-6.07 4.86-8.5 9.11-4.25 9.11 12.76 0 38.27-11.54 38.27-17.62 0-3.64-3.64-4.86-8.5-3.03-4.86 1.82-10.33 0-13.37-4.26-2.43-4.25-1.82-6.07 1.22-3.64 3.03 1.82 20.65-1.82 38.88-7.9 34.62-12.15 53.45-14.58 68.64-8.5Zm-1487.1 21.26c-2.43 3.04-12.75 4.86-23.08 4.86-12.76-.61-15.19-1.82-7.29-3.65 6.68-1.82 14.58-5.46 17.62-8.5 6.68-6.08 17.01-.61 12.75 7.29Zm2332.7 17.61c4.86 7.9-3.03 7.9-15.18 0-7.9-4.86-7.9-6.07 1.21-6.07 5.47 0 12.15 2.43 13.97 6.07Zm63.79 82.62c0 1.22-5.47 2.43-12.76 2.43-6.68 0-10.93-2.43-8.5-6.07 3.03-4.86 21.26-1.83 21.26 3.64Zm-798.83 11.54c3.65 1.22-6.68 2.43-22.48 2.43-16.4.61-29.15-1.82-29.15-4.25 0-4.25 37.66-3.04 51.63 1.82Zm-112.38 6.69c0 5.46-38.27 41.3-46.17 43.73-20.05 5.47-26.73 10.33-46.78 34.02-24.9 29.77-34.62 51.03-34.62 74.72 0 10.33-9.11 24.3-26.73 41.92-29.16 29.76-45.56 34.02-46.78 12.75-1.82-35.23 24.91-85.65 76.55-142.75 25.51-28.55 30.98-43.74 9.11-24.3-4.86 4.25-2.43 0 6.07-9.11 9.11-10.33 18.83-15.8 25.52-14.58 5.46 1.82 15.18-.61 21.26-4.86 15.79-10.94 62.57-19.44 62.57-11.54Zm103.27 18.22c20.04 8.5 21.87 8.5 31.59-3.04 15.18-18.83 32.8-16.4 40.7 6.08 14.58 41.91-12.15 65.6-34.02 29.76-13.37-23.08-25.51-24.3-21.26-2.43 2.43 12.76-1.22 20.05-15.8 32.81-10.32 8.5-20.65 23.08-22.47 32.19-3.65 13.37-25.52 34.63-35.84 34.63-1.83 0-2.43-11.54-1.83-26.12 1.22-22.48 0-25.52-10.93-23.69-6.68 1.21-16.4 6.07-21.87 10.93-4.86 4.86-11.54 8.51-14.58 8.51-2.43 0 7.9-12.15 23.69-27.34 15.8-15.19 26.73-30.37 24.91-33.41-1.82-3.04-.61-6.68 3.04-9.11 10.32-6.69 6.68-15.19-9.12-22.48-8.5-3.65-15.18-10.94-15.18-15.8 0-6.68 5.46-7.89 29.16-4.25 15.79 2.43 38.27 7.9 49.81 12.76Zm14.58-8.51c-1.82 2.43-5.47 4.86-9.11 4.86-3.04 0-5.47-2.43-5.47-4.86 0-3.03 4.25-5.46 9.11-5.46 4.86 0 7.29 2.43 5.47 5.46Zm198.03 94.16c-.6 20.05-37.05 34.02-75.93 29.16-17.01-2.43-41.31-1.21-53.46 1.82-29.16 7.9-29.16-1.21.61-15.18 14.58-7.29 36.45-10.94 63.78-10.94 22.48 0 40.71-1.82 40.71-4.86 0-2.43 5.46-4.25 12.14-4.25 6.69 0 12.15 1.82 12.15 4.25Zm-139.71 59.54c0 4.25-48 27.94-91.13 43.73-58.92 22.48-83.83 27.34-97.19 20.05-15.8-8.5-15.8-18.22 0-18.22 6.68 0 12.15 3.64 12.15 7.29 0 6.07 1.21 6.07 4.86.6 2.43-4.25 20.65-15.79 40.7-25.51 29.16-15.19 40.7-17.62 63.78-15.19 19.44 2.43 24.91 1.83 18.83-2.43-6.68-4.86-4.25-6.68 12.15-9.11 11.55-1.21 24.3-3.04 28.56-3.04 3.64-.6 7.29 0 7.29 1.83Zm-154.91 33.41c-1.82 3.03-9.11 6.07-15.8 6.07-6.07 0-11.54-3.04-11.54-6.07 0-3.65 7.29-6.08 15.8-6.08 8.5 0 13.97 2.43 11.54 6.08Zm170.09 219.3c6.68 10.32-.61 12.75-9.11 2.43-4.86-5.47-4.86-9.12-1.22-9.12 3.65 0 8.51 3.04 10.33 6.69Zm0 102.66c1.82 3.64-.61 4.25-5.47 2.43-10.93-4.25-12.75-8.51-4.25-8.51 3.65 0 7.9 2.43 9.72 6.08Zm-716.82 303.74c1.83 3.03-.6 6.07-6.07 6.07-5.47 0-7.9-3.04-6.08-6.07 1.83-3.65 4.86-6.08 6.08-6.08 1.21 0 4.25 2.43 6.07 6.08Zm68.65 986.53c6.07 13.98 5.46 14.58-14.58 13.98-17.62-1.22-19.44-2.43-10.94-8.51 9.72-7.29 9.72-7.9.61-11.54-6.07-1.82-10.33-9.11-10.33-15.19 0-10.93 1.22-10.93 13.98-2.43 7.89 4.86 17.61 15.8 21.26 23.69Z"/>
  <path fill="#FC0" d="M3370.56 349.927c-16.4 3.037-41.31 6.075-54.68 6.682-13.36 1.215-35.23 5.467-47.99 9.72-18.83 6.682-21.87 9.112-13.97 13.972 14.58 7.897 5.47 23.084-14.58 23.084-9.72 0-17.61-3.038-17.61-6.075 0-7.897-21.87-7.897-37.06 0-15.19 8.505-8.5 21.261 19.44 35.233 15.19 7.29 20.65 13.972 20.05 24.299-.61 16.402.6 16.402 75.32.608 30.98-6.075 42.53-12.15 65-34.019 15.19-13.972 27.34-31.588 27.34-38.271 0-6.682 4.25-12.149 9.11-12.149 9.72 0 10.33-3.645 4.25-18.224-3.64-7.897-9.72-8.505-34.62-4.86Zm9.11 41.916c7.9 5.467 7.9 6.074-1.22 3.644-5.46-1.822-10.93-.607-12.75 3.645-1.22 3.645-3.65 2.43-6.08-3.645-4.25-11.542 6.08-13.971 20.05-3.644ZM678.233 1061.89c-17.009 7.29-33.411 15.19-35.841 17.62-2.429 2.43-10.327 4.25-17.616 4.25-7.897 0-17.01 4.25-21.262 9.11-4.252 4.86-9.719 7.9-12.149 6.08-7.898-4.86-42.524 9.72-48.598 20.65-8.505 16.4 1.822 27.34 21.869 21.87 9.719-3.04 21.869-5.47 26.729-6.68 4.859-1.22 13.972-4.25 21.261-7.9 6.682-3.64 22.477-10.33 35.234-15.18 19.439-7.9 25.514-15.8 23.691-34.02 0-1.83 9.112-2.43 20.654-1.22 18.832 2.43 20.654 1.22 20.654-13.36 0-8.51-.607-15.8-1.214-15.19-1.215 0-15.795 6.68-33.412 13.97Zm1936.017 1820.6c-8.51 2.43-27.95 7.9-43.74 12.15-15.8 3.65-33.41 12.15-38.88 18.23-5.47 6.68-14.58 11.54-20.05 11.54-8.5 0-8.5 1.21-.6 6.07 7.89 4.86 6.68 6.68-4.26 9.72-18.22 4.86-17.61 12.15.61 15.8 8.51 1.82 20.66-1.83 28.55-7.9 7.9-6.08 18.83-11.54 24.3-11.54 5.47 0 15.8-5.47 23.69-12.15 9.72-8.51 21.87-12.15 38.88-11.54 13.97.6 20.05 1.82 14.58 3.64-6.07 1.22-10.93 4.86-10.93 7.9 0 5.47 37.66 18.22 54.67 18.22 4.86 0 23.08 6.68 39.48 15.19 18.23 8.5 35.85 13.36 44.35 10.93 10.93-2.43 13.36-.6 13.36 12.15 0 7.9 4.26 18.23 9.12 22.48 4.86 4.25 9.11 10.93 9.11 15.19 0 4.25 4.25 10.93 9.11 15.18 5.47 4.26 8.51 11.55 6.68 15.8-4.25 10.32 123.93 7.29 151.26-3.04l17.62-7.29-17.62-14.58c-10.32-7.9-25.51-14.58-34.01-15.19-10.94 0-15.8-3.03-15.19-9.72.61-6.68-7.9-12.75-25.52-17.61-25.51-7.9-61.96-38.27-61.96-52.85 0-3.65-1.82-5.47-3.64-3.04-2.43 1.82-7.9 0-12.76-4.86-10.33-10.93-28.55-12.15-22.48-1.82 3.04 4.86 1.22 5.47-6.07 3.04-6.08-2.43-14.58-4.26-19.44-4.26-4.86 0-7.9-3.03-6.68-7.29 3.64-18.22-104.49-40.09-141.54-28.55Zm221.72 139.11c2.43 3.65-4.25 6.08-14.57 6.08-10.33 0-18.84-3.04-18.84-6.08 0-3.64 6.69-6.07 14.58-6.07 8.51 0 17.01 2.43 18.83 6.07Zm180.43 30.37c-20.04 9.72-20.65 18.23 0 18.23 7.9 0 10.94 4.86 10.94 17 0 9.12 3.04 20.05 7.29 24.3 11.54 11.55-10.94 15.8-47.99 9.12-29.16-5.47-33.41-4.86-38.27 4.86-4.86 8.5-2.43 12.75 13.36 20.04 20.66 10.33 31.59 12.76 26.73 4.86-1.21-2.43 13.36-4.86 33.41-4.25 33.41 0 38.27 1.82 49.21 17.01l12.15 17.01 15.18-21.26c14.58-21.87 23.09-26.73 27.34-15.8 1.21 3.65 8.5 2.43 18.83-3.03 17.62-9.12 54.67-7.29 57.71 3.03 1.22 3.04 6.68 6.08 12.15 6.08 4.86 0 7.29-1.83 5.47-4.26-2.43-1.82.61-7.28 6.68-11.54 9.72-7.29 8.5-9.72-12.15-29.76-12.15-11.55-27.94-21.26-34.63-21.26-7.29 0-12.75-3.65-12.75-8.51 0-12.15-49.82-24.3-82.62-18.83-20.05 3.04-30.37 1.82-37.66-4.86-9.11-7.29-13.37-6.68-30.38 1.82Z"/>
</svg>
