<svg xmlns="http://www.w3.org/2000/svg" width="46" height="32" fill="none" viewBox="0 0 46 32">
  <path fill="#ACBFC3" d="M9.433 32h-5.37a.17.17 0 0 1-.171-.17v-.095a.17.17 0 0 1 .17-.17h5.37a.17.17 0 0 1 .172.17v.094a.17.17 0 0 1-.171.171Zm34.027 0h-1.47a.17.17 0 0 1-.17-.17v-.095a.17.17 0 0 1 .17-.17h1.47a.17.17 0 0 1 .17.17v.094a.17.17 0 0 1-.17.171Zm-23.922 0h-5.37a.17.17 0 0 1-.17-.17v-.095a.17.17 0 0 1 .17-.17h5.37a.17.17 0 0 1 .171.17v.094a.17.17 0 0 1-.17.171Zm7.886 0h-5.37a.17.17 0 0 1-.171-.17v-.095a.17.17 0 0 1 .17-.17h5.37a.17.17 0 0 1 .171.17v.094a.17.17 0 0 1-.17.171Zm9.656 0h-7.32a.17.17 0 0 1-.17-.17v-.095a.17.17 0 0 1 .17-.17h7.32a.17.17 0 0 1 .171.17v.094a.17.17 0 0 1-.17.171Z"/>
  <path fill="#1B3540" d="M11.233 7.61s-.568-.387-1.397-.09c-.83.298-1.016 1.415-.812 2.322.205.906-.937 4.002-.937 4.002s.593.834 2.668.515c0 0 1.547-2.811 1.432-4.83-.115-2.018-.954-1.92-.954-1.92"/>
  <path fill="#EF5640" d="M11.888 11.097c.78-.25 1.256.4 1.703 1.608.447 1.208.597 1.33.597 1.33l1.724 1.107-.143.646s-1.641-.643-2.038-1.052c-.396-.408-1.538-2.479-1.538-2.479l-.305-1.16"/>
  <path fill="#F57559" d="M8.087 18.902s-.338 1.713-.282 4.292c0 0-1.333 1.966-.233 7.574h.577s.472-4.771.832-6.064c.36-1.293 1.693-1.69 1.765-5.621l-2.659-.18M5.45 23.94c-.335-1.105-1.197-2.956-3.408-5.465 0 0-.132-.068-.31.041-.188.115-.188.25-.188.25s1.109 2.416 1.816 4.187c.238.596.813.987 1.455.987h.635Z"/>
  <path fill="#203E50" d="M9.475 26.077s.008.824-.533.838c-.764.02-.792-.811-1.658-.784-.865.027-2.65.243-3.219-1.11-.293-.698.108-1.595-.838-2.271-.947-.677-.487-1.434 0-1.84.487-.405-.21-.848.297-1.055a.496.496 0 0 1 .35-.006.814.814 0 0 1 .185.093c.268.178.456.489.456.489 1.434-3.927 3.986-4.445 3.986-4.445l2.525.87c.06 6.11-1.55 9.22-1.55 9.22Z"/>
  <path fill="#D2DADC" d="M11.887 11.097s-.588.198-1.426.071-1.11-.653-1.699-.314c-.884.508-.47 2.257-.248 3.167.082.339.187 1.23-.012 1.965 0 0 1.177.916 2.524.87l.735-1.598s1.598-1.913.127-4.161Z"/>
  <path fill="#EF5640" d="M10.392 9.63s.098.827-.208 1.58c0 0 .437.645.854.22 0 0 .038-.758.506-1.616.314-.575-1.152-.185-1.152-.185"/>
  <path fill="#F57559" d="M9.722 9.657s-.369-.233-.327.127c.048.417.455.498.498.352.043-.145-.171-.479-.171-.479m2.115-.451s.234-.368.35-.025c.134.398-.2.645-.3.531-.102-.113-.05-.506-.05-.506"/>
  <path fill="#F57559" d="M11.076 10.904c-.669.15-1.144-.203-1.437-1.513-.152-.676.1-1.167.848-1.335.75-.168 1.157.176 1.309.852.315 1.408-.03 1.84-.72 1.996Z"/>
  <path fill="#DC4B44" d="M11.679 9.425c.027.064-.017.144-.098.177-.08.034-.168.009-.195-.056-.026-.065.017-.144.098-.178.08-.033.168-.008.195.057Zm-1.367.345c.01.069-.05.135-.137.149-.086.013-.165-.032-.176-.1-.01-.07.05-.137.137-.15.086-.014.165.031.176.1Z"/>
  <path fill="#1B3540" d="M11.213 8.814a.034.034 0 0 1-.019-.005c-.114-.077-.276-.036-.278-.036a.034.034 0 0 1-.017-.066c.008-.002.194-.048.333.045a.034.034 0 0 1-.019.062m-1.259.282a.034.034 0 0 1-.03-.052c.088-.143.275-.18.283-.182a.035.035 0 0 1 .04.027.034.034 0 0 1-.027.04c-.001 0-.166.034-.236.15a.034.034 0 0 1-.03.017Z"/>
  <path fill="#22434D" d="M11.243 9.181c.018.083-.004.16-.05.17-.046.01-.099-.05-.117-.132-.02-.083.003-.159.05-.17.046-.01.098.05.117.132m-.93.2c.02.083-.003.159-.05.17-.046.01-.098-.05-.117-.132-.018-.083.004-.159.05-.17.046-.01.099.05.117.132Zm.301.787s.43-.035.619-.195c0 0-.052.335-.286.359-.234.023-.333-.164-.333-.164"/>
  <path fill="#22434D" d="M11.008 9.19s.016-.218.1-.221c.083-.003.183.158.183.158l.105-.09-.116.043s-.102-.17-.182-.152c-.113.025-.09.262-.09.262Zm-.643.17s-.107-.19-.184-.157c-.077.032-.099.221-.099.221l-.132-.036.122-.011s.02-.197.1-.215c.113-.026.193.199.193.199"/>
  <path fill="#DC4B44" d="m10.83 9.78-.034-.065c.056-.03.06-.069.055-.097-.009-.04-.04-.07-.064-.073-.013 0-.025.011-.034.035l-.069-.026c.03-.08.086-.084.109-.082.058.004.116.062.13.131.015.073-.02.139-.092.177"/>
  <path fill="#1B3540" d="M9.775 9.893s-.206-.758-.084-1.295c0 0 .582-.81 1.705-.41 0 0 .333.537.498 1.287 0 0 .041-.27-.07-.87-.112-.6-.645-.973-1.375-.853s-1.512.847-.674 2.141"/>
  <path fill="#1B3540" d="M10.952 8.02s.045.198-.148.708c0 0-.139-.145-.3 0-.163.145-.493.096-.605.175-.113.078-.113.257-.113.257s-.097-.223 0-.49c0 0-.219.278-.19.622 0 0-.297-.048-.283-.538.013-.49.71-1.282 1.491-1.231.781.051.967 1.288.967 1.288s-.071-.056-.183-.03c0 0-.017-.263-.192-.593 0 0 .08.238 0 .495 0 0-.218-.114-.39-.078 0 0 .106-.207-.054-.585"/>
  <path fill="#F57559" d="M8.564 11.01c.38-.3.676.081.748.609.073.527-.614 3.638-1.145 3.523-.204-.044-.288-.86-.288-.86s.208-.874.342-2.19c.061-.605.144-.926.343-1.082"/>
  <path fill="#F57559" d="M7.458 14.702c-.512-.488-1.43-2.106-1.663-2.93l.388-.156s1.17 1.673 1.703 2.095c.533.422.72.892.483 1.294-.238.402-.804-.2-.911-.303"/>
  <path fill="#F57559" d="M5.954 10.692c-.027.53.405.655.213 1.061a.278.278 0 0 1-.162.15.328.328 0 0 1-.338-.086 3.748 3.748 0 0 0-.69-.523c-.193-.111-.084-.141-.084-.141l-.055-.024c-.137-.057-.246-.079-.147-.14.112-.069.508.076.508.076-.516-.343-.655-.26-.561-.333.128-.1.618.13.633.137-.273-.257-.47-.316-.362-.354.11-.04.648.35.845.497a1.8 1.8 0 0 1 .071.054c-.007-.433.13-.374.13-.374"/>
  <path fill="#EF5640" d="M5.754 11.012c.044.032.071.054.071.054s-.092.155.027.356c0 0-.219-.144-.098-.41Zm-.452.304c-.046-.026-.306-.172-.409-.163a.999.999 0 0 0-.055-.024c.07-.091.412.149.464.187Z"/>
  <path fill="#6196B4" d="M7.345 19.168a.104.104 0 1 1-.208 0 .104.104 0 0 1 .208 0Zm1.855.716a.104.104 0 1 1-.207 0 .104.104 0 0 1 .208 0Zm1.582.384a.104.104 0 1 1-.208 0 .104.104 0 0 1 .208 0Zm-2.43-2.458a.104.104 0 1 1-.208 0 .104.104 0 0 1 .208 0Zm.351.988a.104.104 0 1 1-.208 0 .104.104 0 0 1 .208 0Zm1.645.564a.104.104 0 1 1-.208 0 .104.104 0 0 1 .208 0Zm.226-1.705a.104.104 0 1 1-.208 0 .104.104 0 0 1 .208 0Zm-1.078-.355a.104.104 0 1 1-.208 0 .104.104 0 0 1 .208 0Zm-3.071 3.895a.104.104 0 1 1-.208 0 .104.104 0 0 1 .208 0Zm-1.483-.442a.104.104 0 1 1-.208 0 .104.104 0 0 1 .208 0m-.883-.813a.104.104 0 0 1-.088.046.104.104 0 0 1-.104-.104c0-.013.002-.025.008-.035a.813.813 0 0 1 .184.093m2.897 2.612a.104.104 0 1 1-.208 0 .104.104 0 0 1 .208 0Zm-2.661 1.474a.104.104 0 1 1-.208 0 .104.104 0 0 1 .208 0Zm1.087-.894a.104.104 0 1 1-.208 0 .104.104 0 0 1 .208 0Zm-1.619-.791a.104.104 0 1 1-.208 0 .104.104 0 0 1 .208 0Zm1.307 3.114a.104.104 0 1 1-.208 0 .104.104 0 0 1 .208 0Zm.99-5.469a.104.104 0 1 1-.208 0 .104.104 0 0 1 .208 0Zm1-1.752a.104.104 0 1 1-.208 0 .104.104 0 0 1 .208 0Zm1.13-1.458a.104.104 0 1 1-.207 0 .104.104 0 0 1 .208 0Zm-2.291 2.124a.104.104 0 1 1-.208 0 .104.104 0 0 1 .208 0Zm1.265-1.704a.104.104 0 1 1-.208 0 .104.104 0 0 1 .208 0Zm-1.99 4.683a.104.104 0 1 1-.208 0 .104.104 0 0 1 .208 0Zm-1.307-.918a.104.104 0 1 1-.208 0 .104.104 0 0 1 .208 0Zm3.79-.313a.104.104 0 1 1-.208 0 .104.104 0 0 1 .208 0Zm2.151.547a.104.104 0 1 1-.208 0 .104.104 0 0 1 .208 0Zm-.104-2.961a.104.104 0 1 1-.208 0 .104.104 0 0 1 .208 0Zm1.25.218a.104.104 0 1 1-.208 0 .104.104 0 0 1 .208 0Zm-2.498 3.532a.104.104 0 1 1-.208 0 .104.104 0 0 1 .208 0Zm-.903 1.85a.104.104 0 1 1-.208 0 .104.104 0 0 1 .208 0Zm-1.597.296a.104.104 0 1 1-.208 0 .104.104 0 0 1 .208 0Zm4.392-1.578a.104.104 0 1 1-.208 0 .104.104 0 0 1 .208 0Zm-1.438.788a.104.104 0 1 1-.207 0 .104.104 0 0 1 .208 0Zm-2.162 2.323a.104.104 0 1 1-.208 0 .104.104 0 0 1 .208 0Zm1.604-.542a.104.104 0 1 1-.208 0 .104.104 0 0 1 .208 0Zm1.546-.613a.104.104 0 1 1-.208 0 .104.104 0 0 1 .208 0ZM9.2 26.3a.104.104 0 1 1-.207 0 .104.104 0 0 1 .208 0Z"/>
  <path fill="#203E50" d="M9.087 31.778H7.378c-.111-.318.094-.637.06-.918-.06-.474.216-.212.216-.212.049-.51.765-.606.758-.378-.012.334.053.54.148.679.192.278.508.276.563.475.005.02.01.039.012.056.053.25-.048.298-.048.298"/>
  <path fill="#284D5E" d="M9.135 31.48c-.353.083-1.17-.025-1.202-.23-.031-.2.408-.292.627-.301.192.278.508.276.562.475a.49.49 0 0 1 .013.056"/>
  <path fill="#203E50" d="M2.063 18.544c-.181-.166-.477.108-.477.108s.16.236.057.33c-.103.096-.222-.121-.425-.026a.38.38 0 0 0-.05.028c-.157.094-.322.292-.455.443l-.077.083c-.154.162-.554.257-.628-.175-.075-.433.412-.94.946-1.407.535-.466.88-.19.88-.19s.121.197.121.319c0 .12.108.182.169.297.06.115-.06.19-.06.19"/>
  <path fill="#284D5E" d="M1.169 18.984c-.158.094-.323.292-.456.442-.2.048-.38.034-.408-.154-.068-.455.839-1.032.766-.713-.037.16.026.313.098.425Z"/>
  <path fill="#D2DADC" d="M32.806 31.039c-.084-.044-.162-.142-.231-.265 0 0-.06-.363 0-.745.06-.383-.107-.695-.648-.812-.526-.114-.838.14-.716 1.197-.08.44-.097.941.086 1.364h1.619s.255-.547-.11-.739"/>
  <path fill="#F57559" d="M34.227 25.34s0 1.055-.596 2.137c-.606 1.102-1.355 2.614-1.355 2.614s-.499.487-.816-.32c0 0 .224-2.808.738-3.836s2.029-.595 2.029-.595m7.763-3.436s.964 4.056 1.578 5.125c0 0-.141.448-.806.583 0 0-2.098-3.084-2.233-4.382-.135-1.299 1.461-1.326 1.461-1.326Z"/>
  <path fill="#872B39" d="M42.456 22.858c-.256.617-2.237.651-2.237.651l-.152-.223-.04-.058-.31-.457s-3.282-3.22-3.922-2.95a.307.307 0 0 0-.055.032c-.439.314-.48 2.033-1 4.919a5.1 5.1 0 0 1-.243.813l-.027.069c-.048.122-.081.2-.081.2-2.004.811-2.665-.792-2.665-.792s.024-.047.058-.121l.025-.054c.105-.232.273-.634.27-.846l-.005-.672v-.056a140.77 140.77 0 0 1 .001-1.82v-.055c.002-.228.006-.441.01-.64v-.057c.017-.912.047-1.521.078-1.927l.004-.055c.056-.683.114-.75.114-.75l-.402-2.79h4.38a279.242 279.242 0 0 0 2.583 2.626l.395.408.048.05c.44.455.865.904 1.23 1.297l.037.039c.499.54.878.971 1.01 1.172.347.532.617 1.223.767 1.65v.002l.02.055c.07.208.11.34.11.34"/>
  <path fill="#61242F" d="M32.934 18.427c-.178.21-.438.34-.773.387l.004-.055c.316-.045.56-.169.728-.368.301-.355.252-.834.251-.838l.055-.007c.002.02.052.508-.264.88Zm4.888-1.627-.05.003c-.488 0-.996-.533-1.022-.56l.039-.038c.006.008.513.538.98.543l.053.052Zm-3.325 8.785-.027.069a2.58 2.58 0 0 1-.894.167c-.865 0-1.465-.5-1.794-.88l.025-.054c.421.493 1.32 1.221 2.69.698m1.176-6.769c.073.31.12.65.121 1.006a.294.294 0 0 0-.054.03c-.002-1.633-.948-2.908-.959-2.922l.044-.032c.008.01.569.768.834 1.862a.496.496 0 0 0 .216-.31c.137-.574-.483-1.511-.489-1.52l.045-.031c.026.04.638.966.498 1.562a.55.55 0 0 1-.256.355m4.877.823a9.116 9.116 0 0 1-.327.337l-.03.03-.013-.04c-.212-.555-1.576-1.758-1.59-1.77l-.016-.015.227-.376.04.04-.191.316c.265.092.453.108.585.092l.048.05a.852.852 0 0 1-.142.011 1.49 1.49 0 0 1-.419-.072c.31.279 1.272 1.17 1.492 1.667.086-.084.194-.196.3-.31l.036.04m-7.481 3.721-.022.004c-.02.005-.266.056-.548.056-.142 0-.292-.013-.427-.05l-.001-.057c.357.103.834.024.943.003l-.091-2.251a.731.731 0 0 1-.34.385.658.658 0 0 1-.301.067.962.962 0 0 1-.209-.024v-.055c.187.043.35.031.485-.037.23-.113.32-.357.348-.453-.18.027-.545-.065-.823-.15v-.057c.3.091.705.196.852.145l.034-.012.1 2.486m9.278-.842c-.315.31-.96.785-1.952.785-.105 0-.214-.005-.328-.017l-.04-.058c1.207.138 1.963-.428 2.3-.765l.02.055Z"/>
  <path fill="#CF2548" d="M37.067 3.355s-.12-.278-.63-.278c-.391 0-.54.217-.54.217-.235.685-.487 3.309-.578 3.402-.045.048-2.952 2.005-2.952 2.005 1.577.03 2.562 1.974 2.562 1.974.05-.639 1.832-3.17 1.851-3.396.036-.426.79-2.328.287-3.924M32.02 17.074s-.014.547.163.584c.177.036 1.62.462 3.279-.292 1.659-.754 1.947-1.314 1.46-1.728-.486-.415-4.902 1.436-4.902 1.436Z"/>
  <path fill="#EF294D" d="M31.356 9.08s-1.51-.179-2.375.196c0 0-.242 1.071.947 3.469 1.19 2.397.914 3.907 2.255 4.475 1.189.504 4.694-.995 4.804-1.493.278-1.252-1.866-3.449-2.001-4.722-.136-1.273-1.38-3.187-3.63-1.925"/>
  <path fill="#CF2548" d="M28.98 9.276c-1.054.375-2.241 1.559-2.243 2.13-.002.57.99.79.99.79l1.626-.79s.465-.325.169-1.271c-.296-.946-.541-.86-.541-.86Z"/>
  <path fill="#D2DADC" d="M33.315 10.332c-.315 0-.706-.114-.949-.287-.134-.096-.214-.203-.23-.311-.06-.375.304-.566.32-.573l.05.096c-.014.006-.311.163-.264.46.013.079.077.161.187.24.272.194.742.307 1.049.253.138-.024.228-.074.268-.147.05-.09.007-.192.007-.193l.1-.043a.351.351 0 0 1-.011.286c-.056.105-.173.173-.346.204-.056.01-.117.014-.18.014m-1.339 1.142c-.233 0-.62-.097-.675-.48a1.873 1.873 0 0 1 .006-.501c.023-.212.041-.379-.082-.579-.203-.33-.48-.352-.491-.353l.006-.108c.014.001.343.024.577.405.143.231.12.433.098.646a1.782 1.782 0 0 0-.007.474c.059.414.586.388.608.387l.007.108a.76.76 0 0 1-.047.001"/>
  <path fill="#CF2548" d="M32.306 9.531s.798-.543.609-1.132c-.19-.588-2.76-.547-3.422.156-.663.703 1.433 1.17 1.433 1.17.163-.327 1.2-.363 1.38-.194"/>
  <path fill="#9F2240" d="M30.871 9.44c-.378-.13-.603-.403-.522-.718.081-.316 1.71-.324 2.018-.072.309.252-.126 1.254-1.496.79Z"/>
  <path fill="#EF5640" d="M30.69 8.552s.336.573.181.887c0 0 1.15.397 1.15-.246 0 0-.217-.482-.136-.794l-1.194.153"/>
  <path fill="#F9AD63" d="M30.308 8.052s-.565-.904-.513-1.768c.027-.432.249-.6.249-.6s-.18-.25.013-.631c0 0 .266.308 1.199.21.9-.093.99.549.99.549.643.095.21 2.042-.24 2.24h-1.698Z"/>
  <path fill="#F57559" d="M30.068 7.217s-.324-.324-.364.055c-.047.439.352.615.43.476.078-.14-.066-.53-.066-.53Zm2.272.023s.325-.324.365.055c.047.439-.352.615-.43.476-.078-.14.066-.53.066-.53Z"/>
  <path fill="#F57559" d="M31.17 8.806c-.72 0-1.126-.47-1.126-1.88 0-.729.37-1.175 1.177-1.175.806 0 1.146.446 1.146 1.174 0 1.516-.453 1.881-1.197 1.881Z"/>
  <path fill="#DC4B44" d="M32.129 7.428c.012.073-.051.144-.142.16-.09.016-.174-.03-.186-.103-.013-.072.05-.143.14-.16.091-.015.175.03.188.103Zm-1.482.04c-.005.073-.083.128-.174.122-.092-.006-.163-.07-.158-.144.005-.073.083-.128.175-.122.092.006.162.07.157.144"/>
  <path fill="#F9AD63" d="M31.811 6.672a.037.037 0 0 1-.027-.007c-.115-.088-.287-.057-.29-.057a.036.036 0 0 1-.041-.028.036.036 0 0 1 .028-.042c.008-.002.207-.038.347.07a.036.036 0 0 1-.017.064m-1.378.005a.036.036 0 0 1-.018-.064c.136-.111.336-.082.344-.08.02.003.033.02.03.04a.037.037 0 0 1-.042.03s-.176-.025-.287.066a.036.036 0 0 1-.027.008"/>
  <path fill="#22434D" d="M31.737 7.078c0 .09-.04.162-.09.162-.05 0-.09-.072-.09-.162 0-.09.04-.162.09-.162.05 0 .09.073.09.162Zm-.962 0c0 .09-.04.162-.09.162-.05 0-.09-.072-.09-.162 0-.09.04-.162.09-.162.05 0 .09.073.09.162Z"/>
  <path fill="#F9AD63" d="M30.265 5.907s.767.281 1.867.202c0 0 .235.293.207 1.324 0 0 .644-1.858-1.237-1.858-1.88 0-1.034 1.817-1.034 1.817s-.153-1.137.197-1.485"/>
  <path fill="#DC4B44" d="m31.216 7.56-.054-.055.142-.142c-.138-.195-.137-.647-.137-.667h.077c0 .005-.001.492.14.644l.025.028-.193.191"/>
  <path fill="#22434D" d="M30.738 7.795s.709.03 1.067-.065c0 0 .063.515-.486.54-.581.028-.581-.475-.581-.475"/>
  <path fill="#D2DADC" d="M33.767 9.743c.135-.025.121.33 0 .227-.122-.103-.136-.202 0-.227Zm-1.631 1.716c-.021.136-.351.007-.214-.075.137-.081.234-.062.213.075Z"/>
  <path fill="#EF5640" d="M30.684 12.197s-.215.55-.203.862c.012.311.114.27.114.27s-.163.064-.194.244c-.03.18.422.31.454.31.03 0 .35-.12.35-.12l.067-1.019-.282-.177-.306-.37"/>
  <path fill="#F57559" d="M30.855 12.126s.39.243.542.392c.152.149.065 1.298 0 1.352-.065.055-.563.166-.659.104-.096-.063.037-.401.037-.401s.25-.054.215.04a.248.248 0 0 0 0 .176l.102-.04s-.05-.257 0-.447c.05-.189-.352-.389-.401-.735-.049-.347.164-.441.164-.441"/>
  <path fill="#CF2548" d="M26.802 11.566c-.125-.541.411-.732 1.158-.64.865.107 2.643.333 3.03 1.27 0 0 .126.37-.2.548-.914.497-3.753-.163-3.988-1.178Z"/>
  <path fill="#9F2240" d="M29.51 11.207s-1.032-.428-1.546-.472c-.514-.043.71.406 1.546.472Z"/>
  <path fill="#F57559" d="M37.243 1.92c-.078.088-.207.433-.207.433-.054.29-.085.45-.187.584-.1.133-.047.368-.047.368s-.394.202-.725-.048c0 0 .034-.233 0-.299-.068-.132-.287-.202-.362-.468-.074-.267-.298-.565-.298-.565s.064-.139.18-.054c.118.085.193.299.257.32a.174.174 0 0 0 .039.009h.003c.049.007.098-.003.129-.033a.021.021 0 0 0 .007-.006c.108-.125.132-.49.128-.654-.006-.227.002-.54.14-.488.14.053.013.18.12.68l.052.007c.01.036.105-.304.127-.623.017-.22.16-.138.192-.07.032.07-.016.289-.026.448l-.022.279.06.033c.22-.38.145-.538.272-.546.127-.007.081.314.013.436a1.224 1.224 0 0 0-.08.272c.224-.259.2-.394.302-.378.106.017.011.274-.067.363Z"/>
  <path fill="#EF5640" d="M36.276 2.516c-.076-.21-.346-.304-.38-.315.049.006.099-.005.129-.034.265.12.25.349.25.349"/>
  <path fill="#D2DADC" d="M31.576 30.19s-.15-.305-.017-.436c.134-.131.29.112.519.058.228-.054.28-.216.34.005.06.22-.013.915-.842.374"/>
  <path fill="#ACBFC3" d="M32.434 30.177s-.613.217-.93 0l.08.265s.666.07.758-.097l.092-.168Zm-.008.33s-.561-.078-.832.061v.131s.731-.17.968 0l-.136-.192"/>
  <path fill="#ACBFC3" d="M31.567 30.972s.11-.265.45-.284a.89.89 0 0 1 .572.17s-.541-.224-1.022.114"/>
  <path fill="#D2DADC" d="M46 27.29c-1.077 1.438-2.542 1.713-2.542 1.713-.425-.34-.436-.742-.436-.742s-.41-.365-.464-.54c-.054-.176.352-.704.595-.65a.49.49 0 0 1 .31.25c-.202-.453-.04-.611.245-.572.298.04.017.11.23.35a.29.29 0 0 0 .05.043.353.353 0 0 0 .139.056.847.847 0 0 0 .24-.001c.054-.01.11-.023.169-.041a1.54 1.54 0 0 0 .274-.118c.372-.204.529-.273.812-.2.283.07.278.285.278.285l.1.168Z"/>
  <path fill="#ACBFC3" d="M46 27.29c-1.077 1.438-2.542 1.713-2.542 1.713.748-.32 1.435-.742 1.905-1.26.468-.518.637-.452.637-.452m-2.011-.149a.352.352 0 0 0 .138.056c-.285.057-.305.311-.305.311l-.121-.039c.026-.305.267-.326.288-.328"/>
  <path fill="#ACBFC3" d="m44.18 27.54-.127.004c-.047-.18.015-.287.074-.346.046.008.098.01.153.007-.15.149-.1.335-.1.335Zm.313-.07-.126.017c-.049-.128-.034-.223 0-.29.054-.009.11-.023.169-.041-.104.154-.043.314-.043.314"/>
  <path fill="#CF2548" d="M32.445 14.127s.278 1.5-.284 2.097c-.562.598-.19.107-.023-.663.168-.77.04-1.582.307-1.434Zm2.593-.669s.886.291 1.35 1.11c0 0-.62-1.333-1.35-1.11Z"/>
  <path fill="#F57559" d="M12.033 2.318c.119.002.46.138.46.138.252.155.392.239.559.253.166.014.234.3.234.3s.655.143.693-.27c0 0-.367-.518-.393-.588-.052-.14.043-.349-.104-.583-.148-.234-.218-.6-.218-.6s-.146-.046-.162.097c-.016.145.092.344.065.405a.166.166 0 0 1-.02.035v.003c-.029.04-.07.07-.112.073a.02.02 0 0 1-.01.001c-.164-.004-.452-.23-.57-.344-.164-.157-.402-.361-.456-.223-.054.138.125.13.425.545l-.03.043c.02.031-.296-.126-.548-.324-.174-.135-.21.026-.18.096s.224.18.348.28l.222.172-.016.067c-.429-.094-.496-.255-.587-.165-.09.088.178.27.314.302.06.014.16.067.255.123-.342-.008-.425-.117-.482-.03-.059.09.195.192.313.194"/>
  <path fill="#EF5640" d="M13.125 2.001c-.104-.196.007-.46.021-.493-.028.04-.069.07-.111.073-.09.277.09.42.09.42Z"/>
  <path fill="#F57559" d="M31.316 2.318c-.118.002-.46.138-.46.138-.252.155-.392.239-.558.253-.167.014-.235.3-.235.3s-.655.143-.692-.27c0 0 .366-.518.392-.588.052-.14-.043-.349.105-.583.148-.234.218-.6.218-.6s.145-.046.161.097c.016.145-.092.344-.065.405a.162.162 0 0 0 .02.035v.003c.029.04.07.07.112.073a.02.02 0 0 0 .01.001c.164-.004.452-.23.57-.344.164-.157.403-.361.456-.223.054.138-.125.13-.424.545l.03.043c-.02.031.296-.126.547-.324.174-.135.21.026.18.096s-.224.18-.348.28l-.222.172.016.067c.43-.094.496-.255.587-.165.091.088-.178.27-.314.302a1.21 1.21 0 0 0-.255.123c.342-.008.426-.117.483-.03.058.09-.196.192-.314.194"/>
  <path fill="#EF5640" d="M30.224 2.001c.104-.196-.007-.46-.021-.493.028.04.07.07.111.073.09.277-.09.42-.09.42"/>
  <path fill="#1B3540" d="m25.556 22.184-1.259-7.796-2.52.282-2.522-.282-1.259 7.796-.604 7.56s.192.627 1.45.194c0 0 .932-7.012 1.077-7.167.144-.154 1.626-4.735 1.626-4.735h.463s1.482 4.58 1.626 4.735c.144.155 1.077 7.167 1.077 7.167 1.258.433 1.45-.193 1.45-.193l-.605-7.561Z"/>
  <path fill="#1F436B" d="M20.982 6.84c.16.154.943.434 1.356 0l.281.275s-.32.752-.881.778c-.561.026-.967-.67-.967-.67l.211-.384m2.218-.085c.939-.404 3.968-1.477 3.968-1.477s2.037-2.551 2.452-2.93c0 0 .451.081.583.642 0 0-1.311 2.808-2.024 3.612-.713.804-4.324 2.543-4.324 2.543l-.654-2.39Z"/>
  <path fill="#F9AD63" d="M19.919 6.696c.279-.176 1.68.76 1.68.76s1.82-.966 2.247-.779c0 0 .386.515.54 1.84.155 1.325.165 6.777.165 6.777s-1.224.433-2.88.433c-1.888 0-2.903-.541-2.903-.541s-.337-7.549 1.15-8.49Z"/>
  <path fill="#EF5640" d="M21.056 6.555s.202.634 0 .878c0 0 .21.44.586.46.435.022.586-.46.586-.46s-.23-.612 0-.828l-1.172-.05Z"/>
  <path fill="#872B39" d="M20.553 5.93s-.424-.817-.34-1.69c.084-.873 1.4-1.073 2.286-.644 0 0-.263-.257-.16-.329.103-.071.28.386.28.386s.28-.085.323 0c.043.086-.287.133-.287.133s.572.317.038 2.006l-2.14.138Z"/>
  <path fill="#F57559" d="M20.49 5.413s-.317-.316-.356.053c-.045.428.343.6.42.464.075-.136-.065-.517-.065-.517Zm2.215.022s.317-.316.356.053c.045.428-.344.6-.42.464-.075-.136.064-.517.064-.517Z"/>
  <path fill="#F57559" d="M21.564 6.962c-.702 0-1.098-.458-1.098-1.834 0-.71.36-1.145 1.147-1.145s1.118.435 1.118 1.145c0 1.478-.442 1.834-1.167 1.834"/>
  <path fill="#DC4B44" d="M22.498 5.619c.013.07-.049.14-.137.155-.088.016-.17-.03-.182-.1-.013-.07.049-.14.137-.155.088-.016.17.029.182.1Zm-1.444.038c-.005.071-.08.125-.17.119-.09-.006-.158-.069-.154-.14.005-.072.081-.125.17-.119.09.006.159.068.154.14Z"/>
  <path fill="#872B39" d="M22.177 4.905a.034.034 0 0 1-.025-.011c-.098-.102-.268-.098-.27-.098a.035.035 0 0 1-.037-.034c0-.02.015-.035.034-.036.008 0 .205-.005.323.12a.035.035 0 0 1-.025.06Zm-1.322 0a.035.035 0 0 1-.025-.06c.118-.124.315-.12.323-.119.02 0 .034.017.034.036 0 .02-.018.034-.037.034 0 0-.173-.003-.27.098a.035.035 0 0 1-.025.01"/>
  <path fill="#22434D" d="M22.116 5.277c0 .087-.039.158-.087.158-.049 0-.088-.07-.088-.158 0-.087.04-.158.088-.158.048 0 .087.071.087.158Zm-.937 0c0 .087-.04.158-.088.158-.048 0-.088-.07-.088-.158 0-.087.04-.158.088-.158.049 0 .088.071.088.158Zm0 .933s.619.08.938-.073c0 0-.18.422-.519.384a.481.481 0 0 1-.42-.31Z"/>
  <path fill="#872B39" d="M22.658 5.59s-.022-.763-.32-1.35c0 0-.524.242-.639.185-.115-.057.11-.185.11-.185s-.865.285-.917.228c-.052-.057.287-.228.287-.228l-.539.185s-.166.687-.097 1.166c0 0-.232-.4-.26-.675-.029-.276.092-1.063.904-1.12.811-.057 1.267.127 1.468.5.201.372.176.83.003 1.295"/>
  <path fill="#DC4B44" d="M21.686 5.99a.644.644 0 0 1-.158-.024l.02-.072c.074.02.19.033.214.003.009-.01.006-.034-.01-.066-.1-.216-.122-.762-.123-.785l.075-.003c0 .006.021.554.116.756.03.062.029.111 0 .146-.03.034-.081.045-.134.045"/>
  <path fill="#2A5A9F" d="M22.463 7.04s1.271 3.945 1.392 7.155c0 0 .459.126.975-.577.517-.703.21-6.274-.78-7.202 0 0-.449-.102-1.587.624Z"/>
  <path fill="#1F436B" d="M22.67 7.73s.228-.529.127-.891-.459 0-.459 0 .145.593.332.891Zm-2.55-.976c-.938-.404-3.968-1.477-3.968-1.477s-2.041-2.626-2.457-3.005c0 0-.514.291-.549.893 0 0 1.283 2.632 1.996 3.436.713.804 4.323 2.543 4.323 2.543l.655-2.39Z"/>
  <path fill="#2A5A9F" d="M20.857 7.04s-1.27 3.945-1.392 7.155c0 0-.458.126-.975-.577-.516-.703-.209-6.274.78-7.202 0 0 .45-.102 1.587.624Z"/>
  <path fill="#1F436B" d="M20.65 7.73s-.227-.529-.126-.891c.1-.362.458 0 .458 0s-.144.593-.332.891Z"/>
  <path fill="#61242F" d="M27.282 31.778h-2.523c-.177-1.003.105-2.007.105-2.007l1.153-.198c.105.634.232.884.407 1.012h.001c.128.093.28.124.47.19a.605.605 0 0 1 .39.362c.114.297-.003.64-.003.64"/>
  <path fill="#872B39" d="M27.285 31.137c-.622.078-1.988.211-1.905-.149.07-.3.646-.382 1.044-.402h.001c.128.093.28.123.47.189a.606.606 0 0 1 .39.362Z"/>
  <path fill="#61242F" d="M18.831 31.778h-2.523s-.08-.236-.043-.486a.611.611 0 0 1 .43-.517c.218-.076.386-.104.523-.233.15-.14.26-.4.355-.97l1.154.199s.28 1.004.104 2.007"/>
  <path fill="#872B39" d="M16.265 31.292a.611.611 0 0 1 .43-.517c.218-.076.386-.104.523-.233.32.099.766.28.905.553.192.376-1.282.316-1.858.197Z"/>
  <path fill="#203E50" d="M36.947 31.597c0 .106-.011.18-.011.18H33.87a5.632 5.632 0 0 1 .292-1.678l.767-.328c.066.395.236.647.449.811a1.253 1.253 0 0 0 .26.155c.064.03.13.053.196.072.27.083.545.1.736.13.327.05.377.428.377.658"/>
  <path fill="#2A5465" d="M36.947 31.597c0 .106-.011.18-.011.18H33.87c0-.06.002-.12.005-.18h3.072Zm-1.394-.902-.425.136-.09-.156.34-.093c.056.045.114.081.175.113Zm.281.115-.286.19-.177-.07.267-.193c.064.03.13.053.196.072Z"/>
  <path fill="#203E50" d="M25.235 31.597a.77.77 0 0 1-.035.18h-2.04a.916.916 0 0 1-.058-.18c-.201-.977 1.156-2.173 1.156-2.173l.43.575s-.05.92.315 1.111c.219.115.247.331.233.487Z"/>
  <path fill="#2A5465" d="M23.101 31.597h2.134a.77.77 0 0 1-.035.18h-2.04a.922.922 0 0 1-.058-.18Zm1.808-.56s-.86-.196-1.252.058v-.142s.723-.352 1.252.084Z"/>
  <path fill="#2A5465" d="M24.738 30.819s-.549-.251-1.081 0l.06-.143s.637-.241 1.021.143Z"/>
  <path fill="#91C1DF" d="M36.022 22.91c0 .822-.729 7.517-.729 7.517-.729.073-1.313-.073-1.313-.073-.2-3.393-.22-6.311-.22-6.311l-3.495-2.62-.009-.006-.036.165c-.173.768-.906 3.986-1.211 4.723-.347.84-4.145 4.37-4.145 4.37-.706-.097-1.304-.608-1.304-.608 1.363-2.261 3.222-4.53 3.222-4.53.145-.814.25-2.626.31-3.981l.004-.063c.041-.917.062-1.61.062-1.61l-.64-1.313 4.069-1.496.912 1.168a108.267 108.267 0 0 0 .583.545c1.221 1.152 3.94 3.756 3.94 4.124"/>
  <path fill="#6196B4" d="m27.093 21.556.003-.063c.857-.465.713-1.207.71-1.215l.054-.01c.002.007.156.804-.767 1.288m3.109-.658c.03.162.051.338.063.525l-.009-.006-.036.165c-.038-1.273-.563-2.024-.57-2.033l.045-.032c.005.007.337.485.497 1.32.619-.55.013-1.677.006-1.687l.048-.026c.006.012.648 1.204-.044 1.774m1.88-2.111-.004.002a.233.233 0 0 1-.085.014c-.3 0-.803-.42-.826-.44l.035-.041c.164.138.62.47.834.423l.046.042"/>
  <path fill="#ACBFC3" d="M26.802 11.566s1.238-.2 1.858.196c.62.395 1.435 1.427 1.435 1.427s-.967.128-1.077.785c0 0-.702-1.673-2.216-2.408"/>
  <path fill="#D2DADC" d="M24.94 12.211c-.524.283-1.4 1.346-1.439 2-.038.637.434 1.223.752 1.722.994 1.555 2.04 2.93 2.484 4.754.003.011 2.272.912 4.936-2.29 0 0-1.505-2.025-2.025-3.749-.212-.701-.427-1.447-.834-2.065-.448-.681-1.214-1.082-2.012-1.017-.675.054-1.346.366-1.862.645Z"/>
  <path fill="#EF5640" d="M24.72 11.559s.335.572.18.887c0 0 1.15.396 1.15-.247 0 0-.217-.482-.136-.793l-1.194.153Zm2.554 3.918s-.64.182-.8.408c-.162.227-.305.734-.305.734h1.105l.208-.382.243-.51-.451-.25"/>
  <path fill="#203E50" d="M26.217 10.92s.449-.188.159-1.538c-.193-.894-.47-1.027-.649-1.035 0 0-.22-.33-.979-.172-.52.108-.936.424-1.119 1.009-.19.61.191 1.919.694 2.05l1.894-.313"/>
  <path fill="#F57559" d="M26.323 10.008s.283-.393.39-.005c.124.45-.262.702-.367.57-.105-.132-.023-.565-.023-.565Zm-2.367.415s-.394-.282-.37.12c.027.466.473.582.53.423.057-.16-.16-.543-.16-.543"/>
  <path fill="#F57559" d="M25.447 11.855c.751-.124 1.094-.684.851-2.156-.125-.759-.588-1.16-1.43-1.022-.84.139-1.118.663-.993 1.422.261 1.581.796 1.884 1.572 1.756"/>
  <path fill="#DC4B44" d="M24.21 10.583c0 .078.078.141.175.142.097.001.177-.061.177-.139.001-.078-.077-.141-.174-.142-.097-.001-.177.061-.178.139m1.552-.213c.018.075.109.118.203.096.095-.022.157-.101.14-.177-.018-.075-.109-.119-.203-.097-.095.022-.157.101-.14.177Z"/>
  <path fill="#22434D" d="M24.422 9.763a.038.038 0 0 1-.032-.06c.105-.153.316-.183.325-.184a.038.038 0 0 1 .043.033.038.038 0 0 1-.033.042c-.002 0-.186.027-.272.153a.038.038 0 0 1-.031.016Zm1.414-.233a.038.038 0 0 1-.023-.008c-.121-.092-.304-.057-.306-.057a.037.037 0 0 1-.045-.03.038.038 0 0 1 .03-.044c.01-.002.218-.042.367.07a.038.038 0 0 1-.023.069m-1.277.62c.015.094.07.162.121.154.052-.009.082-.091.066-.184-.015-.094-.07-.162-.121-.154-.052.009-.082.091-.066.184Zm1.003-.165c.015.093.07.162.121.153.052-.008.082-.09.067-.184-.016-.093-.07-.162-.122-.153-.052.008-.082.09-.066.184Zm.281.847s-.651.175-1.013.105c0 0 .25.315.607.224.357-.09.406-.329.406-.329Z"/>
  <path fill="#1B3540" d="M25.874 9.016s-.848.614-1.912.661l.03.947s-.992-1.827.97-2.151c1.962-.324 1.391 1.718 1.391 1.718s-.06-.88-.479-1.175Z"/>
  <path fill="#DC4B44" d="m25.18 10.578-.005-.082c.002 0 .115-.01.144-.08.012-.028-.036-.12-.079-.201a1.546 1.546 0 0 1-.163-.41l.08-.015c.029.144.1.279.156.387.063.12.109.207.082.271-.05.117-.207.129-.214.13Z"/>
  <path fill="#CF2548" d="M26.334 9.019c-1.426-.62-2.772.664-2.772.664s-.157-1.04.118-1.283c.071-.064.148-.12.228-.17.63-.397 1.467-.39 1.852-.253a.47.47 0 0 1 .174.097c.227.236.4.945.4.945Z"/>
  <path fill="#D2DADC" d="M26.161 8.787s-1.198-.237-2.314.502c0 0-.072-.67.061-1.06.63-.396 1.468-.389 1.852-.252.224.255.401.81.401.81Z"/>
  <path fill="#9F2240" d="M23.68 9.56s.19-.806.446-1.033c.425-.378 1.621-.507 2.25-.28.628.227 0 .914 0 .914s-1.002-.718-2.696.4Z"/>
  <path fill="#F57559" d="M25.53 14.92s.49.758 1.323 1.204c0 0 1.043-.905 2.395-.824 0 0-1.12 2.022-2.083 2.246-.506.118-2.335-1.093-2.335-1.093s.366-1.287.7-1.533Z"/>
  <path fill="#ACBFC3" d="M23.727 13.545c.448-.73 1.481.349 1.833 1.119.352.77.608.933.608.933s-1.032.431-1.025 1.205c0 0-2.394-1.666-1.416-3.257Z"/>
  <path fill="#EF5640" d="M26.853 15.79s.629-.616 2.697-1.422l-.267-.84c.237-.312.673-.312.673-.312s1.06 1.496.878 1.943c-.114.28-2.325.572-3.981.632"/>
  <path fill="#F57559" d="M29.118 14.57s.016-.088.093-.196c.076-.108.055-.305.083-.366.027-.06.19-.31.298-.358.108-.048.25-.127.28.01.03.137-.194.098-.294.295 0 0 .22-.07.393-.03.175.042.224.201.009.196-.172-.005-.393.118-.393.118s.224.034.188.137c-.05.142-.323.055-.657.194"/>
  <path fill="#3D6174" d="M13.821 17.387c.185.473.943 1.285.943 1.285s1.85-1.11 2.703-.643c.854.467 1.532.752 2.086.549.553-.204-1.82-4.52-1.82-4.52l-3.078-1.175s-.067.779-.419.917-.726 1.423-.701 1.666c.025.244.286 1.921.286 1.921"/>
  <path fill="#EF5640" d="M17.284 18.7s-.793 1.556-2.432 3.548c0 0-.168 2.369-4.5 6.096l-.454-.356s2.58-4.042 3.096-5.281c.516-1.24-.285-2.375 2.09-5.51l2.2 1.503"/>
  <path fill="#61242F" d="M14.758 15.947c-.683 1.309-.912 2.982-.912 2.982l-.311.785s1.103.595 2.377.811l.511-1.352-1.665-3.226"/>
  <path fill="#F57559" d="M18.321 18.578s.338 1.713.283 4.292c0 0 1.333 1.965.233 7.574h-.577s-.472-4.772-.833-6.065c-.36-1.293-1.692-1.69-1.764-5.621l2.658-.18Z"/>
  <path fill="#872B39" d="M18.66 20.417s-1.086.194-2.998.105l-.03-.216-.008-.055-.198-1.394s-.184-.227-.373-.597a2.995 2.995 0 0 1-.066-.134c-.257-.549-.486-1.346-.23-2.178l.404.018.057.004 1.35.061.057.004.444.02.07.003.287.013s1.463 1.317 1.202 3.752l.018.338.003.055.01.2"/>
  <path fill="#61242F" d="M15.218 15.97c-.038.111-.294.938-.165 2.29a3.165 3.165 0 0 1-.066-.134c-.096-1.237.126-2.008.174-2.16l.01-.028.05.019-.003.013Zm3.431 4.246c-.384.099-1.036.126-1.655.126-.555 0-1.082-.023-1.362-.036l-.008-.055c.486.024 1.765.074 2.59-.016l-.053-.871c.013-1.016-.295-1.884-.591-2.483-.751-.137-.958-.693-1.002-.85a.59.59 0 0 1-.01-.04l.053-.01.014.053c.049.163.25.646.914.785a5.362 5.362 0 0 0-.51-.816l.041-.035c.002.003.027.033.068.09.251.341 1.098 1.623 1.077 3.304l.053.866a2.82 2.82 0 0 0 .379-.067l.002.055"/>
  <path fill="#91C1DF" d="M15.884 10.077c-.43-.237-3.534.98-3.534.98s-.459.819-.173 1.14c.286.321 1.302.18 1.613 0 .31-.18 1.135-.315 1.135-.315l.96-1.805Z"/>
  <path fill="#EF294D" d="M18.628 7.494s.641.247.876.986c.234.738-.467 2.608-.224 3.467.242.86.204 2.483-.552 2.825-.757.343-2.309-.27-2.642-1.208-.333-.938-.19-4.49.451-5.698.64-1.209 1.937-.6 2.091-.372Z"/>
  <path fill="#91C1DF" d="M17.892 10.68c.169.182.603-.143.603-.143s-.009 1.612-.477 1.736c-.468.123-1.662-1.27-1.613-1.649.05-.378 1.112-.348 1.487.056Z"/>
  <path fill="#1B3540" d="M16.086 10.277s.474.402 1.3.594c.825.191 1.272-.197 1.694.335.634.799-.397 2.272-.94 3.035-.201.284-.628 1.073-.714 1.83 0 0-1.433.417-2.668-.124l-.092-1.757s-.779-2.368 1.42-3.913"/>
  <path fill="#91C1DF" d="M17.567 11.986s.654-1.56.844-1.659c.19-.1.67.14.766.353.097.213 0 .679 0 .679s-.516-.59-1.61.627"/>
  <path fill="#6196B4" d="M20.701 18.577c-.297.61-1.028.785-1.028.785s-.055-.085-.148-.236a1.07 1.07 0 0 1-.03-.05c-.575-.931-2.33-3.913-2.296-5.463.04-1.852 1.248-2.87 1.248-2.87.614.146.808.314.808.314s.206 1.054.017 2.322c-.19 1.267-.534 1.603-.36 1.698.172.094 0 .283 0 .283s1.018 1.419 1.208 1.86a1808.697 1808.697 0 0 0 .581 1.357"/>
  <path fill="#F57559" d="M18.933 11.057s-.73.54-.305 1.366l2.021 2.092c-1.109 1.182-1.219 1.667-2.02 2.212l.304.471s2.808-2.158 2.812-2.683c.001-.225-1.715-2.945-2.812-3.458Z"/>
  <path fill="#F57559" d="M18.584 16.727s-.385.043-.628.103c-.242.06-.566.121-.576.172-.01.05.536 0 .536 0s-.445.183-.455.253c-.01.07.566-.05.566-.05s-.364.221-.343.282c.02.06.468-.09.468-.09s-.083.211-.17.312c0 0 .087.048.263-.148.176-.195.458-.132.68-.306.223-.174-.138-.554-.34-.528"/>
  <path fill="#6196B4" d="M16.52 10.536s-.555.359-.906 1.225c-.35.865-1.455 2.494-1.714 2.915-.259.42-.079 2.711-.079 2.711s-.324-1.389-.469-1.93c-.144-.54.466-1.878.558-1.948.092-.071.56.058.47-.484-.09-.543 1.168-2.882 1.504-2.948 0 0 .538.101.635.46m-1.715.117a.427.427 0 0 1-.033.054c-.126.18-.36.324-.36.324s-.423.593-.427.661c-.004.059-.735.589-1.06.578a.16.16 0 0 1-.107-.037c-.193-.181.655-1.707.842-2.036l.028-.049.008-.014s-.15-.556.474-.452c.518.086.621.498.675.774a.295.295 0 0 1-.04.197"/>
  <path fill="#F57559" d="M12.628 11.23c.428-.563 1.935-1.654 2.728-1.977l.199.368s-1.534 1.348-1.894 1.925c-.36.577-.806.815-1.233.623-.426-.192.11-.82.2-.939Z"/>
  <path fill="#91C1DF" d="m14.655 10.538-.081.093-.041.047-.134.154s-.338.41-.325.574c.01.117-.64.646-1.15.865-.206.09-.39.129-.497.067-.368-.212-.286-.85-.077-1.28.182-.377.986-.863 1.193-.982a.52.52 0 0 1 .047-.028l.001-.001.077-.299s.28-.169.501-.065c0 0-.487.02-.407.21.082.19.758.638.893.645"/>
  <path fill="#F57559" d="M16.423 8.976c-.49.202-.42.645-.869.645-.278 0-.315-.318-.315-.318.126-.271.206-.734.223-.955.019-.221.092-.136.092-.136 0-.02 0-.04-.002-.059-.006-.148-.034-.256.064-.193.11.072.148.492.148.492.09-.613-.044-.704.062-.65.145.074.146.615.146.631.117-.356.085-.56.166-.478.083.082-.04.736-.09.976-.01.054-.018.088-.018.088.389-.19.393-.043.393-.043"/>
  <path fill="#EF5640" d="m16.049 8.931-.019.088s-.18-.018-.31.176c0 0 .037-.26.329-.264m-.468-.279c.003-.052.025-.35-.027-.44l-.002-.059c.112.024.041.436.029.499Z"/>
  <path fill="#91C1DF" d="M15.885 11.233s.332-.898.437-1.098c.105-.2.654-.166 1.07-.089.415.078.5.634.5.634s-1.264-.596-2.007.553"/>
  <path fill="#EF5640" d="M18.018 9.466s-.397.733-.39 1.546c0 0-.645.438-.876-.111 0 0 .245-.719.127-1.69-.08-.65 1.14.255 1.14.255"/>
  <path fill="#F57559" d="M16.752 8.45s-.118-.42-.328-.125c-.243.342.005.674.135.595.13-.08.193-.47.193-.47m1.874 1.08s.42-.117.277.215c-.167.386-.58.346-.579.194 0-.152.302-.41.302-.41"/>
  <path fill="#F57559" d="M16.924 10.281c-.597-.336-.714-.915-.055-2.085.34-.604.855-.8 1.524-.424.668.376.742.905.402 1.508-.708 1.257-1.254 1.349-1.87 1.002"/>
  <path fill="#DC4B44" d="M18.362 9.586c-.023.066-.109.096-.191.067-.083-.03-.13-.106-.107-.172.023-.066.109-.096.191-.067.083.03.13.106.107.172m-1.246-.659c-.038.059-.129.068-.202.02-.073-.048-.102-.134-.064-.193.039-.058.129-.067.202-.02.073.049.102.135.064.193Z"/>
  <path fill="#22434D" d="M18.448 8.83a.034.034 0 0 1-.034-.026c-.033-.133-.181-.212-.182-.212a.034.034 0 1 1 .032-.06c.006.003.176.093.217.255a.034.034 0 0 1-.033.043m-.82-.583a.035.035 0 0 1-.018-.005c-.001-.001-.145-.087-.277-.047a.034.034 0 0 1-.02-.065c.161-.05.326.049.332.053.017.01.022.03.012.047a.034.034 0 0 1-.03.017m.573.866c-.04.075-.108.116-.15.093-.04-.024-.04-.103.002-.177.041-.074.109-.115.15-.092.041.023.04.102-.001.176m-.837-.449c-.042.074-.11.116-.15.093-.042-.024-.041-.103 0-.177.042-.074.11-.115.15-.092.042.023.041.102 0 .176m-.29.762s.342.261.59.269c0 0-.263.214-.453.075-.189-.139-.137-.344-.137-.344Z"/>
  <path fill="#22434D" d="M18.02 8.964s.158-.152.223-.099c.064.053.03.24.03.24l.138.004-.114-.046s.037-.194-.034-.234c-.1-.058-.242.135-.242.135m-.593-.304s.049-.214-.03-.241c-.08-.027-.222.098-.222.098l-.074-.116.098.074s.147-.132.218-.092c.102.056.01.276.01.276"/>
  <path fill="#EF294D" d="M18.551 8.022s-.214-.297-.51-.061c-.295.236-.96.613-1.289.489-.328-.125.718-1.522 1.625-1.113.907.41.825 1.74.448 2.164-.377.423-.199.029-.199.029s.025-.6.151-.999c.126-.398-.226-.51-.226-.51"/>
  <path fill="#DC4B44" d="M17.546 9.29a.212.212 0 0 1-.052-.007l.018-.072c.061.016.091-.01.105-.035.02-.035.018-.08.002-.097-.01-.01-.026-.009-.048.003l-.035-.065c.076-.04.12-.005.136.011.041.043.045.124.01.185a.151.151 0 0 1-.136.077"/>
  <path fill="#91C1DF" d="M21.919 14.432c-.036.525-1.335 2.233-1.551 2.294a.58.58 0 0 0-.168.083 1.595 1.595 0 0 0-.067.051c-.123.1-.216.214-.216.214-.379-.025-1.443-.517-1.1-.625a.39.39 0 0 0 .113-.07c.401-.338 1.185-1.708 1.19-1.812.005-.113.14-.135.14-.135s-.74-1.085-1.168-1.216c-.428-.131-.645-.65-.645-.65-.423-1.79.808-1.509.808-1.509.906.54 2.7 2.85 2.664 3.375Z"/>
  <path fill="#3D6174" d="M20.2 16.81a1.688 1.688 0 0 0-.067.05c-.58-.04-1.068-.326-1.248-.447a.39.39 0 0 0 .044-.034c.194.126.69.409 1.271.43Zm-5.396-6.156a.426.426 0 0 1-.033.054 1.378 1.378 0 0 1-.238-.03 1.788 1.788 0 0 1-.873-.48 2.295 2.295 0 0 1-.117-.122.547.547 0 0 1 .047-.028c.028.03.06.066.098.101.192.19.492.41.886.482.073.014.15.021.23.023m5.806 7.711c-.178.302-.508.667-1.085.76a.962.962 0 0 1-.03-.049c.592-.089.92-.473 1.09-.774l.025.063"/>
  <path fill="#D2DADC" d="M10.763 28.21s-.135.133-.276.378c-.14.245.014.47-.667 1.037 0 0-1.373-.804-1.993-1.838 0 0 .011-.295.311-.364.161-.037.605.17 1.031.25.06.012.121.021.18.026.075.006.149.007.22-.002a.641.641 0 0 0 .183-.044h.001c.145-.06.26-.177.32-.384 0 0 .364.208.12.56 0 0 .434-.19.57.381"/>
  <path fill="#ACBFC3" d="M9.82 29.625s-1.373-.804-1.993-1.838c0 0 .23-.048.421.294.19.343 1.684 1.12 1.572 1.544ZM9.826 28c-.112.176-.11-.15-.258-.302a.641.641 0 0 0 .184-.045h.001c.066.072.16.209.073.347Zm-.432.01c-.118.11-.156-.18-.225-.336.06.01.121.02.18.025.07.094.135.225.045.31"/>
  <path fill="#D2DADC" d="M19.21 31.778h-1.942s-.081-.27 0-.568c.035-.129.236-.25.423-.417a1.4 1.4 0 0 0 .148-.15.869.869 0 0 0 .179-.344.888.888 0 0 0-.065-.528s.661-.139.897.221c0 0 .023-.166.232-.055 0 0-.03.335.011.615.041.279.302.36.117 1.226"/>
  <path fill="#ACBFC3" d="M18.705 30.608a.086.086 0 0 1-.065.03.095.095 0 0 1-.057-.02.71.71 0 0 0-.645-.117.705.705 0 0 0 .08-.202c.13-.048.374-.076.676.181.039.033.044.09.01.128Zm-.164.322-.01.017a.088.088 0 0 1-.12.03c-.131-.079-.428-.226-.72-.184a1.4 1.4 0 0 0 .148-.15.773.773 0 0 1 .683.17.09.09 0 0 1 .02.118"/>
</svg>
