<svg xmlns="http://www.w3.org/2000/svg" width="2166" height="3560" fill="none" viewBox="0 0 2166 3560">
  <path fill="#0A0" d="M458.918 3.025c-10.327 3.645-17.009 10.327-17.009 17.009 0 6.075-3.645 10.935-8.505 10.935-4.252 0-15.186 5.467-23.691 12.149-9.112 7.29-24.299 12.15-37.056 12.15-13.972 0-23.691 3.037-25.514 9.112-2.43 6.074-8.504 7.897-17.009 5.467-24.907-6.075-58.318 43.738-52.85 77.757 0 3.037-2.43 4.859-6.075 4.859-7.897 0-23.692 15.187-23.692 22.477 0 3.037-7.897 10.327-18.224 15.794-12.757 7.897-16.402 13.972-13.972 21.262 2.43 5.467-7.897-2.43-23.084-18.224-23.084-24.299-61.355-47.383-78.971-47.383-3.038 0-5.468 7.897-5.468 17.009 0 12.149 4.253 20.047 15.187 25.514 7.897 4.252 16.402 13.364 18.832 19.439 1.822 6.682 6.075 9.112 10.327 6.682 4.86-2.43 4.252-.607-.608 5.467-9.112 11.543-4.252 37.056 9.113 48.598 4.859 4.253 12.149 14.58 15.794 23.084 8.505 20.047 11.542 125.748 4.252 130.607-4.252 2.43-3.645 7.898.608 15.795 6.682 13.364-3.038 54.065-13.365 54.065-3.037 0-5.467 3.645-5.467 7.897 0 4.252-9.72 11.542-21.262 16.402-15.186 6.075-21.261 12.149-21.261 21.869 0 7.29-4.253 14.579-9.112 17.009-6.683 2.43-8.505 7.897-6.075 17.617 3.645 12.757.607 15.794-23.691 24.906-26.73 10.327-27.944 12.15-27.944 34.019 0 14.579-3.038 24.299-9.112 26.729-4.86 1.822-9.113 10.327-9.113 18.224 0 9.112-4.86 18.224-12.15 21.869-6.681 3.645-10.934 9.112-9.111 12.757 7.897 12.15 8.505 54.065 1.215 54.065-4.253 0 1.822 7.897 12.757 17.617 10.327 9.72 19.439 20.654 19.439 24.299 0 3.645 3.037 6.682 6.075 6.682 3.645 0 6.074-3.037 6.074-7.289 0-3.645 1.215-5.468 3.038-3.645 4.86 4.859-3.645 23.084-10.935 23.084-3.645 0-17.01 11.542-30.373 25.514-21.262 23.691-23.085 28.551-19.44 50.42 1.823 13.364 7.29 28.551 12.15 34.019 10.327 10.934 12.15 23.691 3.037 23.691-15.794 0-3.037 18.832 20.654 30.981 20.047 9.715 30.981 21.265 43.739 44.345 9.112 17.01 22.476 38.88 29.766 49.21 7.289 9.72 21.869 38.87 33.411 63.78 10.934 24.91 24.906 52.85 31.588 61.96 6.075 8.51 10.935 20.05 10.935 24.3 0 4.86 5.467 13.97 12.149 20.05 6.683 6.07 12.15 15.79 12.15 21.87 0 6.07 2.43 12.15 5.467 13.97 12.757 7.9 49.813 71.68 46.776 80.19-5.468 14.58 7.289 38.27 37.056 68.03 28.551 29.16 111.167 81.41 146.401 92.95 10.327 3.64 19.439 8.5 19.439 10.93 0 2.43 9.72 9.72 21.262 16.4 11.542 6.08 21.261 13.37 21.261 16.41 0 6.07 15.795 22.47 21.262 22.47 10.934 0 30.981 27.95 37.663 53.46 17.617 65.61 30.981 207.76 18.832 207.76-2.43 0-4.86 6.68-4.86 15.18 0 8.51 1.823 15.19 4.86 15.19 8.505 0 15.794 248.46 7.29 269.72-3.645 9.72-2.43 19.44 4.252 31.59 6.075 12.75 7.897 26.73 4.86 48.59-3.038 23.7-.608 37.06 9.112 59.54 6.682 15.79 12.149 34.02 12.149 40.7 0 6.07 3.038 11.54 6.075 11.54 3.645 0 6.682 11.54 6.075 25.51 0 14.58 0 31.59.607 38.27.608 12.76-4.252 83.23-9.719 133.65-1.215 16.4-3.038 37.05-3.038 44.95 0 10.33-2.43 13.37-9.719 10.33-7.897-3.04-9.112-.61-5.467 12.76 1.822 9.72 7.897 21.26 12.756 26.72 4.86 4.86 8.505 13.37 8.505 17.62 0 4.25 7.29 20.05 15.794 35.24 10.935 18.83 14.58 31.58 12.15 43.73-5.467 27.95 3.037 77.15 15.794 91.12 6.075 6.69 8.505 12.15 4.253 12.15-4.253 0-5.468 6.08-3.038 18.23 1.823 9.72 5.468 27.33 7.29 37.66 6.682 35.84 26.121 46.78 38.878 22.48 5.468-9.11 4.86-14.58-.607-21.26-3.645-4.86-4.86-8.51-2.43-8.51s1.215-4.25-3.037-9.11c-4.253-4.86-5.468-9.11-2.43-9.11 2.43 0 1.822-3.04-2.43-7.29-10.327-10.33-9.112-18.83 2.43-14.58 7.289 3.04 9.112 1.21 6.074-5.47-1.822-5.47-1.215-7.9 2.43-6.07 3.645 1.82 6.075 7.89 6.075 12.75s3.037 8.51 6.682 8.51c3.038 0 4.86 2.43 3.038 4.86-1.823 3.04-.608 14.58 2.43 26.12 3.037 11.54 6.682 34.02 9.112 50.42 1.822 17.01 6.682 32.2 10.327 34.63 5.467 3.64 4.252 6.07-4.253 9.11-6.682 2.43-13.972 5.46-15.794 6.07-1.822 1.22-3.037-5.46-1.822-14.58 1.822-16.4-5.468-25.51-20.654-25.51-4.86 0-6.075 3.04-3.038 7.29 7.897 13.36 7.29 23.08-1.822 23.08-4.253 0-10.935 5.47-14.58 11.54-7.289 14.58-7.897 25.52-.607 13.37 7.897-12.76 30.981 2.43 30.981 20.65 0 8.51-3.037 15.19-6.682 15.19-4.252 0-5.467 6.68-3.645 18.22 2.43 11.55.607 20.66-4.86 26.73-4.86 4.86-7.29 13.37-5.467 18.23 4.252 11.54 18.832 12.75 21.869 3.03 1.822-5.46 6.075-5.46 15.794 0 7.29 4.26 16.402 5.47 19.439 3.65 3.645-1.82 4.253.61 2.43 5.47-1.822 5.46-1.215 9.72 2.43 9.72 10.935 0-1.822 32.8-15.794 40.09-7.29 3.64-11.542 8.5-8.505 10.93 2.43 2.43 4.253 6.69 4.253 8.51 1.215 12.15 10.934 31.59 15.794 31.59 3.037 0 4.86 1.82 4.252 4.25-1.215 8.5 11.542 35.23 21.262 43.74 5.467 4.25 11.542 15.79 13.364 25.51 2.43 9.72 6.683 18.23 9.72 18.23 3.037.6 9.112 1.21 13.364 1.82 3.645 0 9.112 11.54 10.935 24.91 1.822 13.36 4.252 21.26 4.86 18.22.607-3.65 6.682 3.04 13.972 13.97 9.719 15.8 15.794 19.44 26.121 17.01 8.505-2.43 18.224 1.22 27.944 10.33 7.897 7.29 16.402 12.75 18.831 11.54 3.038-.61 4.86 1.82 4.86 5.47 0 6.68-7.897 5.46-33.411-3.65-7.897-3.04-5.467 1.82 8.505 14.58 14.579 13.97 21.869 17.62 24.906 12.15 6.682-9.72 18.832-1.21 13.972 10.33-1.822 4.86-1.215 8.5 1.823 7.9 10.327-2.43 26.728 7.89 26.728 16.4 0 5.46 6.683 8.5 18.225 8.5 13.969 0 17.009-2.43 13.969-9.72-1.82-5.47-7.89-8.5-14.577-6.68-6.682 1.82-11.542.61-11.542-2.43 0-11.54 24.299-4.86 30.979 7.9 4.25 7.89 6.68 15.18 6.08 17.01-.61 1.82 3.03 5.46 9.11 9.11 6.07 3.04 14.58 9.72 19.44 13.97 10.33 9.72 19.44 9.72 19.44-.61 0-4.86 1.82-4.25 6.07 1.83 3.04 4.86 7.9 9.11 10.33 9.71 2.43 0 12.76 3.65 21.87 7.29 9.72 4.26 19.44 6.08 22.48 4.26 3.03-1.83 6.68-.61 9.11 3.03 2.43 3.65 6.68 4.86 9.72 3.04 3.03-2.43 5.46-1.21 5.46 2.43 0 3.65 12.15 6.08 27.34 5.47 15.19 0 31.59 3.04 36.45 7.29 5.47 4.25 11.54 6.07 13.97 3.64 2.43-2.43-1.21-8.5-7.29-12.75-9.72-7.9-7.29-8.51 23.69-6.08 28.55 1.82 34.02 1.22 30.98-6.07-1.82-5.47.61-9.12 6.08-9.12 4.86 0 10.33-4.25 12.15-9.11 2.43-4.86 6.68-9.11 9.72-9.11 3.64 0 3.03 3.65-1.22 9.11-6.07 7.29-6.07 9.11 2.43 9.11 5.47 0 9.72-4.85 9.72-12.14 0-9.72-4.25-12.15-21.26-12.15-31.59 0-97.2-34.63-133.04-69.86-17.61-17.62-30.37-34.63-29.16-38.27 1.22-3.65-5.46-10.94-13.97-17.01-20.04-13.37-51.63-58.32-51.63-74.72 0-8.51 4.86-13.98 15.18-16.4 18.23-4.26 23.7-19.44 15.19-41.92-7.29-18.83-4.25-24.3 28.55-53.46 11.54-10.33 18.23-20.65 15.8-24.9-2.43-3.65-5.47-12.15-6.08-18.23-3.04-18.83-13.97-27.94-32.8-27.94-19.44 0-57.71-20.66-65.61-35.84-13.97-24.91 9.72-61.36 40.09-61.36 15.19 0 23.7-9.11 13.37-15.79-4.86-3.04-4.25-5.47 1.21-8.51 6.08-4.25 5.47-10.32-2.43-30.37l-9.72-26.12 18.23-17.01c10.33-9.72 22.48-17.62 27.34-17.62 9.71 0 10.93-13.97 2.43-30.37-5.47-9.72-10.94-11.54-32.81-8.51l-26.73 3.65-14.58-32.2c-8.5-18.22-12.75-34.02-9.72-34.62 3.04-1.22 16.41 1.82 29.77 7.29 28.55 11.54 47.99 12.14 69.25 2.43 15.8-6.69 20.66-24.91 8.51-32.81-4.26-2.43-4.86-12.15-2.43-24.9 3.03-15.8 1.21-24.3-6.69-32.81-10.32-11.54-10.32-12.15.61-7.9 7.9 3.04 9.72 2.43 6.68-2.43-3.03-5.46 3.65-7.29 23.7-7.29 65 0 148.83-30.37 148.83-53.45 0-6.08 2.43-13.37 5.46-16.4 21.27-23.7 18.23-75.94-4.86-75.94-12.15 0-18.83-10.93-18.83-32.8 0-15.8-14.58-30.38-43.74-44.96-10.93-6.07-21.26-15.79-22.47-22.47-1.82-11.54-1.82-11.54 9.72-1.82 6.68 6.07 20.65 10.93 30.98 10.93 10.93 0 19.44 2.43 19.44 5.47 0 7.89 28.55 14.58 69.86 15.79 50.42 2.43 72.89-10.93 79.58-44.95 2.43-10.33 5.46-18.83 7.89-18.83 7.29 0 23.09-32.81 27.34-55.28 2.43-13.98 11.54-27.95 24.91-40.1 15.18-13.36 20.04-21.87 17.01-29.76-3.65-9.12-4.26-9.12-8.51 3.03-4.86 12.15-21.26 23.09-26.73 17.62-1.82-1.21 3.65-12.15 12.15-23.08 8.51-11.54 15.19-26.73 15.19-33.41 0-7.9 3.64-13.37 9.72-13.37 6.68 0 8.5 4.25 6.68 13.97-1.21 7.9 1.22 15.19 5.47 17.01 5.46 1.83 10.32-5.46 15.18-22.47 15.8-57.11 19.44-65.61 36.45-83.84 23.69-24.9 31.59-64.99 20.66-97.19-7.9-21.87-10.33-90.51-3.65-88.69 4.86 1.21 55.28-50.42 55.28-56.5 0-3.03 8.51-6.68 18.23-9.11 10.32-2.43 18.22-6.68 18.22-10.33 0-3.64 7.9-4.86 21.26-2.43 13.37 2.43 21.26 1.83 21.26-2.43 0-3.03-3.03-6.07-6.68-6.07-3.04 0-4.86-2.43-3.04-5.47 6.69-10.33 82.62-31.59 114.82-31.59 30.98-.6 33.41-1.82 36.45-17.01 2.43-9.11 11.54-20.04 23.08-26.73 15.19-8.5 18.22-13.36 15.19-24.29-3.04-12.15 7.89-40.7 42.52-108.13 5.47-10.33 6.68-26.13 4.86-46.17-3.04-23.69-1.82-32.2 7.29-40.7 10.33-10.33 17.62-60.14 15.79-109.96 0-10.32-1.21-45.56-2.43-78.97-2.43-57.71 1.83-75.93 17.01-75.93 6.68 0 20.05-18.83 33.41-48.6 21.27-47.99 26.13-55.89 40.7-69.25 18.84-17.62 66.83-84.44 74.12-103.27 13.97-36.45 13.36-80.19-1.83-133.647-8.5-29.159-17.01-54.673-18.83-56.495-2.43-2.43-20.04-6.075-39.48-8.505-38.88-4.252-39.49-4.859-88.69-52.242-18.23-17.01-48-40.094-66.83-50.421-30.37-17.617-35.84-18.831-60.14-13.364-19.44 4.252-30.37 3.037-42.52-3.038-9.11-4.859-18.83-6.682-22.48-4.859-3.03 2.43-12.75 0-20.65-5.468-18.22-12.149-54.07-18.831-48.6-9.112 3.04 4.86 0 5.468-9.72 2.43-17.62-6.075-28.55-16.402-25.51-24.906 1.21-4.253-1.82-11.542-7.29-16.402-4.86-5.467-9.11-12.15-9.11-15.794 0-3.645-2.43-6.683-6.08-6.683-3.04 0-6.07 2.43-6.07 6.075 0 6.682-43.13-11.542-49.82-21.262-2.43-3.644-4.86-3.644-4.86-.607s-3.64 1.822-8.5-1.822c-8.51-6.683-23.69-11.542-50.42-15.795-16.4-2.43-37.66 12.15-44.95 31.589-9.72 25.514-11.55 12.757-2.43-13.365 12.15-35.233 11.54-37.663-13.37-41.308-13.97-2.43-26.12-9.112-30.98-16.402-4.25-6.682-10.93-12.149-15.79-12.149-8.51 0-8.51-8.505 0-43.738 2.43-12.15 0-21.262-10.33-34.626-7.9-9.72-17.62-18.224-20.66-18.224-7.28-.608-21.26-47.383-21.26-72.29 0-13.972-23.69-55.28-24.3-42.523 0 2.43-15.18-10.327-34.62-28.551-18.83-18.225-37.06-33.411-41.31-33.411s-15.79-4.253-26.73-9.72c-21.87-10.935-92.34-17.009-97.8-8.505-6.68 10.935-51.64-6.682-77.76-30.981-14.58-12.757-29.16-23.691-32.2-23.691-3.03 0-5.46-6.075-5.46-13.972-.61-7.29-5.47-19.439-11.54-26.729-17.01-20.654-66.827-49.205-78.976-46.168-13.364 3.645-22.477-7.897-14.579-18.224 9.112-12.15 5.467-24.907-8.505-31.589-7.897-3.037-13.972-7.897-13.972-10.327 0-3.037-4.86-4.86-10.935-4.86-6.074 0-14.579-3.645-18.224-7.29-6.074-6.074-9.112-6.074-13.364 1.215-3.645 5.468-6.075 6.075-6.075 1.823 0-3.645-1.822-10.935-3.645-16.402-2.43-6.075-.607-9.72 4.86-9.72 4.86 0 13.972-4.252 20.654-9.112 10.327-9.112 6.682-9.112-46.168-6.682-31.589 1.823-59.532 3.645-61.962 3.645-3.038 0-4.86 3.645-4.86 7.897 0 4.86-6.682 11.542-14.579 15.794-18.225 9.72-58.318-1.214-58.318-15.794 0-7.897-7.29-8.504-51.635-4.86l-51.636 4.253V83.21c0-17.616-29.158-40.093-52.85-40.093-10.327 0-13.972-3.645-13.972-13.972 0-17.617-4.252-22.476-15.794-18.224-4.86 1.822-8.505 11.542-8.505 23.691 0 17.01-2.43 21.262-16.402 24.3-9.719 2.43-24.906 9.719-34.626 16.401-15.186 10.935-17.616 10.935-13.971 2.43 1.822-5.467 1.214-10.327-1.823-10.327-3.645 0-6.075-5.467-6.075-12.15 0-7.29 4.253-12.149 9.72-12.149 10.934 0 26.121-16.402 26.729-28.551 0-12.15-20.047-18.832-37.664-11.542Zm25.514 143.364c0 14.579-9.719 30.373-18.224 30.373-2.43 0-7.897-10.327-12.149-23.691-6.683-20.654-6.075-24.907 3.644-36.449l10.935-12.757 7.897 13.972c4.252 7.29 7.29 20.047 7.897 28.552ZM598.03 1478.58c8.505 9.72 11.542 17.01 7.897 22.48-4.252 7.29-6.075 6.68-9.719-1.83-1.823-5.46-7.29-10.32-11.542-10.32-4.253 0-9.113-5.47-10.935-12.15-4.252-16.4 7.897-15.19 24.299 1.82Zm1174.25 393.04c0 3.03-1.22 6.07-2.43 6.07-1.82 0-4.86-3.04-6.68-6.07-1.83-3.65-.61-6.08 2.43-6.08 3.64 0 6.68 2.43 6.68 6.08Zm-226.59 396.07c-1.82 4.86-3.65 3.04-3.65-3.65-.6-6.68 1.22-10.32 3.04-7.89 1.82 1.82 2.43 7.29.61 11.54Zm-438.6 630.56c1.83 3.03-1.82 6.07-8.5 6.07-7.29 0-12.76-3.04-12.76-6.07 0-3.65 3.65-6.08 8.51-6.08 4.86 0 10.93 2.43 12.75 6.08Zm-328.64 100.23c-2.43 4.86-6.075 7.29-9.112 5.47-6.682-3.65-1.215-14.58 6.682-14.58 3.037 0 4.252 4.25 2.43 9.11Zm-11.542 21.87c6.075 18.22 0 20.05-7.897 2.43-3.645-8.51-4.253-15.19-1.215-15.19 3.037 0 7.289 5.47 9.112 12.76Zm27.336 20.05c0 1.21-4.252 3.64-9.112 6.07-4.86 1.82-9.112.61-9.112-2.43 0-3.64 4.252-6.07 9.112-6.07s9.112 1.21 9.112 2.43Zm273.366 386.35c0 14.58 10.32 20.65 33.41 19.44 17.62-1.22 17.62-.61 4.25 6.68-7.29 4.25-11.54 10.33-9.11 13.97 3.04 3.04-.61 0-6.68-6.68-8.51-9.11-12.15-10.33-14.58-4.25-1.22 5.47-5.47 2.43-10.94-7.9-9.72-19.44-11.54-41.92-2.43-36.45 3.65 1.82 6.08 9.11 6.08 15.19Zm-39.49-.61c-1.82 3.65-8.5 6.68-13.97 6.68-7.9 0-7.9-1.21 2.43-8.5 12.76-9.11 18.22-8.51 11.54 1.82Zm413.08-91.11c-6.68 3.03-16.4 3.64-21.26 1.82-7.29-2.43-7.9-1.22-1.22 5.47 10.33 10.93 9.11 24.3-1.82 20.04-17.01-6.68-9.11 9.11 8.5 18.83 17.62 9.12 18.23 8.51 37.67-13.97 10.33-12.75 17.01-17.01 14.58-10.32-10.94 29.15-10.94 33.41.61 33.41 6.68 0 24.9-7.9 40.7-17.62 26.12-15.19 27.94-17.62 18.83-25.51-5.47-4.86-23.09-9.12-38.27-9.72-15.19 0-32.2-2.43-37.06-3.65-4.86-1.82-14.58-1.21-21.26 1.22Z"/>
</svg>
