<svg xmlns="http://www.w3.org/2000/svg" width="565" height="418" fill="none" viewBox="0 0 565 418">
  <g clip-path="url(#a)">
    <path fill="#3A3A3A" d="M221.039 181.916c-.051.417-.2.802-.424 1.13a2.574 2.574 0 0 1-2.115 1.114l-.327-.02-21.212-2.692a2.569 2.569 0 0 1-2.22-2.873l.051-.288a2.557 2.557 0 0 1 2.815-1.931l21.214 2.693a2.567 2.567 0 0 1 2.218 2.867Z"/>
    <path fill="#232323" d="m210.259 183.136-.307-.039c.31-.63.591-1.28.828-1.864l.03.006a34.544 34.544 0 0 0-.459 1.54l-.012.044-.08.313Zm-3.365-.427-.196-.025c.136-.253.269-.515.398-.777l.006-.014c.064-.128.128-.262.186-.39-.141.394-.276.802-.394 1.206Zm-2.878-.365-.212-.028c.036-.056.07-.115.104-.173l.007-.012c.116-.206.225-.411.327-.622a13.1 13.1 0 0 0-.226.835Zm-3.089-.393-3.965-.503a2.565 2.565 0 0 1-2.22-2.873l.05-.288 6.687 1.232a18.096 18.096 0 0 0-.552 2.432Z"/>
    <path fill="#D6D2D1" d="M534.448 330.549c-4.49-.957-23.085 4.478-23.085 4.478s-22.405-22.579-46.707-46.499c-1.649-1.62-3.304-3.247-4.966-4.872a3239.133 3239.133 0 0 0-9.911-9.683l-.309-.302c-9.424-9.163-18.49-17.862-25.994-24.847 0 0 9.611-13.235 1.275-17.548-8.339-4.307-7.692 7-17.945 18.979-10.254 11.98-34.619 13.68-52.894 11.913-17.377-1.675-54.13-9.235-73.305-31.543a56.54 56.54 0 0 1-2.819-3.561c-1-1.379-1.93-2.664-2.79-3.864-14.214-19.716-10.566-15.475-14.942-18.133a36.49 36.49 0 0 1-.592-.372c-1.204-.78-3.837-1.604-7.3-2.427-12.66-3.009-36.457-5.989-42.525-6.593-.253-.026-.876.084-1.837.329-10.044 2.575-57.675 20.484-117.535 64.939-22.064 16.396-45.799 36.397-69.915 60.562a625.366 625.366 0 0 0-3.522 3.559c14.273 4.131 35.6 8.439 67.492 13.396 43.606 6.784 97.468 11.088 190.446 16.501 92.98 5.404 182.744-.593 230.191-7.42 23.128-3.325 35.591-7.234 43.033-9.96-2.661-1.717-9.921-6.261-13.544-7.032Z"/>
    <path fill="#2D2626" d="M312.727 198.777h.003c-11.65-1.03-20.314-3.136-20.314-3.136a8.136 8.136 0 0 1-.341-.609l-.353-.032c-1.603.641-25.007 19.877-25.007 19.877l8.735 9.44a15.797 15.797 0 0 1 2.648-3.508c6.41-6.413 31.474-20.254 34.629-22.032Z"/>
    <path fill="#A2E5DE" d="M21.186 383.768c5.145 9.203 114.026 34.257 283.038 33.639 169.016-.619 253.014-29.452 254.298-39.776 1.281-10.326-190.583-5.371-257.84-3.208-21.13.678-57.708-.186-97.586-1.048-87.053-1.886-189.825-3.771-181.91 10.393Z"/>
    <path fill="#EFEDED" d="M348.891 357.053h.019-.019Zm-.009 0c-6.952 0-13.988-.053-21.091-.164h-.053c7.12.111 14.176.164 21.144.164Zm153.698-9.174Zm1.342-.19.036-.004-.036.004Zm.294-.041Zm7.168-12.628c.651-.189 15.815-4.584 21.715-4.584-5.899 0-21.064 4.395-21.715 4.584Zm23.038-4.476Z"/>
    <path fill="#C8C3C2" d="M348.891 357.053h-.009c-6.968 0-14.024-.053-21.144-.164-6.632-.113-13.33-.277-20.059-.496 7.103-1.672 13.217-6.702 13.217-6.702s-1.174-5.792-2.189-10.816c10.301 3.566 21.675 5.712 34.431 5.712 9.101 0 18.908-1.094 29.526-3.54 30.778-7.095 57.56-33.6 72.942-52.226 3.11-.053 6.128-.15 9.05-.293a6339.026 6339.026 0 0 1 46.707 46.499l.021-.007c.651-.189 15.816-4.584 21.715-4.584h.001c.516 0 .963.035 1.322.108l.026.005c3.623.771 10.883 5.315 13.544 7.032-7.442 2.726-19.905 6.635-43.033 9.96l-.483.07-.26.037-.258.037-.036.004c-.352.051-.708.1-1.066.151l-.276.039c-34.784 4.84-90.728 9.173-153.67 9.174h-.019Zm-54.923-1.181a1184.937 1184.937 0 0 1-20.538-1.069l.298.096c-.529-.031-1.056-.063-1.582-.096-91.392-5.382-144.656-9.692-187.855-16.435-31.801-4.96-53.1-9.267-67.372-13.395a663.725 663.725 0 0 1 3.433-3.468c22.222 4.08 69.494 8.335 112.575 11.072a45.237 45.237 0 0 0-1.188 2.555s.829-.88 2.383-2.479c27.932 1.759 53.984 2.871 70.134 2.871 5.196 0 9.363-.115 12.243-.36 12.019-1.025 32.389-11.668 57.3-22.863a33.394 33.394 0 0 1 4.015 2.766c8.433 6.79 17.586 13.209 27.854 18.316 1.058 3.265 1.791 5.656 2.084 6.85 0 0-9.525 11.706-13.784 15.639Z"/>
    <path fill="#058681" d="M459.686 283.737c-14.395 18.483-43.312 49.539-77.022 57.31-48.301 11.133-79.753-5.774-104.85-25.98-25.096-20.2-80.67-1.644-82.807-1.236-.847.164 6.051-9.224 17.197-18.612 13.555-11.418 33.394-22.834 53.228-17.072 36.138 10.496 61.236 48.054 95.862 48.054 28.469 0 68.505-23.418 88.485-52.149 3.284 3.192 6.597 6.439 9.907 9.685Z"/>
    <path fill="#70C1B8" d="M449.472 273.749c-11.172 23.406-35.062 44.312-61.678 52.866-33.343 10.72-72.668-4.947-106.383-36.288-33.715-31.336-78.707-25.566-109.064-12.18-30.347 13.385-85.921 40.632-96.604 29.022-4.424-4.806-1.964-15.154 3.227-26.369 3.089-6.673 7.149-13.651 11.304-19.948 65.608-48.672 116.526-65.496 119.405-65.211 1.501.148 4.072.444 7.297.847 13.408 1.688 38.004 5.269 42.524 8.196 5.611 3.631.162-2.704 18.314 22.377 18.145 25.083 57.83 33.371 76.105 35.14 18.275 1.776 42.641.087 52.9-11.888 10.016-11.684 9.644-22.737 17.369-19.249.187.08.386.173.586.279 8.333 4.317-1.283 17.548-1.283 17.548l.069.068c7.491 6.977 16.524 15.654 25.912 24.79Z"/>
    <path fill="#565865" d="M553.88 351.753c-.749.847-22.648 25.434-48.102 35.85-25.219 10.317-91.906 21.896-182.958 21.896-11.098 0-22.326-.143-33.566-.408-100.663-2.387-202.379-14.814-225.194-25.571-12.284-5.795-25.5-22.445-38.074-35.917-2.764-2.956-5.495-5.759-8.175-8.258 1.475 1.083 2.859 1.967 4.07 2.56 9.189 4.504 148.973 26.84 243.551 29.894 94.578 3.062 242.058-9.252 286.94-18.562 0 0 .156-.142.42-.402.26-.252.632-.624 1.088-1.082Z"/>
    <path fill="#2C2F3F" d="M553.899 351.728c-.918.94-1.527 1.509-1.527 1.509-36.605 7.596-88.121 19.324-200.704 19.986-25.444.148-54.015-.266-86.236-1.424-112.853-4.051-234.363-25.39-243.552-29.894-1.21-.593-2.595-1.477-4.07-2.56-9.689-7.126-23.038-22.737-14.067-18.916 3.513 1.498 7.814 2.995 13.061 4.511 14.272 4.139 35.599 8.455 67.487 13.428 43.198 6.743 96.462 11.053 187.854 16.435.859.054 1.718.104 2.584.154 92.978 5.448 182.744-.508 230.194-7.312 23.128-3.314 35.596-7.217 43.038-9.94 7.823-2.857 10.104-4.404 13.391-2.573 5.14 2.865-3.74 12.78-7.453 16.596Z"/>
    <path fill="#6DACA9" d="m134.121 332.653-1.194-.076c8.758-17.452 32.948-40.416 59.14-61.301a122.572 122.572 0 0 1 15.25-2.976c-34.677 25.493-64.721 55.629-73.196 64.353Z"/>
    <path fill="#195654" d="M275.6 223.997c-.194-.27-.389-.538-.577-.801h.003l.574.801Z"/>
    <path fill="#66A4A1" d="M131.739 335.132c.357-.837.753-1.689 1.188-2.555l1.194.076c-1.553 1.599-2.382 2.479-2.382 2.479Z"/>
    <path fill="#3AA39C" d="M192.067 271.276c16.863-13.445 34.556-26.032 49.492-35.728 12.664-8.219 23.963-11.579 33.464-12.352.188.263.383.531.577.801l.016.024c-.057.098-.113.196-.168.295-1.386 2.493-2.066 5.271-2.245 8.108-21.048 6.017-44.36 20.052-65.885 35.876a122.588 122.588 0 0 0-15.251 2.976Z"/>
    <path fill="#84D8CC" d="M216.976 196.488c-54.489 19.992-117.54 67.087-138.007 84.313 3.09-6.674 7.149-13.652 11.305-19.949 65.609-48.672 116.526-65.496 119.405-65.211 1.501.148 4.072.444 7.297.847Z"/>
    <path fill="#41424E" d="M322.82 409.499c-11.098 0-22.326-.143-33.566-.408-79.888-34.082-220.198-51.016-263.268-61.488-2.764-2.956-5.495-5.759-8.175-8.258 1.475 1.083 2.859 1.967 4.07 2.56 8.626 4.228 116.242 23.294 222.755 28.964 7.12.399 14.071.714 20.796.93 28.056 1.008 53.342 1.453 76.207 1.453a1831.333 1831.333 0 0 0 11.268-.037.678.678 0 0 1 .044.008c111.147-.654 162.773-12.092 199.297-19.692-5.601 5.96-24.74 25.18-46.47 34.072-25.219 10.317-91.906 21.896-182.958 21.896Z"/>
    <path fill="#212431" d="M341.639 373.252c-22.865 0-48.151-.445-76.207-1.453 10.056.326 20.714.477 31.779.477 14.8.001 30.34-.271 46.164-.761a878.33 878.33 0 0 0 9.532 1.7l-1.239.008c-3.289.018-6.634.029-10.029.029Zm-97.003-2.383c-106.513-5.67-214.129-24.736-222.756-28.964 8.536 4.183 129.758 23.754 222.756 28.964Z"/>
    <path fill="#57AEA4" d="M401.92 262.801c17.472-8.529 22.064-25.997 22.268-31.737.187.08.385.173.585.279 2.523 1.306 3.4 3.43 3.398 5.757-.006 5.357-4.68 11.791-4.68 11.791l.069.068c-9.321 10.744-21.147 13.725-21.64 13.842Z"/>
    <path fill="#565865" d="M367.061 267.997a77.648 77.648 0 0 1-2.277-.109c-11.323-.672-21.82-3.141-30.708-6.141l-1.237-.423c-14.458-4.868-27.379-9.087-29.412-11.049a9.739 9.739 0 0 1-2.5-3.975c-1.13-3.393-.327-7.045 1.11-9.144 6.135-8.925 37.567-16.145 49.846-18.043 6.862-1.052 14.48-1.713 22.001-1.828.5-.012.993-.012 1.493-.02h.006c17.244-.126 33.67 2.616 38.897 9.92a6.584 6.584 0 0 1 1.084 2.392c3.469 15.146-16.883 39.595-48.303 38.42Z"/>
    <path fill="#528F8C" d="M369.239 268.039c-.72 0-1.444-.014-2.177-.042a77.883 77.883 0 0 1-2.278-.109c-11.322-.672-21.82-3.141-30.708-6.141-7.397-2.498-14.465-4.836-19.972-6.808l-.001-.003c5.199 1.86 11.791 4.049 18.736 6.388l1.237.423c8.888 3 19.386 5.469 30.708 6.141.758.047 1.514.084 2.278.109.733.028 1.457.042 2.177.042 25.58 0 43.372-17.008 46.133-31.2-2.761 14.192-20.553 31.2-46.133 31.2Z"/>
    <path fill="#3F414D" d="M369.239 268.039c-.72 0-1.444-.014-2.177-.042a77.883 77.883 0 0 1-2.278-.109c-11.322-.672-21.82-3.141-30.708-6.141l-1.237-.423c2.916-2.049 5.827-4.363 8.688-6.841 11.047 3.41 21.96 5.526 30.693 5.526 1.172 0 2.3-.038 3.39-.116 22.19-1.589 35.976-21.646 38.67-32.708a6.584 6.584 0 0 1 1.084 2.392c.258 1.127.384 2.304.384 3.52a19.695 19.695 0 0 1-.376 3.742c-2.761 14.192-20.553 31.2-46.133 31.2Z"/>
    <path fill="#ABACB2" d="M349.495 357.084c-13.699 0-27.75-.205-41.972-.655.016-.004.03-.008.046-.01 6.787.21 13.537.366 20.222.47a1356.8 1356.8 0 0 0 22.331.195h-.627Zm-55.584-1.159c-4.819-.205-9.663-.44-14.508-.704 4.852.263 9.689.495 14.514.698a.017.017 0 0 1-.006.006Zm258.337-2.394a84.003 84.003 0 0 0 1.632-1.778l-.576.578c.179-.179.378-.38.595-.603 3.713-3.816 12.593-13.731 7.453-16.596-.768-.427-1.481-.671-2.222-.756.224-.024.444-.036.658-.036.975 0 1.866.247 2.844.792 5.142 2.865-3.739 12.78-7.449 16.596-.918.94-1.527 1.509-1.527 1.509l-1.408.294Zm.124-.294s.132-.122.365-.349c-.23.227-.365.349-.365.349Z"/>
    <path fill="#9FA0A5" d="M327.791 356.889a1316.001 1316.001 0 0 1-.053 0h.053Zm-33.873-.97a1199.54 1199.54 0 0 1-14.515-.698l-.013-.001c4.85.263 9.702.496 14.528.699Z"/>
    <path fill="#868388" d="M327.738 356.889c-6.67-.105-13.398-.26-20.168-.47.036-.01.073-.018.109-.026 6.729.219 13.427.383 20.059.496Zm-33.82-.97a1199.743 1199.743 0 0 1-19.188-.962l-1.002-.058-.298-.096a1184.937 1184.937 0 0 0 20.538 1.069l-.05.047Z"/>
    <path fill="#1E202C" d="M343.375 371.515c-25.828-4.751-50.9-10.558-69.647-16.616l1.002.058c1.556.091 3.106.179 4.66.263l.013.001c4.845.264 9.689.499 14.508.704-.08.074-.157.143-.233.211a10.65 10.65 0 0 1-.739.608s2.237.499 6.056.499a48.3 48.3 0 0 0 6.835-.499 21.181 21.181 0 0 0 1.693-.315c14.223.45 28.273.655 41.972.655h1.281c64.155 0 120.956-4.495 155.431-9.439 23.128-3.314 35.593-7.217 43.039-9.94 4.974-1.817 7.708-3.104 9.884-3.329.741.085 1.454.329 2.222.756 5.14 2.865-3.74 12.78-7.453 16.596a61.884 61.884 0 0 1-1.107 1.107l-.054.053c-.234.227-.366.349-.366.349-33.728 6.996-125.382 15.688-208.997 18.278Z"/>
    <path fill="#2B2C36" d="M352.951 373.223a.828.828 0 0 0-.044-.008c111.726-.74 162.994-12.41 199.465-19.978 0 0 .135-.122.365-.349.15-.145.342-.333.567-.557l.576-.578c-.109.124-.672.756-1.632 1.778-36.524 7.6-88.151 19.038-199.297 19.692Z"/>
    <path fill="#161822" d="M352.907 373.215a878.33 878.33 0 0 1-9.532-1.7c83.615-2.59 175.269-11.282 208.997-18.278-36.47 7.568-87.738 19.238-199.465 19.978Zm199.831-20.327.054-.053a81.522 81.522 0 0 0-.054.053Z"/>
    <path fill="#BBBCC1" d="M373.884 217.285c.5-.02 1-.026 1.499-.026v.006h-.005c-.5.008-.994.008-1.494.02Z"/>
    <path fill="#3F414D" d="M341.527 254.483c-10.827-3.343-21.787-7.931-30.948-12.99 6.377-.866 22.953-3.796 36.128-12.028 7.937-4.961 12.387-8.628 14.904-11.528 4.027-.364 8.164-.589 12.273-.652.5-.012.994-.012 1.494-.02h.005-.005c-6.28 8.079-19.443 24.739-33.851 37.218Z"/>
    <path fill="#2E303A" d="M332.839 261.324c-6.946-2.339-13.538-4.528-18.736-6.388-3.22-9.189-6.191-13.128-6.191-13.128s.973-.085 2.667-.315c9.161 5.059 20.121 9.647 30.948 12.99-2.862 2.478-5.772 4.792-8.688 6.841Z"/>
    <path fill="#332D2D" d="M285.657 174.173c-3.822 7.894-13.65 6.559-13.65 6.559-1.338-.461-5.794-1.173-11.223-1.923-11.512-1.59-27.412-3.366-27.412-3.366 16.863-2.167 34.304-15.87 34.304-15.87 2.36-11.568 8.319-32.061 12.087-44.468 1.617-5.302 2.828-9.132 3.193-10.157-1.32 8.299-1.257 31.753-.852 45.488.211 7.105 1.711 15.819 3.553 23.737Z"/>
    <path fill="#231F1F" d="m276.73 180.547-.518-.11-.01-.002a54.951 54.951 0 0 0-.592-.12c-2.678-.532-7.06-1.278-12.33-2.07 9.642-2.284 17.556-5.466 16.899-8.893-1.167-6.144-1.14-40.672-.416-54.247 1.617-5.302 2.828-9.132 3.193-10.157a39.275 39.275 0 0 0-.245 1.856l-.017.151a94.634 94.634 0 0 0-.36 4.404v.001c-.002.012-.002.025-.003.037-.349 5.672-.483 13.215-.484 20.696a633.87 633.87 0 0 0 .045 7.782c.018 1.457.039 2.884.064 4.262.04 2.246.091 4.368.148 6.299.047 1.635.163 3.351.338 5.125.362 3.706.97 7.654 1.721 11.579.451 2.373.96 4.737 1.495 7.033-2.059 4.251-5.859 5.826-8.928 6.374Z"/>
    <path fill="#323031" d="M364.98 210.44c-.32 3.899-1.603 8.605-18.273 19.025-16.674 10.419-38.795 12.343-38.795 12.343s6.893 9.137 11.06 32.06c4.168 22.924-2.244 55.144-1.283 59.953.963 4.81 3.207 15.87 3.207 15.87s-7.212 5.932-15.066 7.053c-7.858 1.123-12.891 0-12.891 0 .22-.16.463-.365.739-.608 4.097-3.643 14.074-15.903 14.074-15.903-2.244-9.137-30.137-88.005-32.702-95.54-2.135-6.264-3.041-14.196.398-20.377a15.858 15.858 0 0 1 2.649-3.507c3.206-3.206 11.072-8.273 18.536-12.754 6.316-3.796 12.344-7.182 14.998-8.664.48-.275.853-.48 1.096-.615 2.855.251 5.886.443 9.009.513 1.367.039 2.738.051 4.13.039 17.634-.16 33.021-7.856 33.984-10.259.057-.148.092-.366.097-.641 0 0 5.353 18.113 5.033 22.012Z"/>
    <path fill="#FF2812" d="M359.947 188.428c-.006.275-.04.493-.098.641-.66 1.654-8.174 5.828-18.556 8.31-4.68 1.122-9.945 1.904-15.428 1.949-1.392.012-2.762 0-4.129-.039-3.123-.07-6.155-.262-9.009-.513-11.65-1.032-20.312-3.135-20.312-3.135a7.974 7.974 0 0 1-.342-.609c-.71-1.392-1.692-4.008-2.769-7.395a176.306 176.306 0 0 1-2.065-7.096 194.616 194.616 0 0 1-1.582-6.368 170.693 170.693 0 0 1-1.682-8.046 133.016 133.016 0 0 1-1.262-8.131c-.326-2.643-.541-5.188-.609-7.56a615.442 615.442 0 0 1-.212-10.561c-.04-3.59-.052-7.362-.032-11.08.044-8.54.283-16.787.833-21.84.083-.744.167-1.41.263-2.007.251-1.584.552-2.615.909-2.923 1.746-1.494 11.73-5.95 16.61-8.157 1.41-.641 2.39-1.09 2.628-1.23.412-.243.828-.469 1.237-.687a31.712 31.712 0 0 1 4.752-2.046c4.136-1.404 8.252-1.84 12.215-1.622 13.381.737 24.988 8.906 29.522 12.536.276.217.524.424.743.609.84.692 1.288 1.116 1.288 1.116-5.591 2.2-7.008 14.139-6.417 26.385.133 2.874.385 5.764.717 8.554.727 6.104 1.847 11.702 3.071 15.517.316.976.642 2.001.977 3.052a1177.31 1177.31 0 0 1 2.293 7.311c1.54 4.994 3.079 10.15 4.266 14.536.82 3.046 1.481 5.725 1.845 7.72.232 1.212.345 2.173.335 2.809Z"/>
    <path fill="#6B503E" d="M353.502 163.363c-23.192 5.252-56.266 3.686-69.527 2.764a133.778 133.778 0 0 1-1.261-8.131c31.829 4.199 57.985.071 68.494-1.944.736 2.315 1.512 4.797 2.294 7.311Zm6.11 22.256c-11.708 3.508-36.6 8.516-70.308 2.018a176.306 176.306 0 0 1-2.065-7.096c11.652 1.736 40.545 4.706 70.528-2.642.82 3.046 1.481 5.725 1.845 7.72Zm-12.452-48.136c-13.209-1.115-44.211-2.911-65.268 2.392-.04-3.59-.052-7.362-.032-11.08 9.003-1.578 30.215-4.598 64.583.134.133 2.874.385 5.764.717 8.554Z"/>
    <path fill="#FF6529" d="M312.235 121.113c-.322-.296-9.945-9.324-11.76-27.245 1.411-.641 2.391-1.09 2.628-1.23.412-.243.828-.469 1.237-.687.148 2.673.547 6.11 1.49 10.022 2.21 9.202 6.281 18.839 6.405 19.14Z"/>
    <path fill="#FF9388" d="M359.947 188.428Zm-.255-2.381a38 38 0 0 0-.08-.428 39.477 39.477 0 0 0-.2-1.024c.109.521.203 1.006.28 1.452Z"/>
    <path fill="#FF1409" d="m341.294 197.379-.176-7.868c7.862-1.052 14.106-2.578 18.494-3.892a38 38 0 0 1 .08.428c.122.702.202 1.305.236 1.796.015.217.022.413.019.585-.005.275-.04.493-.097.641-.576 1.44-6.33 4.779-14.642 7.259a72.667 72.667 0 0 1-3.914 1.051Zm-.918-39.559c-.178-7.325-.358-14.571-.526-20.875 2.005.127 3.844.26 5.477.388 1.584 8.712 3.411 15.123 4.656 18.95-2.52.466-5.757 1.014-9.607 1.537Z"/>
    <path fill="#4C2A1F" d="m340.559 165.453-.183-7.633c3.85-.523 7.087-1.071 9.607-1.537.888 2.728 1.48 4.142 1.48 4.142s-4.463 2.119-10.904 5.028Z"/>
    <path fill="#FF1409" d="M344.155 128.624a277.864 277.864 0 0 0-4.551-.556 1086.08 1086.08 0 0 0-.113-3.761c-.529-17.056 4.94-23.1 10.295-23.1.6 0 1.198.076 1.786.221a27.872 27.872 0 0 1 1.278 1.107c-.756-.44-1.391-.566-1.918-.566a4.09 4.09 0 0 0-.86.1c-1.25.264-2.68 2.532-3.834 6.138-.768 2.397-1.416 5.385-1.814 8.77a62.022 62.022 0 0 0-.42 7.263c.002 1.428.048 2.892.151 4.384Z"/>
    <path fill="#4C2A1F" d="m341.117 189.511-.044-1.92a67.216 67.216 0 0 0 4.35-1.087c5.372-1.552 9.811-3.281 13.3-4.916.269 1.093.501 2.104.689 3.007.075.358.141.7.2 1.024-4.388 1.314-10.632 2.84-18.495 3.892Zm4.21-52.178a367.374 367.374 0 0 0-5.477-.388c-.087-3.249-.168-6.245-.246-8.877 1.49.169 3.007.355 4.551.556.133 1.943.359 3.931.691 5.941.157.947.318 1.871.481 2.768Z"/>
    <path fill="#FF1409" d="M330.88 102.933c-3.469 0-7.01-.2-10.388-.689.475-1.439.876-2.736 1.2-3.835.302-.98.628-2.16.968-3.47l.076-.302c.472-1.84.967-3.928 1.456-6.081 12.144 1.627 22.432 8.897 26.638 12.263-4.223 1.033-11.886 2.114-19.95 2.114Z"/>
    <path fill="#FF9388" d="m283.876 102.016.01-.008-.01.008Zm.01-.009c2.322-1.948 18.149-8.75 19.217-9.37-.237.142-1.217.59-2.628 1.231-4.861 2.198-14.785 6.628-16.589 8.139Z"/>
    <path fill="#FF1409" d="M282.694 106.955c.082-.744.166-1.41.262-2.007.251-1.584.552-2.615.91-2.923.002-.004.006-.006.01-.009l.01-.008v-.001c1.804-1.511 11.728-5.942 16.589-8.14 1.411-.64 2.391-1.088 2.628-1.23-.237.142-1.217.59-2.628 1.23.291 2.869.781 5.51 1.401 7.922-4.873.234-13.198 1.494-19.182 5.166Zm21.689-14.327Z"/>
    <path fill="#FF3514" d="M304.96 101.8c-.38-.033-.869-.052-1.448-.052-.485 0-1.035.013-1.636.041a53.461 53.461 0 0 1-1.401-7.92c1.411-.642 2.391-1.09 2.628-1.232 0 0 .283 2 .796 4.418.044.25.101.5.16.757.108.488.222.984.345 1.477.027.132.15.699.556 2.511Zm-.98-9.168h-.001.001Zm.026 0Zm-.823-.019h-.038.038Z"/>
    <path fill="url(#b)" d="M306.518 99.459c-1.278 0-2.08-.05-2.08-.05l-.039-.153c-.001 0 0 .01.005.033a61.73 61.73 0 0 1-.345-1.477 15.336 15.336 0 0 1-.16-.757c3.36-1.054 8.975-2.487 14.367-2.487 1.453 0 2.89.104 4.262.348-1.002 1.253-2.528 2.159-4.273 2.819-3.915 1.49-8.953 1.724-11.737 1.724Zm15.174-1.05c.506-1.706.828-2.934.966-3.47h.002c-.34 1.31-.666 2.49-.968 3.47Zm-18.589-5.772.025-.026.018.001.037.001c-.019 0-.036 0-.055-.002l-.025.026Zm23.825-17.588Z"/>
    <path fill="url(#c)" d="M302.587 89.413c-6.791 0-11.844-3.562-15.553-8.22-2.211-4.554-3.558-10.473-3.968-17.8-.186-3.369-.128-6.44.121-9.229.68.132 1.456.225 2.285.225 1.395 0 2.94-.262 4.434-1.045 4.489-2.347 9.832-8.984 7.054-17.422 0 0 3.355 1.968 7.68 1.966 2.734 0 5.855-.785 8.76-3.35 0 0 3.219 7.867 7.496 11.31 1.124.903 2.144 1.236 3.039 1.236 2.507 0 4.016-2.62 4.016-2.62s2.995 36.978-18.276 43.768c-2.551.815-4.908 1.181-7.088 1.181Z"/>
    <path fill="url(#d)" d="M338.805 59.544Zm3.492-5.127.01-.022-.01.022Zm.012-.03Zm.39-1.043Zm.824-2.761.002-.01-.002.01Zm.217-.94c.071-.338.131-.659.18-.964.001-.002.001-.003.003-.003-.051.307-.112.63-.183.967Zm-61.821-1.151-.072-.001c-1.064-.042-2.036-.582-2.855-1.396a8.29 8.29 0 0 0 3.608.842c.413 0 .828-.032 1.241-.1-.713.423-1.373.655-1.922.655Zm.676-1.147c-1.663 0-3.32-.577-4.663-1.578a9.97 9.97 0 0 1-.913-1.818c-.308-3.294 1.884-5.764 3.981-7.34-.147 1.846.687 3.738 2.232 4.827.712.5 1.509.717 2.313.717 1.806 0 3.653-1.09 4.677-2.518.082-.122.16-.244.236-.366a2.817 2.817 0 0 1-.026.126c-1.192 3.057-3.237 5.764-5.172 7.414a6.778 6.778 0 0 1-2.665.536Zm54.646-1.494-.102-.003c-2.218-.088-3.673-1.9-4.625-4.147.248-1.27.642-2.53 1.008-3.798 2.688-.718 4.964-2.674 6.741-4.744a22.422 22.422 0 0 0 2.318-3.244c1.071.589 2.149 1.846 2.251 4.508.04.897 0 1.724-.076 2.474a41.57 41.57 0 0 1-1.52 3.138 3.668 3.668 0 0 0-.848.056c-1.35.25-2.12 1.904-2.556 3.033a8.92 8.92 0 0 0-.466 1.933c-.696.506-1.409.794-2.125.794Zm6.658-1.378Zm-.003-.014a4.39 4.39 0 0 0-.225-.638l.001.002c.081.184.158.394.224.636Zm-3.777-.036c.04-.163.084-.323.129-.479l.205-.083c.191-.184.387-.332.586-.445-.302.37-.608.71-.92 1.007Zm.462-1.467.014-.03c.526-1.377 1.325-2.003 2.212-2.123a23.044 23.044 0 0 1-1.12 1.758 2.922 2.922 0 0 0-1.106.395Zm-55.115-1.464c-2.5 0-3.887-2.528-3.818-4.768.008-.212.032-.424.084-.636 1.526-1.025 2.828-1.55 2.828-1.55-.328-.334-.681-.834-1.033-1.469 1.069-1.04 2.453-1.778 3.768-1.778.742 0 1.464.236 2.092.785.301.261.553.62.757 1.019.56 1.641.63 3.449.134 4.989-.647 2.012-2.577 3.308-4.647 3.404a3.558 3.558 0 0 1-.165.004Zm46.664-.79a22.403 22.403 0 0 1-.693-2.494c.34-.013.679-.041 1.014-.087.121-.018.245-.037.36-.064a47.205 47.205 0 0 0-.681 2.644Zm-7.793-2.926c-1.064 0-2.221-.39-3.441-1.392-5.56-4.565 0-12.107 0-12.107a25.947 25.947 0 0 1-2.004 1.506c1.819-1.315 3.472-2.906 4.935-4.595-1.224 1.872-2.418 3.737-2.752 6.09-.435 3.073.75 6.143 2.969 8.26a9.247 9.247 0 0 0 2.483 1.689c-.671.337-1.404.55-2.19.55Zm6.975-.168a34.11 34.11 0 0 1-.364-2.259c.648.34 1.343.532 2.074.532 1.064 0 2.205-.408 3.392-1.37 2.162-1.75 4.507-7.668 1.629-9.77-.595-.434-1.27-.606-1.966-.606-1.406 0-2.904.704-4.01 1.386-1.931 1.194-3.841 3.848-3.751 6.298a14.14 14.14 0 0 1-.486-.898c-1.554-3.117-1.611-6.867-.764-10.182.801-3.148 2.679-6.04 5.462-7.752.336-.046.685-.07 1.045-.07 1.883 0 4.095.663 6.56 2.596 7.907 6.2.211 13.895.211 13.895s.077-.008.212-.008c.275 0 .791.032 1.372.225a23.849 23.849 0 0 1-2.205 3.18c-1.662 2.034-3.816 3.694-6.329 4.431a.357.357 0 0 0-.123-.021.271.271 0 0 0-.223.105c-.244.064-.481.13-.731.173a7.75 7.75 0 0 1-1.005.115Zm-4.089-.788a10.168 10.168 0 0 1-3.518-2.559c-2.09-2.366-2.481-5.757-1.609-8.7.899-3.046 3.456-5.316 4.662-8.234l.013-.186a16.8 16.8 0 0 0 .909-1.821c.66-.596 1.719-1.397 3.104-1.899-3.847 3.106-5.295 8.631-4.789 13.376.276 2.603 1.644 5.822 3.669 7.646-.599.785-1.429 1.704-2.441 2.377Zm5.524-1.493c-.679-.004-1.303-.227-1.87-.586-.125-1.154-.152-1.916-.152-1.916s-.265.506-.75 1.194a8.466 8.466 0 0 1-.884-1.02l.025-.238c-1.073-3.45 3.121-8.006 6.765-8.006.446 0 .883.068 1.302.214 2.656.938 1.136 5.548.269 7.196-.929 1.762-2.648 3.162-4.705 3.162Zm-41.963-2.406c-1.072-2.894-3.584-5.313-6.595-5.313-.21 0-.422.012-.638.036a8.503 8.503 0 0 0-1.793.41c-.924-4.546-.533-10.438 3.962-14.843-.161 1.141-.148 2.314-.109 3.495.104 3.052.858 6.091 2.829 8.482 1.679 2.059 4.232 3.15 6.751 3.759 3.013.724 6.175.77 9.253.781l.186.001c3.086 0 6.118-.25 9.005-1.212-3.594 1.371-7.228 1.852-10.56 1.852-7.852 0-14.027-2.674-14.027-2.674a10 10 0 0 1 1.682 2.722.322.322 0 0 0-.175.343c.096.68.178 1.405.229 2.161Zm-7.552-.417c-.506-1.039-.98-2.347-1.335-3.815a6.556 6.556 0 0 1 2.228-.406c.524 0 1.055.07 1.59.221 1.51.423 2.711 1.455 3.545 2.756a3.568 3.568 0 0 0-2.005-.59c-1.46 0-2.897.786-4.023 1.834Zm21.695-3.352c-1.156 0-2.312-.043-3.452-.104 2.398-.11 4.77-.961 6.809-2.175 5.404-3.21 8.645-9.905 6.277-15.977a11.488 11.488 0 0 0-2.456-3.81c4.951 1.123 7.015 3.527 7.291 3.925-.084-.384-2.493-10.944 1.072-10.944 3.071 0 3.546 5.981 3.623 8.233-.017.51.002.844.009.844a.164.164 0 0 0 .003-.044c0-.096 0-.385-.012-.8.043-1.665.418-5.187 2.645-5.187.047 0 .095.003.144.006 2.615.172.961 8.745.261 11.893-.876 2.2-2.436 4.22-3.969 5.97-3.071 3.514-7.053 6.4-11.629 7.497-2.126.51-4.371.673-6.616.673Zm-5.895-.27c-2.878-.243-5.791-.834-8.227-2.43-3.109-2.04-4.264-5.681-4.534-9.208-.12-1.559-.148-3.2.212-4.732 1.931-1.655 4.514-3.065 7.912-4.052 4.878-1.419 8.898-1.948 12.18-1.948 1.589 0 3.004.124 4.261.332.7.615 1.327 1.308 1.884 2.05 6.375 8.54-2.687 19.43-11.917 19.431a11.03 11.03 0 0 1-4.06-.758 7.335 7.335 0 0 1-1.508-.788c.638.214 1.257.372 1.905.372a3.92 3.92 0 0 0 1.29-.219c1.57-.539 2.749-1.988 3.545-3.372 1.462-2.545 1.622-6.181-.675-8.285-.636-.586-1.344-.826-2.061-.826-1.576 0-3.196 1.156-4.195 2.346-1.752 2.085-3.001 4.918-2.385 7.674.616 2.76 3.917 3.958 6.373 4.412Zm-1.895-2.398c-.885 0-1.764-.335-2.748-.693l-.223.006c-.924-1.14-1.231-2.622-.829-4.417.531-2.341 2.142-4.675 4.239-5.867.493-.282.985-.41 1.459-.41 1.09 0 2.075.682 2.709 1.712.86 1.39.776 3.18.384 4.693-.436 1.699-1.526 3.308-2.968 4.303-.709.49-1.368.673-2.023.673Z"/>
    <path fill="url(#e)" d="M303.98 92.632h-.001c-.264 0-.531-.007-.796-.019-.019 0-.036 0-.055-.002a16.631 16.631 0 0 1-2.749-.365c-5.881-1.288-10.389-4.943-13.345-11.054 3.709 4.659 8.762 8.222 15.553 8.222 2.18 0 4.537-.367 7.088-1.182 21.271-6.79 18.276-43.768 18.276-43.768s-1.509 2.62-4.016 2.62c-.895 0-1.915-.333-3.039-1.236-4.277-3.442-7.496-11.31-7.496-11.31-2.905 2.565-6.026 3.35-8.76 3.35-4.325.002-7.68-1.966-7.68-1.966 2.778 8.438-2.565 15.076-7.054 17.422-1.494.783-3.039 1.045-4.434 1.045-.829 0-1.605-.093-2.285-.225.059-.717.136-1.41.219-2.09.262.052.522.077.78.077h.02c5.976-.027 10.505-13.544 10.506-17.628 0-.356-.034-.64-.105-.838 0 0 3.568 1.098 8.077 1.1h.035c4.159-.005 9.108-.94 12.804-4.525 0 0-.64 1.063-.637 2.652.001 1.828.854 4.354 4.516 6.755l.213.139c2.936 1.886 5.108 2.418 6.621 2.422h.026c1.836-.001 2.692-.784 2.756-.844a.018.018 0 0 1 .004-.004s3.56 4.523 3.553 13.456c-.003 2.223-.225 4.719-.779 7.486 0 0 .054.002.152.002h.003c.041 0 .091 0 .148-.002.848-.022 3.344-.251 5.843-2.078l.001-.001c.057-.041.115-.084.172-.128l.003-.003a7.24 7.24 0 0 0 .17-.132l.003-.002c.06-.047.119-.095.179-.145.054-.045.109-.09.164-.138l.172-.15c-.371 5.135-1.038 9.143-4.36 11.49-1.288.912-2.703 1.153-3.835 1.153-1.265 0-2.179-.3-2.179-.3a53.148 53.148 0 0 1-1.504 3.161l-.024.046-.033.065-.056.108c-5.848 11.181-14.427 17.352-22.809 17.364h-.026Zm31.664-29.801s-4.569 1.816-5.929 6.198c0 0 .641 1.083 1.737 1.083.274 0 .578-.068.906-.238 2.464-1.272.321-3.458.321-3.458l2.965-3.585Z"/>
    <path fill="#333132" d="M371.418 157.163v.006c-.012 3.859-.366 7.13-.827 9.803v.007c-.872 5.014-2.149 7.892-2.404 8.464-.641 1.442-8.337 6.893-22.764 11.061-14.427 4.167-39.915 4.783-39.915 4.783a19.677 19.677 0 0 0-.737-2.828c-1.476-4.231-3.925-6.084-4.919-6.687-.274-.167-.436-.237-.436-.237 14.428-3.258 52.047-21.11 52.047-21.11s-3.848-9.188-6.617-25.86a63.591 63.591 0 0 1-.422-17.588c.398-3.385 1.046-6.373 1.814-8.77 1.154-3.606 2.584-5.874 3.834-6.138 2.091-.436 7.052-.686 16.511 27.527 3.725 11.112 4.861 20.359 4.835 27.567Z"/>
    <path fill="#CDC0BC" d="M340.652 57.457Zm.566-.876c.386-.646.75-1.364 1.08-2.164a16.16 16.16 0 0 1-1.076 2.164h-.004Zm1.089-2.186c.001-.003.001-.006.003-.008-.002.002-.002.005-.003.008Zm-58.901-2.322c-1.142-.229-2.328-.961-3.546-2.358-1.062-1.219-1.788-2.372-2.242-3.452l.01.008c.448 1.077 1.174 2.225 2.232 3.444 1.218 1.397 2.404 2.13 3.546 2.358Zm60.112-1.472.005-.018-.005.018Zm.008-.029Zm.545-3.076c.119-1.336.019-2.312-.172-3.023.192.711.292 1.688.172 3.023Zm-66.821-2.303c-.002 0-.003-.002-.006-.004a7.125 7.125 0 0 1-.225-1.24c.037.404.109.815.231 1.244Zm66.646-.732v-.002.002Zm-1.153-1.857c.141-.18.564-.77.987-1.757l.008.001c-.434.992-.859 1.58-.995 1.756Zm1.268-2.441c-.003-.002-.004-.002-.007-.002.323-.866.604-1.957.752-3.264a13.889 13.889 0 0 1-.745 3.266Z"/>
    <path fill="url(#f)" d="M331.951 62.324h-.003c-.098 0-.152-.003-.152-.003.554-2.766.776-5.262.779-7.485.007-8.933-3.553-13.456-3.553-13.456s-.85.845-2.76.848h-.008c-.06 0-.122 0-.184-.003-1.504-.04-3.626-.602-6.455-2.42l-.213-.138c-3.662-2.402-4.515-4.927-4.516-6.755-.003-1.59.637-2.652.637-2.652-3.696 3.583-8.647 4.52-12.804 4.524h-.035c-4.438-.003-7.965-1.065-8.074-1.099h-.003c.071.198.105.482.105.838-.001 4.084-4.53 17.598-10.506 17.628h-.02c-.258 0-.518-.026-.78-.078-1.142-.229-2.328-.96-3.546-2.358-1.058-1.219-1.784-2.367-2.232-3.444.431.317.887.592 1.364.824.819.814 1.791 1.354 2.855 1.396l.072.001c.549 0 1.209-.232 1.923-.655a7.743 7.743 0 0 0 3.644-1.649c4.23-3.437 4.408-10.657 3.698-15.57a.271.271 0 0 0-.281-.245.361.361 0 0 0-.173.044 10 10 0 0 0-1.682-2.722s6.175 2.674 14.027 2.674c3.332 0 6.967-.48 10.56-1.852a18.357 18.357 0 0 0 2.433-1.008 20.852 20.852 0 0 0 2.824-1.726c.676-.459 1.347-.96 2.004-1.506 0 0-5.56 7.542 0 12.107 1.22 1.001 2.378 1.392 3.442 1.392.785 0 1.518-.212 2.189-.55a10.695 10.695 0 0 0 4.911.982c.181.824.408 1.675.692 2.493-.528 2.435-.654 4.747.341 7.411 1.019 2.725 2.435 5.483 4.609 7.47 1.239 1.134 2.508 1.622 3.734 1.64a12.248 12.248 0 0 1-2.008 2.321c-.011.012-.023.021-.035.032a3.999 3.999 0 0 1-.137.12c-.055.048-.11.093-.164.138-.06.05-.119.098-.179.144l-.003.003a7.24 7.24 0 0 1-.17.132l-.003.003a7.352 7.352 0 0 1-.172.128l-.001.001c-2.499 1.827-4.995 2.056-5.843 2.077-.057.003-.107.003-.148.003Zm8.908-5.72c-2.371.001-4.209-2.152-5.415-3.953-1.256-1.866-2.204-4.026-2.838-6.174-.478-1.632-.398-3.212-.092-4.776.952 2.247 2.408 4.06 4.625 4.147l.103.003c.716 0 1.428-.288 2.124-.794-.251 1.904.02 4.17 2.004 4.427a3.16 3.16 0 0 0 2.55-.805c-.049.305-.109.626-.18.964a30.63 30.63 0 0 1-.217.94l-.005.018a35.341 35.341 0 0 1-.819 2.743c-.124.361-.253.71-.389 1.043-.002.002-.002.005-.003.008-.003.006-.007.014-.009.022-.33.8-.694 1.518-1.08 2.164l-.206.02c-.05.003-.102.003-.153.003Zm1.117-7.741c-.872 0-1.669-.607-1.957-1.675-.231-.852-.125-1.841.1-2.765.312-.298.619-.636.92-1.007a2.089 2.089 0 0 1 1.036-.287c.555 0 1.101.24 1.591.687l.005.005c.083.184.159.395.225.638v.002a.027.027 0 0 1 .003.012c.191.711.291 1.687.172 3.023a3.54 3.54 0 0 1-.488.63c-.493.503-1.064.737-1.607.737Zm-56.716-2.054c1.935-1.65 3.98-4.357 5.172-7.414-.614 2.984-1.972 5.685-4.572 7.121a6.805 6.805 0 0 1-.6.293Zm-7.328-1.042a8.035 8.035 0 0 1-.682-.574 6.77 6.77 0 0 1-.231-1.244 9.97 9.97 0 0 0 .913 1.818Zm64.811-3.163a2.916 2.916 0 0 0-1.056-.043c.384-.54.757-1.133 1.12-1.758.108-.015.216-.022.327-.022.196 0 .396.023.596.066-.423.986-.846 1.577-.987 1.757Zm1.261-2.443a3.6 3.6 0 0 0-.768-.126 41.57 41.57 0 0 0 1.52-3.138c-.148 1.307-.429 2.398-.752 3.264Zm-13.097-2.542c-1.261 0-2.52-.29-3.684-.799 1.012-.673 1.843-1.592 2.441-2.377.404.362.834.67 1.284.906a34.1 34.1 0 0 0 .364 2.26 9.16 9.16 0 0 1-.405.01Zm-.029-2.878a5.684 5.684 0 0 1-.903-.722c.485-.688.751-1.194.751-1.194s.026.762.152 1.916Z"/>
  </g>
  <defs>
    <linearGradient id="b" x1="306.319" x2="312.571" y1="112.417" y2="95.103" gradientUnits="userSpaceOnUse">
      <stop stop-color="#F7C79B"/>
      <stop offset="1" stop-color="#F7A37B"/>
    </linearGradient>
    <linearGradient id="c" x1="282.8" x2="326.367" y1="44.332" y2="75.245" gradientUnits="userSpaceOnUse">
      <stop stop-color="#F7C79B"/>
      <stop offset="1" stop-color="#F7A37B"/>
    </linearGradient>
    <linearGradient id="d" x1="339.116" x2="272.538" y1="50.573" y2="5.796" gradientUnits="userSpaceOnUse">
      <stop stop-color="#5A3020"/>
      <stop offset=".995" stop-color="#653217"/>
      <stop offset="1" stop-color="#653217"/>
    </linearGradient>
    <linearGradient id="e" x1="282.8" x2="326.367" y1="44.332" y2="75.246" gradientUnits="userSpaceOnUse">
      <stop stop-color="#F3B387"/>
      <stop offset="1" stop-color="#F3936B"/>
    </linearGradient>
    <linearGradient id="f" x1="339.116" x2="272.538" y1="50.573" y2="5.796" gradientUnits="userSpaceOnUse">
      <stop stop-color="#482418"/>
      <stop offset=".995" stop-color="#512611"/>
      <stop offset="1" stop-color="#512611"/>
    </linearGradient>
    <clipPath id="a">
      <path fill="#fff" d="M0 0h565v418H0z"/>
    </clipPath>
  </defs>
</svg>
